<svg clip-rule="evenodd" fill-rule="evenodd" height="128.5mm" image-rendering="optimizeQuality" shape-rendering="geometricPrecision" text-rendering="geometricPrecision" viewBox="0 0 3048 12850" width="30.48mm" xmlns="http://www.w3.org/2000/svg"><g fill-rule="nonzero"><g fill="#333"><path d="m435.56 470.51c4.47 29.28 15.86 59.92 34.04 91.79 18.17 31.86 37.97 65.89 59.53 102.22 21.43 36.47 49.77 85.96 84.76 148.46 34.99 62.64 60.76 109.82 77.16 141.68 16.42 32 29.03 51.39 37.57 58.3 8.68 6.92 13.56 13.56 14.64 19.93h-117.98c-1.49-7.45 2.85-12.88 13.16-15.99 10.17-3.26 15.32-8.55 15.32-16.14-11.93-30.78-24.54-59.65-37.7-86.5-13.02-26.84-27.12-53.96-42.04-81.35-15.05-27.52-33.37-59.79-55.06-96.94h-219.16c-14.64 28.2-29.69 57.08-45.02 86.77-15.32 29.7-29.28 58.17-41.9 85.69-12.48 27.39-21.83 48.81-27.8 64.4s-8.95 24.54-8.95 26.85c0 5.28 3.79 10.3 11.39 15.18s11.39 8.41 11.39 10.71c0 2.58-1.9 5.02-5.69 7.32h-40.41-8.41-7.33-6.78c-7.59 0-15.05-.13-22.51-.54-7.45-.41-14.79-1.08-21.97-2.3 34.04-28.07 64.42-62.23 91.26-102.37 26.72-39.99 58.32-96.53 94.8-169.2 36.62-72.67 61.84-122.84 75.81-150.09 14.1-27.38 28.2-53.14 42.45-77.14 14.24-24 29.42-44.2 45.43-60.74zm-28.75 87.85c-11.66 13.15-25.23 32.14-40.96 57.22-15.73 24.94-28.07 45.69-37.02 62.23-9.09 16.4-16.27 29.83-21.97 40.27h200.44c-11.67-24.68-24.82-49.08-39.6-73.08-14.79-24.13-32.41-51.79-53.03-83.25z"/><path d="m783.4 476.34c9.37-1.49 22.79-2.71 40.41-3.93 17.64-1.09 40.55-1.63 69.03-1.63-.81 3.39-6.1 5.83-16.27 7.32-10.04 1.49-15.05 5.97-15.05 13.42 0 52.07.13 104.26.27 156.33.13 52.06.4 110.63.81 175.84.41 65.22.54 111.72.54 139.38 0 13.56 1.63 24.4 4.76 32.67 3.12 8.14 10.3 13.83 21.55 16.82 5.56.67 11.39-.82 17.63-4.61 6.11-3.94 12.08-7.73 17.64-11.66.67 1.08 1.08 2.98 1.08 5.69 0 5.7-3.39 10.71-10.3 14.92-6.92 4.2-13.17 7.86-18.45 11.11-5.43 3.26-12.61 4.88-21.56 4.88-4.47 0-8.82-.4-12.89-1.08-4.07-.81-9.9-2.31-17.35-4.48l-8.95-11.25-16.28-413.79-4.48-109.55c-1.49-6.37-5.69-10.3-12.47-11.79-6.64-1.49-13.29-3.12-19.67-4.61z"/><path d="m1017.34 818.68c9.76-6.38 20.21-9.49 31.46-9.49 11.94 0 23.61 2.84 34.99 8.4 11.39 5.7 24.95 13.83 40.69 24.68-11.93 13.96-35.26 35.52-69.98 64.94-34.58 29.42-55.46 47.86-62.65 55.32 7.86 11.93 17.49 21.83 28.74 29.42 11.13 7.73 21.16 12.06 29.98 13.29 8.81 1.08 15.45 1.62 20.07 1.62 10.04 0 18.58-1.35 25.49-4.2 6.92-2.71 23.06-11.93 48.14-27.52-7.86 10.03-14.64 18.03-20.2 23.86-5.69 5.83-11.66 9.62-18.04 11.79-6.37 2.04-17.63 6.24-33.9 12.61-16.28 6.38-28.48 9.49-36.75 9.49-5.29 0-9.09-.27-11.53-.81s-9.63-3.66-21.56-9.08c-12.07-5.43-24.41-16.68-37.29-33.63-13.02-17.08-19.94-31.18-21.16-42.43-1.09-11.26-1.63-19.12-1.63-23.6 0-21.82 6.52-40.67 19.4-56.53 12.88-16 31.46-32 55.73-48.13zm34.31 19.79c-7.46-4.88-16-7.32-25.36-7.32-16.54 0-30.1 6.78-40.69 20.47-10.44 13.7-15.72 29.29-15.72 46.91 0 17.22 5.28 34.03 15.86 50.58 16.14-10.17 34.72-25.22 55.74-45.29 21.02-19.93 35.13-32.81 42.31-38.37-3.39-5.29-7.32-9.62-11.79-13.28-4.62-3.53-11.26-8.14-20.35-13.7z"/><path d="m1279.35 810.41c5.56-1.9 11.8-2.85 18.44-2.85 7.19 0 14.1 1.63 21.03 4.74 6.91 3.12 18.44 12.07 34.58 26.85 16 14.64 26.57 44.33 31.72 89.08 5.02 44.6 9.23 73.34 12.62 85.95l18.98 9.63c-4.06 2.58-10.16 4.34-18.16 5.56-8.01 1.08-16.15 1.63-24.42 1.63-4.88 0-9.76 0-14.64 0s-9.5-.28-13.97-.55c6.77 0 11.53-2.3 14.24-6.78 2.85-4.47 4.2-10.16 4.2-17.21 0-4.89-.27-10.04-.94-15.46-.68-5.42-1.22-10.58-1.5-15.32-1.49-3.66-3.93-5.42-7.32-5.42-3.8 0-7.74 1.62-11.8 5.01-15.32 16.27-33.09 30.1-53.43 41.76-20.21 11.66-39.33 17.49-57.23 17.49-10.58 0-21.02-2.58-31.46-7.86-10.59-5.16-18.72-11.53-24.55-19.12-5.83-7.46-8.68-16.95-8.68-28.61 0-11.11 3.12-21.15 9.49-29.96 6.38-8.81 15.74-16.54 27.81-23.18 12.2-6.78 26.16-12.34 42.17-16.55 15.86-4.33 32.01-6.5 48.41-6.5 8.68 0 16.54.54 23.61 1.62 7.18.95 14.64 2.85 22.5 5.7 3.39-3.39 5.02-7.46 5.02-12.34 0-2.98-1.09-6.78-3.39-11.25-2.17-4.48-6.51-13.97-12.88-28.61-6.37-14.51-23.06-21.83-49.91-21.83-12.34 0-22.92 2.58-31.73 7.86-8.81 5.29-20.35 13.83-34.58 25.49 6.1-13.83 14.5-25.89 25.36-35.92 10.85-10.17 24.27-17.9 40.41-23.05zm46.92 106.16c-11.25-4.89-23.6-7.33-37.02-7.33-17.22 0-33.36 3.67-48.55 11.12-15.06 7.46-25.23 15.59-30.24 24.27-5.02 8.81-7.59 15.59-7.59 20.47 0 5.97 1.49 11.39 4.47 16.41s8.68 11.79 17.08 20.06c8.42 8.41 18.86 12.61 31.2 12.61 3.66 0 11.25-1.35 22.65-3.93 11.39-2.57 26.44-11.12 44.88-25.62 18.58-14.51 27.8-28.75 27.8-42.44 0-2.58-.68-5.83-1.9-9.49-1.36-3.8-3.8-6.78-7.32-8.95-3.53-2.17-8.68-4.61-15.46-7.18z"/><path d="m1513.96 818.68c9.77-6.38 20.21-9.49 31.46-9.49 11.95 0 23.61 2.84 34.99 8.4 11.39 5.7 24.96 13.83 40.69 24.68-11.93 13.96-35.26 35.52-69.98 64.94-34.57 29.42-55.46 47.86-62.65 55.32 7.86 11.93 17.49 21.83 28.75 29.42 11.12 7.73 21.15 12.06 29.97 13.29 8.82 1.08 15.46 1.62 20.07 1.62 10.04 0 18.58-1.35 25.49-4.2 6.93-2.71 23.06-11.93 48.15-27.52-7.87 10.03-14.65 18.03-20.21 23.86-5.69 5.83-11.66 9.62-18.03 11.79-6.37 2.04-17.64 6.24-33.91 12.61-16.28 6.38-28.48 9.49-36.75 9.49-5.29 0-9.08-.27-11.52-.81s-9.64-3.66-21.57-9.08c-12.07-5.43-24.4-16.68-37.29-33.63-13.02-17.08-19.93-31.18-21.15-42.43-1.09-11.26-1.63-19.12-1.63-23.6 0-21.82 6.51-40.67 19.39-56.53 12.88-16 31.46-32 55.73-48.13zm34.31 19.79c-7.46-4.88-16-7.32-25.35-7.32-16.55 0-30.11 6.78-40.69 20.47-10.45 13.7-15.73 29.29-15.73 46.91 0 17.22 5.28 34.03 15.87 50.58 16.13-10.17 34.72-25.22 55.73-45.29 21.03-19.93 35.13-32.81 42.31-38.37-3.39-5.29-7.32-9.62-11.79-13.28-4.61-3.53-11.25-8.14-20.35-13.7z"/></g><g fill="#7700a6"><path d="m435.56 461.93c4.47 29.28 15.86 59.92 34.04 91.79 18.17 31.86 37.97 65.89 59.53 102.22 21.43 36.47 49.78 85.96 84.76 148.46 34.99 62.64 60.76 109.82 77.16 141.68 16.42 32 29.03 51.39 37.57 58.3 8.69 6.92 13.57 13.56 14.65 19.93h-117.98c-1.49-7.45 2.84-12.88 13.15-15.99 10.17-3.26 15.32-8.55 15.32-16.14-11.93-30.78-24.54-59.65-37.69-86.5-13.03-26.84-27.13-53.96-42.04-81.35-15.06-27.52-33.37-59.79-55.07-96.94h-219.15c-14.65 28.2-29.7 57.08-45.02 86.77-15.33 29.7-29.29 58.17-41.9 85.69-12.49 27.39-21.84 48.81-27.81 64.4-5.96 15.59-8.94 24.54-8.94 26.85 0 5.28 3.79 10.3 11.38 15.18 7.6 4.88 11.39 8.41 11.39 10.71 0 2.58-1.9 5.02-5.69 7.32h-40.41-8.41-7.32-6.78c-7.6 0-15.06-.13-22.52-.54-7.45-.41-14.78-1.08-21.97-2.3 34.04-28.07 64.42-62.23 91.27-102.37 26.71-39.99 58.31-96.53 94.79-169.2 36.62-72.67 61.85-122.84 75.81-150.09 14.1-27.38 28.21-53.14 42.45-77.14s29.43-44.2 45.43-60.74zm-28.75 87.85c-11.66 13.15-25.22 32.14-40.96 57.22-15.73 24.94-28.06 45.69-37.02 62.23-9.09 16.4-16.27 29.83-21.97 40.27h200.44c-11.66-24.68-24.82-49.08-39.6-73.08-14.78-24.13-32.41-51.79-53.02-83.25z"/><path d="m783.41 467.76c9.36-1.49 22.78-2.71 40.41-3.93 17.63-1.09 40.55-1.63 69.02-1.63-.81 3.39-6.1 5.83-16.27 7.32-10.03 1.49-15.04 5.97-15.04 13.42 0 52.07.13 104.26.27 156.33.13 52.06.4 110.63.81 175.84.41 65.22.54 111.72.54 139.38 0 13.56 1.63 24.4 4.75 32.67 3.12 8.14 10.3 13.83 21.55 16.82 5.56.67 11.4-.82 17.64-4.61 6.1-3.94 12.07-7.73 17.63-11.66.67 1.08 1.08 2.98 1.08 5.69 0 5.7-3.39 10.71-10.3 14.92-6.92 4.2-13.16 7.86-18.44 11.11-5.44 3.26-12.62 4.88-21.57 4.88-4.47 0-8.81-.4-12.88-1.08-4.07-.81-9.91-2.31-17.36-4.48l-8.95-11.25-16.27-413.79-4.49-109.55c-1.49-6.37-5.69-10.3-12.47-11.79-6.64-1.49-13.29-3.12-19.66-4.61z"/><path d="m1017.34 810.1c9.77-6.38 20.21-9.49 31.46-9.49 11.95 0 23.61 2.84 34.99 8.4 11.39 5.7 24.96 13.83 40.69 24.68-11.93 13.96-35.26 35.52-69.98 64.94-34.57 29.42-55.46 47.86-62.65 55.32 7.86 11.93 17.49 21.83 28.75 29.42 11.12 7.73 21.15 12.06 29.97 13.29 8.82 1.08 15.46 1.62 20.07 1.62 10.04 0 18.58-1.35 25.49-4.2 6.93-2.71 23.06-11.93 48.15-27.52-7.87 10.03-14.65 18.03-20.21 23.86-5.69 5.83-11.66 9.62-18.03 11.79-6.37 2.04-17.64 6.24-33.91 12.61-16.28 6.38-28.48 9.49-36.75 9.49-5.29 0-9.08-.27-11.52-.81s-9.64-3.66-21.57-9.08c-12.07-5.43-24.4-16.68-37.29-33.63-13.02-17.08-19.93-31.18-21.15-42.43-1.09-11.26-1.63-19.12-1.63-23.6 0-21.82 6.51-40.67 19.39-56.53 12.88-16 31.46-32 55.73-48.13zm34.31 19.79c-7.46-4.88-16-7.32-25.35-7.32-16.55 0-30.11 6.78-40.69 20.47-10.45 13.7-15.73 29.29-15.73 46.91 0 17.22 5.28 34.03 15.87 50.58 16.13-10.17 34.72-25.22 55.73-45.29 21.03-19.93 35.13-32.81 42.31-38.37-3.39-5.29-7.32-9.62-11.79-13.28-4.61-3.53-11.25-8.14-20.35-13.7z"/><path d="m1279.35 801.83c5.56-1.9 11.8-2.85 18.44-2.85 7.2 0 14.11 1.63 21.03 4.74 6.91 3.12 18.44 12.07 34.58 26.85 16 14.64 26.57 44.33 31.73 89.08 5.02 44.6 9.22 73.34 12.61 85.95l18.98 9.63c-4.06 2.58-10.16 4.34-18.16 5.56-8 1.08-16.14 1.63-24.42 1.63-4.88 0-9.76 0-14.64 0s-9.49-.28-13.96-.55c6.77 0 11.52-2.3 14.23-6.78 2.85-4.47 4.2-10.16 4.2-17.21 0-4.89-.27-10.04-.94-15.46-.68-5.42-1.22-10.58-1.5-15.32-1.49-3.66-3.93-5.42-7.32-5.42-3.79 0-7.73 1.62-11.79 5.01-15.33 16.27-33.09 30.1-53.44 41.76-20.2 11.66-39.33 17.49-57.23 17.49-10.57 0-21.02-2.58-31.46-7.86-10.58-5.16-18.71-11.53-24.55-19.12-5.83-7.46-8.68-16.95-8.68-28.61 0-11.11 3.12-21.15 9.49-29.96 6.39-8.81 15.74-16.54 27.81-23.18 12.2-6.78 26.17-12.34 42.17-16.55 15.87-4.33 32.01-6.5 48.41-6.5 8.69 0 16.55.54 23.61 1.62 7.18.95 14.64 2.85 22.5 5.7 3.4-3.39 5.03-7.46 5.03-12.34 0-2.98-1.09-6.78-3.39-11.25-2.18-4.48-6.52-13.97-12.89-28.61-6.37-14.51-23.05-21.83-49.91-21.83-12.33 0-22.92 2.58-31.73 7.86-8.81 5.29-20.34 13.83-34.58 25.49 6.1-13.83 14.51-25.89 25.36-35.92 10.85-10.17 24.28-17.9 40.41-23.05zm46.92 106.16c-11.25-4.89-23.59-7.33-37.02-7.33-17.22 0-33.36 3.67-48.55 11.12-15.05 7.46-25.23 15.59-30.24 24.27-5.02 8.81-7.59 15.59-7.59 20.47 0 5.97 1.49 11.39 4.47 16.41s8.68 11.79 17.09 20.06c8.41 8.41 18.85 12.61 31.19 12.61 3.66 0 11.26-1.35 22.65-3.93 11.39-2.57 26.45-11.12 44.88-25.62 18.59-14.51 27.81-28.75 27.81-42.44 0-2.58-.68-5.83-1.9-9.49-1.36-3.8-3.8-6.78-7.32-8.95-3.54-2.17-8.69-4.61-15.47-7.18z"/><path d="m1513.97 810.1c9.76-6.38 20.2-9.49 31.46-9.49 11.94 0 23.6 2.84 34.98 8.4 11.4 5.7 24.96 13.83 40.69 24.68-11.93 13.96-35.25 35.52-69.97 64.94-34.58 29.42-55.47 47.86-62.66 55.32 7.86 11.93 17.5 21.83 28.75 29.42 11.12 7.73 21.15 12.06 29.98 13.29 8.81 1.08 15.45 1.62 20.06 1.62 10.04 0 18.59-1.35 25.5-4.2 6.92-2.71 23.05-11.93 48.14-27.52-7.86 10.03-14.64 18.03-20.21 23.86-5.69 5.83-11.66 9.62-18.03 11.79-6.37 2.04-17.63 6.24-33.91 12.61-16.27 6.38-28.48 9.49-36.75 9.49-5.29 0-9.08-.27-11.52-.81s-9.63-3.66-21.57-9.08c-12.07-5.43-24.4-16.68-37.29-33.63-13.02-17.08-19.93-31.18-21.15-42.43-1.09-11.26-1.63-19.12-1.63-23.6 0-21.82 6.51-40.67 19.39-56.53 12.89-16 31.46-32 55.74-48.13zm34.31 19.79c-7.47-4.88-16.01-7.32-25.36-7.32-16.54 0-30.11 6.78-40.69 20.47-10.44 13.7-15.72 29.29-15.72 46.91 0 17.22 5.28 34.03 15.86 50.58 16.13-10.17 34.72-25.22 55.73-45.29 21.03-19.93 35.13-32.81 42.31-38.37-3.39-5.29-7.32-9.62-11.79-13.28-4.61-3.53-11.25-8.14-20.34-13.7z"/></g></g></svg>