<svg clip-rule="evenodd" fill-rule="evenodd" height="128.5mm" image-rendering="optimizeQuality" shape-rendering="geometricPrecision" text-rendering="geometricPrecision" viewBox="0 0 4572 12850" width="45.72mm" xmlns="http://www.w3.org/2000/svg"><path d="m2594.09 8971.37-43.97 5.5c-65.95 0-109.91-16.49-148.38-43.97-16.49-10.99-38.48-27.48-54.96-38.47-98.93-76.94 98.92-21.98 142.89-5.49 27.48 16.48 32.98 21.98 54.96 38.47 32.97 21.98 49.46 16.48 49.46 43.96zm137.4 5.5c-54.96 0-93.43-27.48-131.9-49.46-27.48-21.99-98.93-60.46-104.42-76.95 43.96 0 71.44 5.5 109.91 5.5 54.96 0 54.96 0 87.94 21.98 27.48 11 54.96 21.99 76.94 38.48 16.49 10.99 60.46 21.98 65.95 43.96-27.48 10.99-65.95 16.49-104.42 16.49zm-626.53-126.41c38.47 0 54.96-21.98 76.94-10.99 27.48 5.5 175.87 109.92 175.87 115.42-43.97 21.98-241.82-54.96-252.81-104.43zm675.99-32.97c49.47 0 181.37 60.45 214.34 87.93 16.49 11 16.49 0 16.49 21.99-43.97 10.99-27.48 21.98-82.44 10.99-76.94-16.49-93.43-21.98-153.88-54.96-43.97-21.98-54.96-21.98-60.46-43.97 38.47-5.49 54.96-21.98 65.95-21.98zm285.79 0c16.49 10.99 43.97 16.49 60.45 21.98 38.48 5.5 38.48 0 65.96 10.99-16.49 27.48-38.48 32.98-76.95 38.48-43.96 5.49-49.46 0-93.43-11-65.95-21.98-104.42-65.95-159.38-71.44 5.5-21.99 10.99-16.49 38.47-21.99 60.46-16.48 43.97-10.99 164.88 32.98zm-1154.14-258.31c32.98 0 43.97-5.49 71.45 0 32.97 0 43.96 5.5 71.44 10.99 71.45 27.48 126.41 82.44 175.87 142.9l54.96 65.95c21.99 21.98 32.98 10.99 16.49 21.98-10.99-5.49-27.48-5.49-38.47-5.49-16.49 0-21.99 0-32.98-5.5-27.48-5.5-131.9-76.94-142.89-87.94-38.47-32.97-131.9-120.9-175.87-131.9zm1099.18 192.36c21.98-5.5 87.94-32.98 104.42-32.98 60.46 0 98.93 0 153.89 10.99 43.97 5.5 76.94 0 87.93 32.98-21.98 32.98-27.48-5.5-60.45 27.48-71.45 65.95-241.82-16.49-285.79-21.98zm170.37-65.95c5.5-10.99 11-10.99 32.98-21.99 153.88-76.94 142.89-16.48 307.77-16.48 0 21.98-16.49 32.97-32.98 43.96-54.95 49.47-170.37-5.49-307.77-5.49zm-566.07 104.42c-21.99 0-71.45-21.98-93.43-32.98-38.48-21.98-192.36-137.39-203.35-170.37 65.95 0 76.94 0 126.4 21.98 120.91 60.46 93.43 60.46 181.37 115.42 93.43 65.95 65.95 65.95-10.99 65.95zm98.92-148.39c49.47 21.98 170.38 65.95 241.82 65.95-21.98 32.98-126.4 43.97-186.86 43.97-54.96 0-120.91-49.47-159.38-76.94-38.47-27.48-131.9-76.95-137.4-93.43 54.96 0 87.94-11 142.9 5.49 32.97 16.49 71.44 43.97 98.92 54.96zm-489.13 16.49-71.45-71.45c10.99-10.99 82.44-10.99 131.9 27.48l115.42 93.43c10.99 10.99 21.98 21.98 32.97 32.98 27.48 16.48 71.45 43.96 76.94 60.45-32.97 0-32.97 10.99-65.95 0-126.4-16.49-131.9-60.45-219.83-142.89zm439.67-87.94c38.47-5.49 65.95-27.48 98.93-27.48 87.93 0 208.84 43.97 291.28 60.46 16.49 5.49 27.48 10.99 49.46 10.99 16.49 5.5 27.48 5.5 43.97 10.99-10.99 27.48-104.42 38.47-131.9 38.47-115.42 0-126.41 0-230.83-32.97-54.96-16.49-98.93-43.97-120.91-49.46zm-571.58 192.36c-60.45 0-109.91-43.97-137.39-76.94-16.49-21.99-87.94-98.93-93.43-120.91l126.4 87.93 54.96 54.96 27.48 27.48c10.99 10.99 16.49 16.49 21.98 27.48zm752.94-252.81c60.46-16.49-5.49-27.48 148.39-27.48l225.34 32.97c10.99 5.5 109.91 0 115.41 11 16.49 16.48-49.46 43.96-65.95 49.46-142.9 49.46-318.76-54.96-423.19-54.96zm511.12 87.93c5.5-21.98 49.47-49.46 71.45-60.45 38.47-16.49 230.83-16.49 318.76-60.46-16.49 76.95-181.36 131.9-241.82 131.9-54.96 0-93.43-10.99-148.39-10.99zm-1918.07 27.48c16.49 10.99 54.96 65.95 60.46 87.94-54.96-5.5-148.39-71.45-197.86-104.43-16.48-16.48-54.95-54.95-71.44-76.94-5.5-16.49-16.49-43.97-21.99-54.96-27.48-65.95-10.99-60.45 27.48-21.98l76.95 76.94c21.98 27.48 98.92 60.46 126.4 93.43zm560.58 153.89c-43.96 0-54.95 5.49-93.43-10.99-21.98-11-43.96-21.99-60.45-38.48-87.94-60.45-98.93-76.94-159.38-148.38l-38.47-60.46c-16.49-16.49-27.48-38.47-43.97-54.96-10.99-16.49-32.98-38.47-38.47-60.45 21.98 10.99 49.46 21.98 71.44 32.97 16.49 5.5 21.99 5.5 32.98 16.49 60.46 38.47 93.43 60.45 142.89 109.92l93.43 109.92c38.48 43.96 87.94 82.43 93.43 104.42zm1016.75-335.25c27.48-5.5 54.96-21.99 82.44-32.98 38.47-10.99 65.95 0 109.91-5.49l318.77-21.99c16.48 5.5-32.98 43.97-43.97 54.96-82.44 38.47-175.87 38.47-263.8 38.47-71.45 0-131.91-21.98-203.35-21.98zm-489.14-16.49c27.48 16.49 170.37 98.93 115.42 98.93-65.96 0-93.44 0-153.89-16.49-54.96-10.99-214.34-120.91-225.33-153.89 115.41 0 109.92-32.97 263.8 71.45zm296.78 43.97c-54.96 21.98-120.91 10.99-170.37-10.99-32.98-5.5-43.97-16.49-65.95-32.98l-87.94-60.46c-21.98-10.99-21.98 0-27.48-21.98 43.97 0 60.46-5.49 104.42-5.49l285.79 98.92c-5.49 21.99-21.98 21.99-38.47 32.98zm-1742.2-76.95c-10.99-27.48-21.98-43.96-10.99-54.95 10.99-11 0-5.5 10.99 0 43.97 5.49 49.46 38.47 65.95 76.94 21.98 49.46 76.94 164.88-10.99 87.93-27.48-21.98-49.47-76.94-54.96-109.92zm1538.85-76.94c82.44-38.47 131.9-32.97 214.34-16.49 65.95 16.49 131.9 43.97 214.34 43.97-10.99 49.46-115.41 49.46-159.38 49.46-54.96 0-247.31-43.96-269.3-76.94zm-208.84 208.85c-10.99 5.49-10.99 10.99-21.99 10.99-54.96 0-109.91-5.5-148.39-21.99-32.97-16.48-76.94-38.47-98.92-65.95l-87.94-76.94c-32.97-38.47-98.92-76.94-54.96-76.94 93.43 0 175.87 32.97 241.82 93.43l131.91 98.92c27.48 27.48 32.97 21.99 38.47 38.48zm-1395.96-115.42c-38.47-71.44-43.97-87.93-43.97-186.86 21.98 5.5 27.48 21.98 38.47 43.97 16.49 16.49 21.99 27.48 27.48 49.46l21.99 131.9c-21.99-5.49-32.98-21.98-43.97-38.47zm2110.42-32.97c5.5-21.99 21.99-16.49 49.47-32.98 109.92-49.46 197.85-49.46 324.26-76.94 38.47-5.5 98.92-21.99 137.39-21.99-16.48 65.96-164.87 109.92-208.84 115.42zm-362.72-126.41c10.99-16.49 21.98-16.49 43.96-21.98 126.41-32.98 54.96-16.49 170.38-16.49 49.46 0 82.43 0 126.4 5.5 10.99 5.49 98.93 10.99 109.92 16.48-5.5 16.49 0 5.5-16.49 16.49-82.44 65.95-203.35 54.96-296.78 27.48-43.96-5.5-109.92-16.49-137.39-27.48zm-1813.65 115.41c-27.48-5.49-98.93-98.92-60.46-181.36 16.49 5.5 32.98 10.99 49.47 16.49 0 49.46 0 126.4 10.99 164.87zm2528.11 131.91c5.5-16.49 10.99-16.49 27.48-21.99 10.99-10.99 16.49-10.99 27.48-21.98 21.99-10.99 38.47-27.48 54.96-43.97 38.47-21.98 87.94-38.47 131.9-60.45l186.86-104.43c16.49-10.99 43.97-27.47 60.46-32.97 0 32.97-43.97 65.95-60.46 87.93-10.99 11-10.99 16.49-21.98 27.48-21.98 16.49-27.48 32.98-49.46 49.47-98.93 76.94-230.83 109.91-357.24 120.91zm-1319.01 27.48-159.39-43.97-93.43-54.96c-71.44-60.46-131.9-137.4-186.86-214.34-16.48-10.99-16.48-10.99-21.98-27.48 21.98 0 60.45 21.98 76.94 27.48 38.47 10.99 93.43 43.97 126.41 71.45 16.49 5.49 16.49 10.99 27.48 21.98l131.9 120.91c16.49 16.49 32.97 32.98 49.46 49.46 38.47 32.98 43.97 27.48 49.47 49.47zm-533.11 32.97c27.48 38.47 65.95 54.96 87.94 148.39-65.95-16.49-164.88-98.93-214.34-148.39-21.99-21.98-32.98-43.97-54.96-65.95-49.46-60.45-54.96-82.44-93.43-148.39-10.99-32.97-27.48-54.96-38.47-82.44-5.5-16.49-32.98-65.95-32.98-82.44 60.46 5.5 109.92 60.46 142.89 98.93zm1654.27-285.79c5.5-21.98 76.94-54.95 93.43-65.95 32.98-21.98 71.45-32.97 109.92-43.96 43.97-11 82.44-21.99 131.9-27.48 16.49-5.5 109.92-32.98 120.91-21.99 16.49 16.49-16.49 38.47-27.48 43.97-82.44 54.96-192.36 60.46-302.27 87.93-32.98 11-87.94 21.99-126.41 27.48zm21.98-164.87c32.98 0 76.95-16.49 60.46 16.49-10.99 10.99-38.47 38.47-54.96 49.46-21.98 5.49-54.96 16.49-82.44 16.49-120.91 0-175.87-11-302.27-11 5.49-21.98 0-10.99 21.98-21.98 65.95-60.45 175.87-49.46 263.8-49.46zm-450.66 43.96c-49.46 49.47-258.31 65.96-346.24 32.98-27.48-10.99-164.88-126.41-175.87-137.4 60.45-38.47 214.34 38.47 329.75 54.96 159.38 32.98 263.81-10.99 192.36 49.46zm-1500.38 318.77c-93.43-65.95-49.47-27.48-120.91-115.42-65.95-76.94-126.41-302.27-104.42-351.73l115.41 164.87 142.89 318.76c-16.48 0-21.98-5.49-32.97-16.48zm-445.17-395.71c16.49 16.49 43.97 65.95 16.49 65.95-43.97 0-214.34-32.97-214.34-115.41 27.48 0 38.47 10.99 65.95 16.49 43.97 21.98 109.92 21.98 131.9 32.97zm1417.94 5.5c115.42 93.43 137.4 159.38 335.25 159.38-10.99 43.97-131.9 43.97-159.38 38.47-43.97-5.5-54.96-5.5-87.93-16.49-60.46-16.49-131.9-87.93-175.87-131.9-27.48-27.48-115.42-98.93-71.45-98.93 87.94 0 93.43 0 159.38 49.47zm538.6-87.94c71.45 0 186.86-16.48 214.34-16.48 0 60.45-49.46 60.45-93.43 82.43-21.98 11-43.97 11-71.45 16.49-164.87 21.99-280.29-27.48-368.22-27.48 0-21.98 16.49-27.48 54.96-43.96 87.93-32.98 164.88-11 263.8-11zm-1956.54-38.47c0-43.97 16.49-153.88 27.48-203.35 5.5-16.48 5.5-49.46 10.99-65.95 38.47 27.48 27.48 142.9 32.98 208.85l16.48 219.83c-43.96-10.99-87.93-87.93-87.93-159.38zm1192.61 236.33c-27.48-32.98-148.39-186.86-159.38-219.84 16.49-5.5 54.96 0 76.94 10.99 32.98 10.99 93.43 54.96 109.92 76.94 16.49 16.49 27.48 32.98 43.97 49.47 43.96 54.96 98.92 93.43 142.89 142.89 32.98 32.98 43.97 16.49 49.46 43.97-21.98 10.99-137.39-10.99-159.38-21.99-38.47-16.48-76.94-54.95-104.42-82.43zm-818.89-318.77c0-32.97 32.98-5.49 38.47 5.5 38.47 43.97 142.9 346.24 153.89 384.71-32.98-10.99-16.49-32.97-65.95-65.95-120.91-104.42-126.41-170.37-126.41-324.26zm1791.67 208.85c10.99-16.49 60.45-49.47 76.94-60.46 32.97-21.98 54.96-27.48 104.42-32.97l192.36-16.49c16.48-5.5 38.47-10.99 54.96-10.99 0 27.48-38.48 65.95-60.46 76.94-76.94 49.46-252.81 32.98-368.22 43.97zm351.73 71.44c5.5-21.98 21.99-32.97 38.47-49.46 71.45-71.45 186.87-98.92 274.8-137.4l98.93-27.48c76.94-27.48-27.48 76.95-43.97 87.94-32.98 21.98-65.95 38.47-109.92 54.96zm230.83 181.37c16.49-54.96 181.37-192.36 230.83-230.83l263.8-192.36c-5.49 32.98-65.95 120.91-82.44 148.39-32.97 43.97-76.94 76.95-120.91 109.92-71.44 43.97-208.84 142.9-291.28 164.88zm-1720.22 164.88c-32.97 0-87.93-16.49-115.41-27.48-76.94-27.48-32.98-10.99-93.43-49.47-10.99-10.99-21.98-21.98-38.47-32.97-54.96-49.46-54.96-16.49-93.43-49.46-49.47-49.47-104.42-153.89-131.9-225.34l-76.95-203.35c16.49 5.5 5.5 0 21.99 16.49 16.48 21.99 21.98 38.47 43.96 60.46 54.96 38.47 93.43 104.42 137.4 148.39l203.35 225.33c60.46 76.94 137.4 115.41 142.89 137.4zm-923.31-670.5c71.45 21.98 76.94 175.87 76.94 214.34 21.99 131.9 87.94 302.27 0 208.84-16.48-16.49-43.96-71.45-49.46-93.43-21.98-71.45-27.48-247.32-27.48-329.75zm1362.99 65.95v-10.99c65.95 0 87.93 0 142.89 16.48l126.41 32.98v16.49c-11 5.49-11 5.49-27.48 5.49-5.5 0-131.91-38.47-181.37-49.46-32.97 0-38.47-5.5-60.45-10.99zm-494.64 230.83c-32.97-49.47-126.4-203.35-131.9-247.32 21.99 5.5 43.97 21.98 65.95 32.97 87.94 43.97 142.9 159.39 219.84 258.31 27.48 32.98 137.4 131.9 43.97 93.43-65.95-32.97-115.42-21.98-197.86-137.39zm840.88-170.38c27.48-38.47 131.9-65.95 192.35-76.94 82.44-16.49 225.34-16.49 252.82-16.49 71.44-16.49 43.96 27.48 5.49 43.97-32.97 10.99-71.44 16.49-104.42 27.48-43.97 5.49-302.27 49.46-346.24 21.98zm-241.82 65.95c-16.49 0-82.44-16.48-98.93-21.98-54.96-27.48-93.43-65.95-142.89-93.43-16.49-5.5-27.48-10.99-38.47-21.98-10.99-5.5-21.99-11-27.48-27.48 27.48 0 87.93 16.48 109.92 21.98 98.92 38.47 27.48 38.47 192.35 71.45 38.47 5.49 65.95 21.98 98.93 27.48v10.99c-32.98 5.49-49.46 32.97-93.43 32.97zm-159.38-10.99c-115.42 0-98.93-16.49-159.38-65.95-21.99-16.49-43.97-32.98-60.46-54.96-32.97-27.48-49.46-27.48-54.96-54.96 32.98 5.5 54.96 21.99 82.44 32.98 16.49 10.99 16.49 5.49 32.98 21.98 27.48 21.98 153.88 93.43 159.38 120.91zm928.8-54.96c16.49-60.45 302.28-126.4 362.73-142.89-5.49 16.49-38.47 65.95-49.46 76.94-49.46 27.48-142.89 43.97-203.35 49.46zm-637.52-76.94c43.97 0 87.93-38.47 126.41-43.97 38.47-5.49 43.96 5.5 76.94-10.99 27.48-10.99 27.48-16.49 65.95-16.49-5.5 5.5-32.98 32.98-38.47 38.47-32.98 21.99-137.4 76.95-208.85 54.96-16.48-5.49-16.48 0-21.98-21.98zm-2154.39-274.8c38.47 11 43.96 120.91 43.96 153.89 0 60.45 10.99 98.93-38.47 60.45-21.98-21.98-21.98-27.47-21.98-54.95zm3094.19 401.21c10.99-11 27.48-38.48 38.47-49.47 98.93-93.43 225.33-153.88 351.74-192.35 54.96-21.99 10.99 32.97-5.5 43.96-16.49 16.49-27.48 21.99-43.96 38.47-38.48 21.99-65.96 43.97-104.43 60.46-43.96 16.49-208.84 98.93-236.32 98.93zm-648.52-159.39c0-27.48 10.99-27.48 32.98-38.47 82.44-54.96 384.71-82.44 390.21-76.94 10.99 10.99 0 43.97-10.99 49.46-38.48 38.47-164.88 43.97-225.34 49.47l-126.4 10.99c-21.99 0-38.47 5.49-60.46 5.49zm-2368.73-115.41c16.49 5.5 10.99 5.5 21.98 16.49l43.97 65.95c16.49 16.49 87.93 109.92 16.49 87.93-76.95-16.48-65.95-109.91-82.44-170.37zm280.29 16.49c0-38.47 10.99-65.95 10.99-104.42 0-38.48 10.99-60.46 10.99-98.93 21.99 5.5 21.99 10.99 32.98 27.48 27.48 43.97 38.47 65.95 38.47 131.9l-32.98 208.84c-38.47-10.99-60.45-126.4-60.45-164.87zm835.38 280.29c-38.47-54.96-71.45-93.43-93.43-164.88-5.5-21.98-54.96-192.35-32.98-214.34 10.99-10.99 0-5.49 16.49 5.5 65.95 32.97 82.44 109.92 148.39 208.84 65.95 93.43 109.92 208.85 192.35 324.26 21.99 27.48 65.96 49.46 54.96 60.45-5.49 11-60.45-21.98-82.43-38.47-120.91-65.95-126.41-71.44-203.35-181.36zm505.62-32.98c-60.46 0-65.95-21.98-137.4-43.96-49.46-16.49-65.95-21.99-104.42-76.95-27.48-38.47-126.41-175.87-137.4-219.83 82.44 21.98 230.83 186.86 291.29 252.81 32.97 27.48 82.43 60.45 87.93 87.93zm1681.75 104.43c0-27.48 21.98-38.48 43.96-71.45 38.47-65.95 153.89-197.85 214.34-241.82 11-10.99 16.49-16.49 27.48-27.48 27.48-21.98 137.4-120.91 153.89-126.41 0 98.93-120.91 214.34-186.86 269.3l-192.36 148.39c-21.98 16.49-38.47 32.98-60.45 49.47zm-2544.61-511.12c0-142.9 21.99-170.38 27.48-258.31h10.99c5.5 16.49 11 38.47 21.99 54.96 10.99 32.97 16.49 170.37 16.49 208.84 0 54.96 38.47 230.83 27.48 258.31l-49.47-43.97c-38.47-38.47-54.96-164.87-54.96-219.83zm2038.98 280.29c5.5-65.95 115.42-104.42 137.4-126.41l104.42-65.95c21.99-10.99 32.98-16.49 54.96-27.48 32.98-21.98 98.93-71.45 98.93-49.46 0 32.97-38.47 98.92-54.96 115.41-54.96 60.46-148.39 87.94-219.84 109.92zm335.25-10.99c5.5-21.99 21.99-32.98 32.98-54.96 54.96-71.45 65.95-71.45 142.89-115.42 21.99-10.99 38.47-16.48 54.96-32.97l137.4-82.44c21.98-10.99 0-10.99 27.48-10.99 0 27.48-10.99 49.46-21.99 65.95-54.95 82.44-126.4 98.92-208.84 137.4-21.98 10.99-38.47 16.48-60.45 27.48zm-2066.46 181.36c-71.44-5.5-153.88-153.88-170.37-219.84l-27.48-170.37c-32.97-302.27 54.96-131.9 71.45-43.97 5.49 27.48 5.49 54.96 10.99 82.44 16.49 76.95 27.48 153.89 54.96 225.33 16.49 49.47 60.45 98.93 60.45 126.41zm1412.45-296.78c5.5-60.45 153.89-109.92 203.35-120.91 38.47-10.99 82.44-27.48 120.91-38.47 27.48-5.5 109.92-38.47 115.41-32.97 10.99 10.99-5.49 43.96-16.48 54.95-16.49 27.48-38.48 43.97-71.45 54.96l-82.44 32.98zm-1395.96-71.44c-10.99-5.5-43.97-49.47-54.96-60.46-16.49-21.98-43.96-27.48-49.46-60.45 0-11 5.5-208.85 5.5-214.34 16.48-16.49 43.96 38.47 49.46 54.95 27.48 49.47 27.48 120.91 38.47 181.37 5.5 38.47 10.99 65.95 10.99 98.93zm98.93-93.44c10.99 21.99 16.49 43.97 21.98 65.96 16.49 60.45 54.96 115.41 87.94 170.37 16.48 16.49 27.48 32.97 38.47 49.46s27.48 32.98 27.48 54.96c-21.99-5.5-11-5.5-27.48-16.49-137.4-109.91-230.83-131.9-230.83-417.69 38.47 11 65.95 65.96 82.44 93.43zm-774.92-60.45c0-76.94 5.49-120.91 21.98-192.36l16.49-54.96c16.48 11 21.98 32.98 27.48 54.96 10.99 16.49 16.48 109.92 16.48 142.9 0 131.9 49.47 263.8 49.47 346.24-49.47-5.5-65.95-82.44-87.94-120.91-16.49-49.46-43.96-115.42-43.96-175.87zm280.29 505.62c-27.48-38.47-65.95-115.41-82.44-164.87-5.5-11-10.99-21.99-16.49-32.98l-38.47-159.38c-5.5-32.98-10.99-38.47-16.49-82.44-5.49-21.98-10.99-54.96-10.99-82.44 0-21.98 5.5-10.99 5.5-38.47h10.99c10.99 32.98 60.45 93.43 82.44 120.91 65.95 104.42 93.43 280.29 98.92 406.7 0 60.45 10.99 49.46 16.49 82.44-21.98-5.5-21.98-16.49-49.46-49.47zm-373.73-49.46c-65.95 0-175.86-131.9-219.83-192.36-16.49-21.98-27.48-38.47-43.97-60.45-60.45-71.45-76.94-109.92-98.92-203.35 21.98 0 16.48 5.5 32.97 21.98 87.94 76.95 115.41 60.46 181.37 175.87 43.96 76.95 43.96 16.49 82.43 120.91 21.99 49.47 65.95 115.42 65.95 137.4zm-467.15-269.3c-16.48-10.99-43.96-43.97-43.96-71.45 0-10.99 16.48-71.44 21.98-93.43 10.99-32.97 16.49-54.96 27.48-87.93 5.49-21.98 16.49-71.45 21.98-87.94 16.49 5.5 5.5-5.49 16.49 16.49 21.98 49.47 5.5 291.29-43.97 324.26zm324.26-142.89c0-60.46 32.98-142.9 49.46-208.85 5.5-16.48 16.49-49.46 21.99-60.45 10.99 5.49 5.49 0 10.99 10.99 5.5 0 10.99 10.99 10.99 10.99l21.99 104.42c0 49.47-38.48 230.83-38.48 302.28-65.95 0-76.94-104.42-76.94-159.38zm3363.49 186.86c5.5-43.97 98.93-175.87 126.41-203.35l120.91-126.41c32.98-32.97 16.49-32.97 43.97-38.47 0 38.47-16.49 104.42-32.98 131.9-16.49 38.48-49.46 60.46-76.94 87.94zm-285.78-60.46c0-27.48 43.96-82.44 60.45-104.42 32.98-43.97 54.96-49.46 82.44-76.94 10.99-16.49 21.98-27.48 38.47-43.97 21.99-21.98 109.92-104.42 131.9-104.42 0 38.47-10.99 109.92-27.48 137.4-21.98 27.48-148.39 115.41-186.86 131.9-16.48 10.99-32.97 21.98-49.46 32.97-16.49 11-27.48 21.99-49.46 27.48zm-346.24 32.98c0-32.98 49.46-93.43 71.44-115.42 38.47-38.47 274.8-247.31 307.77-252.81 0 43.97-10.99 109.92-43.96 142.9-49.47 43.96-296.78 214.34-335.25 225.33zm-1973.03-230.83c-16.49-65.95-54.96-49.46-32.98-153.88 5.5-32.98 10.99-54.96 21.98-82.44 5.5-32.98 5.5-60.46 11-87.94 16.48 5.5 16.48 5.5 21.98 21.99 5.5 27.48 5.5 27.48 5.5 54.95 0 104.43-16.49 181.37-16.49 247.32zm-862.86-16.49c16.49 54.96 54.96 82.44 54.96 126.41-21.99-16.49-43.97-43.97-60.46-65.95l-109.91-142.9c-11-16.48-27.48-76.94-27.48-93.43 16.48 5.5 27.48 16.49 38.47 27.48 98.92 76.95 65.95 16.49 104.42 148.39zm-285.79 104.42c-27.48 0-27.48-16.48-32.97-38.47-49.47-115.41-21.99-153.88 38.47-247.31 27.48-38.47 32.97-71.45 54.96-76.94 21.98 87.93-10.99 131.9-32.98 214.34-5.49 21.98-10.99 43.96-16.49 71.44-5.49 27.48-10.99 38.47-10.99 76.94zm884.84-137.39c0-60.46 38.47-203.35 65.95-247.32 54.96 16.49 32.98 93.43 21.99 148.39-16.49 104.42-21.99 203.35-21.99 313.27-16.48-5.5-5.49 0-16.48-16.49-32.98-54.96-49.47-126.41-49.47-197.85zm1962.04 153.88c0-21.98 5.5-21.98 21.98-32.97 71.45-71.45 93.43-65.95 186.86-164.88 21.99-16.49 32.98-32.98 54.96-49.46l137.4-109.92c16.49-10.99 10.99-16.49 32.98-16.49 0 65.95-43.97 93.43-54.96 148.39-21.99 71.45-32.98 76.94-93.43 109.92-38.47 32.97-82.44 54.96-131.9 71.45-43.97 16.48-104.43 43.96-153.89 43.96zm-2522.62-175.87c0-71.44 76.94-225.33 93.43-307.77h10.99c27.48 120.91-5.49 203.35-49.46 335.25-5.5 27.48-16.49 49.47-16.49 82.44h-10.99c-10.99-49.46-27.48-10.99-27.48-109.92zm3544.86-5.49c38.47-98.93 197.85-225.33 203.35-252.81h16.48c0 109.91-27.48 148.39-98.92 214.34-27.48 27.48-49.46 54.96-76.94 82.44-16.49 10.99-27.48 16.48-43.97 32.97-27.48 32.98-10.99 32.98-38.47 38.47zm-3929.57-82.44c0-76.94 10.99-109.92 54.96-153.89 10.99-16.48 10.99-27.48 32.97-32.97 0 54.96-10.99 71.45-32.97 104.42-16.49 32.98-32.98 76.94-54.96 82.44zm153.88-247.32c21.99 5.5 27.48 21.99 43.97 38.47 21.98 32.98 27.48 60.46 60.45 104.43 16.49 27.48 11 32.97 11 71.44-27.48-5.49-27.48-16.48-49.47-32.97-54.96-49.46-65.95-82.44-65.95-181.37zm758.44 439.68c-10.99-5.5-5.5 0-10.99-11-43.97-43.96-54.96-170.37-32.98-252.81 21.98-65.95 98.93-225.33 104.42-236.32 21.99 0 21.99 5.49 27.48 21.98 16.49 54.96-5.49 98.93-21.98 148.39-54.96 131.9-65.95 186.86-65.95 329.76zm2731.46-120.91c43.97-109.92 137.4-192.36 219.84-274.8 16.49-16.49 27.48-38.47 54.96-38.47 0 49.46-21.99 120.91-43.97 153.88-16.49 32.98-38.47 54.96-65.95 82.44l-225.33 214.34zm-373.72 142.89c0-27.48 16.49-27.48 32.98-71.45 27.47-60.45 71.44-142.89 120.91-186.86l137.39-126.4c5.5-11 16.49-16.49 21.99-27.48l38.47-38.47c5.49-11 0-5.5 10.99-11 0 32.98-16.49 49.47-27.48 76.95-16.49 65.95-5.5 87.93-60.45 148.39-54.96 49.46-159.39 137.39-219.84 192.35-10.99 10.99-16.49 10.99-27.48 21.99-10.99 10.99-16.49 10.99-27.48 21.98zm-2912.83-181.37c-27.48-16.48-32.97-60.45-27.48-98.92 21.99-87.94 65.95-258.31 65.95-346.24 16.49 5.49 10.99 5.49 32.98 43.96 60.45 98.93-10.99 203.35-43.97 329.76-10.99 27.48-16.49 49.46-27.48 71.44zm736.45-137.39c0-76.95 54.96-219.84 71.45-285.79h10.99c32.98 131.9-16.49 307.77-43.97 417.69h-10.99c-5.49-32.98-27.48-76.94-27.48-131.9zm-500.13-5.5c0-43.97 71.45-241.82 82.44-296.78l21.99 280.29c-16.49 142.9-32.98 131.91-38.47 192.36-5.5 21.98-11 38.47-11 65.95-16.48-5.49-10.99 0-16.48-16.49l-16.49-82.44c-16.49-76.94-21.99-43.96-21.99-142.89zm2434.69 153.89c0-32.98 16.49-54.96 32.98-71.45 38.47-43.97 82.43-87.93 126.4-126.41 38.47-27.48 65.95-71.44 98.93-104.42 32.97-43.97 32.97-32.97 65.95-87.93 10.99-16.49 27.48-43.97 49.46-49.47 0 60.46-5.49 137.4-32.97 192.36-21.99 38.47-82.44 71.45-120.91 98.93-49.47 43.96-93.43 87.93-142.9 131.9-10.99 16.49-16.48 16.49-27.48 27.48-43.96 38.47-49.46 76.94-49.46-10.99zm923.31-76.95c38.47-170.37 32.98-142.89 148.39-280.29 10.99-16.48 49.46-71.44 65.95-76.94 0 148.39-54.96 203.35-142.89 285.79-21.98 27.48-54.96 65.95-71.45 71.44zm-4033.99-120.91c0-27.48 16.49-65.95 21.98-87.93 16.49-38.47 120.91-175.87 131.9-186.86 60.46 109.92-71.44 214.34-98.92 329.75-5.5 16.49-5.5 38.47-10.99 49.47-32.98-11-43.97-71.45-43.97-104.43zm3440.43 126.41c0-43.97 27.48-104.42 49.47-131.9 16.49-32.98 186.86-192.36 219.83-225.33 49.47-32.98 16.49-27.48 49.47-38.48 0 142.9-142.9 219.84-230.83 307.78zm296.78 0c0-27.48 10.99-54.96 16.49-76.94 10.99-32.98 27.48-71.45 43.97-98.93 76.94-126.4 87.93-120.91 159.38-214.34 5.5-10.99 10.99-10.99 21.98-21.98 32.98-38.47 16.49-38.47 43.97-43.97 5.5 10.99 10.99 16.49 10.99 32.98 0 153.88-131.9 230.82-214.34 329.75-10.99 16.49-65.95 87.93-82.44 93.43zm-2852.37-175.87c0-16.49 16.49-82.44 21.98-98.93 32.98-82.43 115.42-186.86 115.42-247.31 32.97 5.49 38.47 43.97 38.47 82.44 0 109.92-60.46 186.86-104.42 291.28-5.5 21.98-21.99 65.95-38.48 76.94-27.47-16.48-32.97-65.95-32.97-104.42zm-258.31 93.43c-10.99-43.97-16.49-87.93-27.48-131.9-21.98-82.44 5.5-170.37 43.97-241.82 10.99-16.49 49.46-82.44 54.96-98.93 49.46 11 43.97 104.43 32.97 148.39l-16.48 65.95c-11 27.48-21.99 54.96-27.48 82.44-11 32.98-16.49 60.46-27.48 87.94-5.5 16.48-5.5 32.97-10.99 43.96-5.5 21.99-5.5 27.48-11 43.97zm-236.32-21.98c-27.48-16.49-49.47-76.95-54.96-115.42-16.49-65.95-5.5-87.93-5.5-153.88 0-60.46 49.47-219.84 87.94-247.32 65.95 49.47 16.49 280.29 10.99 335.25-5.5 27.48-10.99 65.95-16.49 93.43-5.49 32.98-5.49 65.95-21.98 87.94zm725.46-71.45c0-32.97 5.49-5.5 5.49-32.97 0-60.46-5.49-120.91 16.49-181.37 10.99-27.48 65.95-142.89 87.94-153.88 5.49 10.99 10.99 21.98 10.99 43.96 0 60.46-43.97 203.35-65.95 280.29-16.49 60.46-5.5 76.95-32.98 82.44v-43.97c-10.99-5.49-5.5 0-10.99 0zm-1121.17-170.37c0-21.99 126.41-181.37 148.39-186.86 0 16.48-5.49 21.98-16.49 38.47-5.49 21.98-5.49 16.49-16.48 38.47-43.97 54.96-71.45 170.37-98.93 197.85-5.5 10.99 0 5.5-10.99 10.99zm3182.13 252.81c0-65.95 5.5-82.44 49.46-142.89 11-21.99 21.99-43.97 32.98-65.95 16.49-16.49 27.48-32.98 43.97-49.47 27.48-38.47 142.89-186.86 192.35-186.86 27.48 0 5.5 49.46 0 71.45-10.99 21.98-21.98 38.47-38.47 60.45-21.98 43.97-54.96 76.95-87.93 109.92-38.47 54.96-93.43 104.42-142.9 153.89-32.97 32.97-21.98 43.96-49.46 49.46zm362.73-148.39c10.99-38.47 27.48-82.44 43.97-109.92 43.97-54.96 164.87-214.34 170.37-280.29 21.98 5.5 27.48 38.47 27.48 60.46 0 131.9-82.44 175.86-131.9 225.33-10.99 16.49-21.98 21.98-32.98 38.47-21.98 16.49-49.46 60.45-76.94 65.95zm-2703.98-49.46c0-93.43 65.95-230.83 98.92-318.77 21.99-49.46 43.97-71.44 49.47-87.93 16.48 5.5 16.48 10.99 21.98 27.48 49.46 115.41-120.91 324.26-148.39 445.17-27.48-5.5-21.98-27.48-21.98-65.95zm3242.58 71.44c0-16.48 5.5-21.98 5.5-38.47 27.47-109.92 10.99-82.44 82.43-203.35l54.96-109.91c10.99-16.49 16.49-32.98 27.48-54.96 21.99-38.47 16.49-38.47 32.98-43.97 0 82.44-16.49 142.89-32.98 214.34-5.49 32.98-10.99 32.98-27.48 54.96-21.98 32.97-49.46 60.45-71.44 93.43-11 16.49-21.99 27.48-38.48 43.97-10.99 16.48-21.98 32.97-32.97 43.96zm-4077.96-203.34c0-43.97-5.5-49.47 16.49-76.95 16.48-27.48 109.91-131.9 137.39-137.39-5.49 54.95-76.94 131.9-109.91 170.37-11 10.99-11 10.99-21.99 21.98zm3803.16 164.87c5.5-82.44 43.97-192.35 93.43-258.31 27.48-49.46 126.41-175.86 131.91-214.34h10.99c16.49 76.95 16.49 98.93-27.48 203.35-32.98 60.46-82.44 120.91-137.4 181.37-10.99 21.98-49.46 82.44-71.45 87.93zm-2654.52-324.26c10.99-21.98 43.97-82.43 65.95-87.93 0 82.44-98.92 225.33-104.42 280.29l-16.49-87.93zm2055.47 274.8c0-131.9 71.45-126.41 93.43-203.35 21.98-82.44 76.94-104.42 115.41-170.37 16.49-21.99 65.96-93.43 65.96-126.41 65.95 5.5 21.98 148.39-11 197.85-43.96 65.96-32.97 54.96-87.93 104.43-43.97 43.96-148.39 175.87-159.38 225.33h-10.99c-5.5-10.99-5.5-10.99-5.5-27.48zm346.24-65.95c-27.48-60.46 76.95-236.33 98.93-296.78 16.49-32.98 54.96-148.39 76.94-164.88 38.47 71.45 16.49 142.9-5.49 208.85-16.49 38.47-38.48 76.94-60.46 109.91l-65.95 104.43c-10.99 5.49-16.49 16.48-21.98 21.98-11 16.49 0 10.99-21.99 16.49zm-3599.81-131.9c0-43.97 10.99-76.95 27.48-104.43 16.48-49.46 76.94-104.42 109.91-142.89 16.49-16.49 49.47-49.46 71.45-54.96 5.5 54.96 10.99 76.94-32.98 137.4-21.98 27.48-38.47 38.47-60.45 65.95-32.98 32.98-93.43 98.93-98.93 153.89h-10.99c0-27.48-5.49-21.99-5.49-54.96zm4121.92 137.39c0-32.97 5.5-49.46 5.5-82.43 5.5-71.45 76.94-236.33 115.41-302.28 10.99-16.49 21.99-32.97 32.98-49.46 21.98-43.97 10.99-43.97 32.97-49.47 5.5 16.49 5.5-5.49 5.5 16.49 0 76.95 0 104.42-32.98 175.87-21.98 32.98-137.39 274.8-159.38 291.28zm-3539.36-38.47c0-148.39 148.39-395.7 192.36-406.69 0 87.93-10.99 131.9-38.47 197.85-32.98 76.94-43.97 87.93-76.95 159.38-10.99 16.49-16.48 32.98-27.48 49.46-5.49 21.99-10.99 38.47-21.98 54.96-16.49-10.99-27.48-27.48-27.48-54.96zm3281.06-38.47c0-181.36 181.36-346.24 192.35-445.17l16.49 87.94c0 98.92-186.86 247.31-197.85 357.23zm-2764.44-170.37c0-38.47 71.44-104.42 98.92-131.9 32.98-32.98 43.97-60.46 65.95-65.95 0 65.95-32.97 109.91-60.45 148.39-21.99 32.97-60.46 98.92-93.43 109.91 0-27.48 10.99-10.99 0-32.97 0-5.5-10.99-16.49-10.99-27.48zm-763.93 269.3c-11-38.47-27.48-5.5-43.97-164.88-5.5-49.46 16.49-109.92 38.47-153.88 16.49-21.99 27.48-43.97 38.47-65.96 16.49-32.97 137.4-203.34 137.4-131.9 0 43.97 0 49.47-21.98 87.94-65.96 104.42-137.4 302.27-137.4 428.68zm1890.59-1203.6c38.47 0 54.96-5.5 87.93-5.5 115.41-5.5 32.98-27.48 126.41 5.5 54.96 21.98 115.41 0 148.39 16.48l115.41 104.43c38.47 32.97 54.96 16.48 87.93 27.47 16.49 5.5 38.48 43.97 49.47 60.46 16.49 16.49 65.95 71.45 87.93 76.94 43.97 27.48 16.49 10.99 54.96 60.46 137.4 214.34 153.89 120.91 181.37 203.35 21.98 60.45 43.96 93.43 87.93 131.9 27.48 27.48 16.49 43.96 16.49 93.43 0 32.97 21.98 71.44 21.98 87.93 0 5.5-21.98 65.95-27.48 82.44-27.48 120.91 38.47 98.93-10.99 175.87-10.99 21.98-27.48 43.97-27.48 76.94 0 126.41 21.98 82.44-16.49 164.88-27.48 49.46-16.48 87.93-16.48 126.4 0 32.98-93.43 65.96-60.46 214.35l-43.97 38.47c-21.98 10.99-27.48 21.98-43.96 32.97-54.96 43.97-21.99 76.94-60.46 98.93l-54.96 27.48c-16.49 10.99-27.48 21.98-38.47 38.47-82.44 76.94-5.5 60.45-153.88 82.44-49.47 10.99-38.48 32.97-120.91 32.97-38.48 0-104.43 38.47-175.87 60.46-27.48 5.49-32.98 0-60.46-5.5-82.44-21.98-142.89 0-175.87 0-16.48 0-38.47-10.99-60.45-16.49-87.94-27.48-126.41-10.99-186.86-38.47-21.99-10.99-38.47-10.99-60.46-16.48-27.48-5.5-32.97-11-49.46-27.48-49.46-60.46-49.46-60.46-120.91-104.43l-93.43-54.96c-16.49-21.98-5.5-43.96-49.46-98.92-5.5-10.99-27.48-32.98-38.48-38.47-54.95-43.97-27.48-10.99-60.45-87.94-10.99-10.99-21.98-32.97-32.98-43.96-49.46-60.46-49.46-16.49-49.46-98.93 0-54.96-21.98-76.94-38.47-109.92-21.98-32.97-5.5-87.93-16.49-131.9-5.49-60.46-32.97-104.42-32.97-120.91 0-43.97 27.48-49.46-5.5-120.91-21.98-38.47 5.5-43.97-5.5-120.91-5.49-21.98-10.99-38.47-10.99-65.95 0-21.98 5.5-32.98 5.5-65.95 0-65.95-16.49-49.47 16.49-87.94 87.93-98.92 10.99-93.43 76.94-131.9 93.43-54.96 76.94-82.44 87.93-115.41 11-32.98 21.99-10.99 54.96-49.47 16.49-27.47 21.99-38.47 38.47-65.95 11-21.98 0-16.48 27.48-21.98 65.95-27.48 131.91-82.44 175.87-137.4 49.47-60.45 43.97-21.98 98.93-49.46 21.98-16.49 32.97-38.47 54.96-49.46 54.96-16.49 109.92 27.48 170.37-32.98 21.98-16.49 60.46-5.49 126.41-5.49zm-1357.49 1137.65c-5.5-71.45-27.48-32.98-10.99-148.39 21.98-148.39 60.45-175.87 159.38-280.29 16.49-16.49 27.48-32.98 49.46-38.47 0 49.46-5.5 93.43-38.47 126.4-43.97 49.46-142.89 280.29-148.39 340.75zm-840.87-307.77c0-49.47 43.96-87.94 71.44-115.42l104.42-82.44c0 43.97-43.96 93.43-71.44 126.41-21.99 16.49-27.48 27.48-49.47 49.46-10.99 21.99-27.48 43.97-49.46 49.47-5.49-16.49-5.49 10.99-5.49-27.48zm3264.56 170.37c0-126.41 109.92-208.84 159.38-346.24 5.5-27.48 10.99-38.47 16.49-65.95 16.49-54.96 5.5-49.47 27.48-54.96 10.99 38.47 27.48 43.97 27.48 82.44 0 115.41-71.45 219.83-137.4 302.27-32.97 32.98-65.95 76.94-71.44 126.41-21.99-5.5-21.99-16.49-21.99-43.97zm329.76-159.38c0-38.47 10.99-65.95 16.48-98.93 32.98-98.92 54.96-159.38 54.96-274.79 10.99 5.49 16.49 10.99 27.48 21.98 43.97 71.45 49.47 115.41 16.49 197.85-16.49 49.47-82.44 230.83-109.92 247.32-5.49-16.49-5.49 5.49-5.49-16.49zm538.59-16.49c0-109.92-16.48-93.43 38.48-192.36 16.48-27.48 65.95-137.39 71.44-164.87 27.48 5.49 32.98 71.44 32.98 98.92 0 54.96-65.95 159.38-93.43 208.85-10.99 16.49-10.99 10.99-21.99 27.48-10.99 10.99-10.99 16.48-27.48 21.98zm-3017.25-32.97c0-43.97 38.47-71.45 54.96-93.44l65.95-76.94c27.48-21.98 43.97-38.47 49.47-32.97 16.48 16.48-65.95 98.92-76.95 104.42-16.48 32.97-27.48 27.48-49.46 49.46-16.49 21.99-21.98 32.98-43.97 49.47zm2720.48 109.91c0-60.45 60.45-175.87 82.43-230.82 21.99-49.47 60.46-186.87 60.46-252.82h10.99c5.5 21.99 16.49 32.98 21.98 54.96 27.48 109.92 0 181.37-60.45 291.29l-82.44 126.4c-21.98 38.47-10.99 32.98-27.48 38.47-5.49-16.48-5.49 10.99-5.49-27.48zm-3308.54 131.9c-5.49-43.96-10.99 5.5-5.49-82.43 5.49-71.45 27.48-170.38 60.45-230.83 27.48-54.96 38.47-71.45 82.44-115.42 10.99-5.49 16.49-16.48 27.48-21.98 38.47-32.97 54.96-60.45 76.94-65.95 0 219.84-120.91 197.85-208.84 456.16-27.48 65.95-5.5 54.96-32.98 60.45zm269.3-115.41c0-38.47-10.99-109.92 10.99-142.89 49.47-76.95 76.95-115.42 148.39-170.38 16.49-10.99 32.98-21.98 49.47-32.97 16.48-16.49 21.98-27.48 49.46-27.48 0 98.93-120.91 137.4-197.85 269.3-16.49 21.98-49.47 76.94-49.47 104.42zm2478.65-159.38c0-54.96 98.93-203.35 126.41-274.8 5.5-21.98 5.5-27.47 21.98-32.97 0 219.84-109.92 318.76-126.4 373.72h-10.99c0-27.48-11-32.97-11-65.95zm-2170.88-126.41c0-32.97 10.99-43.96 38.47-71.44 32.98-38.47 175.87-82.44 225.34-87.94-5.5 21.99-11 16.49-27.48 27.48-43.97 16.49-208.85 131.9-236.33 131.9zm-868.35 181.37c0-27.48 27.48-93.43 38.47-120.91 10.99-16.49 21.98-32.98 32.98-49.46 10.99-16.49 21.98-27.48 32.97-43.97 21.98-16.49 153.89-131.9 175.87-137.4-10.99 43.97-10.99 10.99-16.49 76.94-5.49 43.97-16.49 21.99-38.47 49.47l-38.47 54.96c-16.49 16.48-27.48 27.48-43.97 43.96-71.44 93.43-71.44 120.91-115.41 197.86l-16.49 27.48c-10.99-27.48-10.99-65.96-10.99-98.93zm-225.33-82.44c-21.99-104.42 71.44-175.87 131.9-230.83 27.48-21.98 82.44-87.93 120.91-93.43 0 49.47-16.49 65.95-43.97 104.42-21.98 43.97-60.45 87.94-98.92 115.42-11 10.99-21.99 27.48-32.98 38.47l-27.48 27.48c-5.5 0-5.5 0-5.5 0v5.49c-5.49 0-5.49 0-5.49 0-10.99 16.49-16.49 27.48-38.47 32.98zm785.91-5.5c0-131.9 93.43-219.83 197.85-280.29 16.49-5.49 109.92-32.97 120.91-21.98 16.49 16.49-49.46 49.46-54.96 54.96-5.49 10.99-10.99 10.99-16.48 21.98-49.47 32.98-142.9 104.42-175.87 142.9-10.99 10.99-10.99 10.99-16.49 21.98-32.98 32.97-38.47 54.96-54.96 60.45zm2462.17-54.95c0-38.48-5.5-76.95 0-115.42 16.48-98.92 54.95-170.37 54.95-274.79 16.49 5.49 11 0 21.99 16.48 32.97 60.46 38.47 27.48 49.46 65.95 16.49 60.46-38.47 164.88-65.95 219.84-27.48 38.47-38.47 82.44-60.45 87.94zm285.78-318.77c0-16.48 0-43.96 0-60.45 5.5-43.97 60.46 0 71.45 71.44 38.47 214.35-21.98 291.29-27.48 335.25h-10.99c-5.5-32.97-16.49-71.44-21.99-109.91-16.48-54.96-5.49-60.46-5.49-115.42zm566.08 203.35c0-65.95 93.43-186.86 93.43-263.8h10.99c0 32.97 5.5 32.97 5.5 60.45 0 65.95-38.47 142.9-54.96 192.36l-21.98 60.45c-16.49-5.49-16.49-5.49-21.99-21.98-5.49-5.49-10.99-16.49-10.99-27.48zm-2929.32-98.92c11-54.96 137.4-131.91 208.85-142.9l98.92-16.49c-5.49 38.48-98.92 87.94-131.9 104.43-43.96 16.48-137.39 54.96-175.87 54.96zm-670.5 197.85c0-93.43 120.91-197.85 186.86-252.81 16.49-11 32.98-27.48 49.47-38.48 27.48-16.48 82.44-65.95 109.92-65.95-11 38.48-43.97 109.92-65.95 131.91-65.96 82.43-230.83 208.84-258.31 318.76h-10.99c-5.5-38.47-11-32.98-11-93.43zm-269.3 27.48c0-38.47-5.49-60.46 5.5-93.43 10.99-21.99 16.49-43.97 27.48-71.45 43.97-93.43 280.29-258.31 324.26-263.8 0 38.47-49.46 98.92-71.45 126.4l-148.39 142.9c-32.97 27.48-120.91 104.42-126.4 159.38zm3836.15-258.31c0-43.97 27.48-109.92 43.96-153.89l21.99-82.43c10.99-27.48 32.97 10.99 32.97 32.97 0 93.43-27.48 126.41-54.96 192.36-5.49 21.98-10.99 38.47-32.97 43.97-10.99-16.49-10.99-5.5-10.99-32.98zm-3242.59 104.42c0-87.93 93.43-164.88 153.89-208.84 32.97-27.48 71.44-49.47 115.41-65.95 27.48-5.5 120.91-32.98 142.9-32.98-21.99 76.94-137.4 131.9-203.35 159.38-32.98 10.99-82.44 49.47-109.92 71.45-32.98 21.98-87.94 71.45-98.93 76.94zm-785.91 0c0-54.96 0-93.43 27.48-126.4 65.95-76.95 87.93-82.44 175.87-131.91 21.98-10.99 82.44-49.46 98.92-49.46-10.99 54.96-65.95 93.43-104.42 126.41-16.49 16.48-21.98 21.98-38.47 38.47l-82.44 71.45c-16.49 16.48-54.96 65.95-76.94 71.44zm3440.43-318.76c21.99 49.46 27.48 214.34 16.49 274.79h-10.99c-5.5-65.95-43.97-104.42-60.46-153.88l-27.47-181.37c43.96 0 71.44 27.48 82.43 60.46zm346.25 538.6c-11-38.47-27.48-65.95-27.48-109.92 0-60.45 60.45-214.34 60.45-423.18 0-38.48-5.49-54.96-5.49-93.43 32.97 21.98 54.95 38.47 65.95 82.43 54.96 170.38-5.5 351.74-60.46 511.12-10.99 21.99-5.49 32.98-32.97 32.98zm225.33-643.02c5.49-38.47 10.99-71.45 10.99-115.42 10.99 5.5 10.99 5.5 21.98 16.49 43.97 76.94-10.99 236.32-10.99 263.8-27.48-5.49-49.46-65.95-49.46-65.95zm-835.38 516.61c-21.98-5.49-21.98-10.99-27.48-32.97-87.93-175.87-10.99-225.34-10.99-346.25 0-93.43-43.97-175.86 16.49-115.41 98.92 109.92 82.44 181.37 49.46 313.27-10.99 54.96-21.98 120.91-27.48 181.36zm-2676.5-131.9c5.49-38.47 43.96-115.41 60.45-137.4 65.95-93.43 192.36-153.88 291.28-203.35 21.99-10.99 38.47-27.47 65.95-27.47l-38.47 60.45c-32.97 38.47-71.44 54.96-109.92 87.93l-115.41 82.44c-65.95 49.47-71.45 71.45-104.42 93.43-49.46 38.47-16.49 32.98-49.46 43.97zm730.95-208.84c5.5-16.49 54.96-65.95 71.45-76.95 21.98-21.98 60.45-32.97 93.43-49.46 38.47-10.99 71.44-21.98 104.42-38.47 27.48-5.5 236.32-54.96 148.39 16.49-21.98 16.48-21.98 16.48-49.46 32.97-115.42 54.96-120.91 49.47-241.82 82.44-49.47 10.99-82.44 21.98-126.41 32.98zm2099.44-16.49c-27.48-5.5-49.47-43.97-54.96-76.94-11-27.48-16.49-82.44-27.48-104.43 21.98 5.5 54.96 54.96 60.45 71.45 16.49 32.98 21.99 60.46 21.99 109.92zm-3281.06 60.45c5.5-93.43 71.45-131.9 131.9-170.37 43.97-21.98 153.89-87.93 203.35-98.93 0 21.99-16.49 32.98-27.48 49.47-60.45 76.94-137.4 104.42-219.83 159.38-21.99 16.49-71.45 54.96-87.94 60.45zm3869.12-263.8c0-43.97 16.49-87.93 16.49-192.36 27.47 0 5.49-5.49 21.98 11 0 0 10.99 16.48 10.99 21.98 38.47 71.45 5.5 197.85-10.99 263.8-49.46-5.49-38.47-60.45-38.47-104.42zm-3028.25 247.32c0-16.49 16.49-54.96 27.48-65.96 21.99-49.46 93.43-98.92 142.9-120.9 49.46-27.48 203.35-82.44 274.79-82.44-16.48 71.44-148.39 115.41-214.34 142.89l-120.91 60.45c-38.47 16.49-87.93 60.46-109.92 65.96zm-632.02 98.92c0-16.49 16.48-38.47 32.97-71.44 21.98-38.48 104.42-137.4 142.89-159.39 21.99-21.98 214.34-159.38 241.82-159.38-21.98 82.44-21.98 76.95-76.94 126.41-32.97 38.47-71.45 65.95-109.92 93.43l-120.91 82.44c-16.48 16.49-93.43 82.44-109.91 87.93zm1148.64-324.26c5.5-21.98 54.96-49.46 71.45-60.45 98.92-65.95 175.87-10.99 324.25-10.99-5.49 21.98-10.99 16.48-38.47 21.98-65.95 16.49-82.44 16.49-148.39 27.48zm1670.75 318.77h-10.99c0-27.48-21.98-76.95-32.97-104.43-16.49-71.44-38.47-197.85-65.95-280.29-5.5-16.48-16.49-27.48-16.49-49.46 49.46 5.5 98.92 54.96 120.91 93.43 10.99 32.98 32.97 131.9 32.97 175.87 0 49.46-27.48 126.4-27.48 164.88zm-2473.15-153.89c0-16.49 16.49-60.45 21.98-76.94 60.46-120.91 236.33-175.87 362.73-208.85 21.98-10.99 49.46-21.98 71.45-21.98 0 16.49-5.5 21.98-16.49 32.98-32.98 27.48-109.92 76.94-148.39 98.92-71.45 38.47-120.91 65.95-181.36 115.42-16.49 10.99-109.92 87.93-109.92 60.45zm994.76-324.26c10.99-16.49 38.47-21.98 54.96-27.48 38.47-10.99 27.47 0 82.43 0 71.45 0 225.34 32.98 252.82 65.95-21.99 32.98-43.97 21.99-87.94 21.99s-71.45 0-115.41-5.5c-104.43-16.49-49.47 0-148.39-32.97-10.99 0-38.47-5.5-49.47-5.5 5.5-16.49 0-5.5 11-16.49zm-621.04 203.35c16.49-65.95 93.43-137.4 148.39-170.37 65.95-43.97 153.88-49.47 263.8-49.47 60.46 0 38.47 0 76.94 5.5v10.99c-21.98 5.5-38.47 16.49-65.95 21.99-21.98 10.99-43.96 10.99-71.44 16.48-186.86 49.47-318.77 159.39-351.74 164.88zm-851.87 16.49c5.5-82.44 93.43-153.89 153.89-186.86 16.49-5.5 225.33-104.42 236.32-87.94 16.49 11-54.96 76.95-71.44 87.94l-164.88 93.43c-49.46 27.48-120.91 93.43-153.89 93.43zm3643.79 258.31-27.48 126.4c-16.49-5.49-16.49-10.99-27.48-27.48-27.48-65.95-16.49-230.83-21.98-324.26-5.5-98.92-21.99-197.85-60.46-285.78-5.5-16.49-10.99-16.49-10.99-38.47 38.47 10.99 54.96 27.48 76.94 54.95 98.93 148.39 98.93 324.26 71.45 494.64zm-2022.49-544.1c16.48-16.49 54.95-43.97 87.93-43.97 93.43 0 93.43 16.49 159.38 54.96l87.94 54.96c21.98 10.99 16.48 0 21.98 21.99-76.94-16.49-186.86-54.96-263.8-71.45-21.99-5.5-82.44-10.99-93.43-16.49zm1275.05 500.13c5.49 32.97 21.98 60.45 21.98 93.43-21.98 0-21.98-5.5-32.98-27.48-10.99-10.99-21.98-16.49-32.97-27.48-49.47-65.95-87.94-208.84-126.41-291.28-5.49-16.49-10.99-21.99-21.98-38.47-16.49-43.97-93.43-219.84-93.43-263.81 43.97 5.5 120.91 71.45 142.89 98.93 32.98 49.46 49.46 98.93 71.45 164.88l43.97 197.85c10.99 32.97 16.48 60.45 27.48 93.43zm-1824.64-467.15c10.99-38.47 43.96-38.47 65.95-49.47 93.43-27.48 203.34-38.47 296.77-38.47-5.49 27.48-43.96 32.98-71.44 43.97-65.95 16.49-230.83 43.97-291.28 43.97zm-818.89 280.29c0-32.98 21.98-49.46 32.97-71.45 43.97-76.94 65.95-109.92 148.39-164.88 27.48-21.98 247.32-159.38 269.3-137.39 16.49 10.99-21.98 82.44-82.44 115.41-98.93 65.95-148.39 104.42-247.31 170.37zm1857.61-258.31c21.98 16.49 21.98 16.49 27.48 32.98-54.96 0-71.45 0-109.92-16.49l-186.86-115.42c-32.97-21.98-27.48-16.48-27.48-32.97 148.39 0 175.87 43.97 296.78 131.9zm159.38 49.46c-60.45 0-120.91-49.46-159.38-82.43l-104.42-76.95c-21.98-16.48-21.98-16.48-27.48-32.97 87.93 0 120.91-16.49 170.37 21.98 27.48 16.49 43.97 21.98 54.96 60.46 32.98-5.5 49.46 10.99 76.94 49.46 49.47 54.96 98.93 60.45-10.99 60.45zm-87.93-208.84c159.38-10.99 142.89-38.47 219.83 93.43 16.49 21.98 109.92 203.35 109.92 225.33-38.47-10.99-137.4-120.91-164.88-159.38-27.47-27.48-54.95-54.96-87.93-76.94-16.49-16.49-27.48-27.48-43.97-38.47-16.48-10.99-32.97-21.99-32.97-43.97zm-1588.32 274.79c5.5-32.97 16.49-43.96 38.47-65.95 16.49-16.48 38.47-32.97 54.96-49.46 71.45-60.45 120.91-76.94 203.35-109.92l241.82-71.44c-5.5 21.98-32.98 43.96-49.46 54.96-10.99 10.99-21.99 16.48-32.98 21.98-71.45 54.96-93.43 49.46-170.37 87.93-21.99 10.99-49.46 21.99-71.45 32.98-21.98 10.99-49.46 21.98-71.44 32.97l-71.45 32.98c-21.99 10.99-43.97 32.97-71.45 32.97zm3143.66 43.97c-65.95-16.49-21.99-71.44-21.99-230.83 0-71.44-16.48-87.93-21.98-120.91 21.98 16.49 38.47 38.48 49.46 65.96 43.97 87.93 16.49 192.35-5.49 285.78zm-1060.71 10.99c16.49 27.48 60.45 126.41 60.45 159.38-38.47-10.99-131.9-137.39-159.38-170.37-49.46-65.95-87.93-126.4-126.4-203.35-16.49-21.98-27.48-49.46-38.47-71.44-11-21.99-38.48-60.46-32.98-65.95 5.5-5.5 76.94 5.49 87.93 10.99 11 5.49 16.49 16.49 32.98 21.98l27.48 27.48c76.94 54.96 93.43 175.87 148.39 291.28zm862.86 362.73c-16.49-5.49-5.5 0-16.49-16.48l-27.48-65.96c-5.5-38.47-5.5-76.94-10.99-109.91-5.5-82.44-21.99-137.4-32.98-214.34-32.97-131.91-142.89-329.76-148.39-346.25 54.96 11 104.42 71.45 131.9 115.42 115.42 159.38 104.43 434.17 104.43 637.52zm-3434.94-494.63c5.49-38.47 49.46-87.93 71.44-109.92 65.95-65.95 131.9-104.42 219.84-137.39 43.97-11 93.43-38.47 137.4-27.48-5.5 60.45-263.81 181.36-313.27 214.34-21.98 10.99-38.47 16.48-60.45 27.48-16.49 16.48-27.48 27.48-54.96 32.97zm1016.74-137.4c0-27.47 21.98-38.47 38.47-54.95 16.49-16.49 27.48-27.48 49.46-38.48 65.95-38.47 219.84-60.45 302.28-60.45 27.48 0 159.38 5.5 170.37 10.99-10.99 43.97-71.45 43.97-120.91 54.96-109.92 16.49-203.35 43.97-291.28 60.46-60.46 5.49-98.93 16.48-148.39 27.47zm725.46-153.88c27.48-5.5 93.43-38.47 126.4-32.98 16.49 5.5 76.95 60.46 87.94 71.45-21.99 10.99-65.95 16.49-98.93 16.49-98.92 0-82.44-27.48-115.41-38.47zm835.37 65.95c-43.96 0-60.45-5.5-76.94-21.98-27.48-21.99-43.96-21.99-49.46-43.97 21.98 0 32.97 5.5 49.46 10.99 21.99 5.5 38.47 0 49.47 5.5 0 0 71.44 49.46 27.47 49.46zm670.51 126.41c43.96 115.41 93.43 236.32 93.43 384.71-32.98-5.5-87.94-82.44-98.93-115.41l-126.41-412.2c-21.98-71.44-38.47-120.91 38.47-32.97 16.49 21.98 60.46 115.41 71.45 142.89 10.99 10.99 16.49 21.98 21.99 32.98zm-2929.32 43.96c10.99-54.96 65.95-126.4 109.92-164.87 21.98-16.49 32.97-16.49 60.45-27.48 65.95-32.98 181.37-76.95 280.29-76.95-5.49 11-5.49 5.5-10.99 16.49l-60.45 49.46c-11 5.5-21.99 11-27.48 16.49-60.46 38.47-126.41 60.46-186.86 87.94-49.47 27.48-148.39 93.43-164.88 98.92zm857.36-296.78c-5.5 16.49-38.47 32.98-49.46 43.97-16.49 5.5-49.47 21.99-65.95 27.48-109.92 27.48-236.33 71.45-335.25 126.41-32.98 10.99-49.47 27.48-54.96 21.98-27.48-21.98 71.44-153.88 175.87-181.36 71.44-16.49 252.81-32.98 329.75-38.48zm2390.72 346.25c-43.97-5.5-49.47-109.92-65.95-181.37-21.99-65.95-65.95-153.88-71.45-170.37 65.95 0 87.93 54.96 104.42 109.92 54.96 159.38 32.98 137.39 32.98 241.82zm-1187.12-258.31c-87.93 0-131.9-5.5-181.36-43.97-32.98-21.98-71.45-32.97-76.95-54.96 43.97 0 115.42 16.49 153.89 27.48 43.97 5.5 98.93 27.48 104.42 71.45zm-214.34 0c-87.93 0-87.93 10.99-159.38-16.49-38.47-10.99-87.93-43.97-98.93-82.44l76.95 5.5c49.46 5.49 38.47-21.99 87.93 10.99 27.48 16.49 87.94 43.97 93.43 82.44zm-961.78-32.98c10.99-38.47 54.96-71.44 87.93-87.93 109.92-38.47 126.41-32.98 236.33-32.98 98.92 0 153.88 27.48 186.86 27.48v16.49c-60.46 16.49-181.37 43.97-247.32 49.46-54.96 5.5-87.93 0-142.89 5.5-38.47 5.5-82.44 16.49-120.91 21.98zm-643.02-104.42c-5.5 16.49-16.49 27.48-32.98 32.98-98.92 60.45-120.91 10.99-335.25 126.4-5.49 5.5-10.99 10.99-21.98 10.99-16.49 11-10.99 11-16.49 5.5-21.98-21.98 60.46-104.42 71.45-115.41 16.49-16.49 10.99-16.49 32.97-32.98 54.96-49.46 175.87-49.46 247.32-38.47 38.47 5.5 27.48-5.5 54.96 10.99zm-60.46 115.42c0-21.99 11-21.99 21.99-38.48 115.41-98.92 142.89-87.93 335.25-87.93-27.48 43.97-65.95 43.97-126.41 54.96-98.92 16.49-214.34 71.45-230.83 71.45zm2594.07 82.43c21.98 115.42 65.95 225.34 65.95 329.76-16.49-5.5-16.49-16.49-27.48-27.48-21.98-38.47-16.49-32.98-32.97-65.95l-49.47-126.41c-49.46-93.43-60.45-192.35-87.93-280.29-5.5-16.49-32.98-60.45-21.99-65.95 11-10.99 54.96 21.98 65.96 27.48 27.47 16.49 32.97 21.98 43.96 54.96 16.49 43.97 32.98 104.42 43.97 153.88zm-1676.25-247.31c5.5-43.97 82.44-76.94 115.41-76.94 60.46 0 214.34 71.44 236.33 104.42-27.48 0-54.96-10.99-82.44-16.49-65.95-5.5-197.85-10.99-269.3-10.99zm-560.58 109.92c5.49-32.98 49.46-54.96 82.44-76.95 21.98-10.99 32.97-10.99 54.95-21.98 104.43-49.46 208.85-43.97 346.25-43.97l-21.99 21.99c-65.95 49.46-368.22 98.92-461.65 120.91zm2599.56 230.82c-16.49-5.49-10.99-5.49-21.98-16.48-49.47-32.98-5.5-32.98-43.97-65.95-16.49-11-27.48-16.49-38.47-32.98-5.5-10.99-10.99-38.47-16.49-54.96-10.99-38.47-21.98-76.94-38.47-109.92l-43.97-98.92c32.98 5.49 65.95 38.47 87.94 60.45 16.48 27.48 43.96 54.96 60.45 82.44 49.46 93.43 54.96 137.4 54.96 236.32zm-417.69 87.94c-76.94-5.5-153.88-247.32-181.36-302.28-5.5-27.48-16.49-43.96-27.48-65.95l-65.95-126.4c49.46 0 93.43-10.99 131.9 60.45 54.96 104.42 54.96 192.36 93.43 291.29 10.99 38.47 49.46 109.91 49.46 142.89zm-2385.22-412.19c0-21.99 16.49-32.98 38.47-43.97 131.9-76.94 192.36-49.46 307.77-49.46v10.99c-32.97 5.49-49.46 21.98-76.94 32.97-10.99 5.5-60.46 27.48-71.45 32.98zm-252.81-11c5.49-27.48 16.48-32.97 38.47-43.96 104.42-76.95 186.86-49.47 291.28-49.47v11c-27.48 0-54.96 21.98-71.45 32.97-126.4 71.45-49.46 32.98-258.3 49.46zm1209.1-104.42c16.48-10.99 32.97-10.99 54.95-16.49 38.48-5.49 38.48-16.48 76.95-21.98 49.46-5.5 21.98-5.5 49.46-16.49 32.98-10.99 71.45-5.49 93.43 27.48 38.47 43.97 104.42 98.93 120.91 126.41-10.99 5.49-16.49 10.99-32.97 10.99-258.31 0-137.4-16.49-335.25-93.43-27.48-5.5-21.99-10.99-27.48-16.49zm-522.11 49.47c5.49-16.49 0-5.5 16.48-16.49 65.95-49.47 153.89-43.97 236.33-43.97 54.96 0 87.93 10.99 126.4 10.99v10.99c-27.48 5.5-43.96 16.49-82.44 21.99-32.97 0-71.44-5.5-104.42 0-27.48 5.49-60.45 5.49-98.92 5.49-32.98 0-65.96 11-93.43 11zm1538.85-65.96c98.92 0 153.88 120.91 186.86 197.86 5.49 16.48 109.92 258.3 98.93 269.3-11 10.99 0 5.49-11-5.5l-38.47-32.98c-10.99-21.98-21.98-38.47-32.97-60.45-16.49-21.98-27.48-38.47-38.47-60.46-43.97-71.44-82.44-170.37-131.91-247.31zm-1791.67-5.49c54.96-71.45 252.82-54.96 313.27-27.48-16.49 43.97-120.91 32.97-148.39 32.97-38.47 0-126.41 11-164.88-5.49zm2335.76 16.49c60.46 71.44 126.41 203.34 126.41 302.27-21.99-5.5-54.96-54.96-65.95-76.94l-98.93-186.86c-10.99-27.48-54.96-82.44-43.97-87.94 11-10.99 71.45 38.47 82.44 49.47zm-483.64 164.87c16.49 27.48 76.95 142.9 76.95 159.38-16.49 0-43.97-21.98-60.46-27.48-71.45-54.95-148.39-170.37-181.36-252.81-16.49-54.96-82.44-98.92-38.48-98.92 76.95 0 115.42 49.46 148.39 115.41 43.97 65.95 27.48 38.47 54.96 104.42zm-533.1-164.87c21.98 21.98 32.98 43.96 49.46 71.44 11 10.99 54.96 65.95 11 65.95-71.45 0-142.9-32.97-197.86-76.94-10.99-10.99-21.98-21.98-32.97-32.97-21.99-21.99-65.95-54.96-93.43-93.43 104.42-54.96 186.86-5.5 263.8 65.95zm-950.79-27.48c21.98-38.47 98.93-76.95 159.38-76.95 82.44 0 219.84 0 285.79 32.98-16.49 21.98-38.47 16.49-71.45 21.98-71.45 16.49-38.47 38.47-225.33 10.99-54.96-5.49-93.43 11-148.39 11zm-648.52 16.48c5.5-27.48 60.46-49.46 87.94-60.45 115.41-43.97 153.88-21.98 230.82-21.98-5.49 21.98-5.49 16.48-27.47 27.48-76.95 38.47-16.49 49.46-98.93 49.46-65.95 0-120.91 5.49-192.36 5.49zm2154.4 379.22c-65.95-16.49-120.91-109.92-148.39-137.4-32.98-38.47-49.47-93.43-115.42-164.87-43.96-49.47-65.95-54.96-87.93-82.44-27.48-27.48-76.94-54.96-82.44-82.44 43.97 0 65.95 0 98.93 16.49 21.98 5.49 49.46 27.48 65.95 43.96 32.97 43.97 60.45 93.44 82.44 142.9 38.47 76.94 98.92 142.89 137.39 203.35 16.49 27.48 32.98 38.47 49.47 60.45zm-214.34-175.87c-109.92 0-164.88-43.96-230.83-115.41-32.98-32.98-54.96-54.96-82.44-93.43-54.96-60.46-76.94-49.46-87.93-82.44h87.93c54.96 0 115.41 71.45 153.89 104.42 32.97 38.47 148.38 142.9 159.38 186.86zm-1538.86-285.78c5.5-16.49 49.47-38.48 65.95-43.97 71.45-27.48 236.33-16.49 274.8 0-5.5 16.49 0 5.49-10.99 10.99 0 0-10.99 5.5-16.49 5.5-120.91 49.46-10.99 54.96-175.87 27.48-49.46-5.5-87.93-11-137.4 0zm747.45-5.5c-43.97 0-65.95-10.99-93.43-21.98-71.45-21.99-214.34 0-137.4-38.48 87.93-49.46 131.9-21.98 241.82-5.49 21.98 5.49 43.97 10.99 71.44 16.49 43.97 10.99 54.96 5.49 65.96 21.98-16.49 5.5-120.91 27.48-148.39 27.48zm1489.39 351.74c-21.99-5.5-38.48-27.48-49.47-43.97-21.98-21.98-10.99-10.99-21.98-27.48-5.5-16.49-38.47-49.46-54.96-82.44-38.47-60.45-71.45-104.42-109.92-164.87-38.47-54.96-76.94-76.95-82.44-98.93 82.44 21.98 126.41 38.47 170.38 109.92 16.48 16.48 21.98 32.97 38.47 49.46 10.99 27.48 109.92 225.33 109.92 258.31zm-181.37-170.38-82.44-38.47c-27.48-16.48-71.44-115.41-93.43-148.39-21.98-49.46-38.47-54.96-43.96-71.44 65.95 5.49 208.84 208.84 219.83 258.3zm-1879.6-274.79c32.98 0 109.92-5.5 137.4-10.99 38.47-10.99 54.96-32.98 109.92-32.98s87.93 21.99 131.9 21.99v10.99c-16.49 0-49.46 16.49-65.95 21.98-60.46 43.97-10.99 49.46-104.42 16.49-60.46-16.49-142.9-16.49-208.85-16.49zm478.15-16.49c5.49-16.49 0-5.49 16.48-16.49 54.96-49.46 87.94-16.48 153.89 27.48 16.49 5.5 21.98 11 27.48 21.99-38.47 0-137.4-32.98-197.85-32.98zm-142.9-54.96c27.48 0 21.99-5.49 49.47-5.49l98.92 5.49c-21.98 71.45-115.41 16.49-148.39 16.49zm610.05 104.42c-38.47 0-38.47 11-60.46 11-27.48 0-32.97-5.5-49.46-5.5-76.94 0-49.46-5.5-115.41-38.47-38.48-21.98-98.93-65.95-142.9-76.94v-11c49.47-10.99 82.44-60.45 241.82 27.48 21.99 16.49 43.97 27.48 65.95 43.97 16.49 10.99 54.96 32.98 60.46 49.46zm774.92 153.89c-32.98 0-38.47-10.99-54.96-27.48-10.99-16.49-21.98-27.48-38.47-43.97-43.97-60.45-148.39-148.39-208.84-197.85-27.48-21.98-32.98-16.49-38.48-38.47 43.97 0 87.94 27.48 120.91 43.97 71.45 32.97 131.91 93.43 170.38 153.88 10.99 21.99 49.46 82.44 49.46 109.92zm-796.91-214.34c-16.48-10.99-32.97-21.98-49.46-32.98-49.46-32.97-87.93-38.47-104.42-60.45 76.94-38.47 247.31 27.48 307.77 54.96 16.49 10.99 27.48 16.49 49.46 27.48 27.48 16.49 115.42 65.95 131.9 87.93-54.95 0-87.93-16.49-148.39-16.49-65.95 0-131.9-27.47-186.86-60.45zm681.5 175.87c-76.95-5.5-115.42-43.97-170.38-93.43-10.99-16.49-21.98-27.48-38.47-43.97s-32.97-21.98-49.46-38.47l-93.43-76.94c-32.98-21.99-38.47-10.99-43.97-38.47 71.45 0 87.94 10.99 137.4 38.47 54.96 27.48 225.33 186.86 258.31 252.81zm-423.19-186.86c-32.97-21.99-65.95-38.47-104.42-60.46-43.97-21.98-54.96-21.98-93.43-32.97-27.48-10.99-16.49 0-21.98-16.49 16.48-5.5 43.96-10.99 65.95-10.99 76.94 0 82.43 0 142.89 38.47 126.41 71.45 109.92 65.95 203.35 153.88 21.98 16.49 27.48 11 32.97 32.98-60.45 0-170.37-71.45-225.33-104.42zm-2577.58 1384.97c0 32.97 10.99 5.49 0 38.47-5.49 10.99-10.99 16.48-21.98 27.48-27.48 49.46-5.5 115.41-16.49 170.37-21.98 71.45 10.99 93.43-16.49 159.38-49.46 142.89 27.48 219.84 27.48 335.25 0 38.47 5.5 49.46 5.5 82.44 5.5 225.33 32.97 142.89 82.44 230.83 16.49 27.48 0 0 0 32.97 0 93.43 5.49 170.38 49.46 252.81 65.95 137.4 60.46 87.94 104.42 126.41 10.99 10.99 27.48 54.96 43.97 71.45 21.98 27.48 38.47 27.48 71.45 43.96 10.99 11 16.48 21.99 27.48 32.98 38.47 32.97 104.42 49.46 109.91 60.45 16.49 21.99 21.99 60.46 32.98 82.44 10.99 21.99 32.98 43.97 54.96 60.46 21.98 21.98 43.97 27.48 54.96 60.45 21.98 54.96 43.97 98.93 76.94 153.89 27.48 32.97 76.94 93.43 115.41 115.41 76.95 38.47 93.44 87.94 197.86 142.9 142.89 65.95 159.38 137.39 285.78 175.86l98.93 16.49c43.97 10.99 38.47 27.48 76.94 38.47 49.47 21.99 131.9 21.99 203.35 27.48 60.46 5.5 43.97 5.5 82.44 32.98 71.45 38.47 131.9 71.44 219.84 71.44 27.48 0 27.48 5.5 43.96 11 159.38 93.43 181.37 32.97 280.29 54.96 170.38 43.96 148.39 5.49 181.37 0l120.91 16.48c49.46 5.5 65.95 5.5 109.92-16.48 10.99-11 16.49-16.49 27.48-16.49 54.96-21.99 71.44 32.97 181.36-49.47 16.49-5.49 16.49-10.99 38.47-10.99 60.46-5.49 98.93-38.47 120.91-82.44 71.45 0 109.92-21.98 153.89-60.45 49.46-43.97 32.97-16.49 87.93-32.98 32.98-10.99 65.95-49.46 87.94-76.94 32.97-54.96 43.96-43.97 98.92-65.95 49.47-21.98 60.46-38.47 93.43-76.94 60.46-71.45 38.48-60.46 60.46-104.42 16.49-27.48 65.95-49.47 87.93-76.95 16.49-16.48 21.99-27.48 38.47-43.96 16.49-16.49 27.48-21.99 38.48-43.97 10.99-16.49 27.48-32.98 32.97-54.96 38.47-65.95 27.48-71.45 93.43-153.89 27.48-38.47 43.97-54.95 60.46-104.42 21.98-43.97 5.49-82.44 43.96-120.91 65.95-82.44 82.44-131.9 93.43-236.32 5.5-27.48 16.49-27.48 32.98-49.46 38.47-54.96 43.97-131.91 43.97-192.36 0-27.48 21.98-60.46 32.97-82.44 32.98-87.93 5.5-104.42 5.5-175.87 0-10.99 10.99-38.47 16.49-49.46 32.97-192.36-27.48-87.94 10.99-208.85 5.49-16.48 10.99-27.48 10.99-49.46 32.97-203.35 5.5-142.89 0-214.34-5.5-93.43 21.98-54.96-16.49-164.88-10.99-27.48 32.98-87.93-16.49-208.84-10.99-21.98-21.98-27.48-27.48-49.46 0-21.99 0-49.47 0-71.45-10.99-76.94-38.47-148.39-104.42-192.36 0-71.44 0-82.44-21.98-131.9s-54.96-49.46-65.95-87.93c-16.49-38.47-32.98-71.45-65.95-87.94-60.46-27.48-16.49-27.48-65.95-87.93-11-16.49-21.99-27.48-38.48-38.47-16.48-11-32.97-21.99-43.96-32.98-5.5-5.49-10.99-16.49-16.49-21.98-54.96-98.93-109.92-76.95-159.38-109.92-5.5-5.5-27.48-32.98-38.47-38.47-54.96-71.45-98.93-60.46-137.4-87.94-10.99-10.99-21.98-38.47-54.96-60.45-21.98-21.98-43.97-27.48-76.94-38.47-43.97-10.99-65.95-65.95-137.4-93.43-65.95-21.99-186.86-43.97-230.83-76.95-181.36-137.39-208.84-71.44-280.29-93.43-21.98-5.49-38.47-16.48-65.95-16.48-38.47 0-65.95 10.99-93.43-5.5-27.48-10.99-43.97-16.49-82.44-16.49-82.44 0-241.82 16.49-313.26 38.47-27.48 11-27.48 11-65.96 11-109.91 0-126.4 49.46-170.37 49.46-60.45 0-126.4-38.47-192.36 0-54.95 32.97-98.92 0-153.88 32.97-27.48 11-27.48 27.48-65.95 27.48-186.86 0-159.38 38.48-214.34 65.95l-71.45 21.99c-87.93 0-131.9-5.5-225.33 10.99-32.98 10.99-49.46 10.99-76.94 27.48l-65.95 32.98c-60.46 32.97-60.46 60.45-82.44 71.44-21.99 5.5-21.99 0-38.47 10.99-43.97 21.99-76.95 54.96-98.93 98.93-60.46 0-98.93 16.49-137.4 60.45-32.97 38.48-60.45 60.46-87.93 109.92-5.5 10.99-10.99 21.99-16.49 32.98 0 16.49 0 32.97-5.5 43.97-10.99 16.48-10.99 10.99-27.48 21.98-109.91 93.43-109.91 181.36-137.39 208.84-32.98 32.98-65.95 76.95-76.95 120.91-27.47 115.42 5.5 38.47-60.45 137.4-32.98 49.46 0 82.44-43.97 153.89-32.97 38.47-27.48 98.92-27.48 148.39z" fill="#1a1a1a"/><g fill-rule="nonzero"><g fill="#2f2f2f"><path d="m1891.86 574.57c5.08 33.22 18 67.98 38.61 104.13 20.62 36.14 43.08 74.74 67.54 115.96 24.31 41.38 56.46 97.52 96.15 168.42 39.69 71.06 68.92 124.58 87.54 160.73 18.62 36.3 32.92 58.29 42.62 66.13 9.84 7.85 15.38 15.38 16.61 22.61h-133.84c-1.69-8.46 3.23-14.61 14.92-18.15 11.53-3.69 17.39-9.69 17.39-18.3-13.55-34.91-27.85-67.67-42.78-98.13-14.76-30.45-30.76-61.21-47.69-92.28-17.07-31.22-37.84-67.83-62.45-109.97h-248.61c-16.62 31.99-33.7 64.75-51.09 98.44-17.38 33.68-33.22 65.98-47.53 97.2-14.15 31.07-24.76 55.37-31.54 73.06-6.77 17.68-10.15 27.84-10.15 30.45 0 6 4.3 11.69 12.92 17.23 8.62 5.53 12.93 9.53 12.93 12.15 0 2.92-2.16 5.69-6.46 8.3h-45.86-9.53-8.31-7.69c-8.61 0-17.08-.15-25.54-.61s-16.77-1.23-24.92-2.62c38.62-31.83 73.07-70.59 103.53-116.12 30.31-45.37 66.16-109.51 107.54-191.95 41.54-82.44 70.16-139.35 86-170.26 16-31.07 32-60.29 48.15-87.52 16.16-27.22 33.39-50.14 51.54-68.9zm-32.61 99.67c-13.24 14.91-28.62 36.45-46.47 64.9-17.84 28.3-31.84 51.83-42 70.6-10.3 18.61-18.45 33.83-24.91 45.68h227.37c-13.23-27.99-28.15-55.68-44.92-82.9-16.77-27.38-36.77-58.76-60.15-94.44z"/><path d="m2292.93 1016.14c8-8.92 21.54-19.99 40.46-33.37 19.08-13.38 30.31-21.38 33.69-24 1.69 3.08 2.46 7.08 2.46 11.69 0 3.85.15 7.69.31 11.39.15 3.84 1.84 6.76 4.77 8.92 13.23-7.54 28.77-14.31 46.93-20.31 17.99-5.99 35.83-8.92 53.22-8.92 12.77 0 24.3 2 34.47 6 10.3 4 19.22 10.46 26.76 19.38 7.7 8.92 12.93 18.61 15.7 28.92 2.76 10.45 4.15 22.14 4.15 35.37 0 7.23-.92 20.77-2.77 40.91-1.69 20.15-2.62 33.38-2.62 39.84 0 7.54.16 14.61.62 20.92.46 6.3 1.38 12.45 2.92 18.45s4.31 10.62 8.31 14 10.61 5.07 19.53 5.07c3.09 0 6.62-.3 10.93-.92.92 5.85-.92 9.54-5.07 10.77-6.47.46-14.78 2.15-25.24 5.07-10.46 2.93-22.62 4.46-36.77 4.46-4.61 0-8.3-.3-10.76-.76-1.7-9.23-2.77-16-2.93-20.31-.15-4.15-.3-7.53-.3-10.15 0-9.69 1.38-27.84 4.15-53.98 2.77-26.3 4.15-44.15 4.15-53.53 0-19.84-2.92-36.76-8.61-50.6-5.69-13.69-15.08-24.61-28-32.45-12.92-7.85-26.47-11.69-40.46-11.69-19.08 0-34.62 6-46.77 17.84-12.15 12-20.47 27.22-25.08 45.68-4.77 18.46-7.08 39.68-7.08 63.52 0 15.69.16 26.46.62 32.3.46 5.69 2 23.69 4.92 53.99 0 5.07 5.08 8.76 15.08 11.07s15.38 5.08 16.31 8c-9.39.92-18.46 1.69-27.24 2.61-8.76.77-17.07 1.23-25.22 1.23-11.09 0-19.08-.3-24-.92-4.93-.62-11.39-2-19.54-4.15 9.08-9.38 15.38-21.07 18.77-34.92 3.53-13.84 5.23-30.76 5.23-50.75 0-13.69-.77-32.3-2.16-55.68-1.38-23.38-2-37.99-2-43.53 0-5.99-1.69-8.92-5.07-8.92-1.69 0-5.08 1.08-9.85 3.23-4.92 2.16-8.15 3.08-9.84 3.08-2.62 0-4.93-1.23-7.08-3.85z"/><path d="m2691.84 958.77h21.7c13.53 0 24.45 1.39 32.46 4.16 8 2.77 14.76 8.61 20.3 17.53-1.69 10.15-4.61 15.38-8.77 15.38-2.15 0-8.61-5.23-19.39-15.38-10.76-10.15-18.3-15.23-22.61-15.23-13.39 0-24.92 2.31-34.15 7.08-9.38 4.61-15.84 11.38-19.39 20.15-3.54 8.61-5.38 16.15-5.38 22.61 0 11.07 3.69 21.84 11.08 32.3 7.38 10.46 23.99 19.07 49.84 26.14 25.84 7.08 40.77 16.46 45.08 28.46 4.15 11.84 6.3 21.53 6.3 28.76 0 8.92-1.99 17.53-5.99 25.84-4.16 8.3-10.31 17.22-18.46 26.91-8.32 9.54-16.93 17.08-25.85 22.61-8.92 5.54-19.08 8.31-30.46 8.31-8.15 0-16.46-1.69-25.24-5.23-8.61-3.38-15.07-8.92-19.38-16.77-4.15-10.76-7.23-18.45-8.92-23.22 4.31 0 12.62 3.84 25.23 11.69 12.47 7.84 20.46 12.3 24.15 13.38 3.54 1.08 9.54 1.69 18.15 1.69 6.78 0 13.24-1.38 19.7-4.15 6.31-2.77 11.69-7.38 15.84-14 4.31-6.61 6.46-13.84 6.46-21.53 0-6.31-2.46-13.38-7.38-21.07s-21.53-16-50-24.92c-28.46-8.92-44.15-19.07-47.38-30.3-3.23-11.38-5.38-20.61-6.77-27.84-1.23-7.22-1.84-13.07-1.84-17.22 0-12 3.54-24.15 10.76-36.45 7.23-12.46 14.62-22.15 22-29.07 7.39-7.08 16.93-10.62 28.31-10.62z"/><path d="m2921.06 960.16c6.31-2.15 13.38-3.23 20.92-3.23 8.16 0 16.01 1.84 23.85 5.38s20.92 13.69 39.23 30.46c18.15 16.61 30.16 50.29 36 101.05 5.69 50.6 10.46 83.2 14.3 97.51l21.55 10.92c-4.62 2.92-11.55 4.92-20.62 6.3-9.08 1.23-18.31 1.85-27.69 1.85-5.54 0-11.08 0-16.62 0s-10.76-.31-15.84-.62c7.69 0 13.07-2.61 16.15-7.69 3.23-5.07 4.77-11.53 4.77-19.53 0-5.54-.31-11.38-1.08-17.53-.77-6.16-1.38-12-1.69-17.38-1.69-4.16-4.46-6.16-8.31-6.16-4.3 0-8.76 1.85-13.38 5.7-17.39 18.45-37.54 34.14-60.62 47.37-22.91 13.22-44.61 19.84-64.91 19.84-12.01 0-23.85-2.92-35.7-8.92-12-5.85-21.23-13.08-27.84-21.69-6.62-8.46-9.85-19.22-9.85-32.45 0-12.61 3.54-24 10.77-33.99 7.23-10 17.84-18.77 31.54-26.3 13.84-7.69 29.69-14 47.84-18.77 18-4.92 36.31-7.38 54.92-7.38 9.85 0 18.77.62 26.77 1.85 8.15 1.07 16.61 3.23 25.54 6.46 3.85-3.85 5.7-8.46 5.7-14 0-3.38-1.24-7.69-3.85-12.77-2.46-5.07-7.39-15.84-14.62-32.45-7.23-16.46-26.15-24.76-56.61-24.76-14 0-26 2.92-36 8.92s-23.08 15.69-39.23 28.91c6.92-15.68 16.45-29.37 28.77-40.75 12.3-11.54 27.53-20.31 45.84-26.15zm53.23 120.43c-12.77-5.54-26.76-8.31-42-8.31-19.53 0-37.85 4.16-55.07 12.61-17.08 8.46-28.62 17.69-34.31 27.54-5.69 9.99-8.61 17.68-8.61 23.22 0 6.77 1.69 12.92 5.07 18.61 3.39 5.69 9.85 13.38 19.38 22.76 9.55 9.54 21.39 14.31 35.39 14.31 4.15 0 12.77-1.54 25.69-4.46s30-12.61 50.92-29.07c21.08-16.46 31.54-32.61 31.54-48.14 0-2.93-.77-6.62-2.15-10.77-1.54-4.31-4.31-7.69-8.31-10.15s-9.85-5.23-17.54-8.15z"/></g><g fill="#dddad6"><path d="m1891.87 564.84c5.07 33.22 17.99 67.98 38.61 104.13 20.61 36.14 43.08 74.74 67.53 115.96 24.31 41.38 56.47 97.52 96.16 168.42 39.69 71.06 68.91 124.58 87.53 160.73 18.62 36.3 32.93 58.29 42.62 66.13 9.84 7.85 15.38 15.38 16.61 22.61h-133.84c-1.69-8.46 3.23-14.61 14.92-18.15 11.54-3.69 17.39-9.69 17.39-18.3-13.54-34.91-27.85-67.67-42.77-98.13-14.77-30.45-30.77-61.21-47.69-92.28-17.08-31.22-37.84-67.83-62.46-109.97h-248.61c-16.62 31.99-33.7 64.75-51.08 98.44-17.39 33.68-33.23 65.98-47.54 97.2-14.15 31.07-24.76 55.37-31.53 73.06-6.77 17.68-10.16 27.84-10.16 30.45 0 6 4.31 11.69 12.93 17.23 8.61 5.53 12.92 9.53 12.92 12.15 0 2.92-2.16 5.69-6.46 8.3h-45.85-9.53-8.32-7.69c-8.61 0-17.07-.15-25.53-.61-8.47-.46-16.78-1.23-24.93-2.62 38.62-31.83 73.08-70.59 103.53-116.12 30.31-45.37 66.16-109.51 107.54-191.95 41.54-82.44 70.16-139.35 86-170.26 16.01-31.07 32-60.29 48.15-87.52 16.16-27.22 33.39-50.14 51.55-68.9zm-32.62 99.67c-13.23 14.91-28.62 36.45-46.46 64.9-17.85 28.3-31.85 51.83-42 70.6-10.31 18.61-18.46 33.83-24.92 45.68h227.38c-13.24-27.99-28.16-55.68-44.92-82.9-16.78-27.38-36.77-58.76-60.16-94.44z"/><path d="m2292.94 1006.41c7.99-8.92 21.53-19.99 40.46-33.37 19.07-13.38 30.3-21.38 33.68-24 1.7 3.08 2.47 7.08 2.47 11.69 0 3.85.15 7.69.31 11.39.15 3.84 1.84 6.76 4.77 8.92 13.22-7.54 28.76-14.31 46.92-20.31 17.99-5.99 35.84-8.92 53.22-8.92 12.77 0 24.31 2 34.47 6 10.3 4 19.22 10.46 26.77 19.38 7.69 8.92 12.92 18.61 15.69 28.92 2.76 10.45 4.15 22.14 4.15 35.37 0 7.23-.92 20.77-2.77 40.91-1.69 20.15-2.62 33.38-2.62 39.84 0 7.54.16 14.61.62 20.92.46 6.3 1.38 12.45 2.92 18.45s4.31 10.62 8.31 14 10.62 5.07 19.54 5.07c3.08 0 6.61-.3 10.92-.92.92 5.85-.92 9.54-5.07 10.77-6.46.46-14.77 2.15-25.24 5.07-10.46 2.93-22.61 4.46-36.77 4.46-4.61 0-8.3-.3-10.76-.76-1.7-9.23-2.77-16-2.93-20.31-.15-4.15-.3-7.53-.3-10.15 0-9.69 1.38-27.84 4.15-53.98 2.77-26.3 4.15-44.15 4.15-53.53 0-19.84-2.92-36.76-8.61-50.6-5.69-13.69-15.07-24.61-28-32.45-12.92-7.85-26.46-11.69-40.46-11.69-19.08 0-34.62 6-46.77 17.84-12.15 12-20.46 27.22-25.07 45.68-4.78 18.46-7.09 39.68-7.09 63.52 0 15.69.16 26.46.62 32.3.46 5.69 2 23.69 4.93 53.99 0 5.07 5.08 8.76 15.07 11.07 10 2.31 15.38 5.08 16.31 8-9.39.92-18.46 1.69-27.23 2.61-8.77.77-17.08 1.23-25.23 1.23-11.08 0-19.07-.3-24-.92s-11.39-2-19.54-4.15c9.08-9.38 15.38-21.07 18.77-34.92 3.53-13.84 5.24-30.76 5.24-50.75 0-13.69-.77-32.3-2.17-55.68-1.38-23.38-2-37.99-2-43.53 0-5.99-1.69-8.92-5.07-8.92-1.69 0-5.08 1.08-9.85 3.23-4.92 2.16-8.15 3.08-9.84 3.08-2.61 0-4.92-1.23-7.07-3.85z"/><path d="m2691.85 949.04h21.69c13.53 0 24.46 1.39 32.46 4.16s14.76 8.61 20.3 17.53c-1.69 10.15-4.61 15.38-8.77 15.38-2.15 0-8.61-5.23-19.38-15.38s-18.31-15.23-22.62-15.23c-13.38 0-24.92 2.31-34.15 7.08-9.38 4.61-15.84 11.38-19.38 20.15-3.54 8.61-5.38 16.15-5.38 22.61 0 11.07 3.69 21.84 11.07 32.3s24 19.07 49.84 26.14c25.85 7.08 40.77 16.46 45.08 28.46 4.15 11.84 6.3 21.53 6.3 28.76 0 8.92-1.99 17.53-5.99 25.84-4.16 8.3-10.31 17.22-18.46 26.91-8.31 9.54-16.93 17.08-25.85 22.61-8.92 5.54-19.07 8.31-30.46 8.31-8.15 0-16.46-1.69-25.23-5.23-8.61-3.38-15.08-8.92-19.39-16.77-4.15-10.76-7.23-18.45-8.92-23.22 4.31 0 12.62 3.84 25.24 11.69 12.46 7.84 20.45 12.3 24.14 13.38 3.54 1.08 9.55 1.69 18.16 1.69 6.77 0 13.23-1.38 19.69-4.15 6.31-2.77 11.7-7.38 15.85-14 4.31-6.61 6.46-13.84 6.46-21.53 0-6.31-2.46-13.38-7.38-21.07s-21.54-16-50.01-24.92c-28.45-8.92-44.15-19.07-47.38-30.3-3.23-11.38-5.38-20.61-6.77-27.84-1.23-7.22-1.84-13.07-1.84-17.22 0-12 3.54-24.15 10.76-36.45 7.23-12.46 14.63-22.15 22.01-29.07 7.38-7.08 16.92-10.62 28.31-10.62z"/><path d="m2921.06 950.43c6.31-2.15 13.39-3.23 20.93-3.23 8.15 0 16 1.84 23.84 5.38s20.93 13.69 39.23 30.46c18.16 16.61 30.16 50.29 36 101.05 5.69 50.6 10.46 83.2 14.31 97.51l21.54 10.92c-4.62 2.92-11.54 4.92-20.61 6.3-9.09 1.23-18.32 1.85-27.7 1.85-5.53 0-11.07 0-16.62 0-5.54 0-10.76-.31-15.84-.62 7.69 0 13.07-2.61 16.15-7.69 3.24-5.07 4.78-11.53 4.78-19.53 0-5.54-.31-11.38-1.08-17.53-.77-6.16-1.38-12-1.7-17.38-1.69-4.16-4.46-6.16-8.31-6.16-4.3 0-8.76 1.85-13.38 5.7-17.38 18.45-37.54 34.14-60.62 47.37-22.91 13.22-44.61 19.84-64.91 19.84-12 0-23.85-2.92-35.7-8.92-11.99-5.85-21.23-13.08-27.84-21.69-6.62-8.46-9.85-19.22-9.85-32.45 0-12.61 3.54-24 10.77-33.99 7.23-10 17.85-18.77 31.54-26.3 13.84-7.69 29.69-14 47.84-18.77 18.01-4.92 36.31-7.38 54.93-7.38 9.84 0 18.76.62 26.76 1.85 8.15 1.07 16.62 3.23 25.54 6.46 3.85-3.85 5.7-8.46 5.7-14 0-3.38-1.24-7.69-3.85-12.77-2.46-5.07-7.38-15.84-14.61-32.45-7.24-16.46-26.16-24.76-56.62-24.76-14 0-25.99 2.92-36 8.92-10 6-23.07 15.69-39.23 28.91 6.93-15.68 16.46-29.37 28.77-40.75 12.3-11.54 27.54-20.31 45.84-26.15zm53.24 120.43c-12.78-5.54-26.77-8.31-42.01-8.31-19.53 0-37.84 4.16-55.07 12.61-17.07 8.46-28.62 17.69-34.31 27.54-5.69 9.99-8.61 17.68-8.61 23.22 0 6.77 1.69 12.92 5.07 18.61 3.39 5.69 9.85 13.38 19.39 22.76 9.54 9.54 21.38 14.31 35.39 14.31 4.15 0 12.76-1.54 25.68-4.46s30-12.61 50.92-29.07c21.08-16.46 31.54-32.61 31.54-48.14 0-2.93-.77-6.62-2.15-10.77-1.54-4.31-4.31-7.69-8.31-10.15s-9.84-5.23-17.53-8.15z"/></g></g></svg>