<svg clip-rule="evenodd" fill-rule="evenodd" height="5.0012mm" image-rendering="optimizeQuality" shape-rendering="geometricPrecision" text-rendering="geometricPrecision" viewBox="0 0 2599.43 1064.36" width="12.2142mm" xmlns="http://www.w3.org/2000/svg" xmlns:xlink="http://www.w3.org/1999/xlink"><linearGradient id="a" gradientUnits="userSpaceOnUse" x1="1252.24" x2="1374.57" y1="242.48" y2="820.21"><stop offset="0" stop-color="#00fc34"/><stop offset=".4" stop-color="#7efc35"/><stop offset="1" stop-color="#fcfc36"/></linearGradient><g fill="url(#a)" fill-rule="nonzero"><path d="m320.64 448.48c15.92-3.36 31.56-2.28 46.69 3.28 7.51-4.11 14.75-6.98 21.98-8.51 7.13-1.51 16.39-2.4 27.48-2.77 11.11-.21 19.77 3.13 26.18 10.13 6.51 6.87 9.98 13.17 10.64 18.75 1.09 10.15.94 17.62-.66 22.73 6.96 10.88 7.94 26.09 2.58 45.31 18.07 26.33 26.92 69.36 26.67 129.08-.13 14.51-.19 28.6-.53 42.1-.4 31.84.55 53.97 3.17 66.31 1.7 8 4.81 19.58 9.34 34.69 4.53 15.13 8.85 30.54 13.24 46.2 4.38 15.71 7.98 30.2 10.85 43.69 2.83 13.34 3.23 22.15 1.38 26.56-2.04 4.28-2.72 10.41-2.38 18.3.38 8.02.34 16 0 23.77-.45 7.96-1.77 14.85-4.24 20.84-2.32 5.94-6.19 9.02-11.58 9.36-5.34.47-8.9.02-10.36-1.28-1.6-1.23-3.11-2.64-4.55-4.47-2.45-4.66-6.15-7.19-10.94-7.77-7.43-.57-11.96-4.38-13.75-11.58-1.75-7.09-1.85-12.49-.38-16.26 1.62-3.68 2.02-7.34 1.21-11.15-.77-3.7-2.32-7.34-4.7-10.98-5.15-7.28-10.56-10.92-16.3-11.02-5.75-.13-10.81-2.09-15.37-6.04-4.41-3.98-8.62-8.68-12.3-14.15-9-13.09-13.49-23.56-13.32-31.45.21-7.87-2.04-16.71-6.81-26.58-14.62-30.11-20.24-54.06-16.71-71.95.94-7.49-.06-13.54-3.15-18.05-5.15-9.81-7.79-18.56-7.85-26.39-.23-15.47-1.6-29.54-4.3-42.27s-7.19-18.28-13.68-16.9c-5.96 1.26-6.55 18-1.87 50.23 5.58 35.6 6.81 57.14 4 64.53-2.87 7.24-5.43 13.37-7.45 18.3-2.02 4.83-3.79 10.26-5.19 16.26-2.64 11.98-2.49 24.58.28 37.67 2.81 13.22 4.09 21.07 3.85 23.77-.28 2.58-.3 5.51-.19 8.56-.53 9.41.51 20.62 3.26 33.58 3.79 17.92 3.15 33.07-2.02 45.61-.7 1.75-.94 4.98-.98 9.92 0 4.92-.51 10.07-1.36 15.43-2.45 13-7.68 20.22-15.75 21.67-7.94 1.43-14.56.3-19.77-3.66-5.21-3.81-9.83-8.66-13.58-14.54-3.92-5.94-7.21-12.02-10.11-18.17-2.89-6.17-6.6-11.77-11.43-16.98-6.79-7.47-9.15-25.03-7.24-52.95.7-11.05.15-19.94-1.79-26.58-1.89-6.51-6.47-11.13-13.83-13.83-3.43-1.26-8.79-11.43-16.11-30.33-7.49-19-13.64-34.86-18.71-47.46-5.09-12.75-9.64-24.26-14-34.77-10.85-24.26-17.9-36.2-21.2-36.05-3.41.21-5.09 1.75-5.26 4.58-.19 2.98.38 6.3 1.72 10.15 1.38 3.94 2.85 7.75 4.45 11.53 1.49 3.81 2.79 7.51 3.77 10.9.98 3.36.98 10.28-.28 20.64-1.11 10.47.83 21.49 5.87 33.43 5.21 11.94 8.47 21.07 9.85 27.54 1.36 6.51 2.09 13.66 2.19 21.73.09 7.96 1.17 14.92 3.19 20.73s3.83 11.15 5.38 16c3.62 12.11 2.6 20.96-3.06 26.3-5.53 5.28-7.34 12.43-5.17 21.28 2.15 8.98 6.6 15.6 13.3 20.18 6.68 4.58 9.7 9.49 9.36 14.75-.47 5.28-1.4 9.73-2.68 13.05-1.38 3.49-1.64 6.07-.7 8 .92 1.79 1.45 4.36 1.57 7.36 1.51 12.17-5.6 25.09-21.43 38.84-12.68 11.05-23.98 16.62-33.77 16.86-9.77.32-17.49-1.64-23.01-5.64-5.47-4.02-8.45-9.24-8.75-15.68-.28-6.32-1.36-12.07-3.23-17.11-1.87-5.07-3.51-10.28-4.92-15.71-1.43-5.43-2.96-10.79-4.62-16.17-3.66-14.77-7.24-24.64-10.88-29.33-3.51-4.68-6.17-9.73-7.83-15.07-1.68-5.36-2.87-10.43-3.62-15.17-.77-4.77-1.28-9.17-1.62-13.22-.32-4.06-1.87-8.24-4.58-12.32-2.62-4.11-3.96-9.81-4.04-17.09.09-7.17-1.09-13.98-3.49-20.26-2.38-6.26-3.47-12-3.32-17.49.17-5.49.19-11.05-.06-16.73-1.23-13.28-5.72-21.37-13.71-24.45-9.24-4.7-16.03-10.45-20.37-17.09-4.17-6.58-7.32-15.73-9.19-27.16-1.92-11.56-3.89-20.84-5.92-27.99-2.06-7.13-2.62-16.05-1.47-26.92 1.02-10.85.45-21.75-1.87-32.69-2.32-10.92-4.68-20.26-7.15-28.11-2.43-7.73-4.92-15.03-7.28-21.84-2.49-6.66-5.04-13.68-7.66-20.98-4.64-15.09-6.73-28.07-5.9-39.14 1.85-10.77 5.17-20.24 9.96-28.31 4.85-7.92 14.22-13.22 28.2-15.66 27.05-4.66 42.93-9.34 47.67-13.94 9.98-9.43 22.9-12.43 38.65-8.96 4.26.68 8.09 1.85 11.68 3.77 29.35 1.09 47.35 8.96 54.06 23.62 18.75 39.61 29.56 66.14 32.46 79.89 2.89 13.6 5 21.67 6.28 23.92 1.3 2.36 2.47 4.13 3.47 5.11.92 1.13 1.57 2.45 1.92 3.98.3 1.4.62 5.45 1.11 12.13.34 6.68 2.17 11.49 5.32 14.41 3.3 3.02 6.43 4.09 9.75 3.38 3.19-.66 5.87-2.98 8.17-7.17 2.62-4.68 3.38-12.96 2.04-24.9-1.21-11.96-2.06-19.22-2.58-21.64-.94-4.43-.94-8.68.04-12.88.87-4.04 1.15-8.36.72-12.94-.47-4.66-.68-9.53-.72-14.71-1.32-13.15.09-22.88 3.98-28.88 3.92-6.02 8.21-11.43 12.9-16.28 4.66-4.98 6.98-11.05 7.04-18.24.02-7.32.19-14.13.7-20.49.55-6.21 1.87-12.47 4.15-18.66 5.55-15.79 16.43-25.28 32.84-28.75z"/><path d="m644.34 502.04 32.16 170.04c15.88 74.91 33.86 108.3 53.84 99.83 17.32-6.73 18.77-39.99 4.62-99.86-3.77-17.79-4.94-29.65-3.23-35.43 1.55-5.79 2.55-10.51 2.81-14.28.3-10.45-1.94-23.64-6.81-39.75-3.23-10.22-8.34-25.47-15.17-45.82-6.96-20.3-13.81-41.33-20.39-63.04-6.73-21.71-11.98-41.46-15.77-59.38-3.81-17.96-4.24-29.41-1.51-34.77 2.87-5.26 7.02-8.81 12.6-10.77 5.58-1.98 11.43-3.21 17.81-3.77 6.38-.57 12.6-.68 18.62-.51 6.04.34 10.92.09 14.6-.7 3.68-.77 8.15-2.36 13.11-4.75 4.94-2.36 9.94-4.36 15-6.24 5.04-1.85 9.94-3.3 14.64-4.3 4.72-1 9.41-.13 14.09 2.47 4.79 2.58 9.96 10.64 15.68 23.92 5.6 13.3 11.13 29.28 16.28 47.97 5.26 18.56 10.19 38.65 14.77 60.25 4.58 21.64 8.66 42.16 12.26 61.72 7.17 43.14 10.7 69.36 10.81 78.64.23 9.26-.55 16.2-2.26 20.69-1.55 4.55-3.32 8.79-5 12.73-3.47 8.04-2.15 18.13 4.04 30.39 6.28 12.07 11.05 21.43 14.56 28.01 6.09 11.73 8.7 22.86 7.87 33.39-.94 10.58.09 20.45 3.09 29.65 7.94 24.92 8.7 43.61 2.62 56.31-2.77 6.32-7.9 12.83-15.39 19.6-14.79 12.96-24.81 27.05-29.97 42.24-2.3 8.7-6 14.41-11.13 17.11-2.72 1.62-7.13 2.7-13.3 3.19-6.13.51-12.77 1.13-19.94 1.83-7.02.68-13.9 1.49-20.54 2.09-6.66.62-11.11 1.55-13.37 2.83-2.38 1.32-4.24 3.17-5.79 5.9-1.6 2.6-3.23 5.47-5.26 8.53-10.51 16.17-24.84 17.62-42.67 4.26-3.66-2.81-7.28-5.51-10.66-8.21-3.47-2.6-6.55-4.6-9.45-5.72-2.79-1.28-6.6-2.32-11.15-3.09-4.58-.89-9.7-2.6-15.41-4.98-24.09-8.32-41.99-26.3-53.59-54.04-5.85-13.24-12.22-30.75-18.81-52.48-6.73-21.71-11.34-35.35-13.75-41.07-2.53-5.7-7.13-11.64-13.6-17.71-6.49-6.21-11.09-12.26-13.92-18.05-2.85-5.92-4.51-12.47-4.96-19.66-.45-7.09-.87-15.39-1.23-24.6-1.11-24.75-4.51-45.82-10.32-63.21-5.83-17.49-9.15-31.26-9.98-41.46-.85-10.32-2.04-16.58-3.66-19.15-1.6-2.47-3.68-4.81-6.47-6.73-2.83-2.06-4.45-7.17-5.24-15.24-.68-8.24-1.77-15.96-3.36-23.47-1.6-7.49-3.21-15.13-4.89-23.13-5.62-34.03-4.72-55.48 2.7-64.36 6.34-7.07 13.32-11.75 21.26-13.81 12.24-3.11 21.15-7.41 26.54-12.66 5.28-5.36 9.68-9.62 13.24-12.9 21.84-19.24 39.35-12.58 52.48 19.96 8.36 20.03 17.07 48.63 25.84 85.55z"/><path d="m878.08 338.15c11.28-1.32 21.41-3.06 30.01-5.15s21.73-4.75 39.12-7.87c29.22-4.6 49.14-10.96 59.93-18.94 21.67-17.62 41.1-23.18 57.95-16.92 7.83 2.45 14.98 3.6 21.67 3.11 6.7-.34 15.26-5.21 25.73-14.73 11.68-8.19 22.09-11.73 31.26-10.47 9 1.13 16.05 3.62 20.94 7.24 5 3.6 9.19 10.81 12.83 21.75 3.66 10.9 6.26 21.92 7.79 33.01 1.55 11.11 2.58 21.52 3.04 31.26 2.47 26.05 4.83 42.82 7.28 50.67 2.43 7.73 5.21 15.77 8.13 23.92 3.09 8.26 5.17 16.3 6.36 24.43 3.09 19.56-2.49 32.16-16.86 37.71-10.62 3.85-19.15 3-25.58-2.7-6.36-5.66-12-12.19-17.07-19.77-4.89-7.45-9.64-14.15-14.3-19.94-4.58-5.81-9.64-7.13-15.24-4.06-5.62 2.89-7.94 10.17-7.09 21.69.83 11.51 3.11 24.73 6.81 39.75 3.75 15.15 8.09 30.56 13.02 46.39 4.81 15.86 8.73 29.24 11.6 40.33 2.89 11.09 5.92 22.28 9.11 33.54 3.17 11.17 5.81 21.77 7.9 31.69 4.53 21.35 4.6 36.75.3 45.93-2.09 4.55-2.64 9.58-1.47 15.05 1.15 5.47 3 11.05 5.55 16.75 2.53 5.7 5.07 11.43 7.87 17.09 2.79 5.66 5.04 12.62 6.85 21.13 4.19 19.83-1.89 35.58-18 47.37-5.87 4.32-10.79 10.53-14.79 18.69-3.98 8.15-7.09 13.6-9.41 16.37-2.19 2.85-5.21 4.28-9.19 4.32-3.83.02-7-1.04-9.24-3.49-2.36-2.28-4.62-4.87-6.64-7.49-4.77-7.36-10.05-11.68-16.05-12.94-6.81-.17-11.79-4.81-15.05-13.96-3.3-9.26-5.68-17.39-7.47-24.6-1.77-7.07-4.28-15.83-7.49-26.05-3.23-10.22-8.19-17.92-15.05-23.26-6.83-5.32-12.15-8.47-16.07-9.34-3.81-1.04-7-4.77-9.32-11.32-2.43-6.51-3.75-13.41-3.94-20.56-.34-7.24-.32-15.22-.06-24.18.83-25.54-.83-49.12-4.87-70.57-6.87-40.01-12.45-66.34-16.73-78.98-7.51-25.39-17.24-36.88-29.07-34.37-5.87 1.77-9.49 5.34-11.07 10.58-1.4 5.21-3.02 11.39-4.55 18.52-3.53 17.88-15.3 25.03-35.22 21.39-7.11-1.53-12.17-5.38-15.32-11.49-3.04-6.13-5.66-13.56-7.75-22.15-2.09-8.58-4.3-17.81-6.6-27.41-2.32-9.64-6.04-18.39-11.09-26.52-5.13-7.94-9.92-15.56-14.56-22.94-4.72-7.26-7.68-15-8.85-22.96-1.17-8.13-.89-16.17.7-24.35 1.72-8.19 1.02-15.77-1.7-23.03-2.83-7.11-2.85-14.79-.21-22.94 2.7-8.02 9.79-12.83 21.2-14.2z"/><path d="m1356.82 817.59c-4.64 2.58-10.32 3.38-16.9 2.38-6.68-.85-11.92-4.13-15.77-9.81-3.85-5.7-6.92-12.64-9.41-20.6-2.49-7.98-4.51-16.86-5.98-26.39-1.49-9.51-3.21-18.86-5.09-27.73-4.21-19.86-10.22-31.86-17.73-36.01-15.58-7.04-26.41-31.2-32.5-72.42-2.53-23.92-3.66-43.07-3.7-57.7.13-23.79-1.57-43.78-5.19-59.61-3.62-15.86-5.72-28.28-6.38-37.58-.72-9.15-.79-16.98-.28-23.33.43-6.21 1.26-12.9 2.45-19.9 1.04-7.02 1.06-18.17-.19-33.48-2.94-38.29-3.26-62.42-1.19-72.17 2.83-13.6 6.75-27.73 11.58-42.56 4.98-14.73 9.32-24.96 13.34-30.48 9.66-10.81 25.92-15.03 48.78-12.56 17.07 2.09 32.16.62 45.5-4.19 13.17-4.94 23.41-8 30.73-9.3 7.3-1.28 15.9-.19 25.9 3.15 10.15 3.3 18.35 8.07 24.81 14.15 6.49 6.19 11.68 13.19 15.41 21.32 6.6 13.6 10.73 31.86 12.34 54.5 1.77 22.75 4.41 40.93 8.04 54.38 3.68 13.56 9.34 25.79 17.13 36.88 7.79 11.13 13.41 20.03 16.58 26.79 3.3 6.87 6.38 13.79 9.02 20.66 2.81 7 5.47 14.54 7.96 22.52s5.87 17.09 10.39 27.03c4.49 9.96 7.38 17.98 8.96 24.16 1.57 6.17 2.53 11.3 2.85 15.34s.6 7.83.51 11.17c-.06 3.47 1.23 8.36 3.92 14.73 2.58 6.51 4.13 13.88 4.66 21.98.43 8.28.64 16.22.7 24.05-.64 23.9.62 40.52 3.66 49.84 5.47 16.51 8 28.48 7.64 36.12-.53 7.56-1.21 13.81-1.87 18.75-.83 4.83-1.55 11.49-2.04 19.83-.6 8.47-3.68 16.56-9.3 24.54-5.49 7.96-11.68 11.26-18.45 10.15-6.77-1.21-11.45-3.94-14.24-8.28-2.64-4.34-5.19-8.85-7.51-13.54-2.34-4.7-4.7-9-7.32-12.56-2.62-3.55-6.15-5.19-10.7-4.77-8.21.81-13.41-3-15.64-11.05-2.21-8.02-3.62-15.3-4.19-21.71-.55-6.38-2.28-12.66-5.17-18.71-2.77-6.17-6.62-11.88-11.32-17.13-12.3-13.47-24.5-19.64-36.65-18.66-18.49 1.26-29.09 12.66-31.75 33.97-.47 5.26-.21 12.13.74 20.43.98 8.43.62 16.07-1.32 23.26-1.81 7.17-4.09 13.37-6.96 18.6-2.75 5.24-5.32 10.05-7.83 14.56-2.38 4.36-3.58 9.41-3.3 15.07.45 22.22-5.36 36.2-17.73 41.88zm.28-326.28c-4.26 28.94-1 50.57 9.9 64.89 6.83 7.83 14.22 11.34 22.3 10.02 14.71-1.53 23.11-4.51 25.01-8.77 2-4.26 4.36-8.87 7.13-13.98 2.92-5.02 2.83-11.77-.04-20.2-2.7-8.47-5.11-16.05-7.04-22.69-1.92-6.51-5.94-13.62-11.92-21.13-6-7.64-10.7-16.07-14.3-25.41-3.55-9.34-6.58-18.54-8.96-27.33-6.13-19.43-12.68-28.41-19.69-26.94-4.96 1.04-7.58 4.28-7.62 9.73-.19 5.49.4 12.54 1.66 21.05 4.96 25.92 6.19 46.25 3.58 60.76z"/><path d="m1587.13 191.22c22.69-15.17 35.95-19.05 39.54-11.58 11.83-5.55 21.77-3.81 29.97 5.36 2.77 3 8.11 9.45 16.15 19.15 8.04 9.75 16.75 20.13 26.11 31.03 9.24 11.07 18.09 21.43 26.39 31.09 8.28 9.66 13.75 16.07 16.6 19.47 2.7 3.28 5.7 4.89 8.7 4.66 3.17-.15 5.92-1.51 8.58-4.09 5.3-6.3 5.62-14.22.85-23.56-4.89-9.32-7.85-16.94-8.77-22.6-.96-5.77-1.47-11.24-1.49-16.41-.02-14.62-1.89-25.92-5.6-33.9-3.81-8.09-6.51-15.77-8.11-23.26-3.15-14.88 7.49-24.84 31.8-29.99 4.96-1.04 10.7-2.13 17.24-3.26 6.53-1.26 16.11-3.68 28.82-7.68 12.58-4 24.64-2.96 36.05 3.26 11.39 6.09 17.66 20.05 18.54 41.65 1.51 29.18 3.64 48.65 6.21 58.21 2.43 9.58 4.58 18.56 6.38 27.09 1.89 8.9 3.3 22.41 3.92 40.37 1.04 31.92 4.28 54.08 9.45 66.55 4.47 11 7.24 19.2 8.41 24.67l2.53 11.94c.32 1.53 1.38 4.64 3.45 9.36 2.06 4.75 2.89 9.9 2.47 15.43-.3 5.51.64 11.15 2.92 16.92 2.15 5.81 2.47 12.9.51 21.3-1.79 8.47-1.64 17.22.53 26.3 2.21 9.24 3.34 17.64 3.41 25.47.17 7.66 2.79 16.28 7.81 25.58 7.7 14.45 9.77 42.31 6 83.51.11 9.94-1.79 16.58-5.41 20.26-3.64 3.58-6.36 6.41-7.94 8.34-1.75 1.83-2.58 5.47-2.43 10.6-.43 10.45-4.7 16-12.81 16.66-10.85.83-21.45-7.81-32.07-25.88-14.58-24.96-25.13-39.05-31.54-42.35-6.43-3.3-11.81-8.66-16.15-16-4.51-7.41-8.51-15.07-12.34-23.15-8.39-20.03-14.96-31.11-19.62-33.58-4.62-2.34-9.15-8.02-13.68-16.9-4.43-9.02-8.36-15.09-11.77-18.64-3.26-3.41-6.62-7.36-9.83-11.85-3.34-4.47-6.68-8.96-10.28-13.39-9.13-11.07-16.39-15.26-22.05-12.47-3.34 1.79-4.72 6.6-4.38 14.49.38 8.02 1.21 17.56 2.62 28.67 3.7 32.43 3.58 56.38-.47 71.72 7.3 12 13.13 23.13 17.69 33.33 4.43 10.22 6.6 22.92 6.51 38.24-.19 15.43-.26 27.67-.38 37.14-.02 9.3-.51 17.64-1.28 24.73-.85 7.19-2.45 12.88-4.66 16.9-2.15 4.21-5.72 6.28-10.28 6.58-4.64.17-7.85-.6-9.81-2.32-1.92-1.57-3.87-3.28-5.7-4.87-4.94-5.75-11.9-9.19-20.94-10.47-9-1.15-15.79-3.68-20.3-7.38-4.38-3.72-7.77-8.45-9.94-14.24-2.28-5.75-4.26-12-5.98-18.94-1.77-6.94-5.11-14.05-10.05-21.64-4.89-7.47-8.02-13.98-9.17-19.47-1.17-5.45-1.66-10.39-1.55-14.81 0-4.36.11-8.92.23-13.34.13-4.38-2.28-10.79-7.11-19.07-9.87-17.17-11.43-32.67-4.41-46.63 4.77-11.39 6.02-20.43 3.51-27.22-6.07-13.71-13.66-21.94-23.13-24.56-4.47-1.75-7.13-4.21-7.9-7.79-1.55-7.36-3.77-12.75-6.85-16.07-3.09-3.21-4.24-8.02-3.45-14.43.74-6.41-.55-11.3-3.92-14.71-.13-.53-1.83-5.47-5.15-14.85-3.21-9.45-7.11-21.62-11.58-36.5-4.49-14.85-9.24-30.99-14.49-48.35-5.26-17.22-9.87-34.05-13.75-50.37-10.02-37.33-14.32-59.55-13.02-66.59 1.45-6.96 4.64-12.56 9.73-16.79 5.11-4.15 10.77-7.49 17.05-9.87 13.54-4.47 25.2-5.87 34.88-4.19z"/><path d="m1924.58 116.56c11.26-1.32 21.41-3.04 29.99-5.15 8.62-2.09 21.75-4.72 39.14-7.87 29.22-4.6 49.12-10.94 59.93-18.92 21.64-17.62 41.07-23.2 57.95-16.94 7.83 2.47 14.98 3.6 21.64 3.13 6.73-.36 15.26-5.21 25.73-14.75 11.71-8.19 22.11-11.73 31.28-10.47 9 1.15 16.03 3.64 20.94 7.26 5 3.6 9.17 10.79 12.83 21.73 3.66 10.92 6.26 21.94 7.79 33.03 1.55 11.09 2.58 21.52 3.02 31.24 2.49 26.07 4.83 42.84 7.28 50.67 2.45 7.73 5.21 15.77 8.15 23.92 3.06 8.28 5.17 16.32 6.36 24.43 3.09 19.56-2.49 32.16-16.86 37.73-10.64 3.83-19.18 2.98-25.58-2.7-6.38-5.68-12-12.22-17.07-19.77-4.92-7.47-9.66-14.17-14.32-19.94-4.55-5.83-9.62-7.15-15.22-4.09-5.64 2.92-7.94 10.19-7.09 21.69.83 11.53 3.11 24.73 6.81 39.75 3.75 15.15 8.09 30.58 13.02 46.42 4.81 15.83 8.73 29.24 11.58 40.31 2.89 11.09 5.92 22.28 9.11 33.56 3.17 11.15 5.81 21.75 7.92 31.67 4.53 21.37 4.6 36.78.28 45.93-2.06 4.55-2.62 9.58-1.47 15.07 1.17 5.45 3.02 11.05 5.55 16.75s5.09 11.41 7.9 17.07c2.79 5.66 5.04 12.62 6.83 21.13 4.21 19.86-1.87 35.6-17.98 47.4-5.87 4.3-10.79 10.53-14.79 18.69-3.98 8.15-7.09 13.6-9.43 16.34-2.17 2.85-5.19 4.28-9.17 4.34-3.85 0-7-1.06-9.24-3.51-2.36-2.28-4.64-4.87-6.64-7.49-4.77-7.36-10.05-11.68-16.05-12.94-6.81-.17-11.79-4.81-15.05-13.94-3.3-9.28-5.68-17.41-7.47-24.62-1.77-7.07-4.28-15.81-7.51-26.03-3.21-10.22-8.19-17.94-15.05-23.28-6.83-5.32-12.15-8.45-16.05-9.34-3.81-1.04-7-4.77-9.32-11.32-2.43-6.51-3.77-13.41-3.94-20.54-.34-7.24-.32-15.24-.09-24.18.85-25.54-.83-49.12-4.85-70.59-6.87-40.01-12.45-66.31-16.73-78.98-7.51-25.37-17.26-36.86-29.09-34.37-5.85 1.77-9.47 5.34-11.05 10.6-1.43 5.21-3.02 11.39-4.55 18.49-3.53 17.9-15.3 25.03-35.22 21.41-7.11-1.55-12.17-5.38-15.32-11.51-3.04-6.13-5.66-13.56-7.77-22.13-2.06-8.6-4.3-17.81-6.6-27.43-2.32-9.62-6.02-18.39-11.07-26.5-5.15-7.94-9.94-15.56-14.56-22.96-4.72-7.24-7.68-14.98-8.85-22.96-1.19-8.13-.92-16.17.7-24.35 1.72-8.19 1.02-15.77-1.7-23.03-2.83-7.09-2.85-14.79-.21-22.94 2.7-8 9.77-12.81 21.2-14.2z"/><path d="m2546.78 102.43c1.87 2.66 2.98 5.87 3.19 9.43.21 3.53-1.96 10.24-6.64 20.15-4.7 9.75-6.6 19.58-5.79 29.65.89 9.92 2.17 17.88 4 24.01 1.7 6.13 2.83 11.49 3.41 16 1.79 11.07-2.6 19.81-13.22 26.18-9.07 6.07-16.9 7.45-23.3 4.15-6.41-3.3-12.11-8.19-17.07-14.71-5.09-6.38-8.94-12.07-11.81-16.92-2.77-4.85-6.32-7.17-10.34-6.83-7.3.09-12.49 1.98-15.56 5.68-3.06 3.7-5.47 6.85-6.94 9.3-3.23 4.81-6.73 8.34-10.62 10.75-3.87 2.4-6.98 4.68-9.09 6.6-4.24 4.6-5.04 10.77-2.34 18.41 5.28 14.96 27.28 34.75 66.21 59.21 7.26 4.7 15.71 9.56 25.35 14.83 9.75 5.24 19.43 11.43 29.37 18.77 22.32 17.58 37.33 39.52 45.05 65.93 7.83 26.9 8.79 51.55 3.19 74-4.43 18.07-11.58 30.75-21.45 38.01-7.56 6.38-12.07 13.32-13.47 21.2-1.49 7.9-2.55 13.56-3.41 17.07-.85 3.64-3.32 6.94-7.53 10.24-4.26 3.15-9.41 5.17-15.51 5.92-6.07.77-11.92.81-17.47.26-5.58-.66-10.73-1.72-15.39-2.98-4.81-1.38-8.53-1.92-11.3-1.85-2.89.06-5.26 1.49-7.34 4.19-1.94 2.81-4 5.64-5.87 8.68-5.94 8.96-12.07 13.32-18.41 12.81-6.21-.4-13.83-1.87-22.69-4.11-8.7-2.26-17.52-5.58-26.16-10-31.26-15.17-45.08-34.56-41.18-58.25 2.4-15.64 6.34-27.11 11.71-34.5 5.49-7.28 10.19-11.47 14.13-12.3 6.49-1.38 11.32.13 14.6 4.34 3.28 4.24 5.92 7.81 8.13 10.79 2.21 2.83 4.41 5.02 6.87 6.64 2.45 1.62 5.92 2.87 10.56 4 4.62 1.17 9.45 1.34 14.62.77 12.58-1.6 20.94-8.56 25.09-20.86 4.19-12.32 4.19-24.81-.04-37.33-8.51-22.62-15.6-31.52-21.2-26.6-4.75 4.6-11.45 6.15-20.18 4.53-8.56-1.49-13.64-4.81-15.26-9.92-1.6-5.11-3.7-9.98-6.28-14.62-2.47-4.64-5.24-8.98-8.24-13.13-6.85-10.39-12.11-15.77-15.77-16.07-4.28-.15-9.73.49-16.34 1.87-6.73 1.43-15.05-1.34-24.75-8.3-9.87-7.09-17.92-16.81-24.13-29.18-6.24-12.51-11.71-23.3-16.15-32.46-4.62-9.13-8.34-16.17-11.56-21.22-3.19-5.02-6.04-10.41-8.83-16.05-9-17.9-14.39-42.14-16.24-72.85-.79-18.05 1.47-34.46 6.68-49.37 5.11-14.77 11.36-29.79 18.58-44.73 13.43-29.41 27.13-50.65 40.93-63.93 13.77-13.43 25.79-16.9 35.86-10.79 8.87 4.89 17.43 5.75 25.96 2.75 8.39-3.11 14.96-5.98 19.6-8.56l12.73-5.72c8.09-3.85 16.69-5.41 25.86-4.7 9.28.57 18.86 7.45 28.9 20.35 5.02 6.77 10.09 12.47 14.9 17.03 4.85 4.7 9.64 9.13 14.15 13.49 9.9 10.26 16.41 19.11 19.2 26.62 2.89 7.36 5.87 12.58 8.79 15.68 3.02 2.96 5.45 5.75 7.26 8.56z"/></g></svg>