<svg clip-rule="evenodd" fill-rule="evenodd" height="5.0012mm" image-rendering="optimizeQuality" shape-rendering="geometricPrecision" text-rendering="geometricPrecision" viewBox="0 0 211.47 86.59" width="12.2142mm" xmlns="http://www.w3.org/2000/svg" xmlns:xlink="http://www.w3.org/1999/xlink"><linearGradient id="a" gradientUnits="userSpaceOnUse" x1="101.87" x2="111.82" y1="19.73" y2="66.73"><stop offset="0" stop-color="#0f0"/><stop offset=".4" stop-color="#7fff00"/><stop offset="1" stop-color="#ff0"/></linearGradient><g fill="url(#a)" fill-rule="nonzero"><path d="m26.08 36.48c1.3-.27 2.57-.19 3.8.27.61-.33 1.2-.57 1.79-.69.58-.12 1.33-.2 2.24-.23.9-.02 1.61.25 2.13.82.53.56.81 1.07.87 1.53.09.83.08 1.43-.05 1.85.57.88.65 2.12.21 3.69 1.47 2.14 2.19 5.64 2.17 10.5-.01 1.18-.02 2.33-.04 3.42-.03 2.59.05 4.39.26 5.39.14.65.39 1.59.76 2.82s.72 2.48 1.08 3.76.65 2.46.88 3.55.26 1.8.11 2.16c-.17.35-.22.85-.19 1.49.03.65.03 1.3 0 1.93-.04.65-.14 1.21-.34 1.69-.19.48-.5.73-.94.76-.43.04-.72 0-.84-.1-.13-.1-.25-.21-.37-.36-.2-.38-.5-.59-.89-.63-.6-.05-.97-.36-1.12-.94-.14-.58-.15-1.02-.03-1.32.13-.3.16-.6.1-.91-.06-.3-.19-.6-.38-.89-.42-.59-.86-.89-1.33-.9s-.88-.17-1.25-.49c-.36-.32-.7-.71-1-1.15-.73-1.06-1.1-1.92-1.08-2.56s-.17-1.36-.55-2.16c-1.19-2.45-1.65-4.4-1.36-5.85.08-.61-.01-1.1-.26-1.47-.42-.8-.63-1.51-.64-2.15-.02-1.26-.13-2.4-.35-3.44s-.59-1.49-1.11-1.37c-.48.1-.53 1.46-.15 4.09.45 2.9.55 4.65.33 5.25-.23.59-.44 1.09-.61 1.49-.16.39-.31.83-.42 1.32-.21.97-.2 2 .02 3.06.23 1.08.33 1.71.31 1.93-.02.21-.02.45-.02.7-.04.77.04 1.68.26 2.73.31 1.46.26 2.69-.16 3.71-.06.14-.08.41-.08.81s-.04.82-.11 1.26c-.2 1.06-.63 1.64-1.28 1.76s-1.18.02-1.61-.3c-.42-.31-.8-.7-1.1-1.18-.32-.48-.59-.98-.82-1.48-.24-.5-.54-.96-.93-1.38-.55-.61-.74-2.04-.59-4.31.06-.9.01-1.62-.15-2.16-.15-.53-.53-.91-1.13-1.13-.28-.1-.72-.93-1.31-2.47-.61-1.55-1.11-2.84-1.52-3.86-.41-1.04-.78-1.97-1.14-2.83-.88-1.97-1.46-2.95-1.72-2.93-.28.02-.41.14-.43.37-.02.24.03.51.14.83s.23.63.36.94c.12.31.23.61.31.89.08.27.08.84-.02 1.68-.09.85.07 1.75.48 2.72.42.97.69 1.71.8 2.24s.17 1.11.18 1.77c.01.65.1 1.21.26 1.69.16.47.31.91.44 1.3.29.99.21 1.71-.25 2.14-.45.43-.6 1.01-.42 1.73.17.73.54 1.27 1.08 1.64s.79.77.76 1.2c-.04.43-.11.79-.22 1.06-.11.28-.13.49-.06.65.07.15.12.35.13.6.12.99-.46 2.04-1.74 3.16-1.03.9-1.95 1.35-2.75 1.37-.79.03-1.42-.13-1.87-.46-.44-.33-.69-.75-.71-1.28-.02-.51-.11-.98-.26-1.39s-.29-.84-.4-1.28c-.12-.44-.24-.88-.38-1.32-.3-1.2-.59-2-.88-2.39-.29-.38-.5-.79-.64-1.23s-.23-.85-.29-1.23c-.06-.39-.1-.75-.13-1.08s-.15-.67-.37-1c-.21-.33-.32-.8-.33-1.39.01-.58-.09-1.14-.28-1.65s-.28-.98-.27-1.42c.01-.45.02-.9-.01-1.36-.1-1.08-.47-1.74-1.11-1.99-.75-.38-1.3-.85-1.66-1.39-.34-.53-.6-1.28-.75-2.21-.16-.94-.32-1.69-.48-2.28-.17-.58-.21-1.31-.12-2.19.08-.88.04-1.77-.15-2.66s-.38-1.65-.58-2.29c-.2-.63-.4-1.22-.59-1.78-.2-.54-.41-1.11-.62-1.71-.38-1.23-.55-2.28-.48-3.18.15-.88.42-1.65.81-2.3.39-.64 1.16-1.08 2.29-1.27 2.2-.38 3.49-.76 3.88-1.13.81-.77 1.86-1.01 3.14-.73.35.06.66.15.95.31 2.39.09 3.85.73 4.4 1.92 1.53 3.22 2.4 5.38 2.64 6.5.24 1.11.41 1.76.51 1.95.11.19.2.34.28.42.07.09.13.2.16.32.02.11.05.44.09.99.03.54.18.93.43 1.17.27.25.52.33.79.28.26-.05.48-.24.66-.58.21-.38.28-1.05.17-2.03-.1-.97-.17-1.56-.21-1.76-.08-.36-.08-.71 0-1.05.07-.33.09-.68.06-1.05-.04-.38-.06-.78-.06-1.2-.11-1.07.01-1.86.32-2.35.32-.49.67-.93 1.05-1.32.38-.41.57-.9.57-1.48 0-.6.02-1.15.06-1.67.05-.51.15-1.01.34-1.52.45-1.28 1.34-2.06 2.67-2.34z"/><path d="m52.42 40.84 2.62 13.83c1.29 6.09 2.75 8.81 4.38 8.12 1.41-.55 1.53-3.25.38-8.12-.31-1.45-.4-2.41-.26-2.88.13-.47.21-.86.23-1.16.02-.85-.16-1.92-.55-3.23-.26-.83-.68-2.07-1.23-3.73-.57-1.65-1.12-3.36-1.66-5.13-.55-1.77-.97-3.37-1.28-4.83s-.34-2.39-.12-2.83c.23-.43.57-.72 1.02-.88s.93-.26 1.45-.31 1.02-.06 1.51-.04c.49.03.89.01 1.19-.06.3-.06.66-.19 1.07-.39.4-.19.81-.35 1.22-.51.41-.15.81-.27 1.19-.35s.77-.01 1.15.2c.39.21.81.87 1.28 1.95.46 1.08.91 2.38 1.32 3.9.43 1.51.83 3.14 1.2 4.9s.7 3.43 1 5.02c.58 3.51.87 5.64.88 6.4.02.75-.05 1.32-.18 1.68-.13.37-.27.72-.41 1.04-.28.65-.17 1.48.33 2.47.51.98.9 1.74 1.18 2.28.5.95.71 1.86.64 2.72-.08.86.01 1.66.25 2.41.65 2.03.71 3.55.21 4.58-.23.51-.64 1.04-1.25 1.59-1.2 1.05-2.02 2.2-2.44 3.44-.19.71-.49 1.17-.91 1.39-.22.13-.58.22-1.08.26s-1.04.09-1.62.15c-.57.06-1.13.12-1.67.17s-.9.13-1.09.23c-.19.11-.34.26-.47.48-.13.21-.26.44-.43.69-.86 1.32-2.02 1.43-3.47.35-.3-.23-.59-.45-.87-.67-.28-.21-.53-.37-.77-.47-.23-.1-.54-.19-.91-.25-.37-.07-.79-.21-1.25-.41-1.96-.68-3.42-2.14-4.36-4.4-.48-1.08-.99-2.5-1.53-4.27-.55-1.77-.92-2.88-1.12-3.34-.21-.46-.58-.95-1.11-1.44-.53-.51-.9-1-1.13-1.47-.23-.48-.37-1.01-.4-1.6-.04-.58-.07-1.25-.1-2-.09-2.01-.37-3.73-.84-5.14-.47-1.42-.74-2.54-.81-3.37-.07-.84-.17-1.35-.3-1.56-.13-.2-.3-.39-.53-.55-.23-.17-.36-.58-.43-1.24-.06-.67-.14-1.3-.27-1.91s-.26-1.23-.4-1.88c-.46-2.77-.38-4.51.22-5.24.52-.57 1.08-.96 1.73-1.12 1-.25 1.72-.6 2.16-1.03.43-.44.79-.78 1.08-1.05 1.78-1.57 3.2-1.02 4.27 1.62.68 1.63 1.39 3.96 2.1 6.96z"/><path d="m71.43 27.51c.92-.11 1.74-.25 2.44-.42s1.77-.39 3.18-.64c2.38-.37 4-.89 4.88-1.54 1.76-1.43 3.34-1.89 4.71-1.38.64.2 1.22.29 1.76.25.55-.03 1.24-.42 2.09-1.2.95-.67 1.8-.95 2.54-.85.73.09 1.31.29 1.7.59.41.29.75.88 1.04 1.77.3.89.51 1.78.63 2.69.13.9.21 1.75.25 2.54.2 2.12.39 3.48.59 4.12.2.63.42 1.28.66 1.95.25.67.42 1.33.52 1.99.25 1.59-.2 2.62-1.37 3.07-.86.31-1.56.24-2.08-.22s-.98-.99-1.39-1.61c-.4-.61-.78-1.15-1.16-1.62-.37-.47-.78-.58-1.24-.33-.46.24-.65.83-.58 1.76.07.94.25 2.01.55 3.23.3 1.23.66 2.49 1.06 3.77.39 1.29.71 2.38.94 3.28.24.9.48 1.81.74 2.73.26.91.47 1.77.64 2.58.37 1.74.37 2.99.02 3.74-.17.37-.21.78-.12 1.22s.24.9.45 1.36.41.93.64 1.39.41 1.03.56 1.72c.34 1.61-.15 2.89-1.46 3.85-.48.35-.88.86-1.2 1.52s-.58 1.11-.77 1.33c-.18.23-.42.35-.75.35-.31 0-.57-.08-.75-.28-.19-.19-.38-.4-.54-.61-.39-.6-.82-.95-1.31-1.05-.55-.01-.96-.39-1.22-1.14-.27-.75-.46-1.41-.61-2-.14-.57-.35-1.29-.61-2.12s-.67-1.46-1.22-1.89c-.56-.43-.99-.69-1.31-.76-.31-.08-.57-.39-.76-.92-.2-.53-.3-1.09-.32-1.67-.03-.59-.03-1.24-.01-1.97.07-2.08-.07-4-.4-5.74-.56-3.25-1.01-5.4-1.36-6.43-.61-2.07-1.4-3-2.37-2.8-.48.14-.77.43-.9.86-.11.42-.25.93-.37 1.51-.29 1.45-1.24 2.04-2.87 1.74-.58-.12-.99-.44-1.25-.93-.25-.5-.46-1.1-.63-1.8s-.35-1.45-.54-2.23-.49-1.5-.9-2.16c-.42-.65-.81-1.27-1.18-1.87-.38-.59-.63-1.22-.72-1.87-.1-.66-.07-1.32.06-1.98.14-.67.08-1.28-.14-1.87-.23-.58-.23-1.2-.02-1.87.22-.65.8-1.04 1.72-1.15z"/><path d="m110.38 66.51c-.38.21-.84.28-1.37.19-.54-.07-.97-.34-1.28-.8s-.56-1.03-.77-1.68c-.2-.65-.37-1.37-.49-2.15-.12-.77-.26-1.53-.41-2.26-.34-1.62-.83-2.59-1.44-2.93-1.27-.57-2.15-2.54-2.64-5.89-.21-1.95-.3-3.5-.3-4.69.01-1.94-.13-3.56-.42-4.85s-.47-2.3-.52-3.06c-.06-.74-.06-1.38-.02-1.9.03-.51.1-1.05.2-1.62.08-.57.09-1.48-.02-2.72-.24-3.11-.26-5.08-.1-5.87.23-1.11.55-2.26.94-3.46.41-1.2.76-2.03 1.09-2.48.79-.88 2.11-1.22 3.97-1.02 1.39.17 2.62.05 3.7-.34 1.07-.4 1.9-.65 2.5-.76.59-.1 1.29-.02 2.11.26.83.27 1.49.66 2.02 1.15.53.5.95 1.07 1.25 1.73.54 1.11.87 2.59 1 4.43.14 1.85.36 3.33.65 4.42.3 1.1.76 2.1 1.39 3 .63.91 1.09 1.63 1.35 2.18.27.56.52 1.12.73 1.68.23.57.44 1.18.65 1.83.2.65.48 1.39.84 2.2.37.81.6 1.46.73 1.97.13.5.21.92.23 1.25.03.33.05.64.04.91-.01.28.1.68.32 1.2.21.53.34 1.13.38 1.79.03.67.05 1.32.06 1.96-.05 1.94.05 3.3.3 4.05.44 1.34.65 2.32.62 2.94-.04.61-.1 1.12-.15 1.53-.07.39-.13.93-.17 1.61-.05.69-.3 1.35-.76 2-.45.65-.95.92-1.5.83-.55-.1-.93-.32-1.16-.67-.21-.35-.42-.72-.61-1.1s-.38-.73-.6-1.02c-.21-.29-.5-.42-.87-.39-.67.07-1.09-.24-1.27-.9-.18-.65-.29-1.24-.34-1.77-.05-.52-.19-1.03-.42-1.52-.23-.5-.54-.97-.92-1.39-1-1.1-1.99-1.6-2.98-1.52-1.5.1-2.37 1.03-2.58 2.76-.04.43-.02.99.06 1.66.08.69.05 1.31-.11 1.89-.15.58-.33 1.09-.57 1.51-.22.43-.43.82-.64 1.18-.19.35-.29.77-.27 1.23.04 1.81-.44 2.95-1.44 3.41zm.02-26.54c-.35 2.35-.08 4.11.81 5.28.56.64 1.16.92 1.81.82 1.2-.12 1.88-.37 2.03-.71.16-.35.35-.72.58-1.14.24-.41.23-.96 0-1.64-.22-.69-.42-1.31-.57-1.85-.16-.53-.48-1.11-.97-1.72-.49-.62-.87-1.31-1.16-2.07s-.53-1.51-.73-2.22c-.5-1.58-1.03-2.31-1.6-2.19-.4.08-.62.35-.62.79-.02.45.03 1.02.14 1.71.4 2.11.5 3.76.29 4.94z"/><path d="m129.12 15.56c1.85-1.23 2.92-1.55 3.22-.94.96-.45 1.77-.31 2.44.44.23.24.66.77 1.31 1.56s1.36 1.64 2.12 2.52c.75.9 1.47 1.74 2.15 2.53.67.79 1.12 1.31 1.35 1.58.22.27.46.4.71.38.26-.01.48-.12.7-.33.43-.51.46-1.16.07-1.92-.4-.76-.64-1.38-.71-1.84-.08-.47-.12-.91-.12-1.33 0-1.19-.15-2.11-.46-2.76-.31-.66-.53-1.28-.66-1.89-.26-1.21.61-2.02 2.59-2.44.4-.08.87-.17 1.4-.26.53-.1 1.31-.3 2.34-.63 1.02-.33 2-.24 2.93.26s1.44 1.63 1.51 3.39c.12 2.37.3 3.96.51 4.74.2.78.37 1.51.52 2.2.15.72.27 1.82.32 3.28.08 2.6.35 4.4.77 5.41.36.9.59 1.56.68 2.01l.21.97c.03.12.11.38.28.76.17.39.24.81.2 1.26-.02.45.05.91.24 1.38.17.47.2 1.05.04 1.73-.15.69-.13 1.4.04 2.14.18.75.27 1.44.28 2.07.01.62.23 1.32.64 2.08.63 1.18.79 3.44.49 6.79.01.81-.15 1.35-.44 1.65-.3.29-.52.52-.65.68-.14.15-.21.44-.2.86-.03.85-.38 1.3-1.04 1.36-.88.07-1.75-.64-2.61-2.11-1.19-2.03-2.04-3.18-2.57-3.45-.52-.27-.96-.7-1.31-1.3-.37-.6-.69-1.23-1-1.88-.68-1.63-1.22-2.53-1.6-2.73-.38-.19-.74-.65-1.11-1.37-.36-.73-.68-1.23-.96-1.52-.26-.28-.54-.6-.8-.96-.27-.36-.54-.73-.84-1.09-.74-.9-1.33-1.24-1.79-1.01-.27.15-.38.54-.36 1.18.03.65.1 1.43.21 2.33.3 2.64.29 4.59-.04 5.83.59.98 1.07 1.88 1.44 2.71.36.83.54 1.86.53 3.11-.02 1.26-.02 2.25-.03 3.02 0 .76-.04 1.44-.1 2.01-.07.59-.2 1.05-.38 1.37-.17.34-.47.51-.84.53-.38.01-.64-.05-.8-.19-.16-.13-.32-.27-.46-.4-.4-.47-.97-.75-1.7-.85-.73-.09-1.28-.3-1.65-.6-.36-.3-.63-.69-.81-1.16-.19-.47-.35-.98-.49-1.54s-.42-1.14-.82-1.76c-.4-.61-.65-1.14-.75-1.58s-.14-.84-.13-1.21c0-.35.01-.73.02-1.09s-.19-.88-.58-1.55c-.8-1.4-.93-2.66-.36-3.79.39-.93.49-1.66.29-2.21-.49-1.11-1.11-1.79-1.88-2-.36-.14-.58-.34-.64-.63-.13-.6-.31-1.04-.56-1.31-.25-.26-.34-.65-.28-1.17s-.05-.92-.32-1.2c-.01-.04-.15-.44-.42-1.21-.26-.77-.58-1.76-.94-2.97-.37-1.21-.75-2.52-1.18-3.93-.43-1.4-.8-2.77-1.12-4.1-.82-3.04-1.17-4.84-1.06-5.42.12-.57.38-1.02.79-1.37.42-.34.88-.61 1.39-.8 1.1-.36 2.05-.48 2.84-.34z"/><path d="m156.57 9.48c.92-.11 1.74-.25 2.44-.42s1.77-.38 3.18-.64c2.38-.37 4-.89 4.88-1.54 1.76-1.43 3.34-1.89 4.71-1.38.64.2 1.22.29 1.76.25.55-.03 1.24-.42 2.09-1.2.95-.67 1.8-.95 2.55-.85.73.09 1.3.3 1.7.59.41.29.75.88 1.04 1.77.3.89.51 1.79.63 2.69.13.9.21 1.75.25 2.54.2 2.12.39 3.49.59 4.12s.42 1.28.66 1.95c.25.67.42 1.33.52 1.99.25 1.59-.2 2.62-1.37 3.07-.87.31-1.56.24-2.08-.22s-.98-.99-1.39-1.61c-.4-.61-.79-1.15-1.17-1.62-.37-.47-.78-.58-1.24-.33-.46.24-.65.83-.58 1.76.07.94.25 2.01.55 3.23.3 1.23.66 2.49 1.06 3.78.39 1.29.71 2.38.94 3.28.24.9.48 1.81.74 2.73.26.91.47 1.77.64 2.58.37 1.74.37 2.99.02 3.74-.17.37-.21.78-.12 1.23.1.44.25.9.45 1.36.21.46.41.93.64 1.39s.41 1.03.56 1.72c.34 1.62-.15 2.9-1.46 3.86-.48.35-.88.86-1.2 1.52s-.58 1.11-.77 1.33c-.18.23-.42.35-.75.35-.31 0-.57-.09-.75-.29-.19-.19-.38-.4-.54-.61-.39-.6-.82-.95-1.31-1.05-.55-.01-.96-.39-1.22-1.13-.27-.75-.46-1.42-.61-2-.14-.57-.35-1.29-.61-2.12s-.67-1.46-1.22-1.89c-.56-.43-.99-.69-1.31-.76-.31-.08-.57-.39-.76-.92-.2-.53-.31-1.09-.32-1.67-.03-.59-.03-1.24-.01-1.97.07-2.08-.07-4-.39-5.74-.56-3.25-1.01-5.39-1.36-6.43-.61-2.06-1.4-3-2.37-2.8-.48.14-.77.43-.9.86-.12.42-.25.93-.37 1.5-.29 1.46-1.24 2.04-2.87 1.74-.58-.13-.99-.44-1.25-.94-.25-.5-.46-1.1-.63-1.8s-.35-1.45-.54-2.23-.49-1.5-.9-2.16c-.42-.65-.81-1.27-1.18-1.87-.38-.59-.63-1.22-.72-1.87-.1-.66-.07-1.32.06-1.98.14-.67.08-1.28-.14-1.87-.23-.58-.23-1.2-.02-1.87.22-.65.79-1.04 1.72-1.15z"/><path d="m207.19 8.33c.15.22.24.48.26.77s-.16.83-.54 1.64c-.38.79-.54 1.59-.47 2.41.07.81.18 1.45.33 1.95.14.5.23.93.28 1.3.15.9-.21 1.61-1.08 2.13-.74.49-1.37.61-1.9.34-.52-.27-.99-.67-1.39-1.2-.41-.52-.73-.98-.96-1.38-.23-.39-.51-.58-.84-.56-.59.01-1.02.16-1.27.46s-.44.56-.56.76c-.26.39-.55.68-.86.87-.32.2-.57.38-.74.54-.34.37-.41.88-.19 1.5.43 1.22 2.22 2.83 5.39 4.82.59.38 1.28.78 2.06 1.21.79.43 1.58.93 2.39 1.53 1.82 1.43 3.04 3.22 3.67 5.36.64 2.19.72 4.19.26 6.02-.36 1.47-.94 2.5-1.75 3.09-.61.52-.98 1.08-1.1 1.72s-.21 1.1-.28 1.39c-.07.3-.27.56-.61.83-.35.26-.77.42-1.26.48s-.97.07-1.42.02-.87-.14-1.25-.24c-.39-.11-.69-.16-.92-.15-.24.01-.43.12-.6.34-.16.23-.33.46-.48.71-.48.73-.98 1.08-1.5 1.04-.51-.03-1.13-.15-1.85-.33-.71-.18-1.42-.45-2.13-.81-2.54-1.23-3.67-2.81-3.35-4.74.2-1.27.52-2.21.95-2.81.45-.59.83-.93 1.15-1 .53-.11.92.01 1.19.35s.48.64.66.88c.18.23.36.41.56.54s.48.23.86.33.77.11 1.19.06c1.02-.13 1.7-.7 2.04-1.7s.34-2.02 0-3.04c-.69-1.84-1.27-2.56-1.72-2.16-.39.37-.93.5-1.64.37-.7-.12-1.11-.39-1.24-.81s-.3-.81-.51-1.19c-.2-.38-.43-.73-.67-1.07-.56-.84-.99-1.28-1.28-1.31-.35-.01-.79.04-1.33.15-.55.12-1.22-.11-2.01-.68-.8-.58-1.46-1.37-1.96-2.37-.51-1.02-.95-1.9-1.31-2.64-.38-.74-.68-1.32-.94-1.73s-.49-.85-.72-1.31c-.73-1.46-1.17-3.43-1.32-5.93-.06-1.47.12-2.8.54-4.02.42-1.2.92-2.42 1.51-3.64 1.09-2.39 2.21-4.12 3.33-5.2 1.12-1.09 2.1-1.37 2.92-.88.72.4 1.42.47 2.11.22.68-.25 1.22-.49 1.59-.7l1.04-.47c.66-.31 1.36-.44 2.1-.38.75.05 1.53.61 2.35 1.66.41.55.82 1.01 1.21 1.39s.78.74 1.15 1.1c.81.83 1.33 1.55 1.56 2.17.24.6.48 1.02.72 1.28.25.24.44.47.59.7z"/></g></svg>