<svg clip-rule="evenodd" fill-rule="evenodd" height="1.6773cm" image-rendering="optimizeQuality" shape-rendering="geometricPrecision" text-rendering="geometricPrecision" viewBox="0 0 4201.78 1720.45" width="4.09639cm" xmlns="http://www.w3.org/2000/svg" xmlns:xlink="http://www.w3.org/1999/xlink"><linearGradient id="a" gradientUnits="userSpaceOnUse" x1="2024.14" x2="2221.86" y1="391.96" y2="1325.79"><stop offset="0" stop-color="#0f0"/><stop offset=".4" stop-color="#7fff00"/><stop offset="1" stop-color="#ff0"/></linearGradient><g fill="url(#a)" fill-rule="nonzero"><path d="m518.3 724.92c25.69-5.44 50.99-3.7 75.45 5.29 12.12-6.65 23.83-11.27 35.53-13.76 11.53-2.44 26.47-3.89 44.39-4.46 17.96-.36 32.01 5.04 42.35 16.38 10.51 11.09 16.11 21.28 17.17 30.3 1.74 16.38 1.52 28.45-1.04 36.72 11.25 17.6 12.81 42.19 4.12 73.24 29.22 42.57 43.52 112.13 43.13 208.64-.19 23.46-.3 46.25-.84 68.06-.7 51.48.87 87.23 5.1 107.17 2.74 12.95 7.76 31.64 15.1 56.09 7.32 24.44 14.33 49.37 21.41 74.72 7.09 25.35 12.91 48.8 17.54 70.6 4.56 21.58 5.22 35.83 2.22 42.92-3.26 6.91-4.38 16.82-3.83 29.59.59 12.97.53 25.87-.03 38.45-.71 12.81-2.85 24-6.82 33.65-3.76 9.6-10.02 14.58-18.72 15.13-8.64.76-14.38.04-16.75-2.03-2.57-2.04-5-4.31-7.33-7.26-3.97-7.53-9.98-11.63-17.7-12.58-12.01-.89-19.33-7.07-22.23-18.7-2.85-11.43-3-20.21-.63-26.28 2.61-5.94 3.29-11.88 1.99-18.04-1.27-5.96-3.81-11.87-7.63-17.71-8.29-11.78-17.06-17.65-26.33-17.84-9.28-.18-17.48-3.38-24.84-9.78-7.17-6.43-13.93-14.01-19.88-22.85-14.59-21.18-21.83-38.12-21.52-50.86.31-12.73-3.35-26.99-11.04-42.98-23.63-48.69-32.69-87.37-27-116.29 1.52-12.12-.12-21.88-5.11-29.19-8.3-15.86-12.59-29.99-12.69-42.63-.37-25.06-2.6-47.79-6.95-68.33-4.36-20.57-11.62-29.54-22.11-27.33-9.66 2.05-10.6 29.09-3.01 81.19 8.99 57.58 10.99 92.38 6.42 104.31-4.61 11.71-8.74 21.61-11.99 29.59-3.28 7.79-6.15 16.57-8.4 26.28-4.28 19.37-4.04 39.72.44 60.9 4.53 21.38 6.57 34.04 6.21 38.42-.4 4.16-.48 8.9-.3 13.81-.86 15.21.83 33.34 5.27 54.29 6.13 29 5.1 53.47-3.28 73.73-1.13 2.81-1.53 8.05-1.55 16.01-.03 7.95-.85 16.28-2.24 24.96-3.93 21.01-12.41 32.69-25.46 35.03-12.83 2.29-23.52.47-31.96-5.91-8.4-6.17-15.87-14.04-21.95-23.49-6.33-9.61-11.63-19.45-16.33-29.41-4.69-9.96-10.68-19.01-18.48-27.44-10.94-12.07-14.81-40.46-11.68-85.59 1.16-17.86.25-32.27-2.88-43-3.09-10.51-10.46-17.96-22.35-22.33-5.59-2.03-14.22-18.46-26.06-49.03-12.09-30.73-22.03-56.33-30.22-76.72-8.24-20.59-15.61-39.22-22.65-56.2-17.55-39.23-28.94-58.52-34.26-58.25-5.51.31-8.21 2.81-8.52 7.39-.28 4.78.65 10.18 2.82 16.37 2.22 6.4 4.6 12.55 7.17 18.67 2.39 6.15 4.51 12.15 6.1 17.61 1.59 5.47 1.58 16.63-.45 33.39-1.78 16.91 1.34 34.72 9.52 54.05 8.38 19.27 13.65 34.04 15.88 44.54 2.22 10.47 3.38 22.04 3.57 35.11.14 12.85 1.88 24.08 5.16 33.48 3.28 9.41 6.17 18.02 8.7 25.86 5.88 19.59 4.17 33.92-4.95 42.51-8.93 8.55-11.86 20.12-8.39 34.43 3.5 14.5 10.71 25.22 21.51 32.6 10.8 7.37 15.71 15.36 15.16 23.86-.78 8.53-2.27 15.72-4.35 21.1-2.24 5.63-2.65 9.8-1.13 12.91 1.48 2.91 2.35 7.03 2.52 11.92 2.46 19.67-9.02 40.57-34.62 62.74-20.48 17.88-38.76 26.89-54.59 27.24-15.79.54-28.27-2.61-37.16-9.1-8.9-6.5-13.68-14.93-14.18-25.36-.45-10.21-2.21-19.51-5.22-27.67-3.02-8.16-5.67-16.63-7.96-25.38-2.28-8.75-4.77-17.47-7.46-26.13-5.92-23.88-11.66-39.84-17.56-47.4-5.69-7.6-9.99-15.71-12.69-24.38s-4.65-16.83-5.85-24.53c-1.2-7.69-2.06-14.82-2.58-21.37s-3.04-13.31-7.44-19.9c-4.21-6.63-6.36-15.84-6.5-27.63.12-11.61-1.77-22.59-5.64-32.73-3.87-10.13-5.62-19.43-5.35-28.3.27-8.86.3-17.88-.13-27.03-1.98-21.49-9.25-34.55-22.14-39.56-14.92-7.57-25.91-16.84-32.92-27.6-6.75-10.6-11.84-25.42-14.88-43.89-3.1-18.68-6.28-33.67-9.58-45.22-3.3-11.54-4.21-25.95-2.34-43.53 1.65-17.53.71-35.15-3.04-52.84-3.74-17.68-7.58-32.75-11.56-45.45-3.94-12.48-7.94-24.31-11.78-35.31-4-10.76-8.13-22.11-12.34-33.9-7.54-24.4-10.89-45.37-9.54-63.28 2.97-17.38 8.33-32.69 16.09-45.72 7.82-12.82 22.98-21.4 45.55-25.33 43.74-7.54 69.41-15.12 77.07-22.55 16.11-15.23 37-20.07 62.46-14.51 6.89 1.12 13.1 3.03 18.9 6.09 47.42 1.76 76.55 14.5 87.37 38.21 30.32 64.03 47.79 106.93 52.49 129.13 4.67 21.99 8.06 35.02 10.12 38.67 2.1 3.85 3.99 6.67 5.62 8.26 1.46 1.85 2.56 3.97 3.09 6.44.47 2.26 1.01 8.8 1.77 19.59.57 10.83 3.51 18.6 8.6 23.31 5.32 4.88 10.42 6.6 15.77 5.47 5.15-1.09 9.51-4.81 13.23-11.61 4.2-7.54 5.45-20.91 3.29-40.22-1.96-19.35-3.36-31.07-4.18-34.99-1.53-7.19-1.49-14.07.08-20.85 1.42-6.52 1.88-13.49 1.18-20.85-.75-7.58-1.14-15.45-1.19-23.81-2.12-21.24.12-36.97 6.44-46.69 6.32-9.71 13.27-18.48 20.85-26.31 7.54-8.05 11.26-17.86 11.38-29.48.06-11.83.31-22.83 1.15-33.11.87-10.06 3.03-20.19 6.71-30.2 8.99-25.53 26.58-40.84 53.1-46.47z"/><path d="m1041.51 811.54 51.98 274.85c25.64 121.08 54.7 175.07 87.03 161.35 27.98-10.86 30.35-64.63 7.49-161.39-6.09-28.78-8-47.92-5.27-57.31 2.54-9.34 4.14-16.98 4.57-23.09.5-16.85-3.16-38.2-11.03-64.24-5.22-16.5-13.46-41.17-24.5-74.07-11.25-32.83-22.32-66.79-32.98-101.91-10.87-35.07-19.36-66.99-25.49-95.99-6.14-28.98-6.84-47.51-2.45-56.18 4.65-8.5 11.39-14.22 20.37-17.41 9-3.2 18.45-5.2 28.79-6.1 10.34-.89 20.38-1.1 30.12-.8 9.78.51 17.65.13 23.61-1.13s13.15-3.85 21.15-7.69c7.98-3.84 16.1-7.07 24.28-10.08 8.16-3.02 16.05-5.33 23.66-6.94s15.2-.22 22.75 3.99c7.76 4.15 16.12 17.21 25.38 38.65 9.07 21.49 17.98 47.32 26.32 77.55 8.49 29.99 16.45 62.46 23.86 97.41 7.4 34.94 14 68.12 19.84 99.74 11.55 69.72 17.3 112.11 17.48 127.11.37 14.96-.9 26.18-3.67 33.42-2.51 7.41-5.36 14.24-8.09 20.62-5.62 13.01-3.46 29.31 6.53 49.09 10.15 19.54 17.87 34.66 23.56 45.27 9.82 18.98 14.06 36.98 12.73 54.01-1.55 17.07.12 33.05 4.99 47.91 12.83 40.24 14.07 70.48 4.25 91.03-4.5 10.19-12.79 20.74-24.86 31.67-23.92 20.96-40.16 43.73-48.49 68.25-3.67 14.09-9.67 23.31-17.99 27.65-4.38 2.65-11.53 4.37-21.46 5.19s-20.67 1.81-32.24 2.96c-11.37 1.12-22.48 2.4-33.23 3.38-10.74.98-17.94 2.51-21.59 4.57-3.85 2.1-6.86 5.1-9.36 9.5-2.55 4.18-5.22 8.83-8.46 13.82-17.02 26.16-40.16 28.47-69.01 6.87-5.9-4.54-11.75-8.88-17.22-13.31-5.6-4.18-10.59-7.43-15.27-9.22-4.51-2.06-10.67-3.76-18.02-5-7.4-1.45-15.7-4.2-24.9-8.04-38.95-13.45-67.87-42.55-86.6-87.34-9.48-21.41-19.78-49.72-30.43-84.84-10.86-35.06-18.33-57.11-22.23-66.37-4.1-9.23-11.51-18.83-21.97-28.65-10.5-10.01-17.95-19.83-22.49-29.17-4.61-9.55-7.28-20.15-8.03-31.81-.71-11.45-1.41-24.83-1.98-39.75-1.82-39.99-7.3-74.05-16.7-102.13-9.42-28.29-14.79-50.56-16.12-67.03-1.38-16.68-3.31-26.79-5.92-30.97-2.55-3.97-5.94-7.75-10.47-10.88-4.57-3.32-7.18-11.58-8.43-24.63-1.1-13.3-2.89-25.82-5.46-37.94s-5.18-24.45-7.93-37.41c-9.08-54.99-7.61-89.67 4.38-104.03 10.27-11.4 21.56-18.95 34.37-22.31 19.79-5.04 34.21-11.96 42.94-20.46 8.47-8.68 15.61-15.56 21.36-20.85 35.32-31.1 63.58-20.34 84.83 32.29 13.52 32.37 27.6 78.57 41.77 138.3z"/><path d="m1419.34 546.6c18.24-2.14 34.62-4.97 48.52-8.34 13.89-3.37 35.11-7.65 63.26-12.75 47.19-7.42 79.38-17.66 96.85-30.6 35.01-28.45 66.4-37.47 93.67-27.36 12.66 3.98 24.22 5.83 35.01 5.05 10.84-.57 24.65-8.44 41.57-23.84 18.89-13.24 35.73-18.95 50.56-16.93 14.57 1.86 25.94 5.9 33.84 11.73 8.11 5.81 14.88 17.47 20.76 35.13 5.89 17.65 10.09 35.45 12.61 53.39 2.5 17.93 4.14 34.77 4.89 50.51 3.98 42.12 7.8 69.23 11.78 81.91 3.94 12.48 8.4 25.5 13.13 38.67 4.97 13.34 8.38 26.37 10.3 39.49 4.97 31.59-4.03 51.97-27.25 60.97-17.16 6.22-30.99 4.84-41.32-4.36-10.33-9.19-19.43-19.71-27.61-31.95-7.92-12.06-15.59-22.89-23.16-32.25-7.35-9.41-15.54-11.53-24.6-6.61-9.1 4.72-12.83 16.47-11.48 35.07 1.37 18.62 5.04 39.96 11.05 64.25 6.03 24.49 13.04 49.43 21.04 75.01 7.8 25.63 14.09 47.29 18.75 65.19 4.66 17.92 9.56 35.99 14.72 54.24 5.11 18.03 9.38 35.17 12.77 51.19 7.32 34.55 7.44 59.43.47 74.22-3.38 7.37-4.24 15.5-2.36 24.34s4.85 17.88 8.96 27.1c4.1 9.22 8.21 18.45 12.71 27.59 4.51 9.14 8.19 20.39 11.11 34.16 6.79 32.07-3.06 57.56-29.1 76.61-9.49 6.95-17.45 17.02-23.9 30.19-6.44 13.18-11.46 21.97-15.24 26.43-3.53 4.61-8.41 6.92-14.84 7-6.23.03-11.31-1.68-14.94-5.64-3.78-3.7-7.47-7.87-10.73-12.11-7.68-11.91-16.25-18.89-25.91-20.94-11.02-.25-19.06-7.76-24.34-22.55-5.31-14.99-9.18-28.13-12.07-39.76-2.85-11.43-6.92-25.6-12.13-42.11-5.22-16.5-13.23-28.98-24.29-37.59-11.07-8.62-19.65-13.66-25.98-15.13-6.16-1.7-11.29-7.7-15.05-18.28-3.96-10.55-6.09-21.69-6.39-33.23-.54-11.69-.49-24.6-.11-39.07 1.34-41.31-1.35-79.4-7.85-114.1-11.12-64.65-20.14-107.21-27.04-127.65-12.13-41.04-27.88-59.61-47-55.55-9.49 2.86-15.37 8.62-17.87 17.1-2.29 8.43-4.9 18.43-7.41 29.92-5.7 28.91-24.73 40.45-56.91 34.6-11.49-2.5-19.67-8.72-24.78-18.6-4.89-9.92-9.15-21.91-12.52-35.8-3.36-13.89-6.95-28.8-10.68-44.34-3.72-15.54-9.74-29.73-17.88-42.81-8.32-12.85-16.07-25.17-23.54-37.12-7.64-11.69-12.44-24.22-14.32-37.13-1.92-13.13-1.46-26.12 1.12-39.33 2.78-13.26 1.69-25.49-2.73-37.22-4.59-11.49-4.64-23.93-.34-37.09 4.35-12.94 15.81-20.74 34.24-22.93z"/><path d="m2193.2 1321.56c-7.48 4.16-16.67 5.46-27.32 3.86-10.82-1.37-19.24-6.68-25.49-15.87-6.25-9.21-11.2-20.4-15.21-33.3-4.02-12.9-7.28-27.24-9.68-42.63s-5.17-30.47-8.22-44.87c-6.79-32.07-16.49-51.49-28.65-58.16-25.18-11.42-42.69-50.45-52.52-117.11-4.1-38.65-5.95-69.62-6-93.23.23-38.5-2.53-70.78-8.39-96.38-5.85-25.6-9.25-45.72-10.29-60.75-1.2-14.78-1.29-27.43-.46-37.71.67-10.01 2.02-20.83 3.92-32.19 1.68-11.31 1.73-29.36-.29-54.06-4.74-61.93-5.26-100.91-1.94-116.65 4.57-22.02 10.92-44.83 18.73-68.84 8.05-23.83 15.08-40.35 21.57-49.25 15.63-17.48 41.89-24.33 78.84-20.34 27.57 3.41 51.98 1.03 73.54-6.76 21.3-7.95 37.86-12.95 49.66-15.03 11.82-2.07 25.72-.3 41.9 5.09 16.39 5.33 29.62 13.06 40.09 22.87 10.49 10.02 18.9 21.34 24.91 34.45 10.67 22.02 17.36 51.52 19.96 88.13 2.84 36.77 7.13 66.15 13.03 87.88 5.94 21.93 15.06 41.7 27.67 59.65 12.61 17.94 21.67 32.35 26.79 43.3 5.35 11.11 10.3 22.31 14.6 33.42 4.53 11.29 8.83 23.48 12.85 36.37s9.51 27.62 16.78 43.7 11.95 29.05 14.49 39.03c2.54 9.99 4.08 18.25 4.62 24.8.52 6.54.96 12.68.82 18.07-.1 5.61 2.01 13.54 6.33 23.8 4.15 10.5 6.68 22.42 7.53 35.56.69 13.39 1.05 26.2 1.14 38.84-1.05 38.67.99 65.52 5.91 80.58 8.87 26.7 12.97 46.01 12.37 58.38-.86 12.21-1.94 22.31-3.05 30.29-1.34 7.8-2.51 18.57-3.3 32.05-.95 13.73-5.93 26.81-15.01 39.69-8.88 12.84-18.92 18.19-29.82 16.41-10.95-1.98-18.55-6.38-23.04-13.38-4.28-7.05-8.4-14.34-12.17-21.92-3.75-7.58-7.58-14.49-11.81-20.26-4.24-5.76-9.95-8.42-17.31-7.72-13.26 1.31-21.66-4.86-25.27-17.84-3.61-12.99-5.88-24.75-6.78-35.09-.9-10.32-3.69-20.47-8.34-30.23-4.48-10.01-10.73-19.2-18.33-27.69-19.86-21.79-39.6-31.78-59.25-30.2-29.86 2.03-47.01 20.48-51.31 54.9-.78 8.54-.37 19.62 1.19 33.04 1.6 13.62.99 25.99-2.12 37.61-2.92 11.57-6.61 21.58-11.25 30.07-4.44 8.46-8.6 16.22-12.64 23.51-3.88 7.06-5.81 15.2-5.37 24.34.74 35.92-8.65 58.54-28.63 67.71zm.44-527.39c-6.85 46.78-1.6 81.74 15.98 104.87 11.06 12.7 23 18.33 36.09 16.21 23.76-2.46 37.35-7.27 40.39-14.14 3.26-6.91 7.06-14.38 11.54-22.64 4.73-8.08 4.57-19-.04-32.63-4.4-13.67-8.3-25.95-11.43-36.68-3.09-10.51-9.6-22.01-19.26-34.15-9.7-12.33-17.31-25.97-23.09-41.08-5.77-15.1-10.65-29.96-14.51-44.17-9.88-31.42-20.47-45.93-31.79-43.53-8.01 1.69-12.28 6.9-12.34 15.71-.28 8.87.64 20.27 2.69 34.01 8.02 41.9 10.04 74.76 5.77 98.21z"/><path d="m2565.44 309.09c36.7-24.53 58.15-30.79 63.93-18.7 19.15-9 35.21-6.16 48.45 8.65 4.46 4.85 13.12 15.25 26.13 30.98 12.99 15.72 27.07 32.5 42.19 50.14 14.97 17.88 29.24 34.62 42.66 50.24 13.41 15.63 22.26 26 26.86 31.47 4.34 5.31 9.2 7.94 14.05 7.55 5.11-.22 9.58-2.45 13.86-6.59 8.58-10.19 9.1-22.98 1.38-38.1-7.92-15.07-12.68-27.38-14.19-36.52-1.55-9.33-2.35-18.19-2.4-26.56-.06-23.6-3.08-41.87-9.03-54.78-6.21-13.07-10.55-25.48-13.13-37.6-5.09-24.05 12.12-40.15 51.4-48.47 8.02-1.7 17.3-3.46 27.89-5.26 10.52-2.01 26.02-5.95 46.56-12.43 20.33-6.45 39.81-4.78 58.26 5.27 18.41 9.85 28.57 32.39 29.95 67.33 2.47 47.15 5.91 78.64 10.04 94.09 3.94 15.5 7.44 30 10.36 43.78 3.05 14.39 5.3 36.24 6.3 65.25 1.7 51.62 6.92 87.45 15.27 107.59 7.21 17.81 11.72 31.03 13.59 39.87l4.1 19.32c.51 2.46 2.23 7.47 5.57 15.13 3.34 7.67 4.68 15.99 3.99 24.94-.47 8.9 1.04 18.04 4.72 27.36 3.49 9.34 3.99 20.85.85 34.4-2.9 13.7-2.71 27.84.84 42.56 3.59 14.92 5.4 28.49 5.5 41.15.27 12.4 4.5 26.31 12.63 41.35 12.47 23.36 15.79 68.4 9.69 134.99.18 16.06-2.91 26.82-8.74 32.77-5.87 5.76-10.27 10.34-12.83 13.47-2.81 2.94-4.14 8.82-3.89 17.14-.72 16.89-7.62 25.88-20.72 26.95-17.54 1.34-34.68-12.65-51.83-41.87-23.58-40.32-40.66-63.13-51.03-68.46-10.37-5.31-19.08-14-26.09-25.83-7.26-11.99-13.76-24.36-19.96-37.44-13.51-32.36-24.19-50.29-31.7-54.28-7.46-3.8-14.78-12.99-22.11-27.33-7.17-14.59-13.55-24.4-19.05-30.12-5.26-5.55-10.7-11.92-15.89-19.19-5.4-7.23-10.8-14.47-16.61-21.61-14.75-17.92-26.49-24.68-35.63-20.16-5.42 2.86-7.63 10.63-7.08 23.4.61 12.98 1.93 28.37 4.24 46.36 5.95 52.42 5.77 91.14-.79 115.94 11.84 19.4 21.23 37.38 28.6 53.86 7.15 16.53 10.64 37.06 10.5 61.78-.29 24.98-.39 44.75-.59 60.06-.03 15.04-.83 28.53-2.06 39.95-1.39 11.68-3.97 20.81-7.52 27.37-3.51 6.76-9.25 10.12-16.67 10.62-7.46.29-12.66-.97-15.83-3.74-3.11-2.55-6.28-5.32-9.2-7.93-7.97-9.26-19.24-14.82-33.86-16.87-14.58-1.87-25.55-5.98-32.82-11.96-7.09-6.02-12.57-13.66-16.05-23.02-3.69-9.32-6.89-19.38-9.7-30.6-2.81-11.21-8.26-22.74-16.23-35.01-7.92-12.06-12.94-22.61-14.82-31.44-1.87-8.84-2.7-16.83-2.49-23.96 0-7.09.16-14.42.38-21.55.21-7.14-3.7-17.48-11.48-30.86-15.98-27.77-18.49-52.78-7.17-75.38 7.71-18.38 9.76-33 5.72-43.95-9.85-22.18-22.12-35.47-37.42-39.76-7.24-2.76-11.54-6.79-12.76-12.55-2.52-11.92-6.08-20.61-11.09-26-4.96-5.17-6.83-12.93-5.58-23.29 1.24-10.36-.87-18.29-6.34-23.8-.17-.82-2.93-8.82-8.3-24.01-5.16-15.23-11.49-34.94-18.72-58.96-7.24-24.03-14.91-50.11-23.44-78.16-8.47-27.85-15.95-55.05-22.2-81.43-16.22-60.35-23.18-96.25-21.08-107.65 2.35-11.24 7.52-20.28 15.73-27.17 8.24-6.68 17.42-12.06 27.55-15.93 21.89-7.21 40.74-9.49 56.35-6.77z"/><path d="m3110.91 188.44c18.24-2.14 34.62-4.97 48.51-8.34 13.9-3.37 35.12-7.65 63.26-12.75 47.2-7.41 79.39-17.66 96.85-30.6 35.01-28.45 66.41-37.47 93.68-27.36 12.66 3.98 24.22 5.84 35.01 5.05 10.84-.57 24.64-8.44 41.56-23.84 18.89-13.23 35.74-18.95 50.57-16.93 14.57 1.86 25.94 5.9 33.84 11.74 8.11 5.8 14.88 17.46 20.76 35.12 5.89 17.65 10.09 35.45 12.6 53.39 2.51 17.93 4.15 34.77 4.9 50.51 3.98 42.12 7.8 69.23 11.78 81.92 3.94 12.48 8.4 25.49 13.13 38.66 4.97 13.34 8.38 26.37 10.3 39.49 4.97 31.59-4.03 51.97-27.25 60.97-17.16 6.22-30.99 4.84-41.32-4.36-10.33-9.18-19.43-19.71-27.61-31.95-7.93-12.06-15.59-22.89-23.16-32.25-7.35-9.4-15.54-11.53-24.6-6.6-9.1 4.71-12.84 16.46-11.48 35.07 1.37 18.61 5.04 39.95 11.05 64.25 6.03 24.48 13.04 49.42 21.04 75 7.8 25.63 14.09 47.29 18.75 65.2 4.65 17.92 9.56 35.99 14.72 54.23 5.11 18.03 9.38 35.17 12.77 51.19 7.31 34.55 7.43 59.43.47 74.22-3.38 7.37-4.24 15.5-2.36 24.34 1.87 8.84 4.85 17.88 8.95 27.1s8.22 18.45 12.72 27.59c4.51 9.14 8.19 20.39 11.11 34.16 6.79 32.07-3.06 57.57-29.1 76.61-9.49 6.95-17.46 17.02-23.9 30.19-6.44 13.18-11.46 21.97-15.24 26.43-3.54 4.61-8.41 6.93-14.85 7.01-6.22.02-11.3-1.69-14.93-5.65-3.78-3.7-7.47-7.86-10.73-12.11-7.68-11.91-16.26-18.89-25.91-20.94-11.02-.25-19.06-7.76-24.34-22.55-5.31-14.99-9.18-28.13-12.07-39.76-2.85-11.43-6.92-25.6-12.13-42.11-5.22-16.5-13.23-28.98-24.3-37.59-11.06-8.62-19.65-13.66-25.97-15.13-6.16-1.7-11.3-7.7-15.05-18.28-3.96-10.55-6.09-21.69-6.39-33.23-.55-11.69-.49-24.6-.12-39.07 1.35-41.3-1.34-79.39-7.84-114.1-11.12-64.65-20.14-107.21-27.04-127.65-12.13-41.04-27.88-59.61-47-55.55-9.5 2.87-15.37 8.62-17.87 17.1-2.3 8.43-4.9 18.43-7.42 29.92-5.69 28.91-24.72 40.45-56.9 34.6-11.5-2.5-19.68-8.72-24.78-18.6-4.89-9.92-9.15-21.9-12.52-35.8-3.37-13.89-6.96-28.8-10.68-44.34s-9.74-29.73-17.89-42.81c-8.31-12.85-16.06-25.17-23.54-37.11-7.63-11.7-12.43-24.22-14.31-37.14-1.93-13.13-1.46-26.12 1.12-39.33 2.78-13.26 1.68-25.49-2.73-37.22-4.59-11.49-4.64-23.93-.34-37.09 4.35-12.94 15.81-20.74 34.24-22.93z"/><path d="m4116.66 165.56c3.06 4.3 4.8 9.51 5.15 15.23.36 5.72-3.15 16.57-10.72 32.56-7.61 15.79-10.69 31.7-9.4 47.95 1.47 16.01 3.55 28.89 6.5 38.79 2.76 9.94 4.59 18.57 5.49 25.9 2.92 17.85-4.16 32.02-21.32 42.31-14.69 9.76-27.32 12.02-37.68 6.7-10.37-5.32-19.57-13.26-27.6-23.8-8.21-10.3-14.45-19.5-19.11-27.32-4.46-7.86-10.2-11.59-16.74-11.06-11.79.12-20.17 3.19-25.12 9.18-4.96 5.99-8.82 11.1-11.2 15.04-5.24 7.78-10.89 13.48-17.16 17.39-6.27 3.9-11.3 7.55-14.73 10.64-6.8 7.46-8.11 17.4-3.78 29.8 8.56 24.17 44.13 56.17 107.07 95.67 11.71 7.62 25.4 15.46 40.96 23.98 15.77 8.47 31.41 18.47 47.46 30.33 36.1 28.43 60.37 63.89 72.84 106.56 12.66 43.51 14.23 83.33 5.16 119.62-7.14 29.21-18.69 49.71-34.68 61.47-12.21 10.32-19.5 21.52-21.75 34.24-2.45 12.77-4.16 21.94-5.54 27.59-1.34 5.87-5.35 11.22-12.18 16.53-6.87 5.11-15.21 8.38-25.04 9.6-9.84 1.22-19.28 1.29-28.27.4-9.05-1.1-17.35-2.77-24.87-4.83-7.79-2.22-13.77-3.1-18.26-3.01-4.7.14-8.5 2.44-11.88 6.82-3.12 4.51-6.45 9.09-9.49 14.03-9.6 14.49-19.5 21.52-29.77 20.69-10.03-.67-22.34-3-36.65-6.63-14.09-3.67-28.34-9.04-42.31-16.18-50.52-24.53-72.84-55.88-66.56-94.15 3.88-25.31 10.26-43.84 18.9-55.77 8.89-11.77 16.48-18.52 22.85-19.87 10.49-2.23 18.32.19 23.62 7.03 5.31 6.82 9.55 12.58 13.15 17.41 3.56 4.62 7.1 8.15 11.09 10.75 3.97 2.6 9.57 4.63 17.05 6.48 7.49 1.86 15.28 2.13 23.67 1.22 20.3-2.58 33.81-13.82 40.56-33.73 6.74-19.89 6.76-40.09-.11-60.32-13.77-36.61-25.18-50.94-34.25-43.01-7.65 7.43-18.51 9.93-32.61 7.33-13.83-2.44-22.05-7.8-24.66-16.04-2.62-8.25-5.99-16.13-10.15-23.62-3.97-7.54-8.45-14.53-13.31-21.23-11.07-16.77-19.58-25.5-25.48-25.97-6.93-.25-15.73.76-26.42 3.02-10.9 2.31-24.31-2.14-40.01-13.43-15.96-11.45-28.97-27.16-39-47.15-10.08-20.21-18.93-37.66-26.16-52.46-7.41-14.76-13.49-26.15-18.64-34.29-5.16-8.13-9.81-16.82-14.31-25.96-14.5-28.93-23.23-68.11-26.23-117.73-1.24-29.16 2.38-55.7 10.79-79.82 8.27-23.88 18.39-48.14 30.02-72.29 21.71-47.55 43.88-81.88 66.19-103.36 22.26-21.68 41.7-27.3 57.96-17.43 14.35 7.92 28.18 9.28 41.96 4.43 13.55-5.03 24.19-9.63 31.66-13.8l20.6-9.3c13.08-6.21 26.94-8.71 41.79-7.56 15.03.9 30.47 12.02 46.71 32.85 8.11 10.95 16.3 20.18 24.09 27.54 7.84 7.58 15.58 14.75 22.88 21.79 15.97 16.6 26.53 30.91 31.03 43.05 4.67 11.9 9.47 20.34 14.18 25.35 4.88 4.77 8.84 9.3 11.74 13.84z"/></g></svg>