<svg clip-rule="evenodd" fill-rule="evenodd" height="5.0012mm" image-rendering="optimizeQuality" shape-rendering="geometricPrecision" text-rendering="geometricPrecision" viewBox="0 0 2463.21 1008.58" width="12.2142mm" xmlns="http://www.w3.org/2000/svg" xmlns:xlink="http://www.w3.org/1999/xlink"><linearGradient id="a" gradientUnits="userSpaceOnUse" x1="1186.62" x2="1302.53" y1="229.77" y2="777.23"><stop offset="0" stop-color="#0f0"/><stop offset=".4" stop-color="#7fff00"/><stop offset="1" stop-color="#ff0"/></linearGradient><g fill="url(#a)" fill-rule="nonzero"><path d="m303.83 424.97c15.08-3.19 29.91-2.16 44.25 3.11 7.12-3.89 13.98-6.61 20.83-8.07 6.76-1.43 15.53-2.28 26.04-2.62 10.53-.2 18.73 2.96 24.81 9.6 6.17 6.51 9.46 12.48 10.08 17.77 1.03 9.62.89 16.7-.63 21.54 6.59 10.31 7.52 24.72 2.44 42.94 17.12 24.95 25.51 65.72 25.27 122.31-.12 13.75-.18 27.1-.5 39.89-.38 30.17.52 51.14 3 62.84 1.61 7.58 4.56 18.55 8.85 32.87 4.3 14.34 8.39 28.94 12.54 43.78 4.15 14.88 7.56 28.62 10.29 41.4 2.68 12.64 3.07 20.99 1.31 25.17-1.94 4.05-2.58 9.86-2.26 17.34.36 7.6.32 15.17 0 22.53-.42 7.54-1.67 14.08-4.01 19.74-2.2 5.63-5.87 8.55-10.97 8.87-5.06.44-8.43.02-9.82-1.21-1.51-1.17-2.94-2.5-4.32-4.24-2.32-4.42-5.83-6.82-10.37-7.36-7.04-.54-11.33-4.15-13.03-10.97-1.65-6.72-1.75-11.84-.36-15.41 1.53-3.49 1.92-6.96 1.15-10.57-.73-3.51-2.2-6.96-4.46-10.41-4.88-6.9-10-10.35-15.45-10.45-5.45-.12-10.24-1.98-14.56-5.73-4.17-3.77-8.17-8.23-11.66-13.41-8.53-12.4-12.79-22.32-12.62-29.81.2-7.46-1.94-15.83-6.45-25.19-13.85-28.54-19.18-51.22-15.83-68.18.89-7.1-.06-12.83-2.98-17.1-4.88-9.3-7.38-17.59-7.44-25.01-.22-14.66-1.51-27.99-4.07-40.05s-6.82-17.32-12.97-16.01c-5.65 1.19-6.21 17.06-1.77 47.59 5.28 33.74 6.45 54.15 3.79 61.15-2.72 6.86-5.14 12.66-7.06 17.34-1.92 4.58-3.59 9.72-4.92 15.41-2.5 11.35-2.36 23.29.26 35.7 2.66 12.52 3.87 19.97 3.65 22.53-.26 2.44-.28 5.22-.18 8.11-.5 8.91.48 19.54 3.09 31.82 3.59 16.98 2.98 31.34-1.92 43.22-.67 1.65-.89 4.72-.93 9.4 0 4.66-.48 9.54-1.29 14.62-2.32 12.32-7.28 19.16-14.92 20.53-7.52 1.35-13.79.28-18.73-3.47-4.94-3.61-9.32-8.21-12.87-13.77-3.71-5.63-6.84-11.39-9.58-17.22-2.74-5.85-6.25-11.15-10.83-16.09-6.43-7.08-8.67-23.72-6.86-50.17.67-10.47.14-18.9-1.69-25.19-1.79-6.17-6.13-10.55-13.11-13.11-3.25-1.19-8.33-10.83-15.27-28.74-7.1-18.01-12.93-33.03-17.73-44.97-4.82-12.08-9.14-22.99-13.27-32.95-10.29-22.99-16.96-34.3-20.09-34.16-3.23.2-4.82 1.65-4.98 4.34-.18 2.82.36 5.97 1.63 9.62 1.31 3.73 2.7 7.34 4.21 10.93 1.41 3.61 2.64 7.12 3.57 10.33.93 3.19.93 9.74-.26 19.56-1.05 9.92.79 20.37 5.57 31.68 4.94 11.31 8.03 19.97 9.34 26.1 1.29 6.17 1.98 12.95 2.08 20.59.08 7.54 1.11 14.14 3.03 19.64 1.92 5.51 3.63 10.57 5.1 15.17 3.43 11.47 2.46 19.86-2.9 24.93-5.24 5-6.96 11.78-4.9 20.17 2.04 8.51 6.25 14.78 12.6 19.12 6.33 4.34 9.2 8.99 8.87 13.98-.44 5-1.33 9.22-2.54 12.36-1.31 3.31-1.55 5.75-.67 7.58.87 1.69 1.37 4.13 1.49 6.98 1.43 11.54-5.3 23.78-20.31 36.8-12.02 10.47-22.73 15.75-32 15.97-9.26.3-16.58-1.55-21.8-5.34-5.18-3.81-8.01-8.75-8.29-14.86-.26-5.99-1.29-11.43-3.07-16.21-1.77-4.8-3.33-9.74-4.66-14.88-1.35-5.14-2.8-10.22-4.38-15.33-3.47-14-6.86-23.35-10.31-27.79-3.33-4.44-5.85-9.22-7.42-14.28-1.59-5.08-2.72-9.88-3.43-14.38-.73-4.52-1.21-8.69-1.53-12.52-.3-3.85-1.77-7.8-4.34-11.68-2.48-3.89-3.75-9.3-3.83-16.19.08-6.8-1.03-13.25-3.31-19.2-2.26-5.93-3.29-11.37-3.15-16.58.16-5.2.18-10.47-.06-15.85-1.17-12.58-5.42-20.25-12.99-23.17-8.75-4.46-15.19-9.9-19.3-16.19-3.95-6.23-6.94-14.9-8.71-25.73-1.82-10.95-3.69-19.74-5.61-26.52-1.96-6.76-2.48-15.21-1.39-25.51.97-10.29.42-20.61-1.77-30.98-2.2-10.35-4.44-19.2-6.78-26.64-2.3-7.32-4.66-14.24-6.9-20.69-2.36-6.31-4.78-12.97-7.26-19.88-4.4-14.3-6.37-26.6-5.59-37.09 1.75-10.2 4.9-19.18 9.44-26.82 4.6-7.5 13.47-12.52 26.72-14.84 25.63-4.42 40.68-8.85 45.17-13.21 9.46-8.93 21.7-11.78 36.62-8.49 4.03.65 7.66 1.75 11.07 3.57 27.81 1.03 44.87 8.49 51.22 22.39 17.77 37.53 28.01 62.68 30.75 75.71 2.74 12.89 4.74 20.53 5.95 22.67 1.23 2.24 2.34 3.91 3.29 4.84.87 1.07 1.49 2.32 1.82 3.77.28 1.33.58 5.16 1.05 11.5.32 6.33 2.06 10.89 5.04 13.65 3.13 2.86 6.09 3.87 9.24 3.21 3.03-.63 5.57-2.82 7.74-6.8 2.48-4.44 3.21-12.28 1.94-23.6-1.15-11.33-1.96-18.21-2.44-20.51-.89-4.19-.89-8.23.04-12.2.83-3.83 1.09-7.93.69-12.26-.44-4.42-.65-9.03-.69-13.94-1.25-12.46.08-21.68 3.77-27.37 3.71-5.71 7.78-10.83 12.22-15.43 4.42-4.72 6.61-10.47 6.68-17.28.02-6.94.18-13.39.67-19.42.52-5.89 1.77-11.82 3.93-17.69 5.26-14.96 15.57-23.96 31.12-27.25z"/><path d="m610.57 475.73 30.47 161.13c15.04 70.99 32.09 102.63 51.02 94.6 16.42-6.37 17.79-37.89 4.38-94.62-3.57-16.86-4.68-28.09-3.07-33.58 1.47-5.49 2.42-9.96 2.66-13.53.28-9.9-1.84-22.41-6.45-37.67-3.07-9.68-7.91-24.14-14.38-43.42-6.59-19.24-13.09-39.16-19.32-59.73-6.37-20.57-11.35-39.28-14.94-56.27-3.61-17.02-4.01-27.87-1.43-32.95 2.72-4.98 6.66-8.35 11.94-10.2 5.28-1.88 10.83-3.05 16.88-3.57 6.05-.54 11.94-.65 17.65-.48 5.73.32 10.35.08 13.83-.67 3.49-.73 7.72-2.24 12.42-4.5 4.68-2.24 9.42-4.13 14.22-5.91 4.78-1.75 9.42-3.13 13.87-4.07 4.48-.95 8.91-.12 13.35 2.34 4.54 2.44 9.44 10.08 14.86 22.67 5.3 12.6 10.55 27.75 15.43 45.46 4.98 17.59 9.66 36.62 14 57.09 4.34 20.51 8.21 39.95 11.62 58.48 6.8 40.88 10.14 65.72 10.24 74.52.22 8.77-.52 15.35-2.14 19.6-1.47 4.32-3.15 8.33-4.74 12.06-3.29 7.62-2.04 17.18 3.83 28.8 5.95 11.43 10.47 20.31 13.79 26.54 5.77 11.11 8.25 21.66 7.46 31.64-.89 10.02.08 19.38 2.92 28.09 7.52 23.62 8.25 41.32 2.48 53.36-2.62 5.99-7.48 12.16-14.58 18.57-14.02 12.28-23.51 25.63-28.39 40.03-2.18 8.25-5.69 13.65-10.55 16.21-2.58 1.53-6.76 2.56-12.6 3.03-5.81.48-12.1 1.07-18.9 1.73-6.66.65-13.17 1.41-19.46 1.98-6.31.58-10.53 1.47-12.66 2.68-2.26 1.25-4.01 3-5.49 5.59-1.51 2.46-3.07 5.18-4.98 8.09-9.96 15.33-23.53 16.7-40.43 4.03-3.47-2.66-6.9-5.22-10.1-7.78-3.29-2.46-6.21-4.36-8.95-5.42-2.64-1.21-6.25-2.2-10.57-2.92-4.34-.85-9.2-2.46-14.6-4.72-22.83-7.89-39.79-24.93-50.78-51.2-5.55-12.54-11.58-29.14-17.83-49.73-6.37-20.57-10.75-33.5-13.03-38.92-2.4-5.4-6.76-11.03-12.89-16.78-6.15-5.89-10.51-11.62-13.19-17.1-2.7-5.61-4.28-11.82-4.7-18.63-.42-6.72-.83-14.58-1.17-23.31-1.05-23.45-4.28-43.42-9.78-59.9-5.53-16.58-8.67-29.62-9.46-39.28-.81-9.78-1.94-15.71-3.47-18.15-1.51-2.34-3.49-4.56-6.13-6.37-2.68-1.96-4.21-6.8-4.96-14.44-.65-7.8-1.67-15.13-3.19-22.24-1.51-7.1-3.05-14.34-4.64-21.92-5.32-32.25-4.48-52.57 2.56-60.98 6.01-6.7 12.62-11.13 20.15-13.09 11.6-2.94 20.05-7.02 25.15-12 5-5.08 9.18-9.12 12.54-12.22 20.69-18.23 37.29-11.92 49.73 18.92 7.93 18.98 16.17 46.08 24.48 81.07z"/><path d="m832.06 320.43c10.69-1.25 20.29-2.9 28.44-4.88s20.59-4.5 37.07-7.46c27.69-4.36 46.57-10.39 56.79-17.95 20.53-16.7 38.94-21.96 54.91-16.03 7.42 2.32 14.2 3.41 20.53 2.94 6.35-.32 14.46-4.94 24.38-13.96 11.07-7.76 20.93-11.11 29.62-9.92 8.53 1.07 15.21 3.43 19.84 6.86 4.74 3.41 8.71 10.24 12.16 20.61 3.47 10.33 5.93 20.77 7.38 31.28 1.47 10.53 2.44 20.39 2.88 29.62 2.34 24.68 4.58 40.58 6.9 48.02 2.3 7.32 4.94 14.94 7.7 22.67 2.92 7.82 4.9 15.45 6.03 23.15 2.92 18.53-2.36 30.47-15.97 35.74-10.06 3.65-18.15 2.84-24.24-2.56-6.03-5.36-11.37-11.56-16.17-18.73-4.64-7.06-9.14-13.41-13.55-18.9-4.34-5.51-9.14-6.76-14.44-3.85-5.32 2.74-7.52 9.64-6.72 20.55.79 10.91 2.94 23.43 6.45 37.67 3.55 14.36 7.66 28.96 12.34 43.96 4.56 15.02 8.27 27.71 10.99 38.22 2.74 10.51 5.61 21.11 8.63 31.78 3 10.59 5.51 20.63 7.48 30.03 4.3 20.23 4.36 34.83.28 43.52-1.98 4.32-2.5 9.08-1.39 14.26 1.09 5.18 2.84 10.47 5.26 15.87 2.4 5.4 4.8 10.83 7.46 16.19 2.64 5.36 4.78 11.96 6.49 20.03 3.97 18.8-1.79 33.72-17.06 44.89-5.57 4.09-10.22 9.98-14.02 17.71-3.77 7.72-6.72 12.89-8.91 15.51-2.08 2.7-4.94 4.05-8.71 4.09-3.63.02-6.63-.99-8.75-3.31-2.24-2.16-4.38-4.62-6.29-7.1-4.52-6.98-9.52-11.07-15.21-12.26-6.45-.16-11.17-4.56-14.26-13.23-3.13-8.77-5.38-16.48-7.08-23.31-1.67-6.7-4.05-15-7.1-24.68-3.07-9.68-7.76-16.98-14.26-22.04-6.47-5.04-11.52-8.03-15.23-8.85-3.61-.99-6.63-4.52-8.83-10.73-2.3-6.17-3.55-12.71-3.73-19.48-.32-6.86-.3-14.42-.06-22.91.79-24.2-.79-46.54-4.62-66.87-6.51-37.91-11.8-62.86-15.85-74.84-7.12-24.06-16.34-34.95-27.55-32.57-5.57 1.67-8.99 5.06-10.49 10.02-1.33 4.94-2.86 10.79-4.32 17.55-3.35 16.94-14.5 23.72-33.38 20.27-6.74-1.45-11.54-5.1-14.52-10.89-2.88-5.81-5.36-12.85-7.34-20.99-1.98-8.13-4.07-16.88-6.25-25.97-2.2-9.14-5.73-17.42-10.51-25.13-4.86-7.52-9.4-14.74-13.79-21.74-4.48-6.88-7.28-14.22-8.39-21.76-1.11-7.7-.85-15.33.67-23.07 1.63-7.76.97-14.94-1.61-21.82-2.68-6.74-2.7-14.02-.2-21.74 2.56-7.6 9.28-12.16 20.09-13.45z"/><path d="m1285.71 774.75c-4.4 2.44-9.78 3.21-16.01 2.26-6.33-.81-11.29-3.91-14.94-9.3-3.65-5.4-6.55-11.98-8.91-19.52-2.36-7.56-4.28-15.97-5.67-25.01-1.41-9.01-3.05-17.87-4.82-26.28-3.99-18.82-9.68-30.19-16.8-34.12-14.76-6.68-25.03-29.56-30.79-68.63-2.4-22.67-3.47-40.82-3.51-54.67.12-22.55-1.49-41.48-4.92-56.49-3.43-15.02-5.42-26.8-6.05-35.61-.69-8.67-.75-16.09-.26-22.1.4-5.89 1.19-12.22 2.32-18.86.99-6.66 1.01-17.22-.18-31.72-2.78-36.28-3.09-59.15-1.13-68.39 2.68-12.89 6.39-26.28 10.97-40.33 4.72-13.96 8.83-23.66 12.64-28.88 9.16-10.24 24.56-14.24 46.22-11.9 16.17 1.98 30.47.58 43.12-3.97 12.48-4.68 22.18-7.58 29.12-8.81 6.92-1.21 15.06-.18 24.54 2.98 9.62 3.13 17.38 7.64 23.51 13.41 6.15 5.87 11.07 12.5 14.6 20.21 6.25 12.89 10.16 30.19 11.7 51.65 1.67 21.56 4.17 38.78 7.62 51.53 3.49 12.85 8.85 24.44 16.23 34.95 7.38 10.55 12.71 18.98 15.71 25.39 3.13 6.51 6.05 13.07 8.55 19.58 2.66 6.63 5.18 13.77 7.54 21.34 2.36 7.56 5.57 16.19 9.84 25.61 4.26 9.44 7 17.04 8.49 22.89s2.4 10.71 2.7 14.54.56 7.42.48 10.59c-.06 3.29 1.17 7.93 3.71 13.96 2.44 6.17 3.91 13.15 4.42 20.83.4 7.84.61 15.37.67 22.79-.61 22.65.58 38.4 3.47 47.23 5.18 15.65 7.58 26.98 7.24 34.22-.5 7.16-1.15 13.09-1.77 17.77-.79 4.58-1.47 10.89-1.94 18.8-.56 8.03-3.49 15.69-8.81 23.25-5.2 7.54-11.07 10.67-17.48 9.62-6.41-1.15-10.85-3.73-13.49-7.84-2.5-4.11-4.92-8.39-7.12-12.83-2.22-4.46-4.46-8.53-6.94-11.9s-5.83-4.92-10.14-4.52c-7.78.77-12.71-2.84-14.82-10.47-2.1-7.6-3.43-14.5-3.97-20.57-.52-6.05-2.16-12-4.9-17.73-2.62-5.85-6.27-11.25-10.73-16.23-11.66-12.77-23.21-18.61-34.73-17.69-17.52 1.19-27.57 12-30.09 32.19-.44 4.98-.2 11.5.71 19.36.93 7.99.58 15.23-1.25 22.04-1.71 6.8-3.87 12.66-6.59 17.63-2.6 4.96-5.04 9.52-7.42 13.79-2.26 4.13-3.39 8.91-3.13 14.28.42 21.05-5.08 34.3-16.8 39.69zm.26-309.18c-4.03 27.43-.95 47.92 9.38 61.49 6.47 7.42 13.47 10.75 21.13 9.5 13.94-1.45 21.9-4.28 23.7-8.31 1.9-4.03 4.13-8.41 6.76-13.25 2.76-4.76 2.68-11.15-.04-19.14-2.56-8.03-4.84-15.21-6.68-21.5-1.82-6.17-5.63-12.91-11.29-20.03-5.69-7.24-10.14-15.23-13.55-24.08-3.37-8.85-6.23-17.57-8.49-25.89-5.81-18.41-12.02-26.92-18.65-25.53-4.7.99-7.18 4.05-7.22 9.22-.18 5.2.38 11.88 1.57 19.94 4.7 24.56 5.87 43.82 3.39 57.58z"/><path d="m1503.96 181.2c21.5-14.38 34.06-18.05 37.47-10.97 11.21-5.26 20.63-3.61 28.39 5.08 2.62 2.84 7.68 8.95 15.31 18.15 7.62 9.24 15.87 19.08 24.74 29.4 8.75 10.49 17.14 20.31 25.01 29.46 7.84 9.16 13.03 15.23 15.73 18.45 2.56 3.11 5.4 4.64 8.25 4.42 3-.14 5.61-1.43 8.13-3.87 5.02-5.97 5.32-13.47.81-22.32-4.64-8.83-7.44-16.05-8.31-21.42-.91-5.47-1.39-10.65-1.41-15.55-.02-13.85-1.79-24.56-5.3-32.13-3.61-7.66-6.17-14.94-7.68-22.04-2.98-14.1 7.1-23.53 30.13-28.41 4.7-.99 10.14-2.02 16.34-3.09 6.19-1.19 15.27-3.49 27.31-7.28 11.92-3.79 23.35-2.8 34.16 3.09 10.79 5.77 16.74 19 17.57 39.47 1.43 27.65 3.45 46.1 5.89 55.16 2.3 9.08 4.34 17.59 6.05 25.67 1.79 8.43 3.13 21.24 3.71 38.26.99 30.25 4.05 51.24 8.95 63.06 4.24 10.43 6.86 18.19 7.97 23.37l2.4 11.31c.3 1.45 1.31 4.4 3.27 8.87 1.96 4.5 2.74 9.38 2.34 14.62-.28 5.22.61 10.57 2.76 16.03 2.04 5.51 2.34 12.22.48 20.19-1.69 8.03-1.55 16.31.5 24.93 2.1 8.75 3.17 16.72 3.23 24.14.16 7.26 2.64 15.43 7.4 24.24 7.3 13.69 9.26 40.09 5.69 79.13.1 9.42-1.69 15.71-5.12 19.2-3.45 3.39-6.03 6.07-7.52 7.91-1.65 1.73-2.44 5.18-2.3 10.04-.4 9.9-4.46 15.17-12.14 15.79-10.29.79-20.33-7.4-30.39-24.52-13.81-23.66-23.82-37.01-29.89-40.13-6.09-3.13-11.19-8.21-15.31-15.17-4.28-7.02-8.07-14.28-11.7-21.94-7.95-18.98-14.18-29.48-18.59-31.82-4.38-2.22-8.67-7.6-12.97-16.01-4.19-8.55-7.93-14.3-11.15-17.67-3.09-3.23-6.27-6.98-9.32-11.23-3.17-4.24-6.33-8.49-9.74-12.68-8.65-10.49-15.53-14.46-20.89-11.82-3.17 1.69-4.48 6.25-4.15 13.73.36 7.6 1.15 16.64 2.48 27.16 3.51 30.73 3.39 53.42-.44 67.96 6.92 11.37 12.44 21.92 16.76 31.58 4.19 9.68 6.25 21.72 6.17 36.24-.18 14.62-.24 26.22-.36 35.19-.02 8.81-.48 16.72-1.21 23.43-.81 6.82-2.32 12.2-4.42 16.01-2.04 3.99-5.42 5.95-9.74 6.23-4.4.16-7.44-.56-9.3-2.2-1.82-1.49-3.67-3.11-5.4-4.62-4.68-5.45-11.27-8.71-19.84-9.92-8.53-1.09-14.96-3.49-19.24-7-4.15-3.53-7.36-8.01-9.42-13.49-2.16-5.45-4.03-11.37-5.67-17.95-1.67-6.57-4.84-13.31-9.52-20.51-4.64-7.08-7.6-13.25-8.69-18.45-1.11-5.16-1.57-9.84-1.47-14.04 0-4.13.1-8.45.22-12.64.12-4.15-2.16-10.22-6.74-18.07-9.36-16.27-10.83-30.96-4.17-44.19 4.52-10.79 5.71-19.36 3.33-25.79-5.75-12.99-12.95-20.79-21.92-23.27-4.24-1.65-6.76-3.99-7.48-7.38-1.47-6.98-3.57-12.08-6.49-15.23-2.92-3.05-4.01-7.6-3.27-13.67.71-6.07-.52-10.71-3.71-13.94-.12-.5-1.73-5.18-4.88-14.08-3.05-8.95-6.74-20.49-10.97-34.59-4.26-14.08-8.75-29.36-13.73-45.82-4.98-16.31-9.36-32.27-13.03-47.73-9.5-35.37-13.57-56.43-12.34-63.1 1.37-6.59 4.4-11.9 9.22-15.91 4.84-3.93 10.2-7.1 16.15-9.36 12.83-4.24 23.88-5.57 33.05-3.97z"/><path d="m1823.72 110.45c10.67-1.25 20.29-2.88 28.41-4.88 8.17-1.98 20.61-4.48 37.09-7.46 27.69-4.36 46.54-10.37 56.79-17.93 20.51-16.7 38.92-21.98 54.91-16.05 7.42 2.34 14.2 3.41 20.51 2.96 6.37-.34 14.46-4.94 24.38-13.98 11.09-7.76 20.95-11.11 29.65-9.92 8.53 1.09 15.19 3.45 19.84 6.88 4.74 3.41 8.69 10.22 12.16 20.59 3.47 10.35 5.93 20.79 7.38 31.3 1.47 10.51 2.44 20.39 2.86 29.6 2.36 24.7 4.58 40.6 6.9 48.02 2.32 7.32 4.94 14.94 7.72 22.67 2.9 7.84 4.9 15.47 6.03 23.15 2.92 18.53-2.36 30.47-15.97 35.76-10.08 3.63-18.17 2.82-24.24-2.56-6.05-5.38-11.37-11.58-16.17-18.73-4.66-7.08-9.16-13.43-13.57-18.9-4.32-5.53-9.12-6.78-14.42-3.87-5.34 2.76-7.52 9.66-6.72 20.55.79 10.93 2.94 23.43 6.45 37.67 3.55 14.36 7.66 28.98 12.34 43.98 4.56 15 8.27 27.71 10.97 38.2 2.74 10.51 5.61 21.11 8.63 31.8 3 10.57 5.51 20.61 7.5 30.01 4.3 20.25 4.36 34.85.26 43.52-1.96 4.32-2.48 9.08-1.39 14.28 1.11 5.16 2.86 10.47 5.26 15.87s4.82 10.81 7.48 16.17c2.64 5.36 4.78 11.96 6.47 20.03 3.99 18.82-1.77 33.74-17.04 44.91-5.57 4.07-10.22 9.98-14.02 17.71-3.77 7.72-6.72 12.89-8.93 15.49-2.06 2.7-4.92 4.05-8.69 4.11-3.65 0-6.63-1.01-8.75-3.33-2.24-2.16-4.4-4.62-6.29-7.1-4.52-6.98-9.52-11.07-15.21-12.26-6.45-.16-11.17-4.56-14.26-13.21-3.13-8.79-5.38-16.5-7.08-23.33-1.67-6.7-4.05-14.98-7.12-24.66-3.05-9.68-7.76-17-14.26-22.06-6.47-5.04-11.52-8.01-15.21-8.85-3.61-.99-6.63-4.52-8.83-10.73-2.3-6.17-3.57-12.71-3.73-19.46-.32-6.86-.3-14.44-.08-22.91.81-24.2-.79-46.54-4.6-66.89-6.51-37.91-11.8-62.84-15.85-74.84-7.12-24.04-16.36-34.93-27.57-32.57-5.55 1.67-8.97 5.06-10.47 10.04-1.35 4.94-2.86 10.79-4.32 17.52-3.35 16.96-14.5 23.72-33.38 20.29-6.74-1.47-11.54-5.1-14.52-10.91-2.88-5.81-5.36-12.85-7.36-20.97-1.96-8.15-4.07-16.88-6.25-25.99-2.2-9.12-5.71-17.42-10.49-25.11-4.88-7.52-9.42-14.74-13.79-21.76-4.48-6.86-7.28-14.2-8.39-21.76-1.13-7.7-.87-15.33.67-23.07 1.63-7.76.97-14.94-1.61-21.82-2.68-6.72-2.7-14.02-.2-21.74 2.56-7.58 9.26-12.14 20.09-13.45z"/><path d="m2413.32 97.06c1.77 2.52 2.82 5.57 3.03 8.93.2 3.35-1.86 9.7-6.29 19.1-4.46 9.24-6.25 18.55-5.49 28.09.85 9.4 2.06 16.94 3.79 22.75 1.61 5.81 2.68 10.89 3.23 15.17 1.69 10.49-2.46 18.78-12.52 24.81-8.59 5.75-16.01 7.06-22.08 3.93s-11.47-7.76-16.17-13.94c-4.82-6.05-8.47-11.43-11.19-16.03-2.62-4.6-5.99-6.8-9.8-6.47-6.92.08-11.84 1.88-14.74 5.38-2.9 3.51-5.18 6.49-6.57 8.81-3.07 4.56-6.37 7.91-10.06 10.18-3.67 2.28-6.61 4.44-8.61 6.25-4.01 4.36-4.78 10.2-2.22 17.44 5 14.18 25.85 32.93 62.74 56.1 6.88 4.46 14.88 9.05 24.02 14.06 9.24 4.96 18.41 10.83 27.83 17.79 21.15 16.66 35.37 37.45 42.69 62.48 7.42 25.49 8.33 48.84 3.03 70.12-4.19 17.12-10.97 29.14-20.33 36.02-7.16 6.05-11.43 12.62-12.77 20.09-1.41 7.48-2.42 12.85-3.23 16.17-.81 3.45-3.15 6.57-7.14 9.7-4.03 2.98-8.91 4.9-14.7 5.61-5.75.73-11.29.77-16.56.24-5.28-.63-10.16-1.63-14.58-2.82-4.56-1.31-8.09-1.82-10.71-1.75-2.74.06-4.98 1.41-6.96 3.97-1.84 2.66-3.79 5.34-5.57 8.23-5.63 8.49-11.43 12.62-17.44 12.14-5.89-.38-13.11-1.77-21.5-3.89-8.25-2.14-16.6-5.28-24.78-9.48-29.62-14.38-42.71-32.75-39.02-55.2 2.28-14.82 6.01-25.69 11.09-32.69 5.2-6.9 9.66-10.87 13.39-11.66 6.15-1.31 10.73.12 13.83 4.11 3.11 4.01 5.61 7.4 7.7 10.22 2.1 2.68 4.17 4.76 6.51 6.29 2.32 1.53 5.61 2.72 10 3.79 4.38 1.11 8.95 1.27 13.85.73 11.92-1.51 19.84-8.11 23.78-19.76 3.97-11.68 3.97-23.51-.04-35.37-8.07-21.44-14.78-29.87-20.09-25.21-4.5 4.36-10.85 5.83-19.12 4.3-8.11-1.41-12.93-4.56-14.46-9.4-1.51-4.84-3.51-9.46-5.95-13.85-2.34-4.4-4.96-8.51-7.8-12.44-6.49-9.84-11.47-14.94-14.94-15.23-4.05-.14-9.22.46-15.49 1.77-6.37 1.35-14.26-1.27-23.45-7.87-9.36-6.72-16.98-15.93-22.87-27.65-5.91-11.86-11.09-22.08-15.31-30.75-4.38-8.65-7.91-15.33-10.95-20.11-3.03-4.76-5.73-9.86-8.37-15.21-8.53-16.96-13.63-39.93-15.39-69.03-.75-17.1 1.39-32.65 6.33-46.79 4.84-14 10.77-28.23 17.61-42.39 12.73-27.87 25.71-48 38.78-60.58 13.05-12.73 24.44-16.01 33.98-10.22 8.41 4.64 16.52 5.45 24.6 2.6 7.95-2.94 14.18-5.67 18.57-8.11l12.06-5.42c7.66-3.65 15.81-5.12 24.5-4.46 8.79.54 17.87 7.06 27.39 19.28 4.76 6.41 9.56 11.82 14.12 16.13 4.6 4.46 9.14 8.65 13.41 12.79 9.38 9.72 15.55 18.11 18.19 25.23 2.74 6.98 5.57 11.92 8.33 14.86 2.86 2.8 5.16 5.45 6.88 8.11z"/></g></svg>