<?xml version="1.0" encoding="UTF-8"?>
<!DOCTYPE svg PUBLIC "-//W3C//DTD SVG 1.1//EN" "http://www.w3.org/Graphics/SVG/1.1/DTD/svg11.dtd">
<!-- Creator: CorelDRAW -->
<svg xmlns="http://www.w3.org/2000/svg" xml:space="preserve" width="35.2149mm" height="16.6946mm" version="1.1" shape-rendering="geometricPrecision" text-rendering="geometricPrecision" image-rendering="optimizeQuality" fill-rule="evenodd" clip-rule="evenodd"
viewBox="0 0 4492 2129.56"
 xmlns:xlink="http://www.w3.org/1999/xlink"
 xmlns:xodm="http://www.corel.com/coreldraw/odm/2003">
 <g id="Lights">
  <metadata id="CorelCorpID_0Corel-Layer"/>
  <g id="_1981621741232">
   <path fill="#333333" fill-rule="nonzero" d="M190.09 84.94c55.3,-48.94 116.18,-73.54 183.39,-73.54 6.81,0 13.15,0 19.24,0 6.1,0 13.41,0.74 22.17,1.95 3.41,7.55 6.08,16.07 8.52,26.3 2.44,9.98 3.65,18.98 3.65,27.02 0,8.04 -1.45,14.86 -4.13,20.22 -27.53,-20.22 -59.19,-30.19 -94.74,-30.19 -37.76,0 -71.6,9.25 -101.56,27.76 -29.7,18.5 -50.65,35.3 -62.34,50.4 -11.93,15.09 -20.46,31.89 -26.32,50.4 -5.6,18.25 -9.49,34.33 -11.68,47.72 -1.94,13.39 -2.92,25.32 -2.92,35.31 0,57.21 29.96,111.76 89.62,164.35 55.77,43.57 111.54,87.16 167.31,130.99 60.64,54.29 90.85,112.72 90.85,175.29 0,8.78 0,17.3 0,26.06 -1.95,8.76 -5.6,28 -10.96,57.95 -5.6,29.94 -25.58,66.46 -60.64,109.32 -34.82,43.09 -79.88,69.88 -134.92,80.59 -4.15,1.45 -10.96,2.68 -21.19,3.65 -9.99,0.97 -19.73,1.45 -29.22,1.45 -31.43,0 -60.64,-5.6 -87.68,-17.04 -26.77,-11.2 -54.54,-27.26 -83.53,-47.96 11.44,-18.5 20.22,-31.41 26.55,-38.47 6.57,-7.05 13.39,-10.46 20.7,-10.46 2.68,0 7.31,1.21 14.12,3.89 42.87,44.07 97.17,66.23 162.93,66.23 4.62,0 9.73,0 15.09,0 8.04,-1.47 28.5,-4.15 61.85,-8.52 33.13,-4.39 55.3,-25.08 66.25,-62.1 11.2,-37.01 17.53,-61.1 19.72,-72.56 1.95,-11.44 2.92,-22.4 2.92,-33.36 0,-52.34 -23.85,-101.04 -71.34,-146.08 -48.23,-37.49 -98.4,-77.91 -150.27,-121 -51.88,-42.86 -83.78,-85.71 -95.47,-128.07 -11.7,-42.12 -17.54,-80.11 -17.54,-113.71 0,-40.42 7.31,-77.19 21.67,-110.54 14.36,-33.11 37.76,-64.28 69.89,-93.25z"/>
   <path id="_1" fill="#333333" fill-rule="nonzero" d="M824.85 621.32c9.99,-3.41 21.19,-5.12 33.11,-5.12 12.92,0 25.33,2.92 37.76,8.52 12.41,5.6 33.11,21.67 62.1,48.22 28.74,26.29 47.73,79.61 56.98,159.96 9.03,80.11 16.57,131.72 22.65,154.36l34.11 17.3c-7.32,4.62 -18.28,7.78 -32.64,9.98 -14.36,1.95 -28.98,2.92 -43.84,2.92 -8.76,0 -17.53,0 -26.29,0 -8.78,0 -17.05,-0.48 -25.09,-0.97 12.17,0 20.69,-4.15 25.58,-12.17 5.12,-8.04 7.55,-18.27 7.55,-30.93 0,-8.76 -0.5,-18.01 -1.71,-27.74 -1.21,-9.75 -2.19,-18.99 -2.68,-27.51 -2.68,-6.58 -7.05,-9.75 -13.16,-9.75 -6.81,0 -13.88,2.92 -21.17,9.01 -27.53,29.22 -59.43,54.06 -95.96,74.99 -36.29,20.95 -70.62,31.42 -102.76,31.42 -18.99,0 -37.76,-4.63 -56.51,-14.12 -18.99,-9.26 -33.61,-20.7 -44.08,-34.34 -10.46,-13.39 -15.58,-30.44 -15.58,-51.37 0,-19.96 5.6,-37.99 17.04,-53.82 11.44,-15.82 28.25,-29.7 49.93,-41.62 21.93,-12.18 47.01,-22.16 75.74,-29.71 28.48,-7.79 57.48,-11.68 86.93,-11.68 15.6,0 29.72,0.97 42.38,2.92 12.91,1.7 26.32,5.12 40.44,10.22 6.08,-6.08 9.01,-13.38 9.01,-22.16 0,-5.34 -1.95,-12.17 -6.08,-20.21 -3.89,-8.04 -11.68,-25.08 -23.13,-51.37 -11.45,-26.06 -41.41,-39.2 -89.62,-39.2 -22.17,0 -41.16,4.62 -56.99,14.12 -15.84,9.49 -36.53,24.84 -62.11,45.77 10.97,-24.84 26.06,-46.5 45.54,-64.52 19.49,-18.25 43.6,-32.13 72.58,-41.39zm84.25 190.65c-20.21,-8.78 -42.36,-13.15 -66.47,-13.15 -30.93,0 -59.91,6.57 -87.2,19.96 -27.02,13.39 -45.28,28 -54.3,43.59 -9.01,15.82 -13.64,28 -13.64,36.76 0,10.72 2.68,20.45 8.04,29.45 5.36,9.02 15.59,21.19 30.69,36.04 15.09,15.1 33.85,22.64 56.01,22.64 6.57,0 20.21,-2.42 40.67,-7.05 20.46,-4.63 47.5,-19.96 80.6,-46.02 33.37,-26.05 49.93,-51.61 49.93,-76.2 0,-4.63 -1.21,-10.47 -3.41,-17.04 -2.44,-6.81 -6.81,-12.17 -13.15,-16.07 -6.33,-3.89 -15.58,-8.28 -27.77,-12.9z"/>
   <path id="_2" fill="#333333" fill-rule="nonzero" d="M1226.78 709.95c12.67,-14.12 34.1,-31.65 64.05,-52.84 30.19,-21.19 47.99,-33.84 53.33,-37.99 2.68,4.87 3.9,11.2 3.9,18.51 0,6.08 0.24,12.17 0.48,18.02 0.24,6.08 2.92,10.7 7.55,14.12 20.93,-11.94 45.54,-22.65 74.28,-32.15 28.5,-9.49 56.75,-14.12 84.27,-14.12 20.22,0 38.47,3.16 54.54,9.49 16.33,6.34 30.45,16.56 42.38,30.68 12.18,14.12 20.46,29.47 24.85,45.78 4.39,16.56 6.58,35.05 6.58,56 0,11.44 -1.47,32.87 -4.39,64.76 -2.68,31.9 -4.15,52.84 -4.15,63.07 0,11.93 0.24,23.13 0.98,33.11 0.73,9.98 2.19,19.72 4.63,29.21 2.42,9.5 6.81,16.8 13.14,22.16 6.34,5.36 16.8,8.04 30.92,8.04 4.89,0 10.49,-0.48 17.31,-1.47 1.45,9.26 -1.47,15.1 -8.04,17.05 -10.24,0.73 -23.39,3.41 -39.95,8.02 -16.56,4.63 -35.79,7.07 -58.19,7.07 -7.31,0 -13.16,-0.48 -17.07,-1.21 -2.68,-14.62 -4.38,-25.33 -4.62,-32.15 -0.24,-6.57 -0.48,-11.93 -0.48,-16.07 0,-15.33 2.18,-44.07 6.57,-85.45 4.4,-41.64 6.58,-69.88 6.58,-84.74 0,-31.41 -4.63,-58.19 -13.65,-80.11 -9.01,-21.66 -23.85,-38.96 -44.31,-51.37 -20.46,-12.41 -41.89,-18.51 -64.05,-18.51 -30.19,0 -54.8,9.5 -74.04,28.25 -19.25,18.98 -32.4,43.09 -39.7,72.3 -7.55,29.22 -11.2,62.82 -11.2,100.57 0,24.82 0.24,41.88 0.97,51.13 0.73,9.01 3.16,37.49 7.79,85.47 0,8.02 8.04,13.87 23.85,17.53 15.84,3.65 24.36,8.04 25.83,12.65 -14.86,1.47 -29.24,2.68 -43.12,4.15 -13.88,1.21 -27.02,1.95 -39.94,1.95 -17.53,0 -30.19,-0.5 -37.99,-1.47 -7.81,-0.97 -18.02,-3.16 -30.93,-6.57 14.36,-14.86 24.35,-33.36 29.72,-55.27 5.6,-21.91 8.28,-48.7 8.28,-80.35 0,-21.67 -1.22,-51.13 -3.41,-88.14 -2.19,-37.01 -3.18,-60.13 -3.18,-68.9 0,-9.5 -2.67,-14.12 -8.04,-14.12 -2.68,0 -8.04,1.7 -15.59,5.1 -7.79,3.42 -12.91,4.87 -15.59,4.87 -4.13,0 -7.78,-1.95 -11.2,-6.08z"/>
   <path id="_3" fill="#333333" fill-rule="nonzero" d="M2018.86 630.82c38.97,0 77.68,0 116.41,0 38.48,0 76.96,0 115.19,0 -1.21,9.73 -12.41,15.82 -33.36,18.25 -21.19,2.44 -30.21,10.96 -26.79,25.32 18.02,17.54 31.9,32.63 41.15,45.28 9.5,12.91 14.86,24.59 16.31,35.31 1.22,10.72 1.95,18.75 1.95,24.11 0,26.77 -11.2,51.37 -33.36,73.53 -22.17,22.16 -40.19,39.93 -54.31,53.32 53.35,34.82 88.88,66.71 107.16,95.2 18.25,28.5 27.27,58.93 27.27,91.06 0,42.36 -11.7,77.67 -35.31,105.91 -23.64,28.24 -53.82,52.59 -90.85,73.53 -37.02,20.7 -68.18,31.18 -93.76,31.18 -12.91,0 -26.06,-1.47 -39.95,-4.63 -13.62,-2.92 -28.97,-7.55 -45.78,-13.88 -16.8,-6.33 -32.63,-17.28 -47.49,-32.63 -16.07,-19.48 -28.97,-34.08 -38.23,-44.06 -2.19,-7.31 -0.73,-14.62 3.9,-21.67 4.62,-6.82 9.25,-13.88 13.64,-20.46 46.51,45.54 78.91,75.23 97.4,88.87 18.51,13.88 47.25,20.7 86.22,20.7 26.3,0 49.2,-7.31 69.16,-22.16 19.72,-14.86 35.81,-34.08 48.22,-57.47 12.42,-23.61 18.75,-47.72 18.75,-72.56 0,-22.88 -8.76,-51.13 -26.05,-84.73 -17.54,-33.6 -46.76,-57.47 -87.68,-71.1 -40.91,-13.88 -94.74,-20.69 -161.21,-20.69 -14.12,1.45 -27.53,3.65 -40.19,6.81 -12.65,2.92 -25.08,6.58 -37.26,10.72 7.31,-10.96 13.89,-22.4 19.73,-34.57 6.08,-12.18 7.31,-21.67 3.89,-28.5 -12.65,-16.06 -25.33,-32.62 -37.99,-49.42 -12.67,-19.48 -18.99,-38.96 -18.99,-58.44l0 -9.99c4.13,-42.36 21.43,-78.4 52.36,-107.85 30.92,-29.47 67.45,-44.31 109.83,-44.31zm-26.3 46.74c-18.02,0 -31.18,2.44 -39.7,7.07 -8.29,4.63 -17.54,14.12 -28.01,28.24 -10.46,13.88 -15.58,28.97 -15.58,45.04 0,13.39 8.04,31.66 24.1,54.3 16.09,22.88 36.53,42.12 61.37,57.94 24.85,15.83 52.61,23.62 83.3,23.62 12.91,0 30.21,-2.19 52.36,-6.57 22.17,-4.39 38.48,-14.86 49.2,-31.66 10.72,-16.8 16.06,-30.44 16.06,-41.15 0,-15.58 -6.08,-30.68 -18.5,-45.77 -12.42,-15.09 -25.81,-29.95 -39.7,-44.8 -14.13,-14.85 -33.11,-26.05 -56.75,-34.08 -23.85,-8.04 -53.09,-12.18 -88.16,-12.18z"/>
   <path id="_4" fill="#333333" fill-rule="nonzero" d="M2740.8 674.4c0,-20.93 11.44,-35.3 34.58,-43.57 23.13,-8.04 48.46,-12.18 76.22,-12.18 -11.44,58.68 -17.28,117.35 -17.28,176.03 0,29.71 1.47,56.98 4.63,82.06 2.92,24.84 6.33,44.56 9.98,58.68 3.66,14.12 8.28,21.17 13.64,21.17 9.5,-1.94 16.33,-2.92 20.23,-2.92 4.13,0 6.57,1.47 7.05,4.15 -14.61,16.07 -34.58,28 -59.9,35.79 -25.09,7.79 -46.04,14.12 -62.85,18.74 3.18,-14.12 6.34,-30.18 9.76,-48.45 3.16,-18.01 4.86,-34.08 4.86,-48.2 0,-15.59 -1.21,-29.71 -3.65,-42.36 -53.82,63.05 -90.59,104.2 -110.33,123.2 -19.73,19.24 -46.75,28.73 -81.1,28.73 -12.9,0 -29.47,-4.13 -50.41,-12.65 -20.69,-8.28 -36.05,-23.38 -45.78,-45.3 -9.75,-21.66 -14.61,-48.69 -14.61,-81.08 0,-15.33 1.21,-38.96 3.89,-70.36 2.68,-31.65 3.89,-54.79 3.89,-69.63 0,-18.01 -1.45,-33.6 -4.38,-46.27 0,-9.49 -6.57,-14.12 -19.73,-14.12 -2.68,0 -4.87,0 -6.58,0 -1.45,0 -3.16,0.5 -4.38,0.98 11.94,-11.94 28.01,-24.35 47.98,-36.76 19.98,-12.42 37.76,-20.22 53.82,-23.62 1.22,9.49 1.95,18.75 1.95,28.24 0,9.25 0,18.75 0,28.24 0,14.62 -0.73,39.2 -2.19,73.78 -1.45,34.57 -2.19,53.32 -2.19,56 0,26.05 1.22,48.45 3.66,66.71 2.19,18.5 6.81,39.2 13.65,62.08 6.57,22.64 22.4,34.08 47.48,34.08 17.54,0 50.17,-18.5 97.66,-55.51 47.49,-37.25 71.36,-99.82 71.36,-188.2 0,-5.84 0,-11.93 -0.24,-17.53 -0.24,-5.85 -1.45,-17.05 -3.41,-33.85l-37.26 -6.08z"/>
   <path id="_5" fill="#333333" fill-rule="nonzero" d="M3117.88 559.96c5.84,-5.36 13.41,-21.91 22.65,-49.67 9.01,-27.76 21.67,-41.64 37.74,-41.64 7.31,0 16.07,1.95 26.06,6.1 0,15.58 -3.89,32.13 -11.44,50.16 -7.79,18.01 -18.76,32.37 -32.88,43.09 -2.68,-0.73 -9.01,-1.45 -18.99,-1.95 -10.22,-0.73 -17.78,-2.68 -23.14,-6.08zm50.17 62.08c0.73,61.61 1.71,123.21 3.16,185.05 1.21,61.84 2.92,104.2 5.12,127.34 1.95,22.88 7.07,36.28 15.59,39.93 8.28,3.65 18.51,5.6 30.68,5.6 13.41,0 24.12,-0.97 32.16,-2.92l0 9.25c-18.75,11.2 -40.68,19.48 -66,25.32 -25.09,5.84 -49.93,8.76 -74.04,9.01 -3.9,-16.8 -6.82,-33.84 -8.52,-50.88 -1.71,-17.04 -2.44,-37.49 -2.44,-60.87 0,-12.17 0.24,-30.68 0.97,-56 0.73,-25.08 0.98,-43.57 0.98,-55.76l0 -13.14c0,-32.87 -1.71,-57.71 -5.12,-74.27 -3.41,-16.8 -9.26,-25.32 -18.02,-25.32 -4.15,0 -10.23,0.97 -18.75,2.68 -8.28,1.45 -13.15,2.44 -14.62,2.44 -8.76,0 -15.09,-3.16 -18.99,-9.02 20.7,-7.54 41.64,-14.85 62.35,-22.16 21.43,-9.49 41.41,-21.42 59.42,-36.28l16.07 0z"/>
   <path id="_6" fill="#333333" fill-rule="nonzero" d="M3399.02 709.95c12.67,-14.12 34.1,-31.65 64.05,-52.84 30.21,-21.19 47.99,-33.84 53.33,-37.99 2.68,4.87 3.9,11.2 3.9,18.51 0,6.08 0.24,12.17 0.48,18.02 0.24,6.08 2.92,10.7 7.55,14.12 20.95,-11.94 45.54,-22.65 74.28,-32.15 28.5,-9.49 56.75,-14.12 84.27,-14.12 20.22,0 38.47,3.16 54.54,9.49 16.33,6.34 30.45,16.56 42.38,30.68 12.18,14.12 20.47,29.47 24.85,45.78 4.39,16.56 6.58,35.05 6.58,56 0,11.44 -1.47,32.87 -4.39,64.76 -2.68,31.9 -4.13,52.84 -4.13,63.07 0,11.93 0.24,23.13 0.97,33.11 0.73,9.98 2.19,19.72 4.63,29.21 2.42,9.5 6.81,16.8 13.14,22.16 6.34,5.36 16.8,8.04 30.93,8.04 4.87,0 10.47,-0.48 17.3,-1.47 1.45,9.26 -1.47,15.1 -8.04,17.05 -10.23,0.73 -23.39,3.41 -39.95,8.02 -16.56,4.63 -35.79,7.07 -58.19,7.07 -7.31,0 -13.15,-0.48 -17.05,-1.21 -2.69,-14.62 -4.39,-25.33 -4.63,-32.15 -0.24,-6.57 -0.48,-11.93 -0.48,-16.07 0,-15.33 2.18,-44.07 6.58,-85.45 4.39,-41.64 6.57,-69.88 6.57,-84.74 0,-31.41 -4.62,-58.19 -13.65,-80.11 -9.01,-21.66 -23.85,-38.96 -44.3,-51.37 -20.47,-12.41 -41.9,-18.51 -64.06,-18.51 -30.19,0 -54.8,9.5 -74.04,28.25 -19.24,18.98 -32.4,43.09 -39.7,72.3 -7.55,29.22 -11.2,62.82 -11.2,100.57 0,24.82 0.24,41.88 0.97,51.13 0.73,9.01 3.16,37.49 7.79,85.47 0,8.02 8.04,13.87 23.87,17.53 15.83,3.65 24.35,8.04 25.82,12.65 -14.86,1.47 -29.24,2.68 -43.12,4.15 -13.88,1.21 -27.02,1.95 -39.94,1.95 -17.53,0 -30.19,-0.5 -37.99,-1.47 -7.79,-0.97 -18.02,-3.16 -30.93,-6.57 14.36,-14.86 24.36,-33.36 29.72,-55.27 5.6,-21.91 8.28,-48.7 8.28,-80.35 0,-21.67 -1.22,-51.13 -3.41,-88.14 -2.19,-37.01 -3.18,-60.13 -3.18,-68.9 0,-9.5 -2.67,-14.12 -8.02,-14.12 -2.69,0 -8.05,1.7 -15.6,5.1 -7.79,3.42 -12.91,4.87 -15.59,4.87 -4.13,0 -7.78,-1.95 -11.2,-6.08z"/>
   <path id="_7" fill="#333333" fill-rule="nonzero" d="M4157.97 636.18c17.54,-11.45 36.29,-17.05 56.51,-17.05 21.43,0 42.38,5.12 62.84,15.1 20.45,10.23 44.81,24.84 73.05,44.31 -21.43,25.08 -63.32,63.79 -125.66,116.63 -62.1,52.84 -99.61,85.94 -112.51,99.33 14.12,21.43 31.41,39.2 51.62,52.84 19.96,13.88 37.99,21.67 53.83,23.87 15.82,1.94 27.74,2.92 36.02,2.92 18.04,0 33.37,-2.44 45.79,-7.55 12.41,-4.87 41.41,-21.43 86.46,-49.43 -14.12,18.02 -26.32,32.39 -36.29,42.86 -10.23,10.46 -20.95,17.28 -32.39,21.17 -11.45,3.66 -31.66,11.2 -60.9,22.64 -29.21,11.45 -51.14,17.05 -65.99,17.05 -9.5,0 -16.31,-0.5 -20.7,-1.47 -4.38,-0.97 -17.3,-6.57 -38.73,-16.31 -21.67,-9.73 -43.83,-29.95 -66.97,-60.39 -23.38,-30.68 -35.79,-56 -37.99,-76.2 -1.95,-20.21 -2.92,-34.33 -2.92,-42.36 0,-39.2 11.68,-73.04 34.81,-101.52 23.15,-28.74 56.52,-57.47 100.1,-86.43zm61.62 35.54c-13.41,-8.76 -28.74,-13.14 -45.54,-13.14 -29.72,0 -54.06,12.17 -73.07,36.76 -18.75,24.59 -28.24,52.59 -28.24,84.24 0,30.92 9.49,61.11 28.48,90.82 28.98,-18.27 62.35,-45.3 100.1,-81.33 37.74,-35.78 63.07,-58.92 75.99,-68.9 -6.08,-9.5 -13.16,-17.3 -21.2,-23.87 -8.28,-6.33 -20.21,-14.61 -36.52,-24.59z"/>
   <path id="_8" fill="#333333" fill-rule="nonzero" d="M1256.55 1119.13l0 10.96c-16.81,1.45 -29.47,4.38 -37.76,9.01 -8.52,4.62 -15.35,10.72 -20.69,18.75 0,83.26 7.05,181.63 21.17,294.6 14.13,112.98 28.25,227.9 42.62,345.01 14.39,116.87 21.69,217.18 21.69,300.45 6.58,3.41 14.36,7.05 22.88,10.72 8.78,3.65 15.59,6.57 20.96,8.52 -11.94,2.92 -25.09,5.1 -39.21,6.33 -13.89,1.21 -28.01,1.71 -42.13,1.71 -9.99,0 -24.85,-0.26 -44.57,-0.5 -19.72,-0.24 -33.85,-0.48 -42.63,-0.48 -2.67,-4.62 3.18,-10.22 17.31,-16.07 14.12,-6.08 22.88,-11.44 26.29,-16.3 3.41,-4.63 5.6,-10.23 6.57,-16.56 0.98,-6.34 1.47,-16.56 1.47,-30.68 0,-82.54 -4.13,-163.14 -12.67,-241.29 -8.27,-78.16 -20.21,-159.48 -35.79,-243.72 -15.35,-84.5 -30.44,-166.3 -45.31,-245.42l-22.16 24.1c-28.25,62.58 -63.79,143.42 -106.42,242.99 -42.86,99.34 -82.56,191.86 -119.57,278.05 -37.02,85.95 -75.74,174.09 -115.93,264.9l-7.07 0c-33.6,-90.08 -74.27,-196.72 -121.51,-319.93 -47.49,-123.2 -85.73,-224.24 -114.46,-302.88 -28.99,-78.64 -57.48,-162.15 -85.73,-250.3l-11.2 -14.12c-14.86,20.21 -26.56,42.36 -35.32,66.71 -8.76,24.11 -22.88,77.91 -42.86,160.94 -19.72,83.26 -36.76,153.88 -50.9,212.07 -14.12,58.19 -29.71,128.31 -47.01,210.12 -17.04,81.8 -29.71,151.2 -37.74,208.42 1.47,6.57 7.31,10.72 17.78,11.93 10.22,1.47 13.88,7.07 10.46,17.04l-150.51 0 40.44 -55.51c22.64,-78.16 55.77,-183.58 99.11,-316.27 43.36,-132.7 77.2,-238.13 101.32,-316.53 24.1,-78.64 46.27,-160.2 66.48,-244.94 -2.68,-11.2 -8.52,-19.48 -17.54,-24.82 -9.25,-5.6 -26.79,-8.28 -53.09,-8.28 17.54,-13.15 35.56,-23.38 54.07,-30.93 18.5,-7.54 37.99,-11.2 58.93,-11.2 3.41,0 7.05,0 10.96,0 5.36,1.47 9.49,1.95 12.17,1.95 5.37,7.55 10.73,15.83 16.09,24.84 5.36,9.01 18.01,37.74 37.74,85.95 19.98,47.96 45.78,120.52 77.68,217.67 31.92,96.91 63.32,192.1 94.25,285.84 30.92,93.5 62.34,178.23 94.74,254.44l24.11 -32.39c40.91,-90.57 84.02,-185.78 129.08,-286.08 44.81,-100.07 85.24,-193.81 120.79,-280.98 35.56,-86.92 66.73,-173.61 93.77,-260.04 9.25,-4.13 20.21,-7.05 32.13,-8.76 12.19,-1.7 27.04,-2.44 44.33,-2.44 6.82,0 13.65,0.5 20.72,1.71 7.05,1.21 14.36,1.71 21.67,1.71z"/>
   <path id="_9" fill="#333333" fill-rule="nonzero" d="M1732.5 1724.17c16.81,-3.42 31.42,-5.12 43.36,-5.12 24.35,0 45.78,4.87 65.02,14.61 19.25,9.75 36.05,26.05 50.41,48.45 14.38,22.65 25.82,42.13 33.85,58.19 8.04,16.07 11.93,32.63 11.93,49.43 0,13.64 -9.25,38.71 -27.76,75.72 -18.27,37.26 -45.3,73.04 -80.6,107.62 -35.07,34.81 -78.42,52.11 -129.32,52.11 -4.87,0 -7.79,0 -9.25,0 -33.37,0 -63.09,-9.99 -89.14,-29.71 -25.82,-19.96 -47.25,-44.8 -64.53,-74.51 -17.05,-29.95 -25.58,-56.97 -25.58,-81.32 0,-19.96 8.28,-45.04 24.59,-74.99 16.56,-29.95 41.39,-58.19 74.76,-85.21 33.13,-26.79 74.04,-45.3 122.25,-55.27zm40.44 56.97c-10.23,-5.84 -20.46,-10.23 -30.68,-13.15 -10.49,-2.68 -21.2,-3.89 -31.92,-3.89 -22.16,0 -43.34,5.6 -63.32,17.04 -20.22,11.68 -37.99,26.3 -53.58,44.56 -15.35,18.27 -23.14,38.23 -23.14,59.9 0,11.93 1.45,22.88 4.13,32.37 2.68,9.26 9.26,27.51 19.98,54.54 10.96,27.02 29.22,49.91 55.04,68.9 25.81,18.75 56.99,28.25 93.28,28.25 26.05,0 48.7,-6.1 67.94,-18.27 19.24,-12.17 35.81,-28.97 49.93,-50.64 14.12,-21.43 21.19,-43.83 21.19,-66.71 0,-20.21 -5.36,-40.91 -15.59,-62.33 -10.47,-21.19 -22.64,-38.23 -36.78,-50.9 -14.12,-12.9 -33.11,-26.05 -56.5,-39.68z"/>
   <path id="_10" fill="#333333" fill-rule="nonzero" d="M2386.73 1115.71c19.48,2.92 38.97,4.63 58.45,4.63l42.39 0c11.44,0 22.64,0 33.36,0 10.72,0 22.41,0.24 35.07,1.22 -12.65,2.67 -23.37,5.1 -32.13,7.54 -8.78,2.44 -14.15,8.52 -16.09,18.75 0,79.37 -0.73,154.36 -1.95,224.73 -1.21,70.36 -2.68,155.33 -3.89,254.92 0,84.97 1.45,158.75 4.62,221.32 2.92,62.58 8.78,130.51 17.55,204.04 3.89,9.49 8.28,16.8 13.14,22.16 4.63,5.34 11.2,9.49 19.98,12.17 6.82,1.95 15.83,-1.47 27.27,-10.23 11.2,-9.01 20.7,-11.44 28,-7.3 -10.72,14.85 -21.17,27.26 -31.65,37.49 -10.47,9.99 -22.17,15.09 -34.84,15.09 -7.3,0 -15.82,-3.16 -25.08,-9.25 -8.27,-15.83 -16.31,-27.03 -24.84,-33.6 -8.28,-6.57 -17.3,-9.73 -26.55,-9.73 -11.45,0 -29.96,8.02 -55.53,24.1 -25.58,16.07 -45.78,24.11 -60.41,24.11 -11.44,0 -22.88,0 -34.33,0 -11.44,0 -22.41,0 -33.37,0 -24.84,0 -45.3,-1.47 -61.85,-4.63 -16.56,-2.92 -36.05,-11.68 -58.93,-26.53 -22.9,-14.86 -41.89,-35.55 -56.99,-62.34 -15.1,-26.77 -22.65,-56 -22.65,-87.4 0,-20.93 4.39,-47.24 13.15,-79.62 8.78,-32.13 28.01,-60.13 57.98,-84.24 29.95,-24.34 61.85,-39.93 96.18,-47.48 34.35,-7.3 60.41,-10.96 78.68,-10.96 23.37,0 46.27,3.16 68.42,9.5 22.17,6.57 44.08,15.33 65.53,26.77 0,-29.7 -3.66,-94.71 -10.97,-195.51 -7.31,-100.8 -10.96,-175.06 -10.96,-222.78l0 -23.37c0,-45.78 -0.98,-81.8 -2.92,-108.11 -2.19,-26.05 -6.1,-45.53 -11.7,-57.95 -5.84,-12.41 -12.65,-18.74 -20.7,-18.74 -6.08,0 -12.17,1.21 -18.25,3.41 -6.1,2.19 -10.23,3.41 -12.18,3.41l9.01 -15.59zm-160 648.39c-25.82,14.85 -44.81,31.89 -57.72,50.88 -12.9,19.24 -19.25,42.62 -19.25,70.12 0,34.34 3.43,62.82 10.24,85.71 6.57,22.88 20.45,45.28 41.39,67.68 20.95,22.16 43.1,37.74 66.74,46.75 23.61,9.01 51.87,13.64 84.98,13.64 22.17,0 42.13,-5.12 59.69,-15.58 17.53,-10.47 29.21,-26.3 34.81,-47.49 5.84,-21.17 10.96,-42.85 15.36,-65.49 4.38,-22.4 6.57,-41.88 6.57,-57.95 0,-21.42 -3.41,-41.64 -9.75,-59.89 -6.34,-18.51 -21.43,-41.88 -45.05,-69.63 -23.62,-28 -58.95,-41.88 -106.18,-41.88 -27.53,0 -55.04,7.79 -81.83,23.13z"/>
   <path id="_11" fill="#333333" fill-rule="nonzero" d="M3061.92 1778.71c0,-20.93 11.44,-35.3 34.58,-43.57 23.13,-8.04 48.46,-12.18 76.22,-12.18 -11.44,58.68 -17.28,117.35 -17.28,176.03 0,29.71 1.47,56.98 4.63,82.06 2.92,24.84 6.33,44.56 9.98,58.68 3.66,14.12 8.28,21.17 13.65,21.17 9.5,-1.94 16.31,-2.92 20.22,-2.92 4.13,0 6.57,1.47 7.05,4.15 -14.61,16.07 -34.58,28 -59.9,35.79 -25.09,7.79 -46.04,14.12 -62.84,18.74 3.16,-14.12 6.33,-30.18 9.75,-48.45 3.16,-18.01 4.86,-34.08 4.86,-48.2 0,-15.59 -1.21,-29.71 -3.65,-42.36 -53.82,63.05 -90.59,104.2 -110.33,123.2 -19.73,19.24 -46.75,28.73 -81.1,28.73 -12.9,0 -29.45,-4.13 -50.41,-12.65 -20.69,-8.28 -36.04,-23.38 -45.78,-45.3 -9.75,-21.66 -14.61,-48.69 -14.61,-81.08 0,-15.33 1.21,-38.96 3.89,-70.36 2.68,-31.65 3.89,-54.79 3.89,-69.63 0,-18.01 -1.45,-33.6 -4.38,-46.27 0,-9.49 -6.57,-14.12 -19.72,-14.12 -2.68,0 -4.87,0 -6.58,0 -1.45,0 -3.16,0.5 -4.38,0.98 11.93,-11.94 28,-24.35 47.96,-36.76 19.98,-12.42 37.76,-20.22 53.82,-23.62 1.24,9.49 1.96,18.75 1.96,28.24 0,9.25 0,18.75 0,28.24 0,14.62 -0.73,39.2 -2.21,73.78 -1.45,34.57 -2.19,53.32 -2.19,56 0,26.05 1.22,48.45 3.67,66.71 2.19,18.5 6.81,39.2 13.64,62.08 6.57,22.64 22.4,34.08 47.49,34.08 17.53,0 50.17,-18.5 97.66,-55.51 47.49,-37.25 71.34,-99.82 71.34,-188.2 0,-5.84 0,-11.93 -0.24,-17.53 -0.24,-5.85 -1.45,-17.05 -3.41,-33.85l-37.26 -6.08z"/>
   <path id="_12" fill="#333333" fill-rule="nonzero" d="M3354.74 1125.7c16.8,-2.68 40.91,-4.87 72.57,-7.07 31.66,-1.94 72.82,-2.92 123.96,-2.92 -1.45,6.1 -10.97,10.47 -29.22,13.15 -18.02,2.68 -27.03,10.72 -27.03,24.11 0,93.49 0.24,187.23 0.48,280.72 0.24,93.5 0.73,198.69 1.47,315.8 0.73,117.11 0.97,200.63 0.97,250.3 0,24.34 2.92,43.82 8.52,58.68 5.6,14.61 18.51,24.84 38.73,30.18 9.99,1.22 20.45,-1.45 31.65,-8.28 10.96,-7.05 21.69,-13.88 31.67,-20.93 1.21,1.95 1.94,5.36 1.94,10.23 0,10.22 -6.08,19.24 -18.51,26.77 -12.42,7.55 -23.62,14.12 -33.11,19.96 -9.75,5.84 -22.65,8.78 -38.73,8.78 -8.04,0 -15.83,-0.74 -23.13,-1.95 -7.32,-1.47 -17.79,-4.15 -31.18,-8.04l-16.07 -20.21 -29.24 -743.1 -8.04 -196.72c-2.68,-11.45 -10.22,-18.51 -22.4,-21.19 -11.94,-2.68 -23.87,-5.6 -35.31,-8.28z"/>
   <path id="_13" fill="#333333" fill-rule="nonzero" d="M3883.06 1740.49c17.53,-11.45 36.29,-17.05 56.5,-17.05 21.44,0 42.39,5.12 62.84,15.1 20.46,10.23 44.81,24.84 73.07,44.31 -21.44,25.08 -63.32,63.79 -125.67,116.63 -62.1,52.84 -99.61,85.94 -112.51,99.33 14.12,21.43 31.42,39.2 51.62,52.84 19.98,13.88 38,21.67 53.83,23.87 15.83,1.94 27.76,2.92 36.04,2.92 18.02,0 33.37,-2.44 45.79,-7.55 12.41,-4.87 41.41,-21.43 86.46,-49.43 -14.13,18.02 -26.32,32.39 -36.29,42.86 -10.23,10.46 -20.96,17.28 -32.4,21.17 -11.44,3.66 -31.65,11.2 -60.88,22.64 -29.22,11.45 -51.14,17.05 -65.99,17.05 -9.5,0 -16.33,-0.5 -20.72,-1.47 -4.38,-0.97 -17.28,-6.57 -38.71,-16.31 -21.67,-9.73 -43.83,-29.95 -66.98,-60.39 -23.37,-30.68 -35.78,-56 -37.97,-76.2 -1.96,-20.21 -2.93,-34.33 -2.93,-42.36 0,-39.2 11.7,-73.04 34.82,-101.52 23.15,-28.74 56.51,-57.47 100.1,-86.43zm61.61 35.54c-13.39,-8.76 -28.73,-13.14 -45.54,-13.14 -29.71,0 -54.06,12.17 -73.05,36.76 -18.75,24.59 -28.25,52.59 -28.25,84.24 0,30.92 9.5,61.11 28.5,90.82 28.98,-18.27 62.34,-45.3 100.1,-81.33 37.74,-35.78 63.07,-58.92 75.97,-68.9 -6.08,-9.5 -13.15,-17.3 -21.19,-23.87 -8.28,-6.33 -20.21,-14.61 -36.53,-24.59z"/>
   <path id="_14" fill="#333333" fill-rule="nonzero" d="M4369.99 1723.43l34.34 0c21.43,0 38.71,2.19 51.38,6.58 12.67,4.38 23.38,13.64 32.16,27.76 -2.68,16.07 -7.31,24.34 -13.88,24.34 -3.43,0 -13.65,-8.27 -30.69,-24.34 -17.05,-16.07 -28.99,-24.11 -35.81,-24.11 -21.19,0 -39.44,3.65 -54.07,11.2 -14.85,7.31 -25.08,18.02 -30.68,31.9 -5.6,13.62 -8.53,25.56 -8.53,35.78 0,17.54 5.85,34.58 17.55,51.14 11.68,16.56 37.99,30.19 78.9,41.39 40.92,11.2 64.55,26.05 71.36,45.04 6.58,18.74 9.99,34.08 9.99,45.53 0,14.12 -3.16,27.76 -9.49,40.91 -6.58,13.14 -16.33,27.27 -29.24,42.6 -13.15,15.09 -26.77,27.03 -40.92,35.79 -14.12,8.76 -30.18,13.15 -48.22,13.15 -12.9,0 -26.05,-2.68 -39.93,-8.28 -13.65,-5.36 -23.88,-14.12 -30.69,-26.55 -6.58,-17.04 -11.44,-29.21 -14.12,-36.76 6.81,0 19.96,6.08 39.94,18.51 19.72,12.41 32.39,19.48 38.23,21.17 5.6,1.71 15.1,2.68 28.74,2.68 10.72,0 20.95,-2.19 31.16,-6.57 10,-4.39 18.52,-11.68 25.09,-22.16 6.82,-10.47 10.23,-21.91 10.23,-34.08 0,-9.99 -3.89,-21.19 -11.68,-33.36 -7.79,-12.18 -34.1,-25.32 -79.16,-39.45 -45.04,-14.12 -69.89,-30.18 -75.01,-47.96 -5.1,-18.01 -8.52,-32.62 -10.7,-44.07 -1.95,-11.44 -2.92,-20.69 -2.92,-27.26 0,-18.99 5.6,-38.23 17.04,-57.71 11.44,-19.72 23.13,-35.07 34.82,-46.02 11.68,-11.2 26.79,-16.8 44.81,-16.8z"/>
   <path fill="#DDDAD6" fill-rule="nonzero" d="M147.09 73.54c55.28,-48.94 116.18,-73.54 183.39,-73.54 6.81,0 13.15,0 19.24,0 6.08,0 13.41,0.74 22.17,1.95 3.41,7.55 6.08,16.07 8.52,26.3 2.44,9.98 3.65,18.98 3.65,27.02 0,8.04 -1.45,14.86 -4.13,20.22 -27.53,-20.22 -59.19,-30.19 -94.74,-30.19 -37.76,0 -71.6,9.25 -101.56,27.76 -29.7,18.5 -50.65,35.3 -62.34,50.4 -11.93,15.09 -20.47,31.89 -26.32,50.4 -5.6,18.25 -9.49,34.33 -11.68,47.72 -1.94,13.39 -2.92,25.32 -2.92,35.31 0,57.21 29.96,111.76 89.62,164.35 55.77,43.57 111.54,87.16 167.31,130.99 60.64,54.29 90.85,112.72 90.85,175.29 0,8.78 0,17.3 0,26.06 -1.95,8.76 -5.6,28 -10.96,57.95 -5.6,29.94 -25.58,66.46 -60.65,109.32 -34.81,43.09 -79.87,69.88 -134.91,80.59 -4.15,1.45 -10.96,2.68 -21.2,3.65 -9.98,0.97 -19.72,1.45 -29.21,1.45 -31.43,0 -60.64,-5.6 -87.68,-17.04 -26.77,-11.2 -54.54,-27.26 -83.53,-47.96 11.44,-18.5 20.22,-31.41 26.55,-38.47 6.57,-7.05 13.39,-10.46 20.69,-10.46 2.68,0 7.32,1.21 14.13,3.89 42.87,44.07 97.17,66.23 162.93,66.23 4.62,0 9.73,0 15.09,0 8.04,-1.47 28.5,-4.15 61.85,-8.52 33.13,-4.39 55.28,-25.08 66.25,-62.1 11.2,-37.01 17.53,-61.1 19.72,-72.56 1.95,-11.44 2.92,-22.4 2.92,-33.36 0,-52.34 -23.85,-101.04 -71.34,-146.08 -48.23,-37.49 -98.4,-77.91 -150.27,-121 -51.88,-42.86 -83.78,-85.71 -95.47,-128.07 -11.7,-42.12 -17.54,-80.11 -17.54,-113.71 0,-40.42 7.31,-77.19 21.67,-110.54 14.36,-33.11 37.76,-64.28 69.89,-93.25z"/>
   <path id="_1_0" fill="#DDDAD6" fill-rule="nonzero" d="M781.85 609.91c9.99,-3.41 21.19,-5.12 33.11,-5.12 12.92,0 25.33,2.92 37.76,8.52 12.41,5.6 33.11,21.67 62.1,48.22 28.74,26.29 47.73,79.61 56.98,159.96 9.03,80.11 16.57,131.72 22.65,154.36l34.1 17.3c-7.31,4.62 -18.27,7.78 -32.63,9.98 -14.36,1.95 -28.98,2.92 -43.84,2.92 -8.76,0 -17.53,0 -26.3,0 -8.76,0 -17.04,-0.48 -25.08,-0.97 12.17,0 20.69,-4.15 25.56,-12.17 5.13,-8.04 7.56,-18.27 7.56,-30.93 0,-8.76 -0.5,-18.01 -1.71,-27.74 -1.21,-9.75 -2.19,-18.99 -2.68,-27.51 -2.69,-6.58 -7.07,-9.75 -13.16,-9.75 -6.81,0 -13.88,2.92 -21.17,9.01 -27.53,29.22 -59.43,54.06 -95.96,74.99 -36.29,20.95 -70.62,31.42 -102.76,31.42 -18.99,0 -37.76,-4.63 -56.51,-14.12 -18.99,-9.26 -33.61,-20.7 -44.08,-34.34 -10.46,-13.39 -15.58,-30.44 -15.58,-51.37 0,-19.96 5.6,-37.99 17.04,-53.82 11.44,-15.82 28.25,-29.7 49.93,-41.62 21.91,-12.18 47.01,-22.16 75.74,-29.71 28.48,-7.79 57.48,-11.68 86.93,-11.68 15.6,0 29.72,0.97 42.38,2.92 12.91,1.7 26.32,5.12 40.44,10.22 6.08,-6.08 9.01,-13.38 9.01,-22.16 0,-5.34 -1.95,-12.17 -6.08,-20.21 -3.89,-8.04 -11.68,-25.08 -23.14,-51.37 -11.44,-26.06 -41.39,-39.2 -89.61,-39.2 -22.17,0 -41.16,4.62 -56.99,14.12 -15.84,9.49 -36.53,24.84 -62.11,45.77 10.97,-24.84 26.06,-46.5 45.54,-64.52 19.49,-18.25 43.6,-32.13 72.58,-41.39zm84.25 190.65c-20.21,-8.78 -42.38,-13.15 -66.47,-13.15 -30.95,0 -59.91,6.57 -87.2,19.96 -27.02,13.39 -45.3,28 -54.3,43.59 -9.01,15.82 -13.64,28 -13.64,36.76 0,10.72 2.68,20.45 8.04,29.45 5.36,9.02 15.58,21.19 30.69,36.04 15.09,15.1 33.84,22.64 56.01,22.64 6.57,0 20.21,-2.42 40.67,-7.05 20.46,-4.63 47.5,-19.96 80.6,-46.02 33.37,-26.05 49.93,-51.61 49.93,-76.2 0,-4.63 -1.21,-10.47 -3.41,-17.04 -2.44,-6.81 -6.81,-12.17 -13.15,-16.07 -6.33,-3.89 -15.58,-8.28 -27.77,-12.9z"/>
   <path id="_2_1" fill="#DDDAD6" fill-rule="nonzero" d="M1183.77 698.54c12.68,-14.12 34.11,-31.65 64.06,-52.84 30.19,-21.19 47.99,-33.84 53.33,-37.99 2.68,4.87 3.9,11.2 3.9,18.51 0,6.08 0.24,12.17 0.48,18.02 0.24,6.08 2.92,10.7 7.55,14.12 20.93,-11.94 45.54,-22.65 74.27,-32.15 28.51,-9.49 56.76,-14.12 84.28,-14.12 20.21,0 38.47,3.16 54.54,9.49 16.31,6.34 30.45,16.56 42.38,30.68 12.18,14.12 20.46,29.47 24.84,45.78 4.4,16.56 6.59,35.05 6.59,56 0,11.44 -1.47,32.87 -4.4,64.76 -2.68,31.9 -4.13,52.84 -4.13,63.07 0,11.93 0.24,23.13 0.97,33.11 0.73,9.98 2.19,19.72 4.63,29.21 2.44,9.5 6.82,16.8 13.15,22.16 6.34,5.36 16.8,8.04 30.92,8.04 4.87,0 10.49,-0.48 17.31,-1.47 1.45,9.26 -1.47,15.1 -8.04,17.05 -10.24,0.73 -23.39,3.41 -39.95,8.02 -16.57,4.63 -35.79,7.07 -58.19,7.07 -7.32,0 -13.16,-0.48 -17.07,-1.21 -2.68,-14.62 -4.38,-25.33 -4.62,-32.15 -0.24,-6.57 -0.48,-11.93 -0.48,-16.07 0,-15.33 2.18,-44.07 6.57,-85.45 4.39,-41.64 6.57,-69.88 6.57,-84.74 0,-31.41 -4.62,-58.19 -13.64,-80.11 -9.01,-21.66 -23.85,-38.96 -44.31,-51.37 -20.46,-12.41 -41.89,-18.51 -64.05,-18.51 -30.21,0 -54.8,9.5 -74.04,28.25 -19.25,18.98 -32.4,43.09 -39.7,72.3 -7.55,29.22 -11.2,62.82 -11.2,100.57 0,24.82 0.24,41.88 0.97,51.13 0.73,9.01 3.16,37.49 7.79,85.47 0,8.02 8.04,13.87 23.85,17.53 15.84,3.65 24.36,8.04 25.83,12.65 -14.86,1.47 -29.24,2.68 -43.12,4.15 -13.88,1.21 -27.03,1.95 -39.94,1.95 -17.53,0 -30.19,-0.5 -38,-1.47 -7.79,-0.97 -18.01,-3.16 -30.92,-6.57 14.36,-14.86 24.35,-33.36 29.71,-55.27 5.61,-21.91 8.29,-48.7 8.29,-80.35 0,-21.67 -1.22,-51.13 -3.41,-88.14 -2.21,-37.01 -3.19,-60.13 -3.19,-68.9 0,-9.5 -2.67,-14.12 -8.02,-14.12 -2.68,0 -8.04,1.7 -15.59,5.1 -7.79,3.42 -12.91,4.87 -15.59,4.87 -4.13,0 -7.78,-1.95 -11.21,-6.08z"/>
   <path id="_3_2" fill="#DDDAD6" fill-rule="nonzero" d="M1975.86 619.42c38.97,0 77.68,0 116.41,0 38.48,0 76.96,0 115.19,0 -1.21,9.73 -12.41,15.82 -33.36,18.25 -21.19,2.44 -30.21,10.96 -26.79,25.32 18.02,17.54 31.9,32.63 41.15,45.28 9.5,12.91 14.86,24.59 16.31,35.31 1.22,10.72 1.95,18.75 1.95,24.11 0,26.77 -11.2,51.37 -33.36,73.53 -22.17,22.16 -40.19,39.93 -54.31,53.32 53.35,34.82 88.88,66.71 107.16,95.2 18.25,28.5 27.27,58.93 27.27,91.06 0,42.36 -11.7,77.67 -35.31,105.91 -23.64,28.24 -53.83,52.59 -90.85,73.53 -37.02,20.7 -68.19,31.18 -93.76,31.18 -12.91,0 -26.07,-1.47 -39.95,-4.63 -13.62,-2.92 -28.97,-7.55 -45.78,-13.88 -16.8,-6.33 -32.63,-17.28 -47.49,-32.63 -16.07,-19.48 -28.97,-34.08 -38.23,-44.06 -2.19,-7.31 -0.73,-14.62 3.9,-21.67 4.62,-6.82 9.25,-13.88 13.64,-20.46 46.51,45.54 78.91,75.23 97.4,88.87 18.51,13.88 47.25,20.7 86.22,20.7 26.3,0 49.19,-7.31 69.16,-22.16 19.72,-14.86 35.81,-34.08 48.22,-57.47 12.42,-23.61 18.75,-47.72 18.75,-72.56 0,-22.88 -8.76,-51.13 -26.05,-84.73 -17.54,-33.6 -46.76,-57.47 -87.68,-71.1 -40.91,-13.88 -94.74,-20.69 -161.21,-20.69 -14.12,1.45 -27.53,3.65 -40.19,6.81 -12.65,2.92 -25.08,6.58 -37.26,10.72 7.3,-10.96 13.89,-22.4 19.73,-34.57 6.08,-12.18 7.31,-21.67 3.89,-28.5 -12.65,-16.06 -25.33,-32.62 -37.99,-49.42 -12.67,-19.48 -18.99,-38.96 -18.99,-58.44l0 -9.99c4.13,-42.36 21.43,-78.4 52.36,-107.85 30.92,-29.47 67.45,-44.31 109.83,-44.31zm-26.3 46.74c-18.02,0 -31.18,2.44 -39.7,7.07 -8.29,4.63 -17.54,14.12 -28.01,28.24 -10.46,13.88 -15.58,28.97 -15.58,45.04 0,13.39 8.04,31.66 24.1,54.3 16.07,22.88 36.53,42.12 61.37,57.94 24.85,15.83 52.61,23.62 83.3,23.62 12.91,0 30.21,-2.19 52.36,-6.57 22.16,-4.39 38.48,-14.86 49.2,-31.66 10.72,-16.8 16.06,-30.44 16.06,-41.15 0,-15.58 -6.08,-30.68 -18.5,-45.77 -12.42,-15.09 -25.82,-29.95 -39.7,-44.8 -14.13,-14.85 -33.13,-26.05 -56.75,-34.08 -23.85,-8.04 -53.09,-12.18 -88.16,-12.18z"/>
   <path id="_4_3" fill="#DDDAD6" fill-rule="nonzero" d="M2697.8 662.99c0,-20.93 11.44,-35.3 34.58,-43.57 23.13,-8.04 48.45,-12.18 76.22,-12.18 -11.44,58.68 -17.28,117.35 -17.28,176.03 0,29.71 1.47,56.98 4.63,82.06 2.92,24.84 6.33,44.56 9.98,58.68 3.66,14.12 8.28,21.17 13.64,21.17 9.5,-1.94 16.33,-2.92 20.23,-2.92 4.13,0 6.57,1.47 7.05,4.15 -14.62,16.07 -34.58,28 -59.9,35.79 -25.09,7.79 -46.04,14.12 -62.85,18.74 3.16,-14.12 6.33,-30.18 9.76,-48.45 3.16,-18.01 4.86,-34.08 4.86,-48.2 0,-15.59 -1.21,-29.71 -3.65,-42.36 -53.82,63.05 -90.59,104.2 -110.34,123.2 -19.72,19.24 -46.74,28.73 -81.09,28.73 -12.9,0 -29.47,-4.13 -50.41,-12.65 -20.7,-8.28 -36.05,-23.38 -45.78,-45.3 -9.75,-21.66 -14.61,-48.69 -14.61,-81.08 0,-15.33 1.21,-38.96 3.89,-70.36 2.68,-31.65 3.89,-54.79 3.89,-69.63 0,-18.01 -1.45,-33.6 -4.38,-46.27 0,-9.49 -6.57,-14.12 -19.73,-14.12 -2.68,0 -4.87,0 -6.58,0 -1.45,0 -3.16,0.5 -4.38,0.98 11.93,-11.94 28.01,-24.35 47.98,-36.76 19.96,-12.42 37.76,-20.22 53.82,-23.62 1.22,9.49 1.95,18.75 1.95,28.24 0,9.25 0,18.75 0,28.24 0,14.62 -0.73,39.2 -2.19,73.78 -1.45,34.57 -2.19,53.32 -2.19,56 0,26.05 1.22,48.45 3.66,66.71 2.19,18.5 6.81,39.2 13.64,62.08 6.58,22.64 22.41,34.08 47.49,34.08 17.54,0 50.17,-18.5 97.66,-55.51 47.49,-37.25 71.36,-99.82 71.36,-188.2 0,-5.84 0,-11.93 -0.24,-17.53 -0.24,-5.85 -1.45,-17.05 -3.41,-33.85l-37.26 -6.08z"/>
   <path id="_5_4" fill="#DDDAD6" fill-rule="nonzero" d="M3074.88 548.56c5.84,-5.36 13.39,-21.91 22.65,-49.67 9.01,-27.76 21.67,-41.64 37.74,-41.64 7.3,0 16.07,1.95 26.06,6.1 0,15.58 -3.89,32.13 -11.44,50.16 -7.81,18.01 -18.76,32.37 -32.88,43.09 -2.68,-0.73 -9.01,-1.45 -18.99,-1.95 -10.23,-0.73 -17.78,-2.68 -23.14,-6.08zm50.17 62.08c0.73,61.61 1.71,123.21 3.16,185.05 1.21,61.84 2.92,104.2 5.12,127.34 1.95,22.88 7.05,36.28 15.59,39.93 8.28,3.65 18.51,5.6 30.68,5.6 13.39,0 24.12,-0.97 32.16,-2.92l0 9.25c-18.76,11.2 -40.68,19.48 -66,25.32 -25.09,5.84 -49.93,8.76 -74.04,9.01 -3.9,-16.8 -6.82,-33.84 -8.52,-50.88 -1.71,-17.04 -2.44,-37.49 -2.44,-60.87 0,-12.17 0.24,-30.68 0.97,-56 0.73,-25.08 0.98,-43.57 0.98,-55.76l0 -13.14c0,-32.87 -1.71,-57.71 -5.12,-74.27 -3.41,-16.8 -9.26,-25.32 -18.04,-25.32 -4.13,0 -10.22,0.97 -18.74,2.68 -8.28,1.45 -13.15,2.44 -14.62,2.44 -8.76,0 -15.09,-3.16 -19.01,-9.02 20.72,-7.54 41.65,-14.85 62.36,-22.16 21.43,-9.49 41.39,-21.42 59.42,-36.28l16.07 0z"/>
   <path id="_6_5" fill="#DDDAD6" fill-rule="nonzero" d="M3356.02 698.54c12.67,-14.12 34.1,-31.65 64.05,-52.84 30.19,-21.19 47.99,-33.84 53.33,-37.99 2.68,4.87 3.9,11.2 3.9,18.51 0,6.08 0.24,12.17 0.48,18.02 0.24,6.08 2.92,10.7 7.55,14.12 20.95,-11.94 45.54,-22.65 74.28,-32.15 28.5,-9.49 56.75,-14.12 84.27,-14.12 20.22,0 38.47,3.16 54.54,9.49 16.33,6.34 30.45,16.56 42.38,30.68 12.18,14.12 20.46,29.47 24.85,45.78 4.39,16.56 6.58,35.05 6.58,56 0,11.44 -1.47,32.87 -4.39,64.76 -2.68,31.9 -4.13,52.84 -4.13,63.07 0,11.93 0.24,23.13 0.97,33.11 0.73,9.98 2.19,19.72 4.63,29.21 2.42,9.5 6.81,16.8 13.14,22.16 6.34,5.36 16.8,8.04 30.92,8.04 4.89,0 10.49,-0.48 17.31,-1.47 1.45,9.26 -1.47,15.1 -8.04,17.05 -10.24,0.73 -23.39,3.41 -39.95,8.02 -16.56,4.63 -35.79,7.07 -58.19,7.07 -7.31,0 -13.15,-0.48 -17.07,-1.21 -2.68,-14.62 -4.38,-25.33 -4.62,-32.15 -0.24,-6.57 -0.48,-11.93 -0.48,-16.07 0,-15.33 2.18,-44.07 6.57,-85.45 4.4,-41.64 6.58,-69.88 6.58,-84.74 0,-31.41 -4.63,-58.19 -13.65,-80.11 -9.01,-21.66 -23.85,-38.96 -44.31,-51.37 -20.46,-12.41 -41.89,-18.51 -64.05,-18.51 -30.19,0 -54.8,9.5 -74.04,28.25 -19.25,18.98 -32.4,43.09 -39.7,72.3 -7.55,29.22 -11.2,62.82 -11.2,100.57 0,24.82 0.24,41.88 0.97,51.13 0.73,9.01 3.16,37.49 7.79,85.47 0,8.02 8.04,13.87 23.85,17.53 15.84,3.65 24.36,8.04 25.83,12.65 -14.86,1.47 -29.24,2.68 -43.12,4.15 -13.88,1.21 -27.02,1.95 -39.94,1.95 -17.53,0 -30.19,-0.5 -37.99,-1.47 -7.81,-0.97 -18.02,-3.16 -30.93,-6.57 14.36,-14.86 24.35,-33.36 29.72,-55.27 5.6,-21.91 8.28,-48.7 8.28,-80.35 0,-21.67 -1.22,-51.13 -3.41,-88.14 -2.19,-37.01 -3.18,-60.13 -3.18,-68.9 0,-9.5 -2.67,-14.12 -8.04,-14.12 -2.68,0 -8.04,1.7 -15.59,5.1 -7.79,3.42 -12.91,4.87 -15.59,4.87 -4.13,0 -7.78,-1.95 -11.2,-6.08z"/>
   <path id="_7_6" fill="#DDDAD6" fill-rule="nonzero" d="M4114.97 624.77c17.54,-11.45 36.29,-17.05 56.5,-17.05 21.44,0 42.39,5.12 62.85,15.1 20.45,10.23 44.81,24.84 73.05,44.31 -21.43,25.08 -63.32,63.79 -125.66,116.63 -62.11,52.84 -99.61,85.94 -112.52,99.33 14.13,21.43 31.42,39.2 51.62,52.84 19.98,13.88 38,21.67 53.83,23.87 15.83,1.94 27.76,2.92 36.04,2.92 18.04,0 33.37,-2.44 45.79,-7.55 12.41,-4.87 41.41,-21.43 86.46,-49.43 -14.13,18.02 -26.32,32.39 -36.29,42.86 -10.23,10.46 -20.95,17.28 -32.4,21.17 -11.44,3.66 -31.65,11.2 -60.88,22.64 -29.21,11.45 -51.14,17.05 -65.99,17.05 -9.5,0 -16.31,-0.5 -20.7,-1.47 -4.39,-0.97 -17.3,-6.57 -38.73,-16.31 -21.67,-9.73 -43.83,-29.95 -66.97,-60.39 -23.38,-30.68 -35.79,-56 -37.99,-76.2 -1.95,-20.21 -2.92,-34.33 -2.92,-42.36 0,-39.2 11.68,-73.04 34.81,-101.52 23.15,-28.74 56.51,-57.47 100.1,-86.43zm61.62 35.54c-13.41,-8.76 -28.74,-13.14 -45.54,-13.14 -29.72,0 -54.06,12.17 -73.07,36.76 -18.75,24.59 -28.24,52.59 -28.24,84.24 0,30.92 9.49,61.11 28.48,90.82 28.98,-18.27 62.34,-45.3 100.1,-81.33 37.74,-35.78 63.07,-58.92 75.99,-68.9 -6.08,-9.5 -13.16,-17.3 -21.2,-23.87 -8.28,-6.33 -20.21,-14.61 -36.52,-24.59z"/>
   <path id="_8_7" fill="#DDDAD6" fill-rule="nonzero" d="M1213.55 1107.73l0 10.96c-16.81,1.45 -29.48,4.38 -37.76,9.01 -8.52,4.62 -15.35,10.72 -20.69,18.75 0,83.26 7.05,181.63 21.17,294.6 14.13,112.98 28.25,227.9 42.62,345.01 14.38,116.87 21.69,217.18 21.69,300.45 6.58,3.41 14.36,7.05 22.88,10.72 8.78,3.65 15.59,6.57 20.95,8.52 -11.93,2.92 -25.08,5.1 -39.2,6.33 -13.89,1.21 -28.01,1.71 -42.13,1.71 -9.99,0 -24.85,-0.26 -44.57,-0.5 -19.72,-0.24 -33.85,-0.48 -42.63,-0.48 -2.67,-4.62 3.18,-10.22 17.3,-16.07 14.13,-6.08 22.9,-11.44 26.3,-16.3 3.41,-4.63 5.6,-10.23 6.57,-16.56 0.98,-6.34 1.47,-16.56 1.47,-30.68 0,-82.54 -4.13,-163.14 -12.67,-241.29 -8.27,-78.16 -20.21,-159.48 -35.79,-243.72 -15.35,-84.5 -30.44,-166.3 -45.31,-245.42l-22.16 24.1c-28.25,62.58 -63.79,143.42 -106.42,242.99 -42.86,99.34 -82.56,191.86 -119.57,278.05 -37.02,85.95 -75.74,174.09 -115.93,264.9l-7.07 0c-33.61,-90.08 -74.27,-196.72 -121.51,-319.93 -47.49,-123.2 -85.73,-224.24 -114.46,-302.88 -28.99,-78.64 -57.49,-162.15 -85.73,-250.3l-11.2 -14.12c-14.86,20.21 -26.56,42.36 -35.32,66.71 -8.76,24.11 -22.88,77.91 -42.86,160.94 -19.72,83.26 -36.78,153.88 -50.9,212.07 -14.12,58.19 -29.71,128.31 -47.01,210.12 -17.04,81.8 -29.71,151.2 -37.74,208.42 1.47,6.57 7.31,10.72 17.78,11.93 10.22,1.47 13.88,7.07 10.46,17.04l-150.51 0 40.44 -55.51c22.64,-78.16 55.77,-183.58 99.11,-316.27 43.36,-132.7 77.2,-238.13 101.32,-316.53 24.1,-78.64 46.27,-160.2 66.48,-244.94 -2.68,-11.2 -8.52,-19.48 -17.54,-24.82 -9.25,-5.6 -26.79,-8.28 -53.09,-8.28 17.54,-13.15 35.55,-23.38 54.07,-30.93 18.5,-7.54 37.99,-11.2 58.93,-11.2 3.41,0 7.05,0 10.96,0 5.36,1.47 9.49,1.95 12.17,1.95 5.37,7.55 10.73,15.83 16.09,24.84 5.36,9.01 18.01,37.74 37.73,85.95 19.99,47.96 45.79,120.52 77.7,217.67 31.92,96.91 63.32,192.1 94.25,285.84 30.92,93.5 62.34,178.23 94.74,254.44l24.11 -32.39c40.91,-90.57 84.02,-185.78 129.08,-286.08 44.8,-100.07 85.24,-193.81 120.79,-280.98 35.56,-86.92 66.73,-173.61 93.77,-260.04 9.25,-4.13 20.21,-7.05 32.13,-8.76 12.19,-1.7 27.04,-2.44 44.33,-2.44 6.82,0 13.64,0.5 20.72,1.71 7.05,1.21 14.36,1.71 21.67,1.71z"/>
   <path id="_9_8" fill="#DDDAD6" fill-rule="nonzero" d="M1689.5 1712.77c16.81,-3.42 31.42,-5.12 43.36,-5.12 24.35,0 45.78,4.87 65.02,14.61 19.25,9.75 36.05,26.05 50.41,48.45 14.38,22.65 25.82,42.13 33.85,58.19 8.04,16.07 11.93,32.63 11.93,49.43 0,13.64 -9.25,38.71 -27.76,75.72 -18.27,37.26 -45.3,73.04 -80.6,107.62 -35.08,34.81 -78.42,52.11 -129.32,52.11 -4.87,0 -7.81,0 -9.26,0 -33.36,0 -63.08,-9.99 -89.13,-29.71 -25.82,-19.96 -47.25,-44.8 -64.55,-74.51 -17.04,-29.95 -25.56,-56.97 -25.56,-81.32 0,-19.96 8.28,-45.04 24.58,-74.99 16.57,-29.95 41.41,-58.19 74.78,-85.21 33.13,-26.79 74.04,-45.3 122.25,-55.27zm40.44 56.97c-10.23,-5.84 -20.46,-10.23 -30.69,-13.15 -10.47,-2.68 -21.19,-3.89 -31.9,-3.89 -22.17,0 -43.34,5.6 -63.32,17.04 -20.22,11.68 -37.99,26.3 -53.58,44.56 -15.35,18.27 -23.14,38.23 -23.14,59.9 0,11.93 1.45,22.88 4.13,32.37 2.68,9.26 9.26,27.51 19.98,54.54 10.96,27.02 29.22,49.91 55.04,68.9 25.81,18.75 56.99,28.25 93.27,28.25 26.06,0 48.7,-6.1 67.95,-18.27 19.24,-12.17 35.79,-28.97 49.93,-50.64 14.12,-21.43 21.19,-43.83 21.19,-66.71 0,-20.21 -5.36,-40.91 -15.59,-62.33 -10.47,-21.19 -22.65,-38.23 -36.78,-50.9 -14.12,-12.9 -33.11,-26.05 -56.5,-39.68z"/>
   <path id="_10_9" fill="#DDDAD6" fill-rule="nonzero" d="M2343.73 1104.31c19.48,2.92 38.97,4.63 58.45,4.63l42.39 0c11.44,0 22.64,0 33.36,0 10.72,0 22.41,0.24 35.07,1.22 -12.65,2.67 -23.37,5.1 -32.13,7.54 -8.79,2.44 -14.15,8.52 -16.09,18.75 0,79.37 -0.73,154.36 -1.95,224.73 -1.21,70.36 -2.68,155.33 -3.89,254.92 0,84.97 1.45,158.75 4.62,221.32 2.92,62.58 8.76,130.51 17.55,204.04 3.89,9.49 8.28,16.8 13.14,22.16 4.63,5.34 11.2,9.49 19.98,12.17 6.81,1.95 15.83,-1.47 27.27,-10.23 11.2,-9.01 20.7,-11.44 28,-7.3 -10.72,14.85 -21.17,27.26 -31.65,37.49 -10.47,9.99 -22.17,15.09 -34.84,15.09 -7.3,0 -15.82,-3.16 -25.08,-9.25 -8.28,-15.83 -16.31,-27.03 -24.84,-33.6 -8.28,-6.57 -17.3,-9.73 -26.55,-9.73 -11.45,0 -29.96,8.02 -55.53,24.1 -25.58,16.07 -45.78,24.11 -60.41,24.11 -11.44,0 -22.88,0 -34.33,0 -11.45,0 -22.41,0 -33.37,0 -24.84,0 -45.3,-1.47 -61.85,-4.63 -16.56,-2.92 -36.05,-11.68 -58.93,-26.53 -22.9,-14.86 -41.89,-35.55 -56.99,-62.34 -15.1,-26.77 -22.65,-56 -22.65,-87.4 0,-20.93 4.39,-47.24 13.15,-79.62 8.78,-32.13 28.01,-60.13 57.98,-84.24 29.95,-24.34 61.85,-39.93 96.18,-47.48 34.35,-7.3 60.41,-10.96 78.68,-10.96 23.37,0 46.27,3.16 68.42,9.5 22.17,6.57 44.08,15.33 65.53,26.77 0,-29.7 -3.67,-94.71 -10.97,-195.51 -7.31,-100.8 -10.96,-175.06 -10.96,-222.78l0 -23.37c0,-45.78 -0.98,-81.8 -2.92,-108.11 -2.19,-26.05 -6.1,-45.53 -11.7,-57.95 -5.84,-12.41 -12.65,-18.74 -20.7,-18.74 -6.08,0 -12.17,1.21 -18.25,3.41 -6.1,2.19 -10.23,3.41 -12.18,3.41l9.01 -15.59zm-160 648.39c-25.82,14.85 -44.81,31.89 -57.72,50.88 -12.9,19.24 -19.25,42.62 -19.25,70.12 0,34.34 3.42,62.82 10.24,85.71 6.57,22.88 20.45,45.28 41.39,67.68 20.95,22.16 43.1,37.74 66.74,46.75 23.61,9.01 51.87,13.64 84.98,13.64 22.17,0 42.13,-5.12 59.67,-15.58 17.54,-10.47 29.22,-26.3 34.82,-47.49 5.84,-21.17 10.96,-42.85 15.35,-65.49 4.39,-22.4 6.58,-41.88 6.58,-57.95 0,-21.42 -3.41,-41.64 -9.75,-59.89 -6.34,-18.51 -21.43,-41.88 -45.05,-69.63 -23.62,-28 -58.95,-41.88 -106.19,-41.88 -27.51,0 -55.03,7.79 -81.82,23.13z"/>
   <path id="_11_10" fill="#DDDAD6" fill-rule="nonzero" d="M3018.92 1767.3c0,-20.93 11.44,-35.3 34.58,-43.57 23.13,-8.04 48.46,-12.18 76.22,-12.18 -11.44,58.68 -17.28,117.35 -17.28,176.03 0,29.71 1.47,56.98 4.63,82.06 2.92,24.84 6.33,44.56 9.98,58.68 3.66,14.12 8.28,21.17 13.64,21.17 9.52,-1.94 16.33,-2.92 20.23,-2.92 4.13,0 6.57,1.47 7.05,4.15 -14.61,16.07 -34.58,28 -59.9,35.79 -25.09,7.79 -46.04,14.12 -62.84,18.74 3.16,-14.12 6.33,-30.18 9.75,-48.45 3.16,-18.01 4.86,-34.08 4.86,-48.2 0,-15.59 -1.21,-29.71 -3.65,-42.36 -53.82,63.05 -90.59,104.2 -110.33,123.2 -19.73,19.24 -46.75,28.73 -81.1,28.73 -12.9,0 -29.45,-4.13 -50.41,-12.65 -20.69,-8.28 -36.05,-23.38 -45.78,-45.3 -9.75,-21.66 -14.61,-48.69 -14.61,-81.08 0,-15.33 1.21,-38.96 3.89,-70.36 2.68,-31.65 3.89,-54.79 3.89,-69.63 0,-18.01 -1.45,-33.6 -4.38,-46.27 0,-9.49 -6.57,-14.12 -19.72,-14.12 -2.68,0 -4.87,0 -6.59,0 -1.45,0 -3.16,0.5 -4.38,0.98 11.94,-11.94 28.01,-24.35 47.98,-36.76 19.98,-12.42 37.76,-20.22 53.82,-23.62 1.22,9.49 1.95,18.75 1.95,28.24 0,9.25 0,18.75 0,28.24 0,14.62 -0.73,39.2 -2.19,73.78 -1.45,34.57 -2.19,53.32 -2.19,56 0,26.05 1.22,48.45 3.66,66.71 2.19,18.5 6.82,39.2 13.65,62.08 6.57,22.64 22.4,34.08 47.49,34.08 17.53,0 50.17,-18.5 97.65,-55.51 47.49,-37.25 71.36,-99.82 71.36,-188.2 0,-5.84 0,-11.93 -0.24,-17.53 -0.24,-5.85 -1.45,-17.05 -3.41,-33.85l-37.26 -6.08z"/>
   <path id="_12_11" fill="#DDDAD6" fill-rule="nonzero" d="M3311.74 1114.3c16.8,-2.68 40.91,-4.87 72.57,-7.07 31.66,-1.94 72.82,-2.92 123.96,-2.92 -1.45,6.1 -10.97,10.47 -29.22,13.15 -18.02,2.68 -27.04,10.72 -27.04,24.11 0,93.49 0.24,187.23 0.48,280.72 0.24,93.5 0.73,198.69 1.48,315.8 0.73,117.11 0.97,200.63 0.97,250.3 0,24.34 2.92,43.82 8.52,58.68 5.6,14.61 18.51,24.84 38.71,30.18 10,1.22 20.46,-1.45 31.66,-8.28 10.96,-7.05 21.67,-13.88 31.67,-20.93 1.21,1.95 1.94,5.36 1.94,10.23 0,10.22 -6.08,19.24 -18.51,26.77 -12.42,7.55 -23.62,14.12 -33.11,19.96 -9.75,5.84 -22.65,8.78 -38.73,8.78 -8.04,0 -15.83,-0.74 -23.13,-1.95 -7.32,-1.47 -17.79,-4.15 -31.18,-8.04l-16.07 -20.21 -29.24 -743.1 -8.04 -196.72c-2.68,-11.45 -10.22,-18.51 -22.41,-21.19 -11.93,-2.68 -23.85,-5.6 -35.3,-8.28z"/>
   <path id="_13_12" fill="#DDDAD6" fill-rule="nonzero" d="M3840.06 1729.08c17.53,-11.45 36.29,-17.05 56.5,-17.05 21.44,0 42.39,5.12 62.84,15.1 20.46,10.23 44.81,24.84 73.07,44.31 -21.44,25.08 -63.32,63.79 -125.67,116.63 -62.1,52.84 -99.61,85.94 -112.51,99.33 14.12,21.43 31.42,39.2 51.62,52.84 19.98,13.88 38,21.67 53.83,23.87 15.82,1.94 27.76,2.92 36.04,2.92 18.02,0 33.37,-2.44 45.79,-7.55 12.41,-4.87 41.41,-21.43 86.45,-49.43 -14.12,18.02 -26.3,32.39 -36.28,42.86 -10.23,10.46 -20.96,17.28 -32.4,21.17 -11.44,3.66 -31.66,11.2 -60.88,22.64 -29.22,11.45 -51.14,17.05 -65.99,17.05 -9.52,0 -16.33,-0.5 -20.72,-1.47 -4.38,-0.97 -17.28,-6.57 -38.73,-16.31 -21.66,-9.73 -43.82,-29.95 -66.97,-60.39 -23.37,-30.68 -35.79,-56 -37.99,-76.2 -1.95,-20.21 -2.92,-34.33 -2.92,-42.36 0,-39.2 11.7,-73.04 34.82,-101.52 23.15,-28.74 56.51,-57.47 100.1,-86.43zm61.61 35.54c-13.39,-8.76 -28.73,-13.14 -45.54,-13.14 -29.71,0 -54.06,12.17 -73.05,36.76 -18.75,24.59 -28.25,52.59 -28.25,84.24 0,30.92 9.5,61.11 28.5,90.82 28.97,-18.27 62.34,-45.3 100.1,-81.33 37.74,-35.78 63.07,-58.92 75.97,-68.9 -6.08,-9.5 -13.15,-17.3 -21.19,-23.87 -8.28,-6.33 -20.21,-14.61 -36.53,-24.59z"/>
   <path id="_14_13" fill="#DDDAD6" fill-rule="nonzero" d="M4326.98 1712.03l34.35 0c21.43,0 38.71,2.19 51.38,6.58 12.67,4.38 23.38,13.64 32.16,27.76 -2.68,16.07 -7.31,24.34 -13.89,24.34 -3.42,0 -13.64,-8.27 -30.68,-24.34 -17.05,-16.07 -28.99,-24.11 -35.81,-24.11 -21.19,0 -39.45,3.65 -54.07,11.2 -14.85,7.31 -25.08,18.02 -30.68,31.9 -5.61,13.62 -8.53,25.56 -8.53,35.78 0,17.54 5.84,34.58 17.55,51.14 11.68,16.56 37.97,30.19 78.9,41.39 40.92,11.2 64.53,26.05 71.36,45.04 6.58,18.74 9.99,34.08 9.99,45.53 0,14.12 -3.16,27.76 -9.49,40.91 -6.59,13.14 -16.33,27.27 -29.24,42.6 -13.15,15.09 -26.77,27.03 -40.92,35.79 -14.12,8.76 -30.18,13.15 -48.22,13.15 -12.9,0 -26.05,-2.68 -39.93,-8.28 -13.65,-5.36 -23.88,-14.12 -30.69,-26.55 -6.58,-17.04 -11.44,-29.21 -14.12,-36.76 6.81,0 19.96,6.08 39.93,18.51 19.73,12.41 32.4,19.48 38.24,21.17 5.6,1.71 15.09,2.68 28.74,2.68 10.72,0 20.95,-2.19 31.16,-6.57 10,-4.39 18.52,-11.68 25.09,-22.16 6.82,-10.47 10.23,-21.91 10.23,-34.08 0,-9.99 -3.89,-21.19 -11.68,-33.36 -7.79,-12.18 -34.1,-25.32 -79.16,-39.45 -45.05,-14.12 -69.89,-30.18 -75.01,-47.96 -5.1,-18.01 -8.52,-32.62 -10.7,-44.07 -1.95,-11.44 -2.92,-20.69 -2.92,-27.26 0,-18.99 5.6,-38.23 17.04,-57.71 11.44,-19.72 23.13,-35.07 34.82,-46.02 11.68,-11.2 26.79,-16.8 44.8,-16.8z"/>
  </g>
 </g>
</svg>
