<svg clip-rule="evenodd" fill-rule="evenodd" height="128.5mm" image-rendering="optimizeQuality" shape-rendering="geometricPrecision" text-rendering="geometricPrecision" viewBox="0 0 4572 12850" width="45.72mm" xmlns="http://www.w3.org/2000/svg"><g fill="#262626"><path d="m1157.98 12851.2h211.86c0-9.23-18.42-110.54-18.42-119.76 9.21-46.05 73.69-27.63 119.75-27.63 55.27 0 73.7-9.22 128.97-9.22 55.25 0 73.68 9.22 138.15 9.22 202.67 0 469.84 36.85 672.51-18.42 128.95-27.63 211.85-46.09 331.6-101.34 82.9-46.03 128.97-27.65 257.94-27.65h294.77c0 64.5-9.21 82.9-9.21 138.19v156.61h64.5v-663.25c0-119.76-36.86-543.48-18.43-608.01 9.19-64.46-18.43-322.41-18.43-414.51 0-156.62-9.2-755.37 9.2-856.7v-313.22c0-36.82 0-64.46 0-101.3 9.23-64.51 9.23-138.18 9.23-211.89 0-64.49 18.43-128.96 18.43-193.44 9.19-138.18 0-294.79 0-432.96 0-82.91 9.19-128.98 9.19-211.89 0-46.05 9.22-55.26 9.22-101.31l9.2-525.09c18.43-119.76 9.23-285.57 27.63-405.33 0-36.85 0-73.67 0-110.52 0-46.05 9.22-55.28 9.22-101.33l-9.22-423.74c0-73.71 9.22-368.47 27.66-405.33 9.19-18.42 46.05-55.28 64.47-27.65 27.63 27.65 0 156.6 0 193.46v110.55c0 92.12-27.62 147.38-27.62 184.22l18.4-18.42c9.22-9.21 0-9.21 18.45-9.21 18.4 221.1 0 165.82 0 331.64 0 73.67 9.2 101.31 9.2 165.81 0 257.91-18.43 644.84 0 856.7 0 46.05 18.43 101.34 18.43 156.61 0 55.26 0 110.53 9.2 165.8 27.63 184.24-18.43 497.43-18.43 681.67 0 110.57-27.63 202.66-27.63 322.42-9.22-9.22-9.22 0-9.22-18.42v-801.43c18.45-184.24 9.22-442.17-9.2-626.4-9.2-101.33 18.42-165.81-9.2-184.24 0 46.05-9.24 64.48-18.43 110.53l-18.42 359.27c0 165.81 9.19 350.05-9.2 497.43l-9.24 248.73c-9.22 156.59 27.63 340.86 36.86 469.82 0 55.24-36.86 110.52-46.08 202.66-27.63 119.75-18.4 239.5-18.4 368.46 0 55.27-9.23 55.27-9.23 110.55 0 82.91 18.43 156.58 9.23 248.72-18.43 138.15-27.65 202.66 9.2 331.62 9.2 46.05 18.42 73.71 18.42 110.53v497.46c0 55.26-27.62 46.05-36.85 92.11v119.76h9.23c0-55.27 0-92.13 27.62-147.39h9.24c0-9.22 0-9.22 0-9.22 0 101.34-27.66 119.75-36.86 248.72-9.23 92.13 36.86 515.86 64.48 626.41 9.19 27.63 27.63 73.69 27.63 110.54h64.48c-9.2-55.28-27.63-110.54-46.06-165.81 0-36.86-9.22-55.28-9.22-101.34 0-36.85 0-46.03 9.22-82.9 36.86-175.03 36.86-211.87 36.86-396.11l9.2-202.66c0-73.7 18.42-128.97 9.23-211.87-9.23-147.42-9.23-276.36 18.4-405.33h18.45c0-92.1 9.19-165.81-27.66-230.29-55.25-110.56-18.42-46.08-18.42-221.09 0-92.12-9.2-156.61-9.2-248.71 0-92.12 9.2-156.62 9.2-257.93 0-82.9-27.63-147.39-27.63-230.3l36.86-359.26c36.85-267.15 55.25-865.92 27.62-1123.87l-18.43-248.71c0-92.1 9.21-156.61 9.21-248.72 0-92.1 0-175.01 0-267.14 0-193.43-18.4-285.56-18.4-506.64 46.04 9.2 9.19 18.4 64.47 18.4l9.2 654.05c18.43 73.71 9.23 451.38 36.86 644.85 18.42 101.31 9.23 221.07 0 322.4l-27.63 994.9c0 202.65-82.9 239.5-64.5 442.16 9.22 55.27 27.64 82.9 9.22 147.38-27.62 221.1 64.48 175.02 73.72 432.95l-55.3 543.48c0 27.67 9.21 27.67 9.21 73.71 9.22 156.61-27.63 239.52 0 497.45 9.22 55.28 18.42 101.33 18.42 156.6 0 119.75 9.23 92.12 18.43 156.6-9.2 27.66 0-18.42-27.63 9.21-9.22 9.22-9.22 36.84-18.43 46.07-18.42 101.32-9.19 257.93-9.19 368.47h276.34c0-73.68 18.43-276.33-9.22-322.42 92.13 0 138.19-9.2 230.31-9.2 73.7 0 165.81 9.2 239.5 0 76.43-4.79 160.29-7.09 245.16-8.2v-378.71h-125.4c-101.34 0-175.02-18.42-331.63-9.2-27.63 0-64.49 9.2-101.34 9.2-101.31 18.42-73.67 36.86-73.67-313.2 138.17 0 257.93-9.2 405.3-9.2 76.22 0 152.43-12.87 226.74-23.4v-231.55c-141.38-10.37-253.93-26.15-392.55 15.44-156.58 36.85-82.91 36.85-267.13 18.42l-18.44-285.57c-9.2-101.33 0-202.67 0-304 0-55.28-9.2-82.9-9.2-147.37l-9.2-1031.74c0-110.55-9.23-193.46-9.23-294.77 0-46.09 0-101.36 0-147.41 0-55.25 9.23-73.69 9.23-138.15 247.85 0 512.73 119.08 696.52 128.37v-333.73c-18.33-4.44-26.52-3.47-60.92 21.11-55.26 36.83-101.34 18.42-165.82 9.21-248.72-18.42-165.81-27.63-267.13-55.28 0 0-9.22-9.2-9.22-9.2s-9.22 0-18.43 0c0 0 0 0 0-9.21h-9.18c64.46 9.21 46.04 0 138.15-9.22 156.61-27.63 211.88-18.42 377.68-9.21 5.32.53 10.25 1.07 14.87 1.61v-120.43l-60.92-10.16c-46.06 0-110.53-9.19-147.38-9.19-396.11-36.86-267.16 36.84-368.48 73.7-138.19 36.83-55.26-36.86-55.26-119.77 110.52 0 202.66-18.42 313.19-18.42 46.06 0 175.03 0 202.67 18.42 21.01 10.5 65.97 14.34 116.18 14.07v-1749.42c-35.49 4.16-66.22 5.94-106.98 12.72l-607.99 64.5c0-110.55 0-184.25 46.07-285.55 36.86 0 82.91 9.2 101.34 27.63 9.19-36.85 18.43-27.63 18.43-73.71l460.58-36.83c28.03-4.01 57.8-9.76 88.55-15.73v-2848.03l-328.05 17.29-239.51 46.06c-36.85 9.2-46.05 18.41-64.48-9.22 36.82-9.21 73.67-27.62 119.73-36.84 82.93-27.65 92.13-18.45 101.35-55.28-92.13 0-202.65 64.5-239.5 46.06 18.42-27.63 36.85-18.43 73.68-27.63 18.41-9.22 55.26-9.22 82.91-18.43 119.76-27.63 257.93-92.12 313.2-92.12 46.06 0 46.06 0 92.12-9.2 37.62-10.75 68.97-30.9 88.55-5.59v-335.26h-254.37c0 119.76 9.21 202.67 9.21 313.18-27.63 9.24-64.49 9.24-92.12 18.44-46.05-82.9-18.42-221.08-18.42-331.62h-884.33c119.75 101.33 294.76 128.99 396.1 414.54 27.65 64.46 64.51 248.71 55.27 350.03-9.22 82.92-27.62 285.57-55.27 340.87-36.85-18.45-27.63-18.45-55.25-46.09-27.66-18.42-36.86-18.42-64.51-27.62 9.22 18.41 0 9.2 18.42 18.41l175.04 230.3 82.91 202.67c119.76 322.42 27.64 211.86 46.05 350.05 9.23 73.71 55.28 138.18 55.28 239.52 0 119.75 0 386.88 119.75 451.36 27.63 9.22 36.86 9.22 55.28 18.43 36.85 18.42 82.91 73.7 92.11 119.76 18.43 175.02-55.26 313.21-202.67 377.66-82.89 36.86-110.52 18.46-184.23 18.46-27.62 0-18.42 9.2-55.28 9.2-36.85 0-27.63-9.2-64.48-9.2-147.39-9.22-304-9.22-423.75 82.9-55.25 55.26-82.9 119.76-82.9 202.67 0 101.31 9.23 175.01 27.65 257.91 18.41 73.71 64.48 138.19 64.48 221.1-46.07 0-64.48-9.23-92.13-27.65-36.85 27.65-9.2 36.85-73.7 36.85-9.21-36.85-46.05-92.11-82.9-101.34-46.05-18.41-73.7 9.23-119.75 36.85-27.63-55.26-55.28-119.76-128.97-128.95-73.69 0-101.31 73.69-147.39 101.33-27.62-55.28-64.48-119.76-147.38-101.33-55.28 18.42-73.71 82.91-119.75 119.76 0-55.29 18.43-64.49 0-119.76-9.2-55.29-27.66-73.71-36.86-101.33-9.19-46.05 0-92.13 0-138.19 0-46.05-18.42-73.7-18.42-110.53h-18.43c0 82.92-18.4 156.59 0 248.72 27.66 119.75 64.51 27.62 27.66 193.43-9.23-9.19-9.23-9.19-18.43-18.41-27.63-46.05-55.28-101.35-128.99-92.12-55.25 9.22-73.67 101.34-119.76 128.97-36.82-138.2-202.66-128.97-230.29 0-27.62-18.44-27.62-36.85-64.48-46.07-64.47-9.2-119.75 18.44-147.37 64.48-18.43 18.43-27.63 46.06-36.86 64.49-110.53-73.68-156.6 9.22-211.88 27.63 0-82.9 55.28-221.07 73.71-340.83 27.64-147.37 18.41-211.86-73.71-294.77-46.05-36.85-82.9-55.28-147.38-64.51-267.15-18.4-359.25 165.82-672.47 55.29-165.81-64.48-257.92-257.95-138.16-414.53 110.53-165.83 184.21-110.56 147.39-396.12-9.23-46.04 0-119.75 0-184.23l-9.23 138.19-27.63-64.5c-9.23-55.26 0-138.17 9.19-175.02 0-27.63-9.19-36.84-9.19-73.7 0-82.9 27.63-211.87 55.28-294.77 18.4-92.14 64.48-165.82 110.54-239.53 18.42-36.83 46.05-64.47 73.67-101.33 18.46-18.4 27.66-27.62 46.09-46.05l27.61-55.24c-27.61 46.04-64.46 92.09-110.51 119.72 27.61-119.72 119.75-147.39 138.17-202.66-36.85 9.23-18.42 9.23-46.07-9.2-82.91-82.91-138.19-230.3-175.02-331.64-92.13-276.34-36.85-267.12 9.2-479.01-64.47 18.43-101.33 193.44-110.53 239.5-9.24 82.91 9.2 257.96 18.43 331.63 27.63 138.19 36.82 156.61 73.67 276.35 36.86 119.75-9.19 202.65-18.4 313.22-27.64-27.63-9.22 0-18.45-46.06l-64.49-128.96c9.24 64.45 46.09 175.02 27.67 239.5-18.43 82.9-36.86 82.9-64.49 221.09l-101.36-377.69c0-27.64 0-46.07-9.19-64.5-9.2-46.05 9.19-27.62-18.44-55.25 0 101.3 18.44 193.44 36.87 285.57 36.85 221.06 82.9 331.62 55.27 571.12-9.23 46.07 0 276.37-18.42 304-27.63-9.21-9.23 9.2-27.63-27.63-36.85-119.76-46.09-239.52-92.13-340.86-18.43-55.25-36.85-119.73-73.71-156.58 0 0 0 0 0-9.23-18.43-9.2-18.43-27.63-27.63-9.2l9.2 36.85c55.29 156.6 156.62 377.68 156.62 534.28-64.48 0-55.26-55.26-92.11-138.18-64.51-184.23-110.56-340.85-101.34-561.9 0-46.08 9.21-55.28 9.21-110.56 0-46.06-9.21-64.48-9.21-101.33-9.22-138.2 9.21-285.58 36.83-405.33 36.85-175.03 92.14-340.84 175.05-497.44 9.22-27.62 18.42-46.06 36.85-73.68 9.19-27.65 18.42-46.06 36.82-73.7 18.45-18.43 36.85-36.84 46.08-64.49 18.43-27.63 27.63-46.06 46.06-64.48 257.94-396.1 386.89-377.7 432.94-451.38h-460.57l55.25 27.62c55.28 27.66 129 46.06 193.47 46.06-9.2 46.08-55.28 73.71-92.11 101.36-46.08 46.05-230.32 294.76-239.52 340.82l-340.84 18.43c36.85-64.49 64.47-193.44 82.9-276.35l73.69-257.94h-313.21c6.35 14.82 2.95 45.25-6.47 84.4v541.99c89.18-.36 80.73-18.58 135.46-36.83l331.62-27.64-119.76 239.51c-82.91 0-193.45-9.22-276.36 0-24.99 2.77-48.31 7.22-70.96 12.09v372.21c48.92.86 116.09 2.62 209.13 2.62 0 82.91-36.82 230.28-55.26 322.38-55.26-18.43-55.26-46.05-92.11-73.68 0 46.06 9.2 18.4 0 64.48v82.91c-27.08 176.02-34.26 177.9-61.76 250.62v345.97c42-145.18 75.76-265.76 89.38-320.25 18.42-92.1 46.08-110.52 55.28-165.81l18.43 230.32c0 156.6 92.13 451.36 138.18 598.75 73.7 202.67 110.52 165.81 64.48 350.04-18.43 73.71-18.43 64.51-46.07 73.71-42.06 21.04-206.79 52.74-319.68 70.75v57.74l319.68-54.78c46.07 9.2 36.84 9.2 55.29 55.25 36.82 119.76 202.63 276.37 211.87 285.57-46.06-9.2-147.42-73.68-276.38-73.68 9.22-18.42 27.66-64.48 36.86-82.9 27.65-101.34 9.2-119.76-18.42-64.49l-55.29 147.39c-131.23 0-213.81.01-273.61 1.71v54.73l273.61 26.48c46.07 9.19-9.2-9.24 36.85-9.24 18.44 0 101.33 46.05 128.96 55.29 73.71 36.85 359.28 110.52 386.94 156.6-55.27 55.27-248.76-55.28-304.03-73.71-344.32-111.91-270.39-103.15-522.33-56.4v1354.15l282.84 28.75-55.28 36.85c-73.69 55.29 0 46.06-175.01 73.72-17.52 2.91-35.03 4.9-52.55 6.26v52.62c87.35-11.7 179.15-31.26 264.41-31.26h175.01c55.28-9.2 82.91-18.43 156.62-18.43-9.2 36.85 9.23 9.23-27.63 9.23-82.9 18.43-73.71 27.62-128.99 36.82 27.66 46.09 110.57-9.2 156.62-18.39v55.24l-147.38 46.09 138.18 9.19c-18.43 64.48 27.63 18.42-165.81 18.42-36.86 0-18.43 0-55.28 9.21 27.62-36.82 64.48-64.48 64.48-119.76-27.63 0-27.63-9.2-36.86 9.23-18.4 36.86 18.42-9.23 9.23 18.43-18.43 110.54-128.99 73.71-165.82 230.28-18.41 64.48 27.63 119.76-27.65 184.24-73.67 110.55-184.22-147.39-36.82-156.62 18.39 36.86 27.63 82.93 9.21 119.77-46.06-18.42 0-36.84-46.06-73.68 0 55.26-36.85 92.12 46.06 110.53 18.42-27.63 82.89-184.24-18.43-211.87l-163.09 14.84v326.01l513.13 46.04c-9.2 27.65-36.85 221.1-46.05 267.15l-55.29 239.51c-9.19 73.71-27.62 175.02-36.82 267.14-55.29 257.96 9.2 285.57-64.51 552.72-64.47 202.66-9.19 110.54-55.24 248.72-18.44 64.49-18.44 230.29 0 294.78 9.19 92.13 0 211.88 0 303.99 0 285.57-73.7 331.63-101.35 515.86-9.21 110.54-9.21 230.28-18.41 294.77-9.22 64.49-18.43 156.62-110.55 193.47-8.99 4.49-17.25 8.05-24.91 10.83v59.9c19.14-6.32 49.52-17.02 117.03-33.9 0 101.32-18.42 221.09-27.65 313.19-9.2 101.36-46.05 248.74-46.05 294.8h755.37c0-27.62 0-55.28 0-92.14 9.2-46.04 0-27.62 0-73.67 27.66 9.2 82.9 18.42 101.33 27.63v82.9c73.71-18.4 36.86-27.63 101.33-73.71l36.86 9.23c18.42 55.28-46.06-18.42 27.64 36.85 9.21 9.23 0 0 18.41 9.23v-9.23s-18.41-18.42 9.22 0c18.42 0 9.2 9.23 9.2 9.23 9.22 9.2-27.62-9.23 9.22 9.2 0 0 27.64-27.66 46.07 64.48zm-1157.98-2274.04c26.25-.82 52.94-1.3 80.18-1.3-20.84-31.25-47.56-41.88-80.18-48.55zm4572-760.61v56.09c-90.24 1.73-227.27-17.18-300.42-24.51l-248.71-55.28c-101.33-9.2-64.48-9.2-73.71-27.63 46.06-27.62 202.66 0 248.73 9.23 115.52 15.38 276.1 11.48 374.11 42.1zm-4572-1263.09v-41.01l190.7-18.44c-9.18 46.05-73.67 36.82-156.59 55.26-11.88 1.4-23.21 2.79-34.11 4.19zm0-4353.67v-40.68l15.7-3.9 73.68-18.42c18.42-9.22 46.08-36.86 46.08 9.2 0 36.84-36.85 27.65-64.5 36.84-20.1 5.03-45 10.75-70.96 16.96zm0-76.53v-43.52c56.28-13.78 114.29-25.86 172.31-25.86-9.22 55.28-18.44 27.63-156.61 64.49-5.09 1.7-10.34 3.32-15.7 4.89zm946.1 8184.43c9.21-27.63 64.46-82.89 92.12-101.31l82.91-101.34c46.04-55.27 64.47-128.96 101.33-184.24 18.42-18.42 36.83-27.63 46.05-46.05 46.06-55.28-27.63-18.43 9.21-55.28 27.64-27.62 211.88-27.62 248.72-27.62 73.7 0 119.76-9.23 175.02-9.23l350.06-27.63c230.29-36.85 469.81-18.43 709.31-46.06l506.66-46.08c0 82.91 27.62 202.68-18.42 257.95-18.43 27.62-119.76 92.11-147.39 110.54 18.41-64.47 64.46-119.76 64.46-193.44-46.05 0-46.05 27.63-64.46 64.48-73.7 175.02-9.23 138.19-138.19 193.44v-46.05c18.43-18.43 18.43-18.43 27.63-46.06 27.65-36.84 36.86-55.29 27.65-92.13-27.65 9.22-27.65 18.43-46.06 36.84-18.43 46.07-55.28 119.77-92.13 138.21-27.63 9.19-36.84 0-73.69 9.19-55.27 27.65-101.33 55.27-165.8 64.48 55.27-46.05 202.65-138.16 221.07-193.43l-73.69 36.84c-18.43 9.2-18.43 27.63-27.64 9.2 36.84-27.63 82.91-64.49 82.91-119.74-36.85 0-27.63 9.21-46.07 36.84-73.68 82.9-211.87 248.72-313.2 267.14 27.63-55.26 64.48-92.11 92.14-138.16 27.62-36.85 73.67-92.12 73.67-147.41-55.28 0-101.33 82.91-147.39 165.82-46.04 64.49-73.7 138.18-156.6 156.59l36.85-92.1c18.43-64.49 147.4-202.66 128.96-239.51-46.06-18.41-92.1 82.9-138.15 119.76-18.43-9.23-27.66-18.43-46.06-27.65l-36.85 36.85c-46.06-27.63-92.14-36.85-165.81-36.85 0 27.65 0 27.65-9.23 46.08 27.63 18.42 36.86 27.62 73.68 27.62 0 73.7-46.05 82.9-55.25 138.19-36.86-9.23-9.2-9.23-46.06-18.43-9.23 36.85-9.23 9.2 0 46.04l18.4-9.19c18.46-9.22 27.66 0 36.86 27.64h-73.68c0-36.86 0-55.29 9.19-82.91 9.23-27.64 18.43-36.86 18.43-64.49 0-27.64-27.62 9.21-9.2-46.05 9.2-46.08 55.26-119.76 27.63-175.02-36.86 27.61-55.28 55.26-64.48 110.52-110.56 0-55.28 55.28-138.19 55.28v-73.69h-36.85c-9.2 36.83-27.62 46.06-27.62 101.32 0 64.49 82.9 9.23 128.95 0 82.91-9.21 27.66 73.69 27.66 119.75-82.91 0-175.04-9.2-257.94 0-73.71 18.43-147.39 18.43-230.29 18.43 27.63-36.85 55.25-55.28 82.9-82.91 27.63-46.04 9.21-92.1-36.85-36.85-82.91 110.56-101.33 128.98-202.66 128.98 46.07-64.5 147.38-82.91 165.81-147.4-175.02 36.85-165.81 165.81-377.68 165.81h9.22l239.5-147.39s9.22-9.19 9.22-18.42c9.19-18.41 9.19 0 0-9.21-9.22-27.62 9.19-18.42-18.44-18.42-9.21 9.22-27.63 18.42-36.84 18.42-18.43 18.44-18.43 27.63-46.06 36.85-36.85 27.63-64.48 36.85-110.55 64.49-46.05 36.85-101.32 46.05-147.4 73.68-36.85 18.43-36.85-27.63-55.25 36.85 175.01 0 331.63-9.21 515.85-9.21l377.7-18.41c27.62 0 82.91-18.45 110.53-18.45v36.86c-27.62 9.21-211.86 18.43-257.95 18.43-175 18.41-442.15 9.21-525.06 27.63-101.32 9.21-175.01-9.22-267.13-9.22zm-654.06 515.89c-27.63 0-73.67 9.19-101.34 18.39-18.39-82.91-36.83-423.72 0-479l27.67-27.63c0 36.86 9.19 73.69 9.19 119.77 0 36.81 18.43 82.91 18.43 119.76 0 55.24-27.62 101.29-27.62 156.57 55.24-9.23 36.85-46.05 73.67-147.39 64.48-193.45 18.42-248.71 55.28-386.9 9.2-55.26 27.65-128.96 27.65-193.44h18.4c0 423.74-101.33 589.55-101.33 819.87zm350.05-525.09c27.66-36.85 64.51-64.5 101.36-92.11 64.45-55.29 46.06-82.91 110.54-82.91l-55.29 82.91c-18.42 46.06-9.19 73.68-18.42 92.11zm1621.29-202.67c36.86 0 64.51-9.19 92.14-18.42-9.23 36.85-27.63 55.27-36.85 82.9-9.23 27.65-18.43 55.28-36.86 82.91-46.05 0-64.47-9.22-92.13 9.23 9.22-46.06 64.51-92.14 73.7-156.62zm-783-773.78c0-36.86 27.63-119.76 36.86-156.61 46.05-211.86 82.9-156.62 110.53-276.36 9.23-82.9-18.42-92.12 36.86-147.39 55.27-55.27 221.08-36.83 340.84-46.06 211.87-18.43 589.53-9.21 801.42-9.21 193.45 0 202.65 18.44 350.04 55.27 27.66 9.23 73.71 18.42 101.33 27.63 0 101.35-18.42 571.16 9.23 626.44-46.05 0-46.05-9.23-101.35-9.23-184.22 0-690.86 55.28-865.9 82.9-138.19 18.43-257.92 27.63-386.91 46.06l-285.56 46.08c-36.86 9.2-46.05 18.38-55.28 46.05 36.86 18.42 138.18-9.21 193.47-18.43 184.23-36.85 193.43-46.09 396.09-64.49 64.48-9.21 138.19-18.41 202.67-27.64l626.4-64.48c193.47-9.2 101.33 0 267.14 0 0 73.71 9.23 110.52 9.23 175.04-138.18 0-267.15 0-405.33 18.42-184.26 27.63-405.31 27.63-552.72 46.05-64.46 9.22-64.46 0-128.96 0-92.11 0-101.34 18.43-128.96-18.42 55.25 0 73.71-9.19 110.53-27.63 119.76-18.42 248.75-27.63 359.28-46.09l386.88-18.38c175.03 0 165.81 9.2 322.43 18.38-9.2-18.38 0-27.61-64.5-46.03-82.9-18.43-128.95-9.22-211.86-9.22-239.52 0-819.85 46.07-1077.8 110.54l-377.69 18.43c0-147.38-18.41-248.72-18.41-331.62zm-1022.5-1409.43c18.4-18.4 18.4-9.2 27.63-101.3 9.19-110.57 0-184.27 55.27-304.03 27.63-64.45 55.26-101.31 82.91-165.81 27.63-46.05 55.25-138.15 82.91-156.6l-18.43 211.87c-18.42 248.72-101.33 580.38-101.33 783.03 0 202.66-64.51 119.76-128.96 313.2-18.46 64.48-46.09 101.32-46.09 175.03 27.63-18.43 18.44-9.23 27.63-46.06l27.66-36.85c0 147.38-36.85 276.34-36.85 423.72 0 184.27-55.26 184.27-119.77 304l-9.19 18.43c9.19-110.54 110.52-46.06 46.05-368.48 0-55.24 0-73.69-46.05-82.9 0-211.86-18.43-294.77 64.48-432.95 101.33-147.38 101.33-184.23 101.33-396.12-36.85 9.24-27.66 0-27.66 46.07-9.19 73.69-27.63 147.4-27.63 193.45h-9.19c0-73.69 0-138.19 9.19-202.67 9.24-64.47-9.19-138.18 0-202.66 9.24-82.91 18.44-239.52 46.09-322.42 9.2-18.43 9.2-18.43 18.4-27.63 0 73.71-9.2 119.76-18.4 184.24zm-202.66 1998.97c0-119.73 18.39-119.73 36.82-184.22 18.42-55.28 27.64-128.96 36.86-184.27 9.22-64.44 18.42-138.15 27.62-193.42 9.23-36.86 36.85-128.97 73.71-138.19-18.44 46.05-9.2 27.67 9.19 64.51 9.24 36.82-18.39 221.06-18.39 257.92-18.43 138.17-110.57 552.72-119.76 617.18 0 64.49 0 119.76-9.23 175.03l-27.63 175.03c0-46.04-18.42-73.7-9.19-156.62 18.39-147.38 9.19-64.47 0-165.8zm985.66-561.91c64.48-9.2 73.69-46.06 82.91-101.34 9.2-55.25 18.4-119.76 18.4-165.81 9.23-110.54-18.4-128.95 27.65-248.72 18.42-36.85 0-46.04 46.05-46.04 0 46.04 18.44 55.25 18.44 110.53 0 110.52-64.49 239.51-64.49 497.46 0 64.45 27.64 285.55-46.05 285.55-36.86 0-36.86-18.45-64.5-36.83 0 55.24 9.22 101.29-36.83 110.52 9.2-46.06 9.2-73.69 18.42-128.96 9.2-55.27 36.84-64.47 36.84-110.55 0-101.33-36.84-27.63-36.84-165.81zm-690.89-736.96c0-46.05 0-82.9 18.42-110.53l193.44 36.85c73.71 27.63 147.41 0 165.81 55.26-82.9-18.43-239.49 18.42-377.67 18.42zm1962.11-847.49h9.23l27.62-18.42c92.14-36.85 156.61-55.25 257.94-64.48 184.23-18.43 294.79-18.43 469.8-18.43l-9.2 285.57c-202.66 0-313.21 0-515.87 18.43-92.11 9.23-202.67 9.23-285.58 18.43-248.7 27.63-764.58 9.19-893.55 27.63-230.3 55.26-442.17 64.47-681.65 82.91-46.08 0-101.33 0-147.39 0 36.83-64.5 128.96-221.1 184.21-257.92 46.08-36.87 82.9-55.29 165.83-55.29 101.32 0 101.32-36.85 175.02-36.85 156.6 0 285.59 36.85 377.69 27.65 92.09-18.42 211.85-9.23 313.19-9.23l451.41-36.82c55.24-9.23 82.91-18.45 128.95-27.66-36.86 27.66-82.9 36.86-138.18 55.29-55.28 18.42-101.33 27.62-156.59 36.82-101.35 18.46-221.11 27.65-331.65 55.28-128.95 18.43-396.09 36.85-506.63 73.7-82.91 27.63-119.77 18.44-138.19 46.06 27.63 36.85 55.28 9.23 110.54 0l211.86-46.06c101.34-18.42 211.9-18.42 303.99-36.85 147.42-27.62 267.15-27.62 442.2-73.67 46.04-9.24 92.09-27.66 138.18-27.66v46.05c64.47 36.86 36.82-36.85 147.37-36.85 46.06 0 82.91-27.63 110.56-55.25-64.5-9.2-46.08-9.2-110.56 9.2-27.65 9.23-64.47 18.42-110.55 18.42zm-1612.07-2809.6c9.23-36.86 9.23-82.9 27.63-119.75 9.23-46.05 27.65-64.49 82.9-64.49 55.3 0 55.3 9.2 36.85 73.71 0 36.83 0 64.48-9.19 92.1-27.66 184.23-46.06 350.05-82.91 543.5l-27.65 285.57c-9.2 82.9 9.23 175.03-27.63 285.57-18.43 46.04-46.04 101.33-46.04 156.58 0 101.36 18.42 18.45-9.23 193.46-9.2 64.48-18.4 119.75-36.86 175.04-36.81 156.58-46.05 110.53-64.45 156.58-9.22 18.45 9.2 128.98 9.2 184.25 0 230.3-73.71 239.5-101.33 276.35-36.85 64.48-64.48 128.98-101.33 175.04-36.86 55.24-18.43 64.46-36.86 46.04l82.91-460.58c27.65-138.19 9.23-175.03 18.43-248.73 9.22-36.85 64.47-147.38 82.9-184.24 64.48-92.09 55.28-230.28 119.77-414.52 9.22-46.05 18.42-184.26 18.42-248.71 0-27.66 36.85-202.66-64.47-147.41zm3620.27 2035.82c0 9.21 9.21 36.83 9.21 36.83l9.21-9.2zm-2035.83-230.31c175.04-36.84 359.27-46.04 543.51-64.5l285.56-18.39c0 156.6 0 64.48-257.93 119.74-46.07 9.22-92.12 18.42-128.97 27.64-147.39 18.41-221.08 9.22-414.54 36.85-119.76 18.42-147.38 46.07-294.76 46.07v-101.34zm-1234.39 119.76c9.21-9.21 0 0 18.43-9.21v-9.21l681.68-193.46c82.91-18.42 156.58-46.05 230.29-64.48-27.62 46.06-82.91 27.65-18.43 119.76-73.68 18.43-147.39 27.65-221.09 46.06-82.91 9.21-147.39 27.63-221.06 46.05-101.35 27.63-368.48 64.49-469.82 64.49zm2662.24-525.06c92.12 0 175.02-18.43 276.35-18.43h294.78c9.21 82.9 36.85 184.22 46.06 276.33l-479.03-18.39c-27.61 0-55.26 0-82.89 0s-36.86-9.24-64.49-9.24c0-92.09 9.22-138.18 9.22-230.27zm-1630.51 331.61c27.63-36.85 156.62-82.91 211.9-110.53l46.04-36.85h9.2v-9.23c27.66-9.21-9.2 9.23 18.42 0 27.63-9.21 386.91-18.39 488.24-27.63 165.83-18.43 110.53 0 276.36-36.85v119.75c-303.99 0-432.96 0-727.74 36.86-202.66 27.63-128.95 18.42-322.42 64.48zm-2054.25-211.86c0 36.86 18.43 36.86 9.22 55.25 0 9.23-18.41 18.44-27.65 82.9v55.28h18.43c0-46.05 9.22-110.53 55.28-128.95 73.68-36.86 36.84 9.21 82.91-92.14l-36.85-18.39c-18.44 36.82-18.44 73.67-82.91 73.67-9.21-27.62 0-9.19-18.43-27.62zm718.54 27.62c0-92.13 46.06-55.28 128.97-64.47 175.01-18.43 460.57-82.9 644.83-119.76 193.43-36.86 92.1-55.26 303.97 9.2 64.5 18.45 119.76 18.45 138.18 46.08-46.05 9.2-82.91 18.43-147.39 27.62-46.04 9.2-101.33 0-156.61 9.2l-294.76 36.85c-101.33 9.24-211.87 18.43-313.21 27.66-101.32 9.19-202.67 27.62-303.98 27.62zm1096.22-285.57c27.63-18.42-9.22 0-9.22 0-9.23 27.63 9.22 0 9.22 0zm-939.63 82.91c92.12 0-9.2 18.43 147.39-9.2l598.78-92.13c202.66-36.85 101.33-9.2 230.28-9.2 165.84 0 92.14-9.23 82.91 110.53-73.68 0-101.33 0-156.58-18.43 9.19-18.4 18.4-27.62 27.63-55.25-18.44 18.4-46.08 46.06-73.71 46.06-36.83 0-55.28-18.43-110.53-18.43l-230.31 36.85c-64.45 18.43-138.17 27.63-211.85 36.83-73.71 9.23-138.19 27.66-211.89 36.85l-230.3 18.43v-27.62c0-36.86 119.76-55.29 138.18-55.29zm764.59-893.55c0-82.9 18.43-193.45 55.28-267.13 18.4-18.44 27.63-36.86 64.46-36.86 92.12 0 101.35 221.09 101.35 322.43-46.05 9.19-147.41 46.05-202.66 18.41-9.23-9.22-18.43-18.41-18.43-36.85zm-211.89 36.85c0-36.85 9.24-147.39 9.24-184.23 9.19-36.86 55.27-101.33 92.09-101.33 64.48 0 46.09 0 64.48 46.05 9.23 27.63 9.23 36.86 9.23 64.48 0 175.03 9.23 147.4-73.71 165.81-46.05 9.22-46.05 9.22-101.33 9.22zm1031.74-55.27c0 36.86-36.85 27.64-73.68 36.86-36.84 18.41-193.45 64.47-184.26-64.51 9.24-73.68 46.09-221.06 128.99-276.33 73.68 18.41 73.68 55.27 92.1 128.95 9.23 55.27 36.85 64.48 36.85 175.03zm-1473.9 147.4c-18.42-202.67 36.85-156.61 119.76-193.45 0 92.1-46.06 138.17-9.2 193.45h-27.65-55.26zm294.78-82.91c27.63-55.28 18.43-110.54 64.48-175.04 18.42 9.22 27.65 9.22 55.28 9.22l-9.22 147.38c-46.06 0-73.68 9.22-110.54 18.44zm617.22-165.82c0-55.28 64.45-211.87 119.75-211.87 73.69 0 138.16 221.08 138.16 285.55 0 55.29-73.7 82.92-119.76 82.92-119.75 0-138.15-46.06-138.15-156.6zm607.98 0c0-221.1 128.95-239.5 175-110.53 27.65 92.1 27.65 138.16 36.86 193.44 18.42 36.84 36.85 73.69-110.55 73.69-138.16 0-92.12-82.92-92.12-110.54 0-9.21-9.19-27.64-9.19-46.06zm-1602.89 101.33c0-55.27 0-92.12 9.23-138.18 0-46.06 9.21-101.34 9.21-138.17 0-101.33 9.22-175.03 9.22-276.35h18.41c0 55.27 0 92.12 9.21 138.17 9.21 82.91 36.86 294.77 101.33 340.83 9.21-27.63 0-18.42 27.64-36.85l36.85 36.85c9.21-9.21 9.21 0 9.21 0-46.06 0-92.12 27.65-138.17 0-9.23 64.49-27.65 27.65-92.14 73.7zm2146.37-55.27c18.42 46.06 18.42 92.13 27.65 138.18-156.61 0-119.75-193.46-119.75-193.46 9.19-9.21 55.25-9.21 92.1 55.28zm-294.77-138.18c9.2-9.22 46.06-36.84 64.48-36.84 73.69 0 92.11 138.17 101.33 202.64 9.2 27.65 18.41 46.07 27.63 73.7-46.05 18.44-128.96 27.64-165.82 0-18.42-18.41-36.83-147.38-36.83-156.6 0-18.41 9.21-46.06 9.21-82.9zm-1630.5 285.57c0-55.26 27.63-119.77 64.47-147.39 27.64-46.06 55.28-36.85 128.98-73.69 0 0-46.08 101.31-64.49 184.23-18.42 46.06 0 36.85-128.96 36.85zm2616.17-865.92c36.85-46.05 119.75-9.2 248.71-138.16 55.28-55.28 92.13-110.56 110.54-184.27 0-27.62 0-55.24 18.42-73.67 0 55.28 18.44 92.1 18.44 156.58l9.21 276.38c-36.85 0-64.48-9.21-101.33-9.21zm-46.05-1934.49c-9.22 36.85 0 36.85-36.86 46.09-9.2-36.85-27.65-64.52-36.85-110.57-9.2-36.85-18.43-73.7-18.43-119.75-18.43-193.46 9.23-313.22-27.63-525.08-36.85-156.62-55.28-156.62-64.47-211.86 9.19 9.2 0 0 9.19 18.43l82.91 92.1c27.63 36.85 64.48 73.7 92.14 110.54 175 267.14 165.8 294.79 239.5 571.14 73.68 239.49 92.11 506.66 36.85 755.38-36.85 147.38-92.13 267.14-110.55 331.62h-18.43c-9.22-138.17-18.43-82.91 27.63-221.1 9.22-27.62 9.22-27.62 9.22-55.28 27.63-92.09 64.48-377.66 18.44-442.15l-46.07 414.53v9.23l-9.22 9.2c0-64.47-18.43-128.96-46.04-175.01-18.43-46.08-9.24-36.85-18.43-92.13-18.43-101.33 36.86-239.52 46.04-359.24l-9.18-73.71h-9.24c0-9.23 0-9.23 0-9.23-9.19 46.09-9.19 92.12-27.62 138.18-9.22 46.05-27.66 92.1-27.66 128.95-27.62-18.4-18.39-18.4-27.62-55.25-27.62-147.41 73.71-285.56 0-386.91-18.43 73.7 18.43 82.92-27.62 211.88z"/><path d="m2530.53 5269.84v46.06c-36.84 0-55.27-18.42-110.54-36.85-36.85-18.42-55.27-55.27-92.12-64.48-18.42 9.21-27.63 18.43-46.06 36.85-46.06 36.85-110.54 92.12-147.39 101.33-55.27-101.33 9.22-119.75 55.27-193.45 110.55-202.66 27.64-368.47-147.38-488.23-46.06-36.85-64.49-64.48-101.34-46.06 18.43 64.49 248.72 138.18 248.72 322.42 0 110.54-138.17 350.05-276.35 175.02-36.85-64.48-55.27-128.96-110.54-175.02-92.12-101.33-184.24-92.12-313.21-92.12-82.9 0-313.2 138.18-460.59 184.24-64.48 27.63-101.33 36.84-156.6 82.9-18.42 9.22-27.64 18.43-46.06 36.85-46.06 36.85-110.54 147.39-110.54 221.09 0 55.27 46.06 119.75 64.48 165.81 36.85 110.54 46.06 313.2 82.91 377.68 9.21 27.64 9.21 18.43 18.42 36.85 18.43 18.43 18.43 18.43 27.64 36.85 27.63 46.06 46.06 18.42 55.27 64.48-36.85-9.21-55.27-46.06-82.91-64.48 0 46.06 36.85 82.91 82.91 101.33 175.02 82.91 377.68 0 543.5-73.69 55.27-27.64 110.54-55.28 156.6-92.12 110.54-64.49 36.85-27.64 165.81-92.12 18.43-9.21 46.06-36.85 64.49-55.27 36.84-18.43 46.05-36.85 73.69-55.27 175.03-184.24 64.48-230.3 257.93-368.48 36.85-27.63 27.64-46.06 82.91-46.06-9.21 101.33-64.48 156.6-64.48 193.45 46.06 0 18.42-9.21 27.63 18.42h18.43c0-36.84 18.42-73.69 36.84-110.54 9.21-55.27 9.21-73.69 36.85-110.54 64.48 9.21 82.91 55.27 101.33 110.54l64.48 156.6c-9.21-27.63-18.42-64.48-27.63-92.11-9.21-46.06-9.21-64.49-18.43-101.33 46.06 9.21 73.7 82.9 82.91 128.96 18.42 82.91 18.42 92.12 64.48 147.39 46.06 36.85 73.7 55.27 128.97 82.91 156.6 92.12 211.87 156.6 414.53 230.29 156.6 55.28 414.54 119.76 561.93 27.64 110.54-73.7 119.75-248.72 119.75-377.69 0-82.9 0-175.02 0-257.93-110.54 73.7 92.12 644.83-285.57 644.83-119.75 0-211.87 0-313.2-36.85l-184.24-73.69c-18.42-18.42-9.21-9.21-18.42-18.42 36.85 0 55.27 9.21 82.91 18.42 147.39 46.06 469.8 119.75 580.34-36.85 119.76-165.81 55.27-239.51 55.27-396.11 0-128.96 55.28-267.14-27.63-405.32-36.85-73.69-138.18-184.24-211.87-230.3-147.39-82.9-663.26-193.45-829.07 64.49-64.48 101.33-36.85 331.62-156.6 248.72-92.12-55.27-138.18-175.03-119.76-285.57 18.43-101.33 128.97-193.45 193.45-248.72 73.7-64.48 221.09-119.75 322.42-128.97v-18.42c-156.6-36.85-635.62 211.87-552.71 552.71 27.63 156.6 138.17 184.24 138.17 257.93z"/><path d="m1913.34 6375.27c0 294.77 193.45 359.26 350.05 239.5 27.64-18.42 73.69-82.9 82.91-119.75h18.42c9.21 36.85 55.27 92.12 82.91 110.54 92.12 82.91 211.87 82.91 276.35 0 64.49-82.9 64.49-221.08 9.21-322.41-64.48-138.18-221.08-690.89-359.26-690.89-64.48 0-55.27 46.06-92.12 73.69 0-36.84-9.21-46.06-27.63-73.69-46.06 9.21-55.27 18.42-82.91 55.27-119.75 239.51-101.33 267.14-193.45 506.65-18.42 64.48-64.48 147.39-64.48 221.09z"/><path d="m2788.47 6209.45c82.9-9.21 36.84-55.27 175.02-55.27 101.33 0 221.09 92.12 276.36 175.03-27.64 36.84-36.85 27.63-64.49 64.48-36.84 55.27-119.75 221.08-119.75 285.57 0 165.81-9.21 128.96 73.69 285.56 18.43 55.28 46.06 147.39 82.91 175.03-9.21-128.97-119.75-276.36-119.75-350.05 0-202.66 64.48-276.36 138.17-405.32 36.85 27.63 55.28 82.9 101.33 92.12-27.63 36.84-64.48 64.48-92.11 101.33-18.43 27.63-55.27 92.11-55.27 138.17l18.42-46.06c55.27-110.54 119.75-175.02 239.51-211.87 101.33-46.06 276.35-18.42 350.05-36.85 55.27-9.21 64.48-18.42 101.33-27.63v-18.42c-46.06 0-92.12 18.42-138.18 18.42-27.64 0-46.06 0-73.69 0-101.33 9.21-248.72 18.42-331.63 64.48-18.43-55.27-138.18-92.12 36.85-175.02 55.27-18.43 92.11-18.43 101.33-73.7-73.7 0-110.55 64.49-211.88 64.49-73.69 0-193.45-294.78-442.17-119.76-27.63 18.42-36.84 27.64-46.05 55.27z"/><path d="m1369.84 6522.66c92.12-9.22 92.12-221.09 313.2-175.03 156.6 36.85 101.33 119.75 64.49 248.72-18.43 55.27-18.43 55.27-46.06 110.54l-9.22 9.21v9.22c-9.21-27.64-18.42-64.49-36.84-82.91-18.43-18.42 0-9.21-27.64-18.42 92.12 175.02-9.21 313.2-9.21 414.53l64.48-138.18c27.64-73.69 147.39-423.74 147.39-460.59 0-46.06-64.48-147.39-193.45-147.39-64.48 0-128.96 27.63-175.02 82.91-36.85 27.63-82.91 101.33-92.12 147.39z"/></g><g fill="#770ba0" fill-rule="nonzero"><path d="m994.67 829.67c105.6-7.33 237.91-14.34 342.35 27.59 82.87 45.72-107.68 64.71-139.02 67.77-106.26 7.47-237.86 14.17-343.03-27.45-81.85-46.03 108.44-64.81 139.7-67.91z"/><path d="m1353.62 838.13c45.47 3.34 347.97 23.57 289.78 73.24-121.19 55.25-327.28 32.13-452.31 25.12-45.33-3.31-347.25-23.57-289.09-73.21 120.15-55.28 327.5-32.13 451.62-25.15z"/><path d="m1177.95 831.05c.18 0 222.89 8.25 132.79 115.27-87.28 88.04-250.48 100.66-342.35 97.12-.05 0-223.73-8.12-133.48-115.28 87.18-88.13 251.21-100.66 343.04-97.11z"/><path d="m1174.49 903.01c435.63 35.75 888.99 51.09 1322.35 140.43 88.07 33.37-892.47-133.79-1251.81-179.47-23.51 13.04-47.03 26.04-70.54 39.04z"/><path d="m1139.22 886.64c279.25 5.5 567.63-1.82 845.83 32.65 45.85 14.62-532.92-39.43-771.83-52.6-24.67 6.64-49.33 13.31-74 19.95z"/><path d="m1067.98 1070.79c0-5.2 26.55-5.75 28.36-5.75 1.87 0 29.05.62 29.05 5.75 0 5.09-27.18 5.71-29.05 5.71-1.81 0-28.36-.55-28.36-5.71z"/><path d="m2575 1082.11c0-5.06 27.17-5.61 29.04-5.61 1.81 0 28.36.51 28.36 5.61 0 5.16-26.55 5.74-28.36 5.74-1.87 0-29.04-.62-29.04-5.74z"/></g><path d="m813.47 956.78h1818.93" fill="none"/><g fill-rule="nonzero"><g fill="#2f2f2f"><path d="m1377.14 205.87c36.36-32.19 76.4-48.36 120.61-48.36h12.65c4 0 8.8.48 14.57 1.28 2.24 4.97 4.01 10.57 5.61 17.3 1.61 6.56 2.41 12.49 2.41 17.77 0 5.29-.96 9.77-2.73 13.29-18.1-13.29-38.92-19.85-62.31-19.85-24.83 0-47.09 6.08-66.79 18.25-19.54 12.17-33.31 23.22-41 33.15-7.85 9.93-13.46 20.97-17.3 33.14-3.68 12.01-6.24 22.58-7.68 31.39-1.29 8.81-1.93 16.65-1.93 23.22 0 37.63 19.7 73.5 58.94 108.09 36.68 28.66 73.36 57.32 110.04 86.15 39.88 35.71 59.74 74.14 59.74 115.29v17.13c-1.28 5.77-3.68 18.42-7.21 38.12-3.68 19.69-16.81 43.71-39.88 71.89-22.9 28.35-52.53 45.96-88.73 53.01-2.72.96-7.21 1.76-13.93 2.4-6.58.64-12.98.96-19.23.96-20.65 0-39.88-3.68-57.65-11.21-17.63-7.37-35.88-17.93-54.95-31.55 7.54-12.17 13.3-20.65 17.47-25.3 4.32-4.64 8.8-6.88 13.61-6.88 1.76 0 4.8.8 9.28 2.56 28.2 28.98 63.92 43.56 107.16 43.56h9.93c5.28-.96 18.74-2.73 40.68-5.61 21.79-2.88 36.36-16.49 43.57-40.83 7.37-24.34 11.54-40.19 12.98-47.72 1.28-7.53 1.92-14.73 1.92-21.94 0-34.43-15.7-66.45-46.93-96.08-31.71-24.66-64.71-51.24-98.83-79.58-34.12-28.18-55.09-56.37-62.78-84.23-7.7-27.7-11.54-52.68-11.54-74.78 0-26.58 4.8-50.76 14.26-72.7 9.45-21.78 24.82-42.27 45.97-61.33z"/><path d="m1706.77 557.2c12.33 0 23.06 6.08 32.03 18.09 9.13 12.17 17.78 23.86 26.1 35.39-7.04 2.24-16.97-.48-29.94-8.33-13.14-7.68-22.43-11.53-28.19-11.53-17.14 0-32.2 1.44-45.01 4.33-12.82 2.88-25.47 10.41-38.28 22.42s-19.23 27.7-19.23 47.23c0 9.45 3.69 23.54 11.22 42.44 7.53 18.89 23.22 36.19 47.09 51.72 23.7 15.53 43.89 24.82 60.54 28.02 16.5 3.05 26.43 4.65 29.95 4.65 10.73 0 19.87-3.85 27.56-11.69 7.68-7.85 14.25-14.57 19.53-20.02-2.72 17.62-10.89 32.19-24.82 43.88-13.94 11.69-29.95 17.61-48.06 17.61-63.1 0-102.5-17.93-118.35-53.96-15.87-35.87-23.87-59.89-23.87-71.9 0-10.57 1.6-21.3 4.96-31.87 3.36-10.73 11.05-25.94 23.23-45.95 12.01-20.02 26.1-35.07 42.28-45.16 16.02-10.25 33.15-15.37 51.26-15.37z"/><path d="m1958.71 558.64c6.56-2.24 13.94-3.37 21.79-3.37 8.48 0 16.65 1.93 24.82 5.61s21.78 14.25 40.84 31.71c18.91 17.29 31.4 52.36 37.48 105.2 5.93 52.68 10.9 86.63 14.9 101.52l22.42 11.37c-4.8 3.04-12.01 5.13-21.46 6.57-9.45 1.28-19.06 1.92-28.83 1.92-5.76 0-11.53 0-17.29 0-5.78 0-11.22-.32-16.51-.64 8.01 0 13.61-2.72 16.83-8.01 3.36-5.28 4.96-12.01 4.96-20.33 0-5.77-.32-11.85-1.12-18.26-.8-6.4-1.44-12.49-1.76-18.09-1.76-4.33-4.66-6.41-8.66-6.41-4.48 0-9.13 1.92-13.93 5.93-18.09 19.21-39.08 35.54-63.11 49.32-23.86 13.77-46.45 20.65-67.59 20.65-12.5 0-24.83-3.04-37.16-9.29-12.49-6.08-22.1-13.61-28.99-22.57-6.89-8.81-10.25-20.02-10.25-33.79 0-13.13 3.68-24.98 11.21-35.39s18.59-19.54 32.84-27.38c14.41-8.01 30.91-14.57 49.81-19.54 18.74-5.12 37.8-7.68 57.18-7.68 10.25 0 19.54.64 27.87 1.92 8.49 1.12 17.3 3.36 26.59 6.72 4-4 5.92-8.8 5.92-14.57 0-3.52-1.28-8.01-4-13.29-2.56-5.28-7.69-16.49-15.21-33.79-7.54-17.13-27.23-25.78-58.95-25.78-14.57 0-27.06 3.04-37.48 9.29-10.41 6.24-24.02 16.33-40.84 30.1 7.2-16.33 17.14-30.58 29.95-42.43 12.81-12.01 28.67-21.14 47.73-27.22zm55.42 125.38c-13.3-5.77-27.87-8.65-43.73-8.65-20.34 0-39.4 4.33-57.34 13.13-17.77 8.81-29.79 18.42-35.72 28.67-5.92 10.4-8.96 18.41-8.96 24.18 0 7.04 1.76 13.45 5.28 19.37 3.52 5.93 10.25 13.93 20.19 23.7 9.92 9.93 22.25 14.89 36.83 14.89 4.33 0 13.3-1.6 26.75-4.64s31.23-13.13 53.01-30.27c21.95-17.13 32.84-33.94 32.84-50.12 0-3.04-.8-6.88-2.24-11.21-1.61-4.48-4.49-8-8.65-10.56-4.16-2.57-10.25-5.45-18.26-8.49z"/><path d="m2103.99 164.08c11.05-1.76 26.9-3.21 47.73-4.65 20.81-1.28 47.88-1.92 81.52-1.92-.96 4.01-7.2 6.89-19.22 8.65-11.85 1.76-17.78 7.04-17.78 15.85 0 61.49.16 123.14.32 184.63s.48 130.67.96 207.69.64 131.95.64 164.61c0 16.02 1.93 28.83 5.61 38.6 3.68 9.6 12.18 16.33 25.47 19.85 6.56.8 13.45-.96 20.82-5.44 7.21-4.65 14.26-9.13 20.82-13.77.8 1.28 1.28 3.52 1.28 6.72 0 6.73-4 12.65-12.17 17.62-8.17 4.96-15.54 9.28-21.78 13.13-6.41 3.84-14.9 5.76-25.47 5.76-5.29 0-10.41-.48-15.22-1.28-4.8-.96-11.69-2.72-20.49-5.28l-10.58-13.3-19.22-488.71-5.28-129.39c-1.76-7.52-6.73-12.17-14.74-13.93-7.85-1.76-15.7-3.68-23.22-5.44z"/><path d="m2428.01 558.64c6.56-2.24 13.93-3.37 21.78-3.37 8.49 0 16.66 1.93 24.83 5.61 8.16 3.68 21.77 14.25 40.84 31.71 18.9 17.29 31.4 52.36 37.48 105.2 5.93 52.68 10.89 86.63 14.89 101.52l22.43 11.37c-4.8 3.04-12.02 5.13-21.47 6.57-9.44 1.28-19.05 1.92-28.82 1.92-5.77 0-11.54 0-17.3 0-5.77 0-11.21-.32-16.5-.64 8.01 0 13.61-2.72 16.82-8.01 3.36-5.28 4.96-12.01 4.96-20.33 0-5.77-.32-11.85-1.12-18.26-.8-6.4-1.44-12.49-1.76-18.09-1.76-4.33-4.65-6.41-8.65-6.41-4.48 0-9.13 1.92-13.93 5.93-18.1 19.21-39.08 35.54-63.11 49.32-23.87 13.77-46.45 20.65-67.6 20.65-12.49 0-24.82-3.04-37.16-9.29-12.49-6.08-22.09-13.61-28.98-22.57-6.89-8.81-10.26-20.02-10.26-33.79 0-13.13 3.69-24.98 11.22-35.39s18.58-19.54 32.84-27.38c14.41-8.01 30.9-14.57 49.81-19.54 18.73-5.12 37.8-7.68 57.17-7.68 10.25 0 19.55.64 27.88 1.92 8.48 1.12 17.29 3.36 26.59 6.72 4-4 5.92-8.8 5.92-14.57 0-3.52-1.28-8.01-4-13.29-2.56-5.28-7.7-16.49-15.22-33.79-7.53-17.13-27.22-25.78-58.94-25.78-14.58 0-27.07 3.04-37.48 9.29-10.41 6.24-24.03 16.33-40.84 30.1 7.2-16.33 17.13-30.58 29.95-42.43 12.81-12.01 28.66-21.14 47.73-27.22zm55.41 125.38c-13.29-5.77-27.87-8.65-43.72-8.65-20.34 0-39.4 4.33-57.34 13.13-17.78 8.81-29.79 18.42-35.72 28.67-5.92 10.4-8.96 18.41-8.96 24.18 0 7.04 1.76 13.45 5.28 19.37 3.52 5.93 10.25 13.93 20.18 23.7 9.92 9.93 22.26 14.89 36.84 14.89 4.32 0 13.29-1.6 26.75-4.64 13.45-3.04 31.23-13.13 53.01-30.27 21.95-17.13 32.84-33.94 32.84-50.12 0-3.04-.8-6.88-2.24-11.21-1.61-4.48-4.49-8-8.65-10.56-4.17-2.57-10.26-5.45-18.27-8.49z"/><path d="m2698.85 596.75c8.49-9.29 19.22-17.46 32.51-24.82 13.3-7.21 25.63-10.89 37.16-10.89 9.29 0 17.15 2.4 23.87 7.37 6.57 4.8 11.05 10.56 13.61 16.97 2.4 6.4 3.53 10.41 3.53 12.01v4.32c0 7.53-2.57 14.57-7.85 21.3-5.45 6.57-11.85 11.21-19.38 13.93-1.77-1.28-7.21-9.45-16.18-24.34-9.13-14.73-18.25-21.14-27.71-18.89-21.62 5.76-36.35 20.01-44.05 43.07-7.84 22.9-11.69 51.08-11.69 84.71 0 13.61.16 26.58.64 38.75.48 12.01.8 23.86 1.28 35.39 1.29 5.28 7.69 8.65 19.07 10.25 11.37 1.44 17.45 2.56 18.41 2.88v12.65l-102.82-.64c0-5.28 4.96-10.25 14.89-14.57 9.93-4.49 14.9-10.57 14.9-18.58v-162.85c0-9.29-4.81-13.93-14.58-13.93-3.04 0-6.56.32-10.41.8-4 .32-6.25.64-6.73.64l-1.92-13.29c12.02-5.28 24.67-11.85 38.12-19.38 13.46-7.52 25.95-15.05 37.48-22.73 1.76 3.68 2.56 8.32 2.56 14.09 0 4.8.16 9.61.32 14.25.32 4.64 1.92 8.49 4.97 11.53z"/><path d="m2884 518.28c3.85-3.52 8.81-14.41 14.89-32.66 5.94-18.26 14.27-27.38 24.83-27.38 4.81 0 10.57 1.28 17.14 4 0 10.25-2.56 21.14-7.53 32.99-5.12 11.85-12.33 21.29-21.62 28.34-1.76-.48-5.92-.96-12.5-1.28-6.72-.48-11.69-1.76-15.21-4.01zm33 40.84c.48 40.51 1.12 81.02 2.08 121.7.8 40.67 1.92 68.53 3.36 83.74 1.28 15.06 4.65 23.86 10.25 26.27 5.45 2.4 12.18 3.68 20.19 3.68 8.81 0 15.85-.64 21.14-1.92v6.08c-12.33 7.37-26.75 12.81-43.41 16.66-16.49 3.84-32.84 5.76-48.69 5.92-2.56-11.05-4.48-22.26-5.6-33.47-1.13-11.21-1.61-24.66-1.61-40.03 0-8.01.16-20.18.64-36.83.49-16.49.65-28.66.65-36.67v-8.65c0-21.61-1.13-37.95-3.37-48.84-2.24-11.04-6.08-16.65-11.86-16.65-2.72 0-6.72.64-12.33 1.76-5.44.96-8.64 1.6-9.6 1.6-5.77 0-9.93-2.08-12.49-5.92 13.61-4.96 27.38-9.77 41-14.57 14.09-6.25 27.22-14.09 39.08-23.86z"/><path d="m3129.38 558.64c6.56-2.24 13.93-3.37 21.79-3.37 8.48 0 16.65 1.93 24.82 5.61 8.16 3.68 21.78 14.25 40.84 31.71 18.91 17.29 31.4 52.36 37.48 105.2 5.93 52.68 10.89 86.63 14.9 101.52l22.42 11.37c-4.8 3.04-12.01 5.13-21.46 6.57-9.45 1.28-19.06 1.92-28.83 1.92-5.76 0-11.53 0-17.3 0s-11.21-.32-16.5-.64c8.01 0 13.61-2.72 16.82-8.01 3.37-5.28 4.97-12.01 4.97-20.33 0-5.77-.32-11.85-1.12-18.26-.8-6.4-1.44-12.49-1.76-18.09-1.77-4.33-4.66-6.41-8.66-6.41-4.48 0-9.13 1.92-13.93 5.93-18.09 19.21-39.08 35.54-63.11 49.32-23.86 13.77-46.45 20.65-67.59 20.65-12.5 0-24.83-3.04-37.16-9.29-12.49-6.08-22.1-13.61-28.99-22.57-6.89-8.81-10.25-20.02-10.25-33.79 0-13.13 3.68-24.98 11.21-35.39s18.59-19.54 32.84-27.38c14.41-8.01 30.91-14.57 49.81-19.54 18.74-5.12 37.8-7.68 57.18-7.68 10.25 0 19.54.64 27.87 1.92 8.48 1.12 17.3 3.36 26.59 6.72 4-4 5.92-8.8 5.92-14.57 0-3.52-1.28-8.01-4-13.29-2.56-5.28-7.69-16.49-15.21-33.79-7.54-17.13-27.23-25.78-58.95-25.78-14.57 0-27.07 3.04-37.48 9.29-10.41 6.24-24.02 16.33-40.84 30.1 7.2-16.33 17.14-30.58 29.95-42.43 12.81-12.01 28.67-21.14 47.73-27.22zm55.41 125.38c-13.29-5.77-27.86-8.65-43.72-8.65-20.34 0-39.4 4.33-57.34 13.13-17.77 8.81-29.79 18.42-35.72 28.67-5.92 10.4-8.96 18.41-8.96 24.18 0 7.04 1.76 13.45 5.28 19.37 3.52 5.93 10.25 13.93 20.19 23.7 9.92 9.93 22.25 14.89 36.83 14.89 4.33 0 13.3-1.6 26.75-4.64s31.23-13.13 53.01-30.27c21.95-17.13 32.84-33.94 32.84-50.12 0-3.04-.8-6.88-2.24-11.21-1.61-4.48-4.49-8-8.65-10.56-4.16-2.57-10.25-5.45-18.27-8.49z"/></g><g fill="#770ba0"><path d="m1377.14 195.74c36.36-32.19 76.4-48.36 120.61-48.36h12.65c4 0 8.81.48 14.58 1.28 2.24 4.97 4 10.57 5.6 17.3 1.61 6.56 2.41 12.49 2.41 17.77 0 5.29-.96 9.77-2.73 13.29-18.1-13.29-38.92-19.85-62.31-19.85-24.82 0-47.09 6.08-66.78 18.25-19.55 12.17-33.32 23.22-41 33.15-7.86 9.93-13.47 20.97-17.31 33.14-3.68 12.01-6.24 22.58-7.68 31.39-1.29 8.81-1.93 16.65-1.93 23.22 0 37.63 19.71 73.5 58.94 108.09 36.68 28.66 73.36 57.32 110.04 86.15 39.88 35.71 59.75 74.14 59.75 115.29v17.13c-1.28 5.77-3.68 18.42-7.22 38.12-3.68 19.69-16.81 43.71-39.87 71.89-22.91 28.35-52.54 45.96-88.74 53.01-2.72.96-7.21 1.76-13.93 2.4-6.57.64-12.97.96-19.23.96-20.65 0-39.87-3.68-57.65-11.21-17.62-7.37-35.88-17.93-54.94-31.55 7.53-12.17 13.29-20.65 17.46-25.3 4.32-4.64 8.8-6.88 13.61-6.88 1.77 0 4.81.8 9.29 2.56 28.19 28.98 63.91 43.56 107.15 43.56h9.94c5.28-.96 18.73-2.73 40.68-5.61 21.78-2.88 36.36-16.49 43.57-40.83 7.36-24.34 11.53-40.19 12.97-47.72 1.28-7.53 1.92-14.73 1.92-21.94 0-34.43-15.69-66.45-46.93-96.08-31.71-24.66-64.71-51.24-98.83-79.58-34.11-28.18-55.09-56.37-62.78-84.23-7.69-27.7-11.53-52.68-11.53-74.78 0-26.58 4.8-50.76 14.25-72.7 9.45-21.78 24.83-42.27 45.97-61.33z"/><path d="m1706.77 547.07c12.34 0 23.06 6.08 32.03 18.09 9.13 12.17 17.78 23.86 26.11 35.39-7.04 2.24-16.98-.48-29.95-8.33-13.13-7.68-22.43-11.53-28.19-11.53-17.14 0-32.2 1.44-45.01 4.33-12.81 2.88-25.46 10.41-38.28 22.42-12.81 12.01-19.22 27.7-19.22 47.23 0 9.45 3.69 23.54 11.21 42.44 7.53 18.89 23.23 36.19 47.09 51.72 23.71 15.53 43.89 24.82 60.55 28.02 16.49 3.05 26.42 4.65 29.94 4.65 10.74 0 19.87-3.85 27.56-11.69 7.68-7.85 14.25-14.57 19.54-20.02-2.72 17.62-10.9 32.19-24.83 43.88s-29.95 17.61-48.05 17.61c-63.11 0-102.51-17.93-118.36-53.96-15.87-35.87-23.87-59.89-23.87-71.9 0-10.57 1.6-21.3 4.96-31.87 3.36-10.73 11.06-25.94 23.23-45.95 12.01-20.02 26.11-35.07 42.28-45.16 16.02-10.25 33.16-15.37 51.26-15.37z"/><path d="m1958.71 548.51c6.57-2.24 13.94-3.37 21.79-3.37 8.48 0 16.65 1.93 24.83 5.61 8.16 3.68 21.77 14.25 40.84 31.71 18.9 17.29 31.39 52.36 37.48 105.2 5.93 52.68 10.89 86.63 14.89 101.52l22.43 11.37c-4.81 3.04-12.02 5.13-21.47 6.57-9.44 1.28-19.05 1.92-28.83 1.92-5.76 0-11.53 0-17.29 0-5.77 0-11.21-.32-16.51-.64 8.02 0 13.62-2.72 16.83-8.01 3.36-5.28 4.96-12.01 4.96-20.33 0-5.77-.32-11.85-1.12-18.26-.8-6.4-1.44-12.49-1.76-18.09-1.76-4.33-4.65-6.41-8.65-6.41-4.48 0-9.14 1.92-13.94 5.93-18.09 19.21-39.08 35.54-63.1 49.32-23.87 13.77-46.45 20.65-67.6 20.65-12.49 0-24.83-3.04-37.16-9.29-12.49-6.08-22.09-13.61-28.99-22.57-6.89-8.81-10.25-20.02-10.25-33.79 0-13.13 3.68-24.98 11.21-35.39 7.54-10.41 18.59-19.54 32.84-27.38 14.42-8.01 30.91-14.57 49.82-19.54 18.73-5.12 37.79-7.68 57.17-7.68 10.25 0 19.54.64 27.88 1.92 8.48 1.12 17.29 3.36 26.58 6.72 4-4 5.92-8.8 5.92-14.57 0-3.52-1.28-8.01-4-13.29-2.56-5.28-7.69-16.49-15.21-33.79-7.53-17.13-27.23-25.78-58.94-25.78-14.58 0-27.07 3.04-37.48 9.29-10.42 6.24-24.03 16.33-40.84 30.1 7.2-16.33 17.13-30.58 29.94-42.43 12.82-12.01 28.67-21.14 47.73-27.22zm55.42 125.38c-13.29-5.77-27.87-8.65-43.72-8.65-20.35 0-39.4 4.33-57.35 13.13-17.77 8.81-29.78 18.42-35.72 28.67-5.92 10.4-8.96 18.41-8.96 24.18 0 7.04 1.76 13.45 5.28 19.37 3.52 5.93 10.26 13.93 20.19 23.7 9.92 9.93 22.25 14.89 36.84 14.89 4.32 0 13.29-1.6 26.74-4.64 13.46-3.04 31.23-13.13 53.02-30.27 21.94-17.13 32.84-33.94 32.84-50.12 0-3.04-.8-6.88-2.24-11.21-1.62-4.48-4.5-8-8.66-10.56-4.16-2.57-10.25-5.45-18.26-8.49z"/><path d="m2103.99 153.95c11.05-1.76 26.91-3.21 47.73-4.65 20.82-1.28 47.88-1.92 81.52-1.92-.96 4.01-7.2 6.89-19.21 8.65-11.85 1.76-17.79 7.04-17.79 15.85 0 61.49.16 123.14.32 184.63s.48 130.67.96 207.69.64 131.95.64 164.61c0 16.02 1.93 28.83 5.62 38.6 3.68 9.6 12.17 16.33 25.46 19.85 6.56.8 13.46-.96 20.83-5.44 7.2-4.65 14.25-9.13 20.81-13.77.8 1.28 1.28 3.52 1.28 6.72 0 6.73-4 12.65-12.17 17.62-8.16 4.96-15.53 9.28-21.78 13.13-6.41 3.84-14.9 5.76-25.46 5.76-5.29 0-10.41-.48-15.23-1.28-4.8-.96-11.69-2.72-20.49-5.28l-10.57-13.3-19.23-488.71-5.28-129.39c-1.76-7.52-6.73-12.17-14.73-13.93-7.86-1.76-15.71-3.68-23.23-5.44z"/><path d="m2428.01 548.51c6.56-2.24 13.93-3.37 21.79-3.37 8.48 0 16.65 1.93 24.82 5.61 8.16 3.68 21.78 14.25 40.84 31.71 18.91 17.29 31.4 52.36 37.48 105.2 5.93 52.68 10.89 86.63 14.9 101.52l22.42 11.37c-4.8 3.04-12.01 5.13-21.46 6.57-9.45 1.28-19.06 1.92-28.83 1.92-5.76 0-11.53 0-17.3 0s-11.21-.32-16.5-.64c8.01 0 13.61-2.72 16.82-8.01 3.37-5.28 4.97-12.01 4.97-20.33 0-5.77-.32-11.85-1.12-18.26-.8-6.4-1.44-12.49-1.76-18.09-1.77-4.33-4.66-6.41-8.66-6.41-4.48 0-9.13 1.92-13.93 5.93-18.1 19.21-39.08 35.54-63.11 49.32-23.86 13.77-46.45 20.65-67.59 20.65-12.5 0-24.83-3.04-37.16-9.29-12.5-6.08-22.1-13.61-28.99-22.57-6.89-8.81-10.25-20.02-10.25-33.79 0-13.13 3.68-24.98 11.21-35.39s18.59-19.54 32.84-27.38c14.41-8.01 30.91-14.57 49.81-19.54 18.74-5.12 37.8-7.68 57.18-7.68 10.25 0 19.54.64 27.87 1.92 8.48 1.12 17.3 3.36 26.59 6.72 4-4 5.92-8.8 5.92-14.57 0-3.52-1.28-8.01-4-13.29-2.56-5.28-7.69-16.49-15.21-33.79-7.54-17.13-27.23-25.78-58.95-25.78-14.57 0-27.07 3.04-37.48 9.29-10.41 6.24-24.02 16.33-40.84 30.1 7.2-16.33 17.14-30.58 29.95-42.43 12.81-12.01 28.67-21.14 47.73-27.22zm55.41 125.38c-13.29-5.77-27.86-8.65-43.72-8.65-20.34 0-39.4 4.33-57.34 13.13-17.77 8.81-29.79 18.42-35.72 28.67-5.92 10.4-8.96 18.41-8.96 24.18 0 7.04 1.76 13.45 5.28 19.37 3.52 5.93 10.25 13.93 20.18 23.7 9.93 9.93 22.26 14.89 36.84 14.89 4.33 0 13.3-1.6 26.75-4.64s31.23-13.13 53.01-30.27c21.95-17.13 32.84-33.94 32.84-50.12 0-3.04-.8-6.88-2.24-11.21-1.61-4.48-4.49-8-8.65-10.56-4.16-2.57-10.25-5.45-18.27-8.49z"/><path d="m2698.86 586.62c8.48-9.29 19.21-17.46 32.51-24.82 13.29-7.21 25.62-10.89 37.16-10.89 9.29 0 17.14 2.4 23.86 7.37 6.57 4.8 11.05 10.56 13.61 16.97 2.41 6.4 3.54 10.41 3.54 12.01v4.32c0 7.53-2.58 14.57-7.86 21.3-5.45 6.57-11.85 11.21-19.38 13.93-1.76-1.28-7.2-9.45-16.18-24.34-9.13-14.73-18.25-21.14-27.7-18.89-21.63 5.76-36.36 20.01-44.05 43.07-7.85 22.9-11.7 51.08-11.7 84.71 0 13.61.16 26.58.64 38.75.48 12.01.8 23.86 1.28 35.39 1.29 5.28 7.7 8.65 19.07 10.25 11.37 1.44 17.45 2.56 18.41 2.88v12.65l-102.82-.64c0-5.28 4.96-10.25 14.89-14.57 9.93-4.49 14.91-10.57 14.91-18.58v-162.85c0-9.29-4.82-13.93-14.59-13.93-3.04 0-6.56.32-10.41.8-4 .32-6.24.64-6.72.64l-1.92-13.29c12.01-5.28 24.66-11.85 38.12-19.38 13.45-7.52 25.94-15.05 37.48-22.73 1.76 3.68 2.56 8.32 2.56 14.09 0 4.8.16 9.61.32 14.25.32 4.64 1.92 8.49 4.97 11.53z"/><path d="m2884 508.15c3.85-3.52 8.82-14.41 14.9-32.66 5.93-18.26 14.26-27.38 24.82-27.38 4.81 0 10.58 1.28 17.15 4 0 10.25-2.56 21.14-7.53 32.99-5.13 11.85-12.34 21.29-21.63 28.34-1.76-.48-5.92-.96-12.49-1.28-6.72-.48-11.7-1.76-15.22-4.01zm33 40.84c.48 40.51 1.12 81.02 2.08 121.7.8 40.67 1.92 68.53 3.36 83.74 1.28 15.06 4.65 23.86 10.26 26.27 5.45 2.4 12.17 3.68 20.18 3.68 8.81 0 15.85-.64 21.15-1.92v6.08c-12.34 7.37-26.76 12.81-43.41 16.66-16.5 3.84-32.84 5.76-48.7 5.92-2.56-11.05-4.48-22.26-5.6-33.47-1.13-11.21-1.61-24.66-1.61-40.03 0-8.01.16-20.18.64-36.83.49-16.49.65-28.66.65-36.67v-8.65c0-21.61-1.13-37.95-3.37-48.84-2.24-11.04-6.08-16.65-11.85-16.65-2.72 0-6.72.64-12.33 1.76-5.45.96-8.65 1.6-9.61 1.6-5.77 0-9.93-2.08-12.49-5.92 13.61-4.96 27.39-9.77 41-14.57 14.09-6.25 27.23-14.09 39.08-23.86z"/><path d="m3129.38 548.51c6.57-2.24 13.94-3.37 21.79-3.37 8.48 0 16.65 1.93 24.83 5.61 8.16 3.68 21.77 14.25 40.84 31.71 18.9 17.29 31.39 52.36 37.48 105.2 5.93 52.68 10.89 86.63 14.89 101.52l22.42 11.37c-4.8 3.04-12.01 5.13-21.46 6.57-9.44 1.28-19.06 1.92-28.83 1.92-5.76 0-11.53 0-17.29 0-5.77 0-11.21-.32-16.51-.64 8.02 0 13.62-2.72 16.83-8.01 3.36-5.28 4.96-12.01 4.96-20.33 0-5.77-.32-11.85-1.12-18.26-.8-6.4-1.44-12.49-1.76-18.09-1.76-4.33-4.65-6.41-8.65-6.41-4.48 0-9.14 1.92-13.94 5.93-18.09 19.21-39.08 35.54-63.1 49.32-23.87 13.77-46.45 20.65-67.6 20.65-12.49 0-24.83-3.04-37.16-9.29-12.49-6.08-22.09-13.61-28.99-22.57-6.89-8.81-10.25-20.02-10.25-33.79 0-13.13 3.68-24.98 11.21-35.39 7.54-10.41 18.59-19.54 32.84-27.38 14.42-8.01 30.91-14.57 49.81-19.54 18.74-5.12 37.8-7.68 57.18-7.68 10.25 0 19.54.64 27.88 1.92 8.48 1.12 17.29 3.36 26.58 6.72 4-4 5.92-8.8 5.92-14.57 0-3.52-1.28-8.01-4-13.29-2.56-5.28-7.69-16.49-15.21-33.79-7.53-17.13-27.23-25.78-58.95-25.78-14.57 0-27.06 3.04-37.47 9.29-10.42 6.24-24.03 16.33-40.84 30.1 7.2-16.33 17.13-30.58 29.94-42.43 12.82-12.01 28.67-21.14 47.73-27.22zm55.42 125.38c-13.3-5.77-27.87-8.65-43.72-8.65-20.35 0-39.4 4.33-57.35 13.13-17.77 8.81-29.78 18.42-35.72 28.67-5.92 10.4-8.96 18.41-8.96 24.18 0 7.04 1.76 13.45 5.28 19.37 3.52 5.93 10.26 13.93 20.19 23.7 9.92 9.93 22.25 14.89 36.84 14.89 4.32 0 13.29-1.6 26.74-4.64 13.46-3.04 31.23-13.13 53.02-30.27 21.94-17.13 32.84-33.94 32.84-50.12 0-3.04-.8-6.88-2.25-11.21-1.61-4.48-4.49-8-8.65-10.56-4.16-2.57-10.25-5.45-18.26-8.49z"/></g></g></svg>