<svg clip-rule="evenodd" fill-rule="evenodd" height="128.5mm" image-rendering="optimizeQuality" shape-rendering="geometricPrecision" text-rendering="geometricPrecision" viewBox="0 0 4064 12850" width="40.64mm" xmlns="http://www.w3.org/2000/svg"><g fill="#262626"><path d="m1683.86 6850.8c50.83 0 39.53 73.43 112.96 39.54 28.24-11.3 16.95-16.95 39.54-22.6 28.24 39.54 0 39.54 0 129.91 0 225.93 39.54 276.77 39.54 547.88 0 33.89-11.3 50.84-33.89 62.14-67.78-16.95-33.89-107.32-28.24-169.45 5.64-158.15 16.94-237.23-45.19-389.73-16.95-56.49-79.08-146.86-84.72-197.69zm203.33-112.97c0-39.54 22.6-84.72 39.54-107.31 11.3-16.95 16.95-28.25 28.24-45.19 16.95-16.95 16.95-22.59 39.54-33.89 22.59 16.94 22.59 16.94 28.24 50.83 11.3 22.6 11.3 33.89 22.59 56.49 16.95 62.13 84.73 124.26 11.3 158.15-28.24 16.94-28.24 0-50.83 0-28.24 0-39.54 28.24-79.08-11.3-16.94-16.94-39.54-33.89-39.54-67.78zm813.35 16.95c22.6-5.65 22.6-22.6 45.19-28.24l11.3 11.29c-16.95 67.78-50.84 5.65-50.84 67.78 62.13-5.65 50.84-39.54 107.32-39.54 0 56.49-152.5 265.47-101.67 632.61 0 22.59 0 39.54 5.65 56.48 5.65 22.6 22.59 107.32-22.59 107.32-33.89 0-28.25-50.84-33.89-79.08-5.65-50.83 5.64-231.58-5.65-321.95-11.3-67.78-11.3-124.26-28.24-192.04-11.3-22.59-22.6-56.48-33.89-79.07-16.95-33.89-50.84-107.32-5.65-146.86 33.89 5.65 22.59 22.59 50.83 22.59zm-610.01-62.13c0-22.6 50.83-11.3 67.78 16.94-28.24 39.54-67.78 22.59-67.78-16.94zm-378.43 62.13c5.65-28.24 11.29-16.95 16.94-45.19 5.65-16.94 5.65-28.24 16.95-45.18 11.29-22.6 16.94-16.95 22.59-33.89 16.94-16.95 11.3-33.89 33.89-33.89 73.43 0 45.19 186.39 5.65 186.39-11.3 0-79.08-16.95-96.02-28.24zm926.31-79.08c11.3 5.65 22.6 5.65 33.89 11.3l22.6 11.29v5.65c-11.3 16.95-5.65 11.3-22.6 22.6-5.65 0-22.59 11.29-28.24 11.29-39.54 0-67.78-84.72-16.94-67.78zm-225.93 169.45c0-33.89 28.24-84.72 45.19-129.91 11.29-28.24 11.29-33.89 33.89-50.83 33.89-28.25 11.29-22.6 45.18-39.54l16.95 16.94c0 39.54-16.95 112.97-28.24 146.86-5.65 45.18-11.3 107.31-62.13 107.31-16.95 0-22.6-11.29-33.89-16.94-22.6-28.24-16.95-22.59-16.95-33.89zm-954.56-214.63c56.49 0-22.59 56.48 33.89 96.02 33.89-16.95 22.6-16.95 16.95-90.38l16.94-16.94c22.6 11.3 22.6 16.94 39.54 28.24 33.89 22.59 67.78-5.65 79.08 33.89 11.29 28.24-67.78 96.02-67.78 333.25 0 124.26 11.29 208.98 11.29 350.19l5.65 265.47c0 28.24 5.65 73.43-22.59 73.43-39.54 0-16.94-101.67-16.94-129.91 5.64-50.84 0-112.97 5.64-158.16l-11.29-146.85c-16.95-129.91-28.24-316.3-62.13-423.62l-62.13-175.1c-5.65-22.59 0-39.53 33.88-39.53zm214.64-33.89c0-16.95-5.65-11.3 5.65-22.6 16.94-11.29 28.24-5.65 39.54 11.3-16.95 28.24-16.95 16.94-45.19 11.3zm378.43-158.16c0-45.18 22.6-197.68 22.6-299.35 0-67.78-11.3-79.08 22.59-79.08 0 45.19 16.94 90.37 16.94 101.67l-22.59 169.45c0 56.48 22.59 73.42 45.19 124.26 16.94 28.24 45.18 73.43 45.18 112.96 0 118.62-129.91 45.19-129.91-50.83zm-898.07-225.93-186.39-16.94c-67.78-22.59-129.91-28.24-135.56-67.78 16.94-5.65 22.59-5.65 45.18 0 16.95 5.65 16.95 5.65 45.19 5.65 45.19 0 0 11.29 90.37 11.29 39.54 0 67.78 0 96.02 11.3 11.3 11.3 45.19 39.54 45.19 56.48zm1762.26-39.53c5.65-39.54 33.89-50.84 62.13-73.43 22.59-11.3 22.59-16.95 39.54-28.24 45.18-28.24 45.18-28.24 101.66-11.3 73.43 22.59 22.6 79.08 5.65 79.08-22.59 0-45.18-28.24-84.72-28.24-73.43 0-84.72 50.83-124.26 62.13zm-2377.92-146.86c0-90.37-5.65-62.13 16.94-96.02 39.54 22.59 33.89 33.89 73.43 67.78l45.19 39.54c16.94 11.29 28.24 33.89 56.48 56.48 28.24 16.95 50.83 16.95 67.78 45.19-22.6 22.59-28.24 11.29-56.48 45.18-62.14 67.78-62.14 276.77-50.84 350.19l11.3 327.6c0 124.27-5.65 208.99 5.65 333.25 5.64 73.43 33.89 124.26-16.95 135.56-22.59-33.89-22.59-84.72-16.94-129.91 5.64-73.43 0-361.49-11.3-429.27-5.65-56.48-11.3-197.69-22.59-276.76l-22.6-152.51c0-50.83 0-16.94 5.65-50.83 33.89-5.65 11.3-5.65 33.89-45.19 16.95-22.59 33.89-22.59 33.89-50.83-73.43 0-50.83 62.13-79.08 84.72-22.59-5.65-11.29 0-16.94-22.59-22.59-45.19-56.48-180.74-56.48-231.58zm785.11 293.71c0-79.07-62.13-169.45-107.32-237.23-11.3-22.59-50.84-33.89-56.48-56.48 28.24 5.65 16.94 5.65 33.89 22.59l16.94 11.3c28.24 16.95 56.48 45.19 84.73 45.19 5.64-11.3 5.64-11.3 5.64-28.24 28.24 0 33.89 22.59 50.84 39.53 5.65 16.95 0 5.65 11.29 11.3 0 5.65 5.65 11.3 11.3 11.3 16.95 16.94 5.65-5.65 16.95 22.59 11.29 39.54-11.3 50.83 5.64 90.37 33.89 96.02-5.64 163.8-22.59 288.06-5.65 39.54 5.65 39.54-11.3 67.78-22.59 0-16.94 0-28.24-16.94-33.89-45.19-11.29-135.56-11.29-186.4 0-28.24 0-56.48 0-84.72zm536.58-186.39c5.65 11.29 11.3 22.59 16.95 39.54-28.24 0-28.24-5.65-39.54-28.25-28.24-39.53-45.19-101.66-45.19-152.5h22.6c0 28.24 16.94 73.43 28.24 96.02 5.65 16.95 11.29 28.24 16.94 45.19zm835.95-62.13c0-5.65 33.88-45.19 45.18-50.84 22.59-28.24 22.59-22.59 56.48-33.89l67.78-28.24c22.6-5.65 22.6 5.65 39.54-5.65 28.24-11.29 11.3-16.94 62.13-5.64 0 22.59-11.29 22.59-56.48 67.77-22.59 16.95-39.54 33.89-56.48 62.14-79.08 112.96-73.43 28.24-101.67 135.55-16.95 73.43-22.6 124.27-16.95 208.99s96.02 271.12 56.49 282.41c-22.6 5.65-33.89-50.83-39.54-79.07-22.6-62.13-56.48-101.67-73.43-163.8-11.3-28.24-11.3-39.54-16.94-73.43-5.65-28.24-11.3-28.24-11.3-50.83l39.54-163.8c22.59-107.32 5.65-39.54 5.65-101.67zm525.28 90.37c0-192.04-118.61-208.99-11.29-225.93 22.59 0 56.48-5.65 73.42-11.3 11.3-11.29 22.6-28.24 33.89-45.18 11.3-5.65 16.95-11.3 28.25-16.95l28.24-33.89c11.29-16.94 16.94-11.29 33.89-22.59 50.83 73.43 22.59 28.24 62.13 56.48l11.29 11.3c11.3 22.59 0 45.18-16.94 67.78-11.3 28.24-28.24 50.83-45.19 73.42l-56.48 62.14c-112.96 112.96-96.02 395.37-96.02 553.53 0 96.02 56.48 225.93-28.24 242.87-39.54-28.24-28.24-62.13-28.24-141.21 0-33.89 5.65-45.18 5.65-79.07l-5.65-276.77c0-62.13 11.29-129.91 11.29-214.63zm-943.26-502.7c5.65 28.25 28.24 67.78 39.54 90.38 11.3 22.59 39.54 56.48 39.54 84.72-22.59-16.94-11.3-16.94-28.24-39.54-22.6-28.24-67.78-56.48-67.78-135.56zm-163.8-271.11c-16.94 22.59-11.29 62.13-33.89 45.18-11.29-5.65-5.64 5.65-11.29-5.65 0-11.29 0-22.59 0-33.88 5.65-33.89 16.94-84.73 16.94-118.62h22.6c5.64 56.48 62.13 124.26 84.72 163.8-33.89-11.3-45.19-45.18-79.08-50.83zm-745.57 237.22c79.08-39.53 231.58-118.61 288.06-175.09 39.54-39.54 56.49-73.43 73.43-79.08-11.29 50.84-33.89 33.89-33.89 84.73 50.84-33.89 73.43-96.02 96.02-152.51 16.95-39.53-16.94-208.98 33.89-208.98 28.24 0 22.6 28.24 22.6 56.48 11.29 112.97 0 79.08 0 146.85h22.59c0-28.24 5.65-45.18 5.65-84.72 0-28.24 0-50.83 5.64-79.08 0-33.88-16.94-50.83 5.65-62.13l56.49-22.59c39.53 0 39.53 112.97 39.53 146.86 0 141.2-129.91 237.22-135.55 338.89-16.95 254.17-90.38 265.47-90.38 384.08 0 96.02 11.3 186.4 73.43 254.18l5.65 5.64s5.65 5.65 5.65 5.65c5.65 5.65 5.65 5.65 11.29 11.3 73.43 39.54 62.13-16.95 67.78-28.24 56.49 11.29 50.84 33.89 56.49 96.02 11.29 62.13 11.29 135.56 11.29 203.34 0 45.18-67.78 129.91-84.72 129.91-73.43 0 28.24-56.49-242.88-56.49-16.94-22.59-16.94-5.65-16.94-45.18-33.89 5.65-16.95 5.65-22.6 39.53-16.94 39.54-79.07 28.25-112.96 22.6-11.3-39.54 16.94-73.43 16.94-129.91-11.29 5.65-11.29-5.65-28.24 33.89-22.59 79.07-22.59 107.31-56.48 124.26-11.3-16.95-11.3-16.95-16.94-39.54-5.65-22.59-5.65-28.24-5.65-50.83 0-50.84 101.67-186.4 16.94-417.97-16.94-56.49-45.18-84.73-73.43-124.27 16.95-5.64 11.3 0 22.6-16.94-16.95-22.59-22.6-33.89-45.19-50.84-152.5-96.02-208.98 124.27-361.49 124.27-118.61 0-129.91-16.95-214.63-101.67-152.51-146.86-180.75-79.08-231.58-79.08-22.59 0-158.15-135.56-84.72-186.39 16.94-16.95 90.37-33.89 107.31-33.89 11.3 0 11.3 16.94 45.19-22.59 84.72-84.73 39.54-158.16 56.48-338.9 16.95-175.1 39.54-107.32 112.97-67.78 101.67 50.84 79.07 135.56 90.37 254.17 5.65 79.08 33.89 112.97 67.78 163.8 62.13 90.38 107.31 73.43 129.91 101.67-5.65 28.24-28.24 16.95-67.78 50.84-22.59 11.29-56.48 28.24-67.78 45.18l112.96-45.18c39.54-11.3 73.43-28.25 112.97-39.54 33.89-11.3 73.43-22.59 112.97-39.54 22.59-5.65 45.18-11.3 62.13-16.94 16.94-11.3 22.59-16.95 45.18-28.25zm-451.86 175.1c16.95 5.65 0-11.3-5.65-5.65-11.29 11.3 5.65 5.65 5.65 5.65zm1124.01-835.94c33.89 0 39.53 0 39.53 56.48 0 90.37 11.3 67.78-11.29 197.69-11.3 101.67-16.95 175.1-84.73 214.63 0-22.59 5.65-28.24 16.95-45.18 5.65-16.95 5.65-28.24 11.29-45.19 39.54-248.52-33.88-293.71-33.88-333.25 0-16.94 39.53-45.18 62.13-45.18zm62.13 45.18c0-67.78 56.48-67.78 90.37-28.24 22.59 22.59 11.3 22.59 11.3 56.48 0 73.43 5.64 141.21 16.94 208.99 5.65 22.59 5.65 28.24 28.24 33.89 0-56.48-28.24-101.67 5.65-146.86l5.65-45.18c22.59-11.3 50.83-22.59 79.07-22.59 45.19 96.02-45.18 208.98 107.32 333.24 11.3 11.3 16.95 16.95 33.89 28.24 56.48 28.25 118.61 45.19 175.1 73.43 28.24 22.6 50.83 22.6 90.37 33.89 118.61 39.54 254.17 118.62 378.43 118.62 152.51 0 135.56 45.18 169.45 79.07 39.54 33.89 22.59-28.24 0-56.48-67.78-67.78-96.02-33.89-192.04-56.48 0-33.89 45.19-33.89 67.78-50.84 33.89-28.24 118.61-107.32 129.91-158.15 16.94-67.78-5.65-135.56-5.65-208.99 0-129.91 169.45-293.71 129.91-67.78-11.3 96.03-11.3 242.88 33.89 327.6 62.13 107.32 112.97 96.02 197.69 90.38 0-28.24-5.65-22.6-5.65-45.19 22.6-16.94 67.78-33.89 96.02-33.89 11.3 0 33.89 16.95 33.89 33.89 0 90.37-152.5 208.99-186.39 333.25-16.95 62.13 0 124.26-45.19 124.26-5.65-50.83-50.83-220.28-90.37-220.28s-62.13 28.24-90.37 45.18c-79.08 56.49-158.15 112.97-271.12 112.97-79.07 0-56.48-84.72-124.26-84.72-124.26 0-197.69 96.02-254.17 163.79-28.24 33.89-62.13 79.08-79.08 129.92-90.37 321.95 67.78 378.43 67.78 519.64 0 28.24-39.54 28.24-67.78 5.64-50.83-33.89-45.18-67.78-79.07-73.42-11.3 39.53-73.43 28.24-107.32 50.83-5.65 5.65-28.24 16.95-28.24 22.59 0 22.6 16.94 79.08-39.54 84.73 0 73.43-16.94 101.67-45.19 152.5l-67.77 124.26c-22.6 56.49-33.89 84.73-45.19 152.51-22.59 112.96-16.95 175.09-28.24 265.46 0 22.6 5.65 62.14 5.65 90.38v96.02c0 39.54 5.64 50.83 5.64 90.37 0 129.91 101.67 417.97 16.95 417.97-50.84 0-50.84-90.37-56.48-124.26l-28.25-146.86c-16.94-112.96-11.29-237.22-11.29-355.84 0-39.53 5.65-56.48 5.65-90.37 0-124.26-11.3-259.82-16.95-378.43-5.65-90.37-45.18-175.1-5.65-225.93 11.3-5.65 28.24-22.6 39.54-22.6 50.84 0 22.59 22.6 39.54 67.78 11.3 22.6 22.59 39.54 22.59 67.78h22.6c0-45.18 11.29-107.31-5.65-152.5-5.65 0-11.3-11.3-11.3-16.95-11.3-5.64-5.65 0-16.94-5.64 0-22.6 11.29-28.25 28.24-39.54-11.3-39.54-22.6-67.78 39.54-67.78 62.13 0 56.48 28.24 118.61 28.24 0-22.59-5.65-22.59-22.59-28.24-5.65-5.65-22.6-16.95-28.25-22.59-56.48-11.3-90.37 28.24-112.96-39.54l-45.19-90.37c-73.42-152.51-56.48-107.32-22.59-214.64 11.3-28.24 5.65-96.02 50.83-67.78 101.67 62.13 79.08 11.3 124.27-22.59 16.94 67.78 84.72-56.48 90.37-107.32 16.94-62.13-5.65-197.69-39.54-248.52-11.3-22.59-22.59-39.54-33.89-62.13-90.37-135.56-50.83-231.58-101.67-293.71-28.24-39.54-56.48-73.43-84.72-112.97-22.6-39.54-45.19-96.02-45.19-152.5-5.65-62.13-16.94-118.61-16.94-175.1zm1429.01 180.75c0-50.84 39.54-112.97 50.83-158.15 5.65-39.54 0-50.84 22.6-84.73 11.29-28.24 22.59-39.54 33.89-67.78 11.29-28.24 22.59-50.83 33.89-73.42 11.29-22.6 16.94-50.84 28.24-73.43 22.59-39.54 62.13 0 62.13-141.21h22.59l-45.19 440.57c-5.64 73.42-11.29 141.2-22.59 208.98-22.59 90.37-33.89 90.37-73.43 101.67-11.29 5.65-22.59 11.3-28.24 28.24-56.48-28.24-39.54 0-62.13-39.54v-11.29h-5.65c-11.29-28.24-11.29-22.6-11.29-39.54l56.48-112.97h5.65c11.29-22.59 33.89-62.13 22.59-84.72-22.59 5.65-28.24 28.24-45.19 56.48-11.29 22.6-22.59 45.19-45.18 50.84zm-3253.4-485.75c0-135.56 45.18-248.53 79.07-350.2 56.49-158.15 79.08-344.54 146.86-497.04 28.24-62.13 45.18-84.73 79.07-135.56l79.08-84.73c67.78-79.07 175.1-158.15 259.82-220.28 67.78-45.18 135.56-79.07 203.34-118.61 180.74-90.37 316.3-175.1 525.29-225.93 56.48-16.95 118.61-28.24 175.09-39.54 203.34-28.24 406.68-16.94 604.37 22.59 107.31 22.6 180.74 45.19 276.76 96.02 135.56 62.13 367.14 180.75 480.1 265.47 248.53 186.39 389.73 429.27 497.05 717.33 5.65 28.24 16.95 45.19 22.59 67.78 67.78 192.04 22.6 163.8 0 203.34-11.29 22.59 0 50.83-5.64 79.07-5.65 11.3 0 5.65-5.65 16.95-56.48 90.37-39.54 96.02-62.13 163.8-16.95 33.89-11.3 5.65-22.6 56.48-5.64 11.3-22.59 33.89-28.24 56.48-11.29 16.95-16.94 33.89-33.89 45.19l-22.59-22.59c-11.3-11.3-11.3-16.95-22.59-28.24-22.6-11.3-56.49-22.6-79.08-28.25-5.65-33.88 5.65-56.48-16.94-90.37-5.65 0-5.65 0-5.65-5.65-50.84-62.13 5.65-192.04 33.89-271.11 39.54-107.32 67.78-141.21 50.83-271.12h-22.59v56.48c0 124.27-112.97 203.34-118.61 293.71h-16.95c-5.65 28.24 5.65 11.3-11.3 16.95 11.3-39.54 16.95-84.73 22.6-129.91-11.3-5.65-22.6-5.65-33.89-11.3 0 28.24-11.3 16.95-11.3 45.19h-11.3c0-39.54 16.95-124.26 22.6-163.8 45.18-180.75 45.18-350.19-73.43-508.35-11.3-11.29-16.94-16.94-33.89-22.59 11.3 39.54 39.54 79.08 50.84 118.61 101.66 231.58-62.14 344.55-62.14 542.24 0 163.8 11.3 231.58 107.32 361.49 33.89 39.53 84.73 73.42 84.73 141.2 0 45.19 0 33.89-11.3 73.43-5.65 5.65-5.65 90.37-62.13 90.37-45.19 0-107.32-62.13-141.21-90.37-101.67-67.78-242.87-79.07-361.49-101.67-90.37-16.94-214.63-62.13-299.36-5.65 5.65 16.95 0 11.3 16.95 16.95-11.3 16.94-22.59 22.59-39.54 39.54-11.3 16.94-16.94 28.24-28.24 45.18-39.54 33.89-186.39 67.78-192.04 5.65 39.54 0 56.48 0 79.07-16.94 16.95-16.95 39.54-28.25 39.54-56.49-28.24 16.95-62.13 56.49-107.31 56.49-33.89 0-96.03-79.08-96.03-118.62l45.19-118.61c-28.24 0-39.54 16.94-56.48 33.89-16.95 22.59-67.78 79.07-90.37 90.37-11.3 11.3-33.89 16.95-50.84 11.3-56.48-16.95-141.21-129.91-203.34-146.86 5.65 33.89 39.54 56.49 56.49 84.73 56.48 67.78 73.42 175.09-16.95 225.93l-11.29 5.65c-22.6 16.94-39.54 16.94-73.43 16.94 11.29-11.3 22.59-11.3 33.89-22.59-50.84-22.6-56.49 39.53-118.62-45.19-16.94-22.59-22.59-39.54-39.53-62.13-16.95-22.59-28.25-28.24-56.49-45.19-22.59-11.29-39.53-28.24-62.13-11.29 5.65 28.24 28.24 33.89 50.84 50.83 73.42 45.19 90.37 129.91 152.5 146.86-5.65 5.64-5.65 22.59-16.94 22.59-62.14 0-107.32-96.02-135.56-135.56-22.6-22.59-45.19-45.18-73.43-62.13-50.84-39.54-135.56-28.24-197.69-11.3-135.56 28.25-254.17 73.43-361.49 152.51-11.3 5.65-22.59 11.29-33.89 16.94-79.07 50.84-56.48 39.54-56.48 84.73 0 11.29-28.24 16.94-28.24 16.94-11.3 5.65-5.65 0-11.3 5.65-11.3 11.3-5.65 11.3-22.59 16.94-16.95-16.94-5.65-5.64-16.95-16.94-11.29-16.95-33.89-22.59-50.83-33.89-22.59-22.59-39.54-39.54-39.54-79.08 0-180.74 180.75-242.87 180.75-423.62 0-96.02-56.49-242.87-96.03-316.3-45.18-96.02-90.37-175.1-107.31-282.41-5.65-50.84-16.95-39.54-22.6-56.49-5.64-16.94 11.3-67.77 16.95-90.37 22.59-39.54 62.13-96.02 90.37-129.91l33.89-39.54c16.95-22.59 22.59-39.53 39.54-56.48 22.59-33.89 73.43-62.13 96.02-96.02-56.48 11.3-141.21 90.37-180.74 124.26-62.14 67.78-124.27 146.86-135.56 242.88 0 16.94 0 16.94-5.65 33.89 0 16.94 0 5.65-5.65 28.24-5.65 5.65-5.65 112.96 0 141.21 5.65 11.29 5.65 11.29 11.3 28.24 5.64 39.54 0 50.83 22.59 90.37 39.54 79.08 28.24 39.54 28.24 107.32 0 22.59 22.59 62.13 28.24 90.37 11.3 28.24 11.3 67.78 11.3 101.67h16.94c0 22.59 5.65 101.67-5.64 118.61-5.65 16.95-5.65-5.65-11.3-11.3-5.65-11.29-22.59-16.94-33.89-33.88l-11.3-33.89c-22.59-45.19-39.54-84.73-50.83-135.56h-16.95c5.65 28.24 11.3 62.13 16.95 90.37s16.94 50.83 28.24 79.08l45.19 118.61c5.64 16.94 5.64 16.94 28.24 22.59 0 28.24 0 5.65-11.3 22.6-5.65 22.59 0 33.88-11.3 56.48-5.64 16.94-22.59 22.59-28.24 39.54l-11.29 22.59c-28.25-16.95-28.25-5.65-39.54-39.54-11.3-22.59-16.95-33.89-33.89-45.19 0 28.25 11.3 50.84 16.94 79.08 5.65 45.19 0 67.78-11.29 112.97-5.65 11.29-11.3 16.94-11.3 33.89-11.3 146.85 11.3 101.66 11.3 163.79h-11.3c-5.65-33.88 0-50.83-22.59-79.07 0 0 0 0 0-5.65-11.3-11.3 0 0-22.6-16.94l-96.02-101.67c-11.29-16.95-11.29-33.89-28.24-39.54-11.29-5.65-28.24-5.65-28.24 16.94 0 112.97 129.91 276.77 129.91 355.85-5.65 5.64 11.3 5.64-16.94 0 0 28.24 5.64 28.24 16.94 45.18 11.3 33.89 11.3 67.78 22.59 101.67 0 22.59 5.65 22.59 5.65 50.83 0 33.89-33.89 67.78-67.78 79.08-84.72-73.43-96.02-242.88-107.31-350.19-11.3-67.78-28.24-129.91-39.54-192.04-22.59-112.97-28.24-180.75-28.24-293.71zm-90.38-11.3c0 96.02 5.65 203.34 22.6 288.06 11.29 73.43 22.59 141.21 33.89 208.99 16.94 124.26 50.83 231.58 84.72 344.54 5.65 16.95 16.95 33.89 16.95 45.19 0 56.48-45.19 101.67 45.18 225.93 22.6 22.59 33.89 33.89 50.84 50.83 22.59 33.89-5.65 45.19-5.65 79.08 0 73.43 67.78 214.63 96.02 282.41 33.89 84.73 56.48 214.64 73.43 310.66 16.94 112.96 22.59 231.58 33.89 350.19l5.64 90.37c0 33.89-5.64 50.84-5.64 90.37l-5.65 186.4c0 112.96 79.07 180.74 107.32 79.07 11.29-33.89 5.64-45.18 5.64-79.07 0-28.24-5.64-62.13-11.29-84.73-5.65-73.42 0-214.63 0-288.06 0-180.74-22.6-378.43 0-553.53 5.65-45.19 33.89-124.26 79.07-124.26 11.3 0 96.02 62.13 118.62 73.43 84.72 39.53 254.17-28.24 293.71 101.67 5.64 22.59-11.3 135.55-11.3 186.39 0 101.67 62.13 118.61 118.61 163.8 22.6 22.59 45.19 50.83 62.13 79.07 5.65 22.6 16.95 28.24 22.6 50.84 11.29 16.94 16.94 33.89 22.59 50.83 50.83 118.62 84.72 389.73 84.72 530.94 0 90.37-11.29 152.5-11.29 242.87 0 33.89 33.89 79.08 33.89 146.86s-16.95 192.04-16.95 225.93c16.95 11.3 16.95 16.95 33.89 16.95 39.54 0 22.59-67.78 22.59-107.32v-175.1c0-39.54 22.6-56.48 28.25-90.37 16.94-50.83 5.64-50.83 5.64-101.67 0-84.72-5.64-152.5-5.64-237.23 0-33.89 5.64-50.83 5.64-79.07l-5.64-293.71c0-169.45 101.67 28.24 118.61 79.07 33.89 79.08 33.89 101.67 39.54 208.99 0 28.24 5.65 28.24 5.65 56.48l-11.3 112.97c-5.65 16.94-5.65 28.24-5.65 56.48-16.94 208.99 129.91 203.34 152.5 73.43 5.65-67.78-39.53-361.49-39.53-468.81 0-56.48 0-220.28 67.78-220.28 39.53 0 73.42 67.78 84.72 107.32 79.08 214.63 56.48 497.04 56.48 722.97 0 84.73 11.3 288.07 28.24 361.49 11.3 22.6 16.95 45.19 28.24 67.78 62.14 79.08 163.8 28.24 163.8-67.78 0-56.48-11.29-118.61-22.59-163.8-11.29-39.53-16.94-84.72-22.59-129.91-28.24-254.17-39.54-587.42 96.02-796.4 39.54-56.48 62.13-16.95 152.5-11.3 28.24 0 50.84 16.95 62.13 39.54 62.13 84.72 45.19 367.14 50.84 474.45 0 28.24 11.29 62.13 16.94 84.73 11.3 22.59 28.24 45.18 28.24 79.07v158.15c0 56.49-22.59 107.32 28.25 118.62 39.53-28.24 22.59-33.89 22.59-90.37l-5.65-169.45c0-112.97 73.43-39.54 39.54-231.58-33.89-152.5 0-355.84 50.83-497.05 16.95-45.18 28.24-79.07 45.19-129.91 101.67-254.17-79.08-305 90.37-536.58 107.32-146.86 90.37-73.43 192.04-73.43 22.59 0 0-5.65 33.89 0 11.3 56.48 5.65 135.56 5.65 203.34 0 33.89 5.65 56.48 5.65 96.02l-5.65 299.36c0 163.79 152.5 146.85 152.5 11.29 0-56.48-22.59-107.32-22.59-169.45 0-186.39-16.95-406.67 112.96-536.58 11.3-16.95 62.14-67.78 84.73-73.43 39.54-5.65 39.54 39.54 39.54 73.43 5.64 90.37 5.64 192.04 0 282.41 0 22.59-11.3 28.24 0 45.19 11.29 45.18 33.89 28.24 56.48 11.29 0-141.2-16.95-305 22.59-434.91 16.95-67.78 0-141.21 56.49-192.04l112.96-135.56c175.1-225.93 5.65-316.3 5.65-327.6 0-62.13 11.3-124.26 16.94-186.39 33.89-265.47 107.32-542.24 45.19-813.35-28.24-101.67-73.43-208.99-112.97-305.01-22.59-50.83-33.89-96.02-62.13-146.86-67.78-141.2-146.85-259.82-254.17-367.13-28.24-33.89-67.78-79.08-101.67-107.32-79.07-56.48-158.15-118.61-242.87-169.45l-276.77-141.2c-96.02-50.84-175.09-96.02-288.06-124.27-401.03-96.02-835.94-56.48-1208.73 124.27-90.37 50.83-372.78 197.69-429.27 242.87-62.13 45.19-135.55 90.37-192.04 141.21-11.29 11.29-16.94 16.94-28.24 28.24-90.37 73.43-175.1 180.74-225.93 282.41-22.59 56.49-45.19 107.32-62.13 163.8l-96.02 355.84c-5.65 28.24-16.95 56.49-28.24 84.73-28.24 90.37-56.49 175.09-56.49 282.41z"/><path d="m1508.76 3552.21c0 84.72 28.24 90.37 56.48 169.45 22.59 45.18 22.59 112.96 33.89 163.8 28.24 141.2 5.65 158.15 0 259.82 0 45.18-22.59 50.83 5.65 73.43 22.59-5.65 28.24-16.95 28.24-50.84-11.3-62.13 16.95-96.02 16.95-208.98v-118.62c0-67.78-22.6-62.13-22.6-158.15 0-28.24 11.3-45.19 16.95-67.78 5.65-28.24-45.19-197.69 124.26-220.28 73.43-11.3 62.13 0 67.78-22.59-11.3-16.95-16.95-11.3-90.37-11.3-135.56 0-237.23 56.48-237.23 192.04z"/><path d="m2661.01 4201.76c0 50.84 11.29 101.67 16.94 152.5 16.95 79.08 0 129.91 28.24 146.86 39.54-11.3 11.3-33.89 11.3-118.61 0-56.49-5.65-96.02 0-141.21 5.65-62.13 33.89-203.34 50.83-254.17 16.95-39.54 28.24-67.78 39.54-112.97 33.89-112.96 11.3-112.96 79.08-225.93 33.89-56.48 50.83-73.43 50.83-135.56-39.54 0-28.24 11.3-50.83 67.78-33.89 112.97-45.19 56.48-96.02 265.47-22.6 79.08-62.14 192.04-101.67 259.82-11.3 16.95-28.24 73.43-28.24 96.02z"/><path d="m2548.04 3546.56c0 248.53-141.21 231.58-96.02 299.36 16.94-5.65 22.59-5.65 33.89-22.59 62.13-107.32 208.99-271.12 62.13-434.92-22.59-22.59-67.78-73.43-101.67-84.72 16.95 62.13 101.67 96.02 101.67 242.87z"/><path d="m1051.25 4693.16c73.43 0 124.26-39.54 175.1-67.78l124.26-96.02c-5.65 5.65-5.65 5.65-11.3 11.3-107.32 45.18-214.63 129.91-299.36 90.37-28.24-16.95-45.18-62.13-56.48-90.37-5.65-33.89 0-45.19-28.24-45.19 0 124.26-22.59 141.21 45.19 169.45 5.64 5.65 45.18 28.24 50.83 28.24z"/><path d="m3084.63 4241.3c0 237.23 62.13 299.36 67.77 367.14h22.6c16.94-16.95-11.3-56.49-16.95-73.43-45.18-112.97-56.48-254.17-33.89-372.79 5.65-33.89 16.95-62.13 16.95-96.02 0-22.59 0 0-5.65-16.94-33.89 0-33.89 22.59-39.54 79.07-5.65 28.24-11.29 73.43-11.29 112.97z"/><path d="m1446.63 5958.37c0 16.95 22.59 56.48 33.89 73.43 0 0 5.65 5.65 5.65 5.65l28.24 45.18c16.94 28.25 22.59 22.6 28.24 39.54 11.3 11.3 5.65 16.95 16.94 33.89 5.65 16.95 5.65 5.65 11.3 28.24h22.59c0-22.59 11.3-45.18 11.3-67.78 0-22.59-5.65-11.29-5.65-33.89h-67.78c0-112.96-28.24-39.53-22.59-135.55 0-22.6-5.65-22.6-5.65-45.19 0-28.24 5.65-28.24 5.65-62.13-28.24 5.65-62.13 96.02-62.13 118.61z"/><path d="m2542.39 6212.54c39.54-11.29 39.54-33.89 39.54-79.07 0-22.59-11.3-11.3-33.89-11.3v28.24h-16.94c0-50.83-16.95-5.65 0-101.67 0-28.24-11.3-73.42-22.6-101.66-33.89 28.24-22.59 112.96-11.29 135.55l11.29 16.95c0 5.65 5.65 56.48 16.95 84.72z"/><path d="m932.64 3964.53c0-39.53-16.95-101.66-16.95-214.63 0-45.19 11.3-62.13 11.3-101.67h-22.6c-16.94 73.43-33.88 175.1-11.29 254.17 5.65 16.95 28.24 50.84 39.54 62.13z"/><path d="m2610.17 5596.88v22.6c73.43 0 79.08 11.29 152.5 67.78 50.84 45.18 56.49 67.77 118.62 67.77 0-22.59-5.65-22.59-22.6-28.24-56.48-39.53-16.94 0-90.37-62.13-39.54-33.89-101.67-90.37-158.15-67.78z"/><path d="m1486.17 5721.14c56.48 0 22.59-56.48 141.2-96.02 28.24-5.64 50.84 0 73.43-11.29-16.94-56.49-129.91 5.65-146.85 22.59-33.89 22.59-62.14 33.89-67.78 84.72z"/><path d="m2615.82 5862.35c28.24 0 39.54-22.59 62.13-33.89 45.19-16.94 56.48 11.3 79.08-22.59-33.89-45.19-135.56 0-141.21 56.48z"/><path d="m588.09 5783.28c11.3 5.64 28.24 0 84.73 22.59 33.89 16.94 39.53 22.59 67.78 39.54-5.65-45.19-135.56-118.62-152.51-62.13z"/><path d="m2367.3 3196.37c0-16.95 11.29-22.59-39.54-45.19-129.91-45.18-45.19 39.54 39.54 45.19z"/><path d="m689.76 7568.13c0 45.18 50.84 28.24 50.84 5.65 0-39.54-50.84-28.25-50.84-5.65z"/><path d="m723.65 5608.18c-16.94 5.65 0 0-16.94 11.3-56.49 33.89-33.89 62.13 22.59 11.29 5.65-11.29 16.94-22.59 5.65-28.24-22.6-5.65-5.65 0-11.3 5.65z"/><path d="m2344.7 5517.81c39.54-5.65 22.6-16.95 62.13-22.6 0-28.24-11.29-28.24-33.89-16.94-16.94 5.65-28.24 16.94-28.24 39.54z"/><path d="m1344.96 5726.79c22.59 16.95 33.89-11.29 39.54-22.59 16.94-16.94 16.94-11.3 28.24-33.89-22.59 5.65-62.13 28.24-67.78 56.48z"/><path d="m678.46 7426.92c0 22.59 33.89 22.59 33.89 0s-33.89-22.59-33.89 0z"/></g><g fill-rule="nonzero"><g fill="#2f2f2f"><path d="m1546.69 341.15c16.01 1.92 34.92 3.04 57.01 3.04 8.01 0 20.19-.48 36.52-1.6 16.35-.96 28.04-1.44 35.08-1.44 1.28 4.81-.8 8.17-6.56 9.93-5.77 1.76-11.21 3.36-16.51 4.64-9.6 9.77-16.33 31.71-20.33 65.82-4.01 34.1-5.93 78.46-5.93 133.07 0 43.87.96 107.12 2.73 190.07 1.92 82.95 2.88 125.86 2.88 128.9v11.37 9.61 8.65 7.2c0 18.1-.96 33.31-2.72 45.8 0 7.85 4.16 14.09 12.33 18.74 8.16 4.64 17.14 6.4 26.75 4.96 2.24.48 3.68 2.08 4 4.64.48 2.73.64 5.29.64 8.01-5.12-.64-11.05-1.12-17.62-1.44-6.41-.32-12.97-.48-19.54-.48-7.85 0-15.69 0-23.55 0-7.68 0-15.37 0-22.74 0-6.72 0-13.45-.16-20.5-.48-7.21-.16-13.94-.8-20.66-1.6 1.76-1.76 9.29-6.73 22.58-15.05 13.3-8.17 19.86-16.5 19.86-24.99v-116.41h-8.64c-30.12 52.04-68.24 94-114.21 125.54-45.96 31.55-98.67 47.4-158.08 47.4-45.17 0-83.45-7.53-114.85-22.58-31.39-15.05-52.53-38.11-63.42-69.01-10.74-30.91-18.42-83.59-22.91-157.89-4.32-74.3-7.04-145.56-8-213.62-.8-68.21-1.45-121.69-1.93-160.61 0-7.52-3.68-13.45-11.05-17.61s-16.18-7.21-26.43-8.97v-5.92h145.11c-14.89 5.28-27.22 10.09-36.68 14.57-9.45 4.32-14.25 12.81-14.25 25.14v448.2c0 25.14 7.37 48.68 21.95 70.3 14.57 21.62 35.56 39.23 62.94 52.84 27.39 13.46 58.31 20.18 92.74 20.18 29.95 0 58.94-5.6 86.82-16.65 27.7-11.05 57.33-30.11 88.73-57.33 31.39-27.22 52.85-51.56 64.54-73.02 11.7-21.46 17.62-44.35 17.62-68.69 0-51.41-.48-96.72-1.6-136.12-.96-39.39-2.08-82.3-3.36-128.74-1.12-46.6-1.76-80.55-1.76-102.32 0-11.05-2.4-20.82-7.37-29.47-4.97-8.64-10.26-13.61-16.02-15.05-5.93-1.28-10.57-1.92-14.09-1.92-2.72 0-4.81 0-6.09 0s-2.24 0-2.72 0c-.48-3.36.32-5.6 2.4-6.41 1.92-.8 4.33-1.92 6.89-3.2z"/><path d="m1722.55 800.56c8.33-9.28 22.43-20.81 42.13-34.74 19.86-13.93 31.55-22.26 35.08-24.98 1.76 3.2 2.56 7.36 2.56 12.17 0 4 .16 8 .32 11.85.16 4 1.92 7.04 4.96 9.28 13.78-7.84 29.96-14.89 48.85-21.13 18.75-6.25 37.32-9.29 55.43-9.29 13.29 0 25.3 2.08 35.88 6.24 10.72 4.17 20.01 10.89 27.86 20.18 8.01 9.29 13.46 19.38 16.34 30.1 2.88 10.89 4.32 23.06 4.32 36.83 0 7.53-.96 21.62-2.88 42.6-1.76 20.98-2.72 34.75-2.72 41.47 0 7.85.16 15.22.64 21.78.48 6.57 1.44 12.97 3.04 19.22 1.6 6.24 4.49 11.04 8.65 14.57 4.16 3.52 11.05 5.28 20.35 5.28 3.2 0 6.88-.32 11.37-.96.96 6.09-.96 9.93-5.29 11.21-6.72.48-15.38 2.24-26.27 5.28-10.89 3.05-23.54 4.65-38.28 4.65-4.8 0-8.65-.32-11.21-.8-1.76-9.61-2.88-16.66-3.04-21.14-.16-4.32-.32-7.85-.32-10.57 0-10.09 1.44-28.98 4.32-56.2 2.88-27.39 4.32-45.96 4.32-55.73 0-20.66-3.04-38.27-8.96-52.68-5.93-14.25-15.71-25.62-29.16-33.79s-27.55-12.17-42.12-12.17c-19.86 0-36.04 6.25-48.69 18.58-12.65 12.49-21.31 28.34-26.11 47.55-4.97 19.22-7.37 41.32-7.37 66.14 0 16.33.16 27.54.64 33.63.48 5.92 2.08 24.66 5.13 56.2 0 5.29 5.28 9.13 15.7 11.53 10.41 2.4 16.01 5.29 16.97 8.33-9.76.96-19.22 1.76-28.35 2.72-9.13.8-17.77 1.28-26.26 1.28-11.54 0-19.87-.32-24.99-.96-5.13-.64-11.85-2.08-20.35-4.32 9.46-9.77 16.03-21.94 19.55-36.35 3.68-14.41 5.44-32.03 5.44-52.85 0-14.25-.8-33.62-2.24-57.96s-2.08-39.56-2.08-45.32c0-6.24-1.76-9.29-5.28-9.29-1.77 0-5.29 1.12-10.25 3.37-5.14 2.24-8.5 3.2-10.26 3.2-2.72 0-5.13-1.28-7.37-4.01z"/><path d="m2262.81 341.15c12.81 1.92 25.62 3.04 38.43 3.04h27.88 21.94c7.05 0 14.74.16 23.06.8-8.32 1.77-15.37 3.37-21.14 4.97-5.76 1.6-9.28 5.6-10.57 12.33 0 52.2-.48 101.52-1.28 147.8-.81 46.28-1.77 102.16-2.57 167.66 0 55.88.96 104.4 3.05 145.55 1.93 41.16 5.77 85.83 11.54 134.19 2.56 6.25 5.44 11.05 8.64 14.57 3.04 3.53 7.37 6.25 13.13 8.01 4.49 1.28 10.42-.96 17.95-6.72 7.36-5.93 13.61-7.53 18.41-4.81-7.04 9.77-13.93 17.94-20.81 24.66-6.89 6.57-14.59 9.93-22.91 9.93-4.81 0-10.41-2.08-16.5-6.09-5.44-10.4-10.74-17.77-16.34-22.09-5.44-4.33-11.37-6.41-17.45-6.41-7.53 0-19.71 5.29-36.52 15.85-16.82 10.57-30.12 15.86-39.73 15.86-7.52 0-15.05 0-22.58 0s-14.74 0-21.94 0c-16.35 0-29.8-.96-40.69-3.05-10.88-1.92-23.7-7.68-38.76-17.45-15.05-9.77-27.55-23.38-37.48-40.99-9.93-17.62-14.89-36.83-14.89-57.49 0-13.77 2.88-31.06 8.65-52.36 5.76-21.14 18.41-39.55 38.12-55.41 19.69-16.01 40.68-26.26 63.26-31.22 22.59-4.81 39.72-7.21 51.74-7.21 15.37 0 30.43 2.08 45.01 6.25 14.57 4.32 28.98 10.08 43.08 17.61 0-19.53-2.4-62.29-7.2-128.58-4.81-66.3-7.22-115.14-7.22-146.52v-15.37c0-30.11-.64-53.81-1.92-71.1-1.44-17.14-4-29.95-7.69-38.11-3.84-8.17-8.32-12.33-13.61-12.33-4 0-8 .8-12.01 2.24s-6.73 2.24-8.01 2.24zm-105.23 426.43c-16.99 9.77-29.48 20.98-37.96 33.47-8.49 12.65-12.65 28.02-12.65 46.11 0 22.58 2.24 41.32 6.72 56.37 4.32 15.05 13.45 29.78 27.23 44.51 13.77 14.58 28.35 24.82 43.89 30.75 15.53 5.92 34.11 8.97 55.89 8.97 14.58 0 27.72-3.37 39.25-10.25 11.53-6.89 19.21-17.3 22.9-31.23 3.85-13.93 7.21-28.18 10.09-43.07 2.88-14.73 4.33-27.54 4.33-38.11 0-14.09-2.25-27.39-6.41-39.39-4.16-12.17-14.1-27.55-29.63-45.8-15.54-18.42-38.76-27.54-69.84-27.54-18.09 0-36.2 5.12-53.81 15.21z"/><path d="m2576.1 742.28c6.56-2.24 13.94-3.37 21.79-3.37 8.48 0 16.65 1.93 24.82 5.61s21.78 14.25 40.84 31.71c18.91 17.29 31.4 52.36 37.48 105.2 5.94 52.68 10.9 86.63 14.9 101.52l22.42 11.37c-4.8 3.04-12.01 5.13-21.46 6.57-9.44 1.28-19.06 1.92-28.83 1.92-5.76 0-11.53 0-17.29 0-5.78 0-11.22-.32-16.51-.64 8.01 0 13.62-2.72 16.83-8.01 3.36-5.28 4.96-12.01 4.96-20.33 0-5.77-.32-11.85-1.12-18.26-.8-6.4-1.44-12.49-1.76-18.09-1.76-4.33-4.65-6.41-8.66-6.41-4.48 0-9.13 1.92-13.93 5.93-18.09 19.21-39.08 35.54-63.1 49.32-23.87 13.77-46.46 20.65-67.6 20.65-12.49 0-24.83-3.04-37.16-9.29-12.49-6.08-22.1-13.61-28.99-22.57-6.89-8.81-10.25-20.02-10.25-33.79 0-13.13 3.68-24.98 11.21-35.39s18.59-19.54 32.84-27.38c14.41-8.01 30.91-14.57 49.81-19.54 18.74-5.12 37.8-7.68 57.18-7.68 10.25 0 19.54.64 27.87 1.92 8.49 1.12 17.3 3.36 26.59 6.72 4-4 5.92-8.8 5.92-14.57 0-3.52-1.28-8.01-4-13.29-2.56-5.28-7.69-16.49-15.21-33.79-7.53-17.13-27.23-25.78-58.95-25.78-14.57 0-27.06 3.04-37.48 9.29-10.41 6.24-24.02 16.33-40.84 30.1 7.21-16.33 17.14-30.58 29.95-42.43 12.81-12.01 28.67-21.14 47.73-27.22zm55.42 125.38c-13.3-5.77-27.87-8.65-43.72-8.65-20.35 0-39.4 4.33-57.35 13.13-17.77 8.81-29.79 18.42-35.72 28.67-5.92 10.4-8.96 18.41-8.96 24.18 0 7.04 1.76 13.45 5.28 19.37 3.52 5.93 10.25 13.93 20.19 23.7 9.92 9.93 22.25 14.89 36.84 14.89 4.32 0 13.29-1.6 26.74-4.64 13.46-3.04 31.23-13.13 53.02-30.27 21.94-17.13 32.83-33.94 32.83-50.12 0-3.04-.8-6.88-2.24-11.21-1.61-4.48-4.49-8-8.65-10.56-4.16-2.57-10.25-5.45-18.26-8.49z"/><path d="m2853.19 752.05c11.53-7.53 23.87-11.21 37.16-11.21 14.09 0 27.87 3.36 41.32 9.92 13.46 6.73 29.48 16.34 48.05 29.15-14.09 16.49-41.64 41.95-82.64 76.7-40.85 34.75-65.51 56.53-74 65.33 9.29 14.09 20.66 25.78 33.95 34.75 13.14 9.13 24.99 14.25 35.4 15.69 10.41 1.29 18.27 1.93 23.71 1.93 11.85 0 21.94-1.61 30.11-4.97 8.17-3.2 27.23-14.09 56.86-32.5-9.29 11.85-17.3 21.29-23.87 28.18-6.72 6.88-13.77 11.37-21.29 13.93-7.53 2.4-20.83 7.37-40.05 14.89-19.22 7.53-33.63 11.21-43.4 11.21-6.25 0-10.74-.32-13.62-.96-2.89-.64-11.37-4.32-25.46-10.73-14.27-6.4-28.84-19.69-44.05-39.71-15.38-20.18-23.55-36.83-24.99-50.12-1.28-13.29-1.92-22.58-1.92-27.86 0-25.79 7.68-48.04 22.91-66.78 15.21-18.89 37.15-37.79 65.82-56.84zm40.52 23.37c-8.8-5.76-18.89-8.64-29.95-8.64-19.54 0-35.55 8-48.05 24.18-12.33 16.17-18.57 34.59-18.57 55.4 0 20.34 6.24 40.19 18.73 59.73 19.07-12.01 41-29.78 65.83-53.48 24.82-23.54 41.49-38.75 49.97-45.32-4-6.24-8.64-11.37-13.93-15.69-5.44-4.17-13.3-9.61-24.03-16.18z"/></g><g fill="#770ba0"><path d="m1546.69 331.02c16.02 1.92 34.92 3.04 57.02 3.04 8.01 0 20.18-.48 36.51-1.6 16.35-.96 28.04-1.44 35.08-1.44 1.28 4.81-.8 8.17-6.56 9.93-5.77 1.76-11.21 3.36-16.5 4.64-9.6 9.77-16.34 31.71-20.34 65.82-4.01 34.1-5.93 78.46-5.93 133.07 0 43.87.96 107.12 2.73 190.07 1.92 82.95 2.88 125.86 2.88 128.9v11.37 9.61 8.65 7.2c0 18.1-.96 33.31-2.72 45.8 0 7.85 4.16 14.09 12.33 18.74 8.17 4.64 17.14 6.4 26.75 4.96 2.24.48 3.68 2.08 4 4.64.48 2.73.64 5.29.64 8.01-5.12-.64-11.05-1.12-17.61-1.44-6.41-.32-12.98-.48-19.55-.48-7.85 0-15.69 0-23.54 0-7.68 0-15.38 0-22.75 0-6.72 0-13.45-.16-20.49-.48-7.22-.16-13.95-.8-20.67-1.6 1.76-1.76 9.29-6.73 22.59-15.05 13.29-8.17 19.85-16.5 19.85-24.99v-116.41h-8.64c-30.12 52.04-68.24 94-114.21 125.54-45.96 31.55-98.66 47.4-158.08 47.4-45.17 0-83.45-7.53-114.85-22.58-31.38-15.05-52.53-38.11-63.42-69.01-10.73-30.91-18.42-83.59-22.91-157.89-4.32-74.3-7.04-145.56-8-213.62-.8-68.21-1.45-121.69-1.93-160.61 0-7.52-3.68-13.45-11.04-17.61-7.37-4.16-16.19-7.21-26.44-8.97v-5.92h145.12c-14.9 5.28-27.23 10.09-36.68 14.57-9.45 4.32-14.26 12.81-14.26 25.14v448.2c0 25.14 7.38 48.68 21.95 70.3s35.56 39.23 62.95 52.84c27.38 13.46 58.3 20.18 92.73 20.18 29.96 0 58.94-5.6 86.82-16.65 27.71-11.05 57.33-30.11 88.73-57.33 31.39-27.22 52.85-51.56 64.55-73.02 11.69-21.46 17.61-44.35 17.61-68.69 0-51.41-.48-96.72-1.6-136.12-.96-39.39-2.08-82.3-3.36-128.74-1.12-46.6-1.76-80.55-1.76-102.32 0-11.05-2.4-20.82-7.37-29.47-4.96-8.64-10.25-13.61-16.02-15.05-5.93-1.28-10.57-1.92-14.09-1.92-2.72 0-4.81 0-6.09 0s-2.24 0-2.72 0c-.48-3.36.32-5.6 2.4-6.41 1.92-.8 4.33-1.92 6.89-3.2z"/><path d="m1722.55 790.43c8.34-9.28 22.43-20.81 42.14-34.74 19.85-13.93 31.54-22.26 35.07-24.98 1.76 3.2 2.56 7.36 2.56 12.17 0 4 .16 8 .32 11.85.16 4 1.93 7.04 4.97 9.28 13.77-7.84 29.95-14.89 48.85-21.13 18.74-6.25 37.32-9.29 55.42-9.29 13.29 0 25.31 2.08 35.88 6.24 10.72 4.17 20.02 10.89 27.87 20.18 8 9.29 13.45 19.38 16.33 30.1 2.88 10.89 4.32 23.06 4.32 36.83 0 7.53-.96 21.62-2.88 42.6-1.76 20.98-2.72 34.75-2.72 41.47 0 7.85.16 15.22.64 21.78.48 6.57 1.44 12.97 3.04 19.22 1.6 6.24 4.49 11.04 8.65 14.57 4.17 3.52 11.06 5.28 20.35 5.28 3.2 0 6.88-.32 11.37-.96.96 6.09-.96 9.93-5.29 11.21-6.72.48-15.37 2.24-26.27 5.28-10.89 3.05-23.54 4.65-38.28 4.65-4.8 0-8.65-.32-11.21-.8-1.76-9.61-2.88-16.66-3.04-21.14-.16-4.32-.32-7.85-.32-10.57 0-10.09 1.44-28.98 4.32-56.2 2.88-27.39 4.32-45.96 4.32-55.73 0-20.66-3.04-38.27-8.96-52.68-5.93-14.25-15.7-25.62-29.16-33.79-13.45-8.17-27.54-12.17-42.12-12.17-19.86 0-36.04 6.25-48.69 18.58-12.65 12.49-21.3 28.34-26.11 47.55-4.97 19.22-7.37 41.32-7.37 66.14 0 16.33.16 27.54.64 33.63.48 5.92 2.08 24.66 5.13 56.2 0 5.29 5.29 9.13 15.7 11.53s16.01 5.29 16.97 8.33c-9.76.96-19.21 1.76-28.34 2.72-9.14.8-17.78 1.28-26.27 1.28-11.53 0-19.87-.32-24.99-.96-5.13-.64-11.85-2.08-20.34-4.32 9.45-9.77 16.02-21.94 19.54-36.35 3.68-14.41 5.44-32.03 5.44-52.85 0-14.25-.8-33.62-2.24-57.96s-2.08-39.56-2.08-45.32c0-6.24-1.76-9.29-5.28-9.29-1.77 0-5.29 1.12-10.25 3.37-5.13 2.24-8.49 3.2-10.25 3.2-2.72 0-5.13-1.28-7.38-4.01z"/><path d="m2262.81 331.02c12.81 1.92 25.62 3.04 38.44 3.04h27.87 21.94c7.05 0 14.74.16 23.07.8-8.33 1.77-15.38 3.37-21.15 4.97-5.76 1.6-9.28 5.6-10.56 12.33 0 52.2-.48 101.52-1.28 147.8-.81 46.28-1.77 102.16-2.57 167.66 0 55.88.96 104.4 3.05 145.55 1.92 41.16 5.76 85.83 11.53 134.19 2.56 6.25 5.44 11.05 8.64 14.57 3.04 3.53 7.37 6.25 13.14 8.01 4.49 1.28 10.41-.96 17.94-6.72 7.36-5.93 13.61-7.53 18.42-4.81-7.05 9.77-13.94 17.94-20.82 24.66-6.89 6.57-14.58 9.93-22.91 9.93-4.81 0-10.41-2.08-16.5-6.09-5.44-10.4-10.73-17.77-16.33-22.09-5.45-4.33-11.38-6.41-17.46-6.41-7.53 0-19.7 5.29-36.52 15.85-16.82 10.57-30.11 15.86-39.73 15.86-7.52 0-15.05 0-22.57 0-7.53 0-14.75 0-21.95 0-16.34 0-29.8-.96-40.69-3.05-10.88-1.92-23.69-7.68-38.76-17.45-15.05-9.77-27.54-23.38-37.48-40.99-9.93-17.62-14.89-36.83-14.89-57.49 0-13.77 2.88-31.06 8.65-52.36 5.76-21.14 18.42-39.55 38.12-55.41 19.7-16.01 40.68-26.26 63.27-31.22 22.58-4.81 39.72-7.21 51.73-7.21 15.37 0 30.44 2.08 45.01 6.25 14.57 4.32 28.99 10.08 43.08 17.61 0-19.53-2.4-62.29-7.2-128.58-4.81-66.3-7.21-115.14-7.21-146.52v-15.37c0-30.11-.64-53.81-1.92-71.1-1.44-17.14-4-29.95-7.69-38.11-3.85-8.17-8.33-12.33-13.62-12.33-4 0-8 .8-12.01 2.24-4 1.44-6.72 2.24-8 2.24zm-105.23 426.43c-16.98 9.77-29.47 20.98-37.96 33.47-8.49 12.65-12.65 28.02-12.65 46.11 0 22.58 2.24 41.32 6.72 56.37 4.32 15.05 13.45 29.78 27.23 44.51 13.77 14.58 28.36 24.82 43.89 30.75 15.53 5.92 34.12 8.97 55.89 8.97 14.59 0 27.72-3.37 39.25-10.25 11.54-6.89 19.22-17.3 22.9-31.23 3.85-13.93 7.21-28.18 10.09-43.07 2.88-14.73 4.33-27.54 4.33-38.11 0-14.09-2.25-27.39-6.41-39.39-4.16-12.17-14.09-27.55-29.63-45.8-15.54-18.42-38.76-27.54-69.83-27.54-18.1 0-36.2 5.12-53.82 15.21z"/><path d="m2576.11 732.15c6.56-2.24 13.93-3.37 21.78-3.37 8.48 0 16.66 1.93 24.83 5.61 8.16 3.68 21.77 14.25 40.84 31.71 18.9 17.29 31.4 52.36 37.48 105.2 5.93 52.68 10.89 86.63 14.89 101.52l22.43 11.37c-4.81 3.04-12.02 5.13-21.47 6.57-9.44 1.28-19.05 1.92-28.83 1.92-5.76 0-11.53 0-17.29 0-5.77 0-11.21-.32-16.5-.64 8.01 0 13.61-2.72 16.82-8.01 3.36-5.28 4.96-12.01 4.96-20.33 0-5.77-.32-11.85-1.12-18.26-.8-6.4-1.44-12.49-1.76-18.09-1.76-4.33-4.65-6.41-8.65-6.41-4.48 0-9.13 1.92-13.94 5.93-18.09 19.21-39.08 35.54-63.1 49.32-23.87 13.77-46.45 20.65-67.6 20.65-12.49 0-24.82-3.04-37.16-9.29-12.49-6.08-22.09-13.61-28.98-22.57-6.9-8.81-10.26-20.02-10.26-33.79 0-13.13 3.68-24.98 11.22-35.39 7.53-10.41 18.58-19.54 32.83-27.38 14.42-8.01 30.91-14.57 49.82-19.54 18.73-5.12 37.8-7.68 57.17-7.68 10.25 0 19.55.64 27.88 1.92 8.48 1.12 17.29 3.36 26.58 6.72 4.01-4 5.93-8.8 5.93-14.57 0-3.52-1.28-8.01-4.01-13.29-2.56-5.28-7.69-16.49-15.21-33.79-7.53-17.13-27.23-25.78-58.94-25.78-14.58 0-27.07 3.04-37.48 9.29-10.42 6.24-24.03 16.33-40.84 30.1 7.2-16.33 17.13-30.58 29.94-42.43 12.82-12.01 28.67-21.14 47.74-27.22zm55.41 125.38c-13.29-5.77-27.87-8.65-43.72-8.65-20.35 0-39.4 4.33-57.35 13.13-17.77 8.81-29.78 18.42-35.71 28.67-5.93 10.4-8.97 18.41-8.97 24.18 0 7.04 1.76 13.45 5.28 19.37 3.53 5.93 10.26 13.93 20.19 23.7 9.92 9.93 22.26 14.89 36.84 14.89 4.32 0 13.29-1.6 26.75-4.64 13.45-3.04 31.22-13.13 53.01-30.27 21.94-17.13 32.84-33.94 32.84-50.12 0-3.04-.8-6.88-2.24-11.21-1.61-4.48-4.49-8-8.66-10.56-4.16-2.57-10.25-5.45-18.26-8.49z"/><path d="m2853.19 741.92c11.54-7.53 23.87-11.21 37.16-11.21 14.1 0 27.87 3.36 41.32 9.92 13.47 6.73 29.48 16.34 48.06 29.15-14.1 16.49-41.64 41.95-82.64 76.7-40.85 34.75-65.52 56.53-74 65.33 9.28 14.09 20.65 25.78 33.95 34.75 13.13 9.13 24.98 14.25 35.39 15.69 10.42 1.29 18.27 1.93 23.71 1.93 11.85 0 21.95-1.61 30.12-4.97 8.16-3.2 27.22-14.09 56.85-32.5-9.29 11.85-17.29 21.29-23.86 28.18-6.73 6.88-13.78 11.37-21.3 13.93-7.53 2.4-20.82 7.37-40.05 14.89-19.21 7.53-33.63 11.21-43.4 11.21-6.25 0-10.73-.32-13.61-.96-2.89-.64-11.38-4.32-25.47-10.73-14.26-6.4-28.84-19.69-44.05-39.71-15.37-20.18-23.55-36.83-24.99-50.12-1.28-13.29-1.92-22.58-1.92-27.86 0-25.79 7.68-48.04 22.91-66.78 15.21-18.89 37.16-37.79 65.82-56.84zm40.52 23.37c-8.8-5.76-18.89-8.64-29.94-8.64-19.55 0-35.56 8-48.05 24.18-12.34 16.17-18.58 34.59-18.58 55.4 0 20.34 6.24 40.19 18.74 59.73 19.06-12.01 41-29.78 65.82-53.48 24.83-23.54 41.49-38.75 49.97-45.32-4-6.24-8.64-11.37-13.93-15.69-5.44-4.17-13.29-9.61-24.03-16.18z"/></g></g></svg>