<svg clip-rule="evenodd" fill-rule="evenodd" height="128.5mm" image-rendering="optimizeQuality" shape-rendering="geometricPrecision" text-rendering="geometricPrecision" viewBox="0 0 5080 12850" width="50.8mm" xmlns="http://www.w3.org/2000/svg"><g fill-rule="nonzero"><g fill="#2f2f2f"><path d="m215.03 625.34c3.52-.16 10.89-.48 22.26-.64 11.22-.16 17.14-.16 17.46-.16h29.95 12.49c4.49 0 9.29-.16 14.58-.48 5.28-.32 12.34-1.12 21.3-2.88.8 5.77-6.88 10.41-23.22 14.09-2.25 2.57-4.49 5.29-6.73 7.85 26.11 61.17 53.97 126.18 83.61 194.72 29.63 68.69 56.7 129.38 81.2 182.23 24.51 52.68 52.22 107.76 83.13 165.41 17.3-13.29 32.68-35.39 46.45-65.97 13.62-30.75 27.39-58.77 41-84.07 13.78-25.3 29.8-58.77 48.06-100.4 18.42-41.48 38.28-89.52 59.74-143.64 21.31-54.28 41.64-105.21 60.55-152.76l-29.64-13.3v-3.52l121.09-.64v9.61c-4.48-1.92-8.16-2.88-11.21-2.88-6.73 0-12.82 3.68-18.58 10.73-6.25 9.28-18.74 29.3-37.8 60.2-19.06 30.75-43.73 76.55-74.16 137.56-30.59 60.85-68.07 138.35-112.43 232.34-44.38 93.84-79.45 166.06-105.08 216.66l-9.93-10.57c-27.71-64.37-59.27-135.31-94.34-212.81-35.24-77.5-66.63-145.88-94.18-205.13-27.55-59.09-52.21-111.13-73.84-155.8-21.62-44.84-34.76-68.22-39.08-70.14-4.49-1.92-8.65-3.84-12.65-5.61z"/><path d="m834.56 1032.4c11.54-7.53 23.87-11.21 37.16-11.21 14.1 0 27.87 3.36 41.32 9.92 13.47 6.73 29.48 16.34 48.05 29.15-14.09 16.49-41.64 41.95-82.64 76.7-40.85 34.75-65.51 56.53-74 65.33 9.29 14.09 20.66 25.78 33.95 34.75 13.14 9.13 24.99 14.25 35.4 15.69 10.41 1.29 18.27 1.93 23.71 1.93 11.85 0 21.94-1.61 30.12-4.97 8.16-3.2 27.22-14.09 56.85-32.5-9.29 11.85-17.29 21.29-23.87 28.18-6.72 6.88-13.77 11.37-21.29 13.93-7.53 2.4-20.83 7.37-40.05 14.89-19.22 7.53-33.63 11.21-43.4 11.21-6.25 0-10.74-.32-13.62-.96-2.89-.64-11.37-4.32-25.46-10.73-14.27-6.4-28.84-19.69-44.05-39.71-15.38-20.18-23.55-36.83-24.99-50.12-1.28-13.29-1.92-22.58-1.92-27.86 0-25.79 7.68-48.04 22.91-66.78 15.21-18.89 37.16-37.79 65.82-56.84zm40.52 23.37c-8.8-5.76-18.89-8.64-29.95-8.64-19.54 0-35.55 8-48.05 24.18-12.33 16.17-18.57 34.59-18.57 55.4 0 20.34 6.24 40.19 18.73 59.73 19.07-12.01 41-29.78 65.83-53.48 24.83-23.54 41.49-38.75 49.97-45.32-4-6.24-8.64-11.37-13.93-15.69-5.44-4.17-13.29-9.61-24.03-16.18z"/><path d="m1005.62 628.07c11.06-1.76 26.91-3.21 47.74-4.65 20.81-1.28 47.88-1.92 81.52-1.92-.96 4.01-7.21 6.89-19.22 8.65-11.85 1.76-17.78 7.04-17.78 15.85 0 61.49.16 123.14.32 184.63s.48 130.67.96 207.69.64 131.95.64 164.61c0 16.02 1.93 28.83 5.61 38.6 3.68 9.6 12.17 16.33 25.47 19.85 6.56.8 13.45-.96 20.82-5.44 7.2-4.65 14.25-9.13 20.82-13.77.8 1.28 1.28 3.52 1.28 6.72 0 6.73-4 12.65-12.18 17.62-8.16 4.96-15.53 9.28-21.77 13.13-6.41 3.84-14.91 5.76-25.47 5.76-5.29 0-10.41-.48-15.22-1.28-4.8-.96-11.7-2.72-20.5-5.28l-10.57-13.3-19.22-488.71-5.29-129.39c-1.76-7.52-6.73-12.17-14.73-13.93-7.85-1.76-15.7-3.68-23.23-5.44z"/><path d="m1329.64 1022.63c6.57-2.24 13.94-3.37 21.79-3.37 8.48 0 16.65 1.93 24.83 5.61 8.16 3.68 21.77 14.25 40.84 31.71 18.9 17.29 31.39 52.36 37.48 105.2 5.93 52.68 10.89 86.63 14.89 101.52l22.42 11.37c-4.8 3.04-12.01 5.13-21.46 6.57-9.44 1.28-19.06 1.92-28.83 1.92-5.76 0-11.53 0-17.29 0-5.77 0-11.21-.32-16.51-.64 8.02 0 13.62-2.72 16.83-8.01 3.36-5.28 4.96-12.01 4.96-20.33 0-5.77-.32-11.85-1.12-18.26-.8-6.4-1.44-12.49-1.76-18.09-1.76-4.33-4.65-6.41-8.65-6.41-4.48 0-9.14 1.92-13.94 5.93-18.09 19.21-39.08 35.54-63.1 49.32-23.87 13.77-46.45 20.65-67.6 20.65-12.49 0-24.83-3.04-37.16-9.29-12.49-6.08-22.09-13.61-28.99-22.57-6.89-8.81-10.25-20.02-10.25-33.79 0-13.13 3.68-24.98 11.21-35.39 7.54-10.41 18.59-19.54 32.84-27.38 14.42-8.01 30.91-14.57 49.82-19.54 18.73-5.12 37.79-7.68 57.17-7.68 10.25 0 19.54.64 27.88 1.92 8.48 1.12 17.29 3.36 26.58 6.72 4-4 5.92-8.8 5.92-14.57 0-3.52-1.28-8.01-4-13.29-2.56-5.28-7.69-16.49-15.21-33.79-7.53-17.13-27.23-25.78-58.95-25.78-14.57 0-27.06 3.04-37.47 9.29-10.42 6.24-24.03 16.33-40.84 30.1 7.2-16.33 17.13-30.58 29.94-42.43 12.82-12.01 28.67-21.14 47.73-27.22zm55.42 125.38c-13.29-5.77-27.87-8.65-43.72-8.65-20.35 0-39.4 4.33-57.35 13.13-17.77 8.81-29.78 18.42-35.72 28.67-5.92 10.4-8.96 18.41-8.96 24.18 0 7.04 1.76 13.45 5.28 19.37 3.52 5.93 10.26 13.93 20.19 23.7 9.92 9.93 22.25 14.89 36.84 14.89 4.32 0 13.29-1.6 26.74-4.64 13.46-3.04 31.23-13.13 53.02-30.27 21.94-17.13 32.84-33.94 32.84-50.12 0-3.04-.8-6.88-2.24-11.21-1.62-4.48-4.5-8-8.66-10.56-4.16-2.57-10.25-5.45-18.26-8.49z"/><path d="m1615.71 1025.99 6.72 41.79c5.29-1.76 20.98-9.92 47.09-24.66 25.95-14.57 46.61-21.93 61.66-21.93 9.62 0 20.35 2.72 31.72 8 12.01 16.34 24.83 24.5 38.44 24.5 6.24 0 13.93-3.68 23.23-11.05 9.28-7.2 18.89-12.65 28.5-16.17 9.78-3.52 21.79-5.28 35.88-5.28 15.38 0 28.99 3.68 40.36 10.89 11.54 7.36 17.31 17.13 17.31 29.62 0 26.9 1.28 63.89 3.84 110.81s3.84 72.38 3.84 76.38c2.72 4 7.53 5.93 14.57 5.93 7.05 0 11.86 1.44 13.95 4-7.38 7.04-18.75 12.81-33.64 17.29-18.11 4.49-31.24 7.53-39.72 9.29-3.37-6.56-5.13-14.89-5.13-24.5 0-6.24.64-15.21 1.92-26.9s1.93-19.38 1.93-22.9c0-12.01.48-27.22 1.44-45.8.96-18.57 1.44-28.82 1.44-30.58 0-20.34-2.56-37.31-7.69-51.08-4.96-13.61-15.06-25.78-30.11-36.51-4.01-1.28-8.17-1.92-12.49-1.92-10.26 0-19.23 2.4-27.24 7.36-8 4.81-18.26 12.97-31.07 24.5-6.73 13.13-11.21 28.18-13.61 45-2.4 16.81-3.68 35.39-3.68 55.72 0 13.61.16 27.07.64 40.36s.8 26.26 1.28 39.07c.96 3.52 4.96 6.72 12.17 9.29 7.2 2.72 10.89 5.6 10.89 8.64 0 2.24-.8 4.81-2.57 8.01-7.04 0-16.65.32-28.5 1.12-11.86.8-19.06 1.12-21.79 1.12-11.85 0-22.42-1.76-31.71-5.28 6.24-16.02 10.9-33.63 14.26-53.17 3.36-19.53 4.96-38.91 4.96-58.44 0-16.82-.96-33.31-2.72-49.48-1.76-16.02-4.16-32.99-7.21-50.77-4.81-7.04-10.57-12.01-17.14-14.89-6.72-2.88-14.25-4.32-22.58-4.32-7.05 0-18.42 2.56-34.12 7.69-15.7 5.12-27.71 17.45-36.03 36.99-8.49 19.69-12.66 43.71-12.66 72.21 0 8.33.48 23.06 1.45 44.04.8 20.98 1.28 31.55 1.28 32.03 0 10.24 2.72 17.77 8 22.73l22.74 8.01c-3.04 4.48-8.16 7.69-15.21 9.61-7.21 2.08-15.37 3.04-24.67 3.04-3.52 0-9.93-.32-18.9-.8-9.12-.48-16.18-.8-20.98-.8-5.77.48-9.93.64-12.65.64-.48-4 2.72-10.09 9.28-18.58 6.57-8.32 10.26-15.05 10.9-19.85.64-4.81.96-10.89.96-18.26 0-7.2 0-12.81 0-16.81 0-17.77-.96-41.95-2.89-72.86-2.08-31.06-3.04-47.56-3.04-49.8-1.28-5.76-4.64-8.65-9.93-8.65-2.56 0-6.72.64-12.17 1.77-5.6 1.12-8.81 1.6-9.77 1.6-3.04 0-5.45-.48-7.21-1.28 6.57-7.53 19.38-16.66 38.44-27.55s32.52-20.17 40.52-28.18z"/><path d="m2069.94 982.27c3.85-3.52 8.81-14.41 14.89-32.66 5.93-18.26 14.27-27.38 24.83-27.38 4.81 0 10.57 1.28 17.14 4 0 10.25-2.56 21.14-7.53 32.99-5.12 11.85-12.33 21.29-21.63 28.34-1.76-.48-5.92-.96-12.49-1.28-6.72-.48-11.69-1.76-15.21-4.01zm33 40.84c.48 40.51 1.12 81.02 2.08 121.7.8 40.67 1.92 68.53 3.36 83.74 1.28 15.06 4.65 23.86 10.25 26.27 5.45 2.4 12.17 3.68 20.19 3.68 8.81 0 15.85-.64 21.14-1.92v6.08c-12.33 7.37-26.76 12.81-43.41 16.66-16.49 3.84-32.84 5.76-48.69 5.92-2.56-11.05-4.48-22.26-5.6-33.47-1.13-11.21-1.61-24.66-1.61-40.03 0-8.01.16-20.18.64-36.83.49-16.49.65-28.66.65-36.67v-8.65c0-21.61-1.13-37.95-3.37-48.84-2.25-11.04-6.09-16.65-11.86-16.65-2.72 0-6.72.64-12.33 1.76-5.44.96-8.64 1.6-9.6 1.6-5.77 0-9.94-2.08-12.5-5.92 13.62-4.96 27.39-9.77 41-14.57 14.1-6.25 27.23-14.09 39.08-23.86z"/><path d="m2183.66 1080.91c8.33-9.28 22.42-20.81 42.13-34.74 19.85-13.93 31.54-22.26 35.08-24.98 1.76 3.2 2.56 7.36 2.56 12.17 0 4 .16 8 .32 11.85.16 4 1.92 7.04 4.96 9.28 13.77-7.84 29.95-14.89 48.85-21.13 18.74-6.25 37.32-9.29 55.42-9.29 13.3 0 25.31 2.08 35.88 6.24 10.72 4.17 20.02 10.89 27.87 20.18 8 9.29 13.45 19.38 16.33 30.1 2.88 10.89 4.32 23.06 4.32 36.83 0 7.53-.96 21.62-2.88 42.6-1.76 20.98-2.72 34.75-2.72 41.47 0 7.85.16 15.22.64 21.78.48 6.57 1.44 12.97 3.04 19.22 1.6 6.24 4.49 11.04 8.66 14.57 4.16 3.52 11.05 5.28 20.34 5.28 3.2 0 6.88-.32 11.37-.96.96 6.09-.96 9.93-5.29 11.21-6.72.48-15.37 2.24-26.26 5.28-10.9 3.05-23.55 4.65-38.28 4.65-4.81 0-8.66-.32-11.22-.8-1.76-9.61-2.88-16.66-3.04-21.14-.16-4.32-.32-7.85-.32-10.57 0-10.09 1.44-28.98 4.32-56.2 2.88-27.39 4.32-45.96 4.32-55.73 0-20.66-3.04-38.27-8.96-52.68-5.93-14.25-15.7-25.62-29.15-33.79-13.46-8.17-27.55-12.17-42.13-12.17-19.86 0-36.03 6.25-48.69 18.58-12.65 12.49-21.3 28.34-26.1 47.55-4.97 19.22-7.38 41.32-7.38 66.14 0 16.33.16 27.54.64 33.63.48 5.92 2.09 24.66 5.14 56.2 0 5.29 5.28 9.13 15.69 11.53s16.01 5.29 16.97 8.33c-9.76.96-19.21 1.76-28.34 2.72-9.14.8-17.78 1.28-26.27 1.28-11.53 0-19.86-.32-24.99-.96s-11.85-2.08-20.34-4.32c9.45-9.77 16.02-21.94 19.54-36.35 3.68-14.41 5.45-32.03 5.45-52.85 0-14.25-.8-33.62-2.25-57.96-1.44-24.34-2.08-39.56-2.08-45.32 0-6.24-1.76-9.29-5.28-9.29-1.77 0-5.29 1.12-10.25 3.37-5.13 2.24-8.49 3.2-10.25 3.2-2.72 0-5.13-1.28-7.37-4.01z"/><path d="m2659.36 1022.63c6.57-2.24 13.94-3.37 21.79-3.37 8.48 0 16.65 1.93 24.83 5.61 8.16 3.68 21.77 14.25 40.84 31.71 18.9 17.29 31.39 52.36 37.47 105.2 5.94 52.68 10.9 86.63 14.9 101.52l22.42 11.37c-4.8 3.04-12.01 5.13-21.46 6.57-9.44 1.28-19.06 1.92-28.83 1.92-5.76 0-11.53 0-17.29 0-5.77 0-11.22-.32-16.51-.64 8.02 0 13.62-2.72 16.83-8.01 3.36-5.28 4.96-12.01 4.96-20.33 0-5.77-.32-11.85-1.12-18.26-.8-6.4-1.44-12.49-1.76-18.09-1.76-4.33-4.65-6.41-8.65-6.41-4.49 0-9.14 1.92-13.94 5.93-18.09 19.21-39.08 35.54-63.1 49.32-23.87 13.77-46.45 20.65-67.6 20.65-12.49 0-24.83-3.04-37.16-9.29-12.49-6.08-22.09-13.61-28.99-22.57-6.89-8.81-10.25-20.02-10.25-33.79 0-13.13 3.68-24.98 11.21-35.39 7.54-10.41 18.59-19.54 32.84-27.38 14.42-8.01 30.91-14.57 49.81-19.54 18.74-5.12 37.8-7.68 57.18-7.68 10.25 0 19.54.64 27.88 1.92 8.48 1.12 17.29 3.36 26.58 6.72 4-4 5.92-8.8 5.92-14.57 0-3.52-1.28-8.01-4-13.29-2.56-5.28-7.69-16.49-15.21-33.79-7.53-17.13-27.23-25.78-58.95-25.78-14.57 0-27.06 3.04-37.48 9.29-10.41 6.24-24.02 16.33-40.84 30.1 7.21-16.33 17.14-30.58 29.95-42.43 12.82-12.01 28.67-21.14 47.73-27.22zm55.42 125.38c-13.3-5.77-27.87-8.65-43.72-8.65-20.35 0-39.4 4.33-57.35 13.13-17.77 8.81-29.78 18.42-35.72 28.67-5.92 10.4-8.96 18.41-8.96 24.18 0 7.04 1.76 13.45 5.28 19.37 3.52 5.93 10.26 13.93 20.19 23.7 9.92 9.93 22.25 14.89 36.84 14.89 4.32 0 13.29-1.6 26.74-4.64 13.46-3.04 31.23-13.13 53.02-30.27 21.94-17.13 32.83-33.94 32.83-50.12 0-3.04-.8-6.88-2.24-11.21-1.61-4.48-4.49-8-8.65-10.56-4.16-2.57-10.25-5.45-18.26-8.49z"/></g><g fill="#dddad6"><path d="m215.03 615.21c3.52-.16 10.9-.48 22.27-.64 11.21-.16 17.13-.16 17.45-.16h29.95 12.49c4.49 0 9.29-.16 14.59-.48 5.28-.32 12.33-1.12 21.29-2.88.8 5.77-6.88 10.41-23.21 14.09-2.25 2.57-4.5 5.29-6.74 7.85 26.11 61.17 53.98 126.18 83.61 194.72 29.63 68.69 56.7 129.38 81.2 182.23 24.51 52.68 52.23 107.76 83.14 165.41 17.29-13.29 32.67-35.39 46.45-65.97 13.61-30.75 27.38-58.77 41-84.07 13.77-25.3 29.79-58.77 48.05-100.4 18.42-41.48 38.28-89.52 59.74-143.64 21.31-54.28 41.64-105.21 60.55-152.76l-29.64-13.3v-3.52l121.09-.64v9.61c-4.48-1.92-8.16-2.88-11.21-2.88-6.72 0-12.81 3.68-18.58 10.73-6.25 9.28-18.74 29.3-37.8 60.2-19.06 30.75-43.73 76.55-74.15 137.56-30.6 60.85-68.08 138.35-112.44 232.34-44.37 93.84-79.45 166.06-105.08 216.66l-9.93-10.57c-27.71-64.37-59.26-135.31-94.33-212.81-35.24-77.5-66.64-145.88-94.19-205.13-27.54-59.09-52.21-111.13-73.83-155.8-21.63-44.84-34.76-68.22-39.08-70.14-4.5-1.92-8.66-3.84-12.66-5.61z"/><path d="m834.57 1022.27c11.53-7.53 23.86-11.21 37.15-11.21 14.1 0 27.87 3.36 41.33 9.92 13.46 6.73 29.47 16.34 48.05 29.15-14.1 16.49-41.64 41.95-82.64 76.7-40.85 34.75-65.52 56.53-74 65.33 9.28 14.09 20.65 25.78 33.95 34.75 13.13 9.13 24.98 14.25 35.4 15.69 10.41 1.29 18.26 1.93 23.7 1.93 11.85 0 21.95-1.61 30.12-4.97 8.16-3.2 27.23-14.09 56.85-32.5-9.29 11.85-17.29 21.29-23.86 28.18-6.72 6.88-13.78 11.37-21.3 13.93-7.53 2.4-20.82 7.37-40.05 14.89-19.21 7.53-33.63 11.21-43.4 11.21-6.25 0-10.73-.32-13.61-.96-2.89-.64-11.38-4.32-25.47-10.73-14.26-6.4-28.84-19.69-44.05-39.71-15.37-20.18-23.55-36.83-24.99-50.12-1.28-13.29-1.92-22.58-1.92-27.86 0-25.79 7.69-48.04 22.91-66.78 15.21-18.89 37.16-37.79 65.83-56.84zm40.52 23.37c-8.81-5.76-18.9-8.64-29.95-8.64-19.55 0-35.56 8-48.05 24.18-12.34 16.17-18.58 34.59-18.58 55.4 0 20.34 6.24 40.19 18.74 59.73 19.06-12.01 41-29.78 65.82-53.48 24.83-23.54 41.49-38.75 49.98-45.32-4.01-6.24-8.65-11.37-13.94-15.69-5.44-4.17-13.29-9.61-24.02-16.18z"/><path d="m1005.63 617.94c11.05-1.76 26.9-3.21 47.73-4.65 20.81-1.28 47.88-1.92 81.52-1.92-.96 4.01-7.2 6.89-19.21 8.65-11.86 1.76-17.79 7.04-17.79 15.85 0 61.49.16 123.14.32 184.63s.48 130.67.96 207.69.64 131.95.64 164.61c0 16.02 1.93 28.83 5.61 38.6 3.68 9.6 12.18 16.33 25.47 19.85 6.56.8 13.45-.96 20.82-5.44 7.21-4.65 14.26-9.13 20.82-13.77.8 1.28 1.28 3.52 1.28 6.72 0 6.73-4 12.65-12.17 17.62-8.17 4.96-15.54 9.28-21.78 13.13-6.41 3.84-14.9 5.76-25.47 5.76-5.29 0-10.41-.48-15.22-1.28-4.8-.96-11.69-2.72-20.49-5.28l-10.58-13.3-19.22-488.71-5.28-129.39c-1.76-7.52-6.73-12.17-14.74-13.93-7.85-1.76-15.7-3.68-23.22-5.44z"/><path d="m1329.65 1012.5c6.56-2.24 13.93-3.37 21.78-3.37 8.49 0 16.66 1.93 24.83 5.61 8.16 3.68 21.78 14.25 40.84 31.71 18.9 17.29 31.4 52.36 37.48 105.2 5.93 52.68 10.89 86.63 14.89 101.52l22.43 11.37c-4.8 3.04-12.01 5.13-21.47 6.57-9.44 1.28-19.05 1.92-28.82 1.92-5.77 0-11.54 0-17.3 0-5.77 0-11.21-.32-16.5-.64 8.01 0 13.61-2.72 16.82-8.01 3.36-5.28 4.96-12.01 4.96-20.33 0-5.77-.32-11.85-1.12-18.26-.8-6.4-1.44-12.49-1.76-18.09-1.76-4.33-4.65-6.41-8.65-6.41-4.48 0-9.13 1.92-13.93 5.93-18.1 19.21-39.08 35.54-63.11 49.32-23.86 13.77-46.45 20.65-67.6 20.65-12.49 0-24.82-3.04-37.16-9.29-12.49-6.08-22.09-13.61-28.98-22.57-6.89-8.81-10.25-20.02-10.25-33.79 0-13.13 3.68-24.98 11.21-35.39s18.58-19.54 32.84-27.38c14.41-8.01 30.9-14.57 49.81-19.54 18.73-5.12 37.8-7.68 57.17-7.68 10.26 0 19.55.64 27.88 1.92 8.48 1.12 17.29 3.36 26.59 6.72 4-4 5.92-8.8 5.92-14.57 0-3.52-1.28-8.01-4-13.29-2.56-5.28-7.7-16.49-15.22-33.79-7.53-17.13-27.22-25.78-58.94-25.78-14.58 0-27.07 3.04-37.48 9.29-10.41 6.24-24.03 16.33-40.84 30.1 7.2-16.33 17.13-30.58 29.95-42.43 12.81-12.01 28.66-21.14 47.73-27.22zm55.41 125.38c-13.29-5.77-27.87-8.65-43.72-8.65-20.34 0-39.4 4.33-57.34 13.13-17.78 8.81-29.79 18.42-35.72 28.67-5.92 10.4-8.96 18.41-8.96 24.18 0 7.04 1.76 13.45 5.28 19.37 3.52 5.93 10.25 13.93 20.18 23.7 9.92 9.93 22.26 14.89 36.84 14.89 4.32 0 13.29-1.6 26.75-4.64 13.45-3.04 31.23-13.13 53.01-30.27 21.95-17.13 32.84-33.94 32.84-50.12 0-3.04-.8-6.88-2.24-11.21-1.61-4.48-4.49-8-8.65-10.56-4.16-2.57-10.26-5.45-18.27-8.49z"/><path d="m1615.71 1015.86 6.72 41.79c5.29-1.76 20.99-9.92 47.09-24.66 25.95-14.57 46.61-21.93 61.67-21.93 9.61 0 20.34 2.72 31.72 8 12.01 16.34 24.82 24.5 38.43 24.5 6.25 0 13.94-3.68 23.23-11.05 9.28-7.2 18.9-12.65 28.51-16.17 9.77-3.52 21.78-5.28 35.88-5.28 15.37 0 28.98 3.68 40.36 10.89 11.53 7.36 17.3 17.13 17.3 29.62 0 26.9 1.28 63.89 3.84 110.81s3.84 72.38 3.84 76.38c2.72 4 7.53 5.93 14.58 5.93s11.85 1.44 13.94 4c-7.37 7.04-18.74 12.81-33.64 17.29-18.1 4.49-31.24 7.53-39.72 9.29-3.37-6.56-5.13-14.89-5.13-24.5 0-6.24.64-15.21 1.92-26.9s1.93-19.38 1.93-22.9c0-12.01.48-27.22 1.44-45.8.96-18.57 1.44-28.82 1.44-30.58 0-20.34-2.56-37.31-7.69-51.08-4.96-13.61-15.05-25.78-30.11-36.51-4.01-1.28-8.17-1.92-12.49-1.92-10.25 0-19.23 2.4-27.24 7.36-8 4.81-18.25 12.97-31.06 24.5-6.74 13.13-11.22 28.18-13.62 45-2.4 16.81-3.68 35.39-3.68 55.72 0 13.61.16 27.07.64 40.36s.8 26.26 1.28 39.07c.96 3.52 4.96 6.72 12.17 9.29 7.21 2.72 10.9 5.6 10.9 8.64 0 2.24-.8 4.81-2.57 8.01-7.05 0-16.66.32-28.51 1.12s-19.06 1.12-21.79 1.12c-11.85 0-22.42-1.76-31.7-5.28 6.24-16.02 10.89-33.63 14.25-53.17 3.36-19.53 4.96-38.91 4.96-58.44 0-16.82-.96-33.31-2.72-49.48-1.76-16.02-4.16-32.99-7.21-50.77-4.8-7.04-10.56-12.01-17.14-14.89-6.72-2.88-14.25-4.32-22.58-4.32-7.04 0-18.42 2.56-34.12 7.69-15.69 5.12-27.71 17.45-36.03 36.99-8.49 19.69-12.65 43.71-12.65 72.21 0 8.33.48 23.06 1.44 44.04.8 20.98 1.28 31.55 1.28 32.03 0 10.24 2.72 17.77 8 22.73l22.75 8.01c-3.04 4.48-8.17 7.69-15.22 9.61-7.21 2.08-15.37 3.04-24.66 3.04-3.52 0-9.94-.32-18.91-.8-9.12-.48-16.17-.8-20.97-.8-5.77.48-9.94.64-12.66.64-.48-4 2.72-10.09 9.29-18.58 6.57-8.32 10.25-15.05 10.89-19.85.64-4.81.96-10.89.96-18.26 0-7.2 0-12.81 0-16.81 0-17.77-.96-41.95-2.88-72.86-2.08-31.06-3.04-47.56-3.04-49.8-1.28-5.76-4.64-8.65-9.94-8.65-2.56 0-6.72.64-12.17 1.77-5.6 1.12-8.81 1.6-9.77 1.6-3.04 0-5.44-.48-7.2-1.28 6.56-7.53 19.37-16.66 38.44-27.55 19.05-10.89 32.52-20.17 40.52-28.18z"/><path d="m2069.94 972.14c3.85-3.52 8.81-14.41 14.89-32.66 5.94-18.26 14.27-27.38 24.83-27.38 4.81 0 10.57 1.28 17.15 4 0 10.25-2.57 21.14-7.54 32.99-5.12 11.85-12.33 21.29-21.62 28.34-1.76-.48-5.92-.96-12.49-1.28-6.73-.48-11.7-1.76-15.22-4.01zm33 40.84c.48 40.51 1.12 81.02 2.08 121.7.8 40.67 1.92 68.53 3.36 83.74 1.28 15.06 4.65 23.86 10.25 26.27 5.45 2.4 12.18 3.68 20.19 3.68 8.81 0 15.85-.64 21.14-1.92v6.08c-12.33 7.37-26.75 12.81-43.41 16.66-16.49 3.84-32.84 5.76-48.69 5.92-2.56-11.05-4.48-22.26-5.6-33.47-1.13-11.21-1.61-24.66-1.61-40.03 0-8.01.16-20.18.64-36.83.49-16.49.65-28.66.65-36.67v-8.65c0-21.61-1.13-37.95-3.37-48.84-2.24-11.04-6.08-16.65-11.85-16.65-2.73 0-6.73.64-12.34 1.76-5.44.96-8.64 1.6-9.6 1.6-5.77 0-9.93-2.08-12.49-5.92 13.61-4.96 27.38-9.77 41-14.57 14.09-6.25 27.22-14.09 39.08-23.86z"/><path d="m2183.66 1070.78c8.33-9.28 22.42-20.81 42.13-34.74 19.85-13.93 31.55-22.26 35.08-24.98 1.76 3.2 2.56 7.36 2.56 12.17 0 4 .16 8 .32 11.85.16 4 1.92 7.04 4.96 9.28 13.77-7.84 29.96-14.89 48.85-21.13 18.75-6.25 37.32-9.29 55.43-9.29 13.29 0 25.3 2.08 35.88 6.24 10.72 4.17 20.01 10.89 27.86 20.18 8 9.29 13.46 19.38 16.34 30.1 2.88 10.89 4.32 23.06 4.32 36.83 0 7.53-.96 21.62-2.88 42.6-1.76 20.98-2.72 34.75-2.72 41.47 0 7.85.16 15.22.64 21.78.48 6.57 1.44 12.97 3.04 19.22 1.6 6.24 4.49 11.04 8.65 14.57 4.16 3.52 11.05 5.28 20.34 5.28 3.2 0 6.89-.32 11.38-.96.96 6.09-.96 9.93-5.29 11.21-6.73.48-15.38 2.24-26.27 5.28-10.89 3.05-23.55 4.65-38.28 4.65-4.8 0-8.65-.32-11.21-.8-1.76-9.61-2.88-16.66-3.04-21.14-.16-4.32-.32-7.85-.32-10.57 0-10.09 1.44-28.98 4.32-56.2 2.88-27.39 4.32-45.96 4.32-55.73 0-20.66-3.04-38.27-8.96-52.68-5.94-14.25-15.71-25.62-29.16-33.79s-27.55-12.17-42.12-12.17c-19.87 0-36.04 6.25-48.69 18.58-12.66 12.49-21.31 28.34-26.11 47.55-4.97 19.22-7.37 41.32-7.37 66.14 0 16.33.16 27.54.64 33.63.48 5.92 2.08 24.66 5.13 56.2 0 5.29 5.28 9.13 15.69 11.53 10.42 2.4 16.02 5.29 16.98 8.33-9.77.96-19.22 1.76-28.35 2.72-9.13.8-17.77 1.28-26.27 1.28-11.53 0-19.86-.32-24.98-.96-5.13-.64-11.86-2.08-20.35-4.32 9.45-9.77 16.03-21.94 19.55-36.35 3.68-14.41 5.44-32.03 5.44-52.85 0-14.25-.8-33.62-2.24-57.96s-2.08-39.56-2.08-45.32c0-6.24-1.76-9.29-5.28-9.29-1.77 0-5.3 1.12-10.26 3.37-5.13 2.24-8.49 3.2-10.25 3.2-2.72 0-5.13-1.28-7.37-4.01z"/><path d="m2659.37 1012.5c6.56-2.24 13.93-3.37 21.78-3.37 8.48 0 16.66 1.93 24.83 5.61 8.16 3.68 21.77 14.25 40.84 31.71 18.9 17.29 31.4 52.36 37.48 105.2 5.93 52.68 10.89 86.63 14.89 101.52l22.43 11.37c-4.8 3.04-12.02 5.13-21.47 6.57-9.44 1.28-19.05 1.92-28.83 1.92-5.76 0-11.53 0-17.29 0-5.77 0-11.21-.32-16.5-.64 8.01 0 13.61-2.72 16.82-8.01 3.36-5.28 4.96-12.01 4.96-20.33 0-5.77-.32-11.85-1.12-18.26-.8-6.4-1.44-12.49-1.76-18.09-1.76-4.33-4.65-6.41-8.65-6.41-4.48 0-9.13 1.92-13.93 5.93-18.1 19.21-39.08 35.54-63.11 49.32-23.87 13.77-46.45 20.65-67.6 20.65-12.49 0-24.82-3.04-37.16-9.29-12.49-6.08-22.09-13.61-28.98-22.57-6.89-8.81-10.26-20.02-10.26-33.79 0-13.13 3.69-24.98 11.22-35.39s18.58-19.54 32.84-27.38c14.41-8.01 30.9-14.57 49.81-19.54 18.73-5.12 37.8-7.68 57.17-7.68 10.25 0 19.55.64 27.88 1.92 8.48 1.12 17.29 3.36 26.59 6.72 4-4 5.92-8.8 5.92-14.57 0-3.52-1.28-8.01-4-13.29-2.57-5.28-7.7-16.49-15.22-33.79-7.53-17.13-27.22-25.78-58.94-25.78-14.58 0-27.07 3.04-37.48 9.29-10.41 6.24-24.03 16.33-40.84 30.1 7.2-16.33 17.13-30.58 29.95-42.43 12.81-12.01 28.66-21.14 47.73-27.22zm55.41 125.38c-13.29-5.77-27.87-8.65-43.72-8.65-20.35 0-39.4 4.33-57.34 13.13-17.78 8.81-29.79 18.42-35.72 28.67-5.92 10.4-8.97 18.41-8.97 24.18 0 7.04 1.77 13.45 5.29 19.37 3.52 5.93 10.25 13.93 20.18 23.7 9.92 9.93 22.26 14.89 36.84 14.89 4.32 0 13.29-1.6 26.75-4.64 13.45-3.04 31.22-13.13 53.01-30.27 21.95-17.13 32.84-33.94 32.84-50.12 0-3.04-.8-6.88-2.24-11.21-1.61-4.48-4.49-8-8.65-10.56-4.17-2.57-10.26-5.45-18.27-8.49z"/></g></g></svg>