<svg clip-rule="evenodd" fill-rule="evenodd" height="128.5mm" image-rendering="optimizeQuality" shape-rendering="geometricPrecision" text-rendering="geometricPrecision" viewBox="0 0 3048 12850" width="30.48mm" xmlns="http://www.w3.org/2000/svg"><g fill-rule="nonzero"><g fill="#333"><path d="m82.56 474.03c2.98-.13 9.21-.4 18.85-.54 9.49-.14 14.51-.14 14.78-.14h25.36 10.58c3.79 0 7.86-.13 12.34-.4 4.47-.27 10.44-.95 18.04-2.44.68 4.88-5.84 8.81-19.67 11.93-1.9 2.17-3.8 4.47-5.7 6.64 22.1 51.79 45.7 106.84 70.8 164.87 25.08 58.16 48 109.55 68.75 154.29 20.75 44.6 44.21 91.24 70.38 140.05 14.64-11.25 27.67-29.96 39.33-55.86 11.52-26.03 23.19-49.76 34.72-71.18 11.66-21.42 25.23-49.75 40.68-85.01 15.59-35.11 32.42-75.78 50.58-121.61 18.05-45.96 35.26-89.08 51.26-129.34l-25.08-11.26v-2.98l102.52-.54v8.13c-3.8-1.62-6.91-2.44-9.49-2.44-5.7 0-10.85 3.12-15.73 9.09-5.29 7.86-15.87 24.81-32.01 50.97-16.13 26.04-37.02 64.81-62.79 116.47-25.89 51.52-57.63 117.14-95.2 196.72-37.56 79.45-67.26 140.6-88.96 183.44l-8.4-8.94c-23.47-54.51-50.19-114.57-79.88-180.19-29.84-65.62-56.42-123.51-79.74-173.68-23.33-50.03-44.21-94.09-62.52-131.92-18.31-37.96-29.43-57.76-33.09-59.38-3.8-1.63-7.33-3.26-10.71-4.75z"/><path d="m610.9 776.24c3.26-2.98 7.46-12.2 12.61-27.66 5.03-15.45 12.08-23.18 21.03-23.18 4.06 0 8.94 1.08 14.5 3.39 0 8.67-2.17 17.89-6.37 27.93-4.34 10.03-10.44 18.03-18.3 23.99-1.49-.4-5.02-.81-10.59-1.08-5.69-.41-9.9-1.49-12.88-3.39zm27.94 34.57c.41 34.31.95 68.61 1.76 103.04.68 34.44 1.63 58.03 2.85 70.91 1.09 12.75 3.93 20.2 8.68 22.24 4.61 2.03 10.3 3.12 17.09 3.12 7.46 0 13.42-.55 17.9-1.63v5.15c-10.44 6.24-22.65 10.85-36.75 14.1-13.97 3.26-27.81 4.88-41.23 5.02-2.17-9.36-3.8-18.85-4.75-28.34-.94-9.49-1.35-20.88-1.35-33.89 0-6.78.13-17.09.54-31.19.41-13.96.54-24.27.54-31.04v-7.33c0-18.3-.95-32.13-2.84-41.35-1.9-9.35-5.16-14.1-10.04-14.1-2.3 0-5.69.54-10.45 1.49-4.61.82-7.32 1.36-8.13 1.36-4.88 0-8.41-1.76-10.58-5.02 11.53-4.2 23.2-8.27 34.72-12.34 11.93-5.28 23.05-11.93 33.09-20.2z"/><path d="m785.84 813.25 5.71 35.39c4.47-1.49 17.76-8.41 39.87-20.88 21.96-12.34 39.46-18.57 52.21-18.57 8.13 0 17.21 2.3 26.85 6.78 10.17 13.82 21.02 20.74 32.54 20.74 5.29 0 11.8-3.12 19.67-9.36 7.86-6.1 16-10.71 24.13-13.69 8.28-2.98 18.45-4.47 30.38-4.47 13.03 0 24.55 3.11 34.18 9.22 9.76 6.23 14.64 14.5 14.64 25.08 0 22.78 1.09 54.09 3.25 93.82 2.18 39.72 3.27 61.28 3.27 64.67 2.3 3.39 6.37 5.02 12.34 5.02 5.96 0 10.03 1.22 11.79 3.39-6.24 5.96-15.86 10.84-28.48 14.64-15.32 3.8-26.44 6.37-33.62 7.86-2.85-5.56-4.34-12.61-4.34-20.74 0-5.29.54-12.88 1.62-22.78 1.09-9.9 1.63-16.4 1.63-19.39 0-10.16.41-23.04 1.22-38.77s1.22-24.41 1.22-25.9c0-17.22-2.17-31.59-6.52-43.25-4.2-11.52-12.74-21.83-25.49-30.91-3.38-1.08-6.91-1.63-10.57-1.63-8.69 0-16.28 2.04-23.06 6.24-6.78 4.07-15.46 10.98-26.31 20.74-5.7 11.12-9.49 23.87-11.53 38.1-2.03 14.24-3.11 29.97-3.11 47.18 0 11.53.13 22.92.54 34.17.4 11.25.68 22.23 1.08 33.08.82 2.98 4.21 5.7 10.31 7.87 6.1 2.3 9.23 4.74 9.23 7.32 0 1.89-.68 4.06-2.18 6.78-5.97 0-14.1.27-24.14.94-10.03.68-16.14.95-18.45.95-10.03 0-18.98-1.49-26.84-4.47 5.29-13.56 9.22-28.47 12.07-45.01 2.84-16.54 4.2-32.95 4.2-49.49 0-14.24-.81-28.2-2.31-41.89-1.49-13.56-3.52-27.93-6.1-42.98-4.06-5.97-8.94-10.17-14.5-12.61-5.71-2.44-12.08-3.66-19.13-3.66-5.97 0-15.59 2.17-28.89 6.51-13.29 4.33-23.45 14.77-30.5 31.31-7.2 16.68-10.73 37.02-10.73 61.15 0 7.05.41 19.52 1.23 37.29.67 17.76 1.08 26.7 1.08 27.11 0 8.68 2.31 15.05 6.79 19.25l19.25 6.78c-2.57 3.8-6.91 6.51-12.88 8.14-6.1 1.76-13.02 2.57-20.89 2.57-2.98 0-8.4-.27-16-.67-7.72-.41-13.69-.68-17.77-.68-4.88.4-8.4.54-10.71.54-.41-3.39 2.31-8.54 7.87-15.73 5.55-7.05 8.68-12.74 9.22-16.81.55-4.07.82-9.22.82-15.46 0-6.1 0-10.84 0-14.23 0-15.05-.82-35.52-2.44-61.69-1.76-26.3-2.59-40.27-2.59-42.17-1.08-4.88-3.93-7.32-8.4-7.32-2.17 0-5.7.55-10.31 1.49-4.74.95-7.46 1.36-8.27 1.36-2.57 0-4.61-.41-6.1-1.08 5.56-6.38 16.41-14.1 32.54-23.32 16.14-9.22 27.53-17.09 34.31-23.87z"/><path d="m1170.44 776.24c3.26-2.98 7.46-12.2 12.61-27.66 5.02-15.45 12.08-23.18 21.03-23.18 4.06 0 8.94 1.08 14.5 3.39 0 8.67-2.17 17.89-6.37 27.93-4.34 10.03-10.44 18.03-18.3 23.99-1.49-.4-5.03-.81-10.59-1.08-5.69-.41-9.9-1.49-12.88-3.39zm27.94 34.57c.41 34.31.95 68.61 1.76 103.04.68 34.44 1.63 58.03 2.85 70.91 1.09 12.75 3.93 20.2 8.68 22.24 4.61 2.03 10.3 3.12 17.08 3.12 7.47 0 13.43-.55 17.91-1.63v5.15c-10.44 6.24-22.65 10.85-36.75 14.1-13.97 3.26-27.81 4.88-41.23 5.02-2.17-9.36-3.8-18.85-4.75-28.34-.94-9.49-1.35-20.88-1.35-33.89 0-6.78.13-17.09.54-31.19.41-13.96.54-24.27.54-31.04v-7.33c0-18.3-.95-32.13-2.84-41.35-1.9-9.35-5.16-14.1-10.04-14.1-2.31 0-5.7.54-10.45 1.49-4.61.82-7.32 1.36-8.13 1.36-4.88 0-8.41-1.76-10.58-5.02 11.53-4.2 23.19-8.27 34.72-12.34 11.93-5.28 23.05-11.93 33.08-20.2z"/><path d="m1266.73 859.76c7.06-7.87 18.99-17.63 35.66-29.42 16.83-11.8 26.72-18.85 29.71-21.15 1.49 2.71 2.16 6.23 2.16 10.3 0 3.39.14 6.78.28 10.03.13 3.39 1.62 5.97 4.2 7.87 11.66-6.65 25.36-12.61 41.36-17.9 15.87-5.29 31.6-7.86 46.92-7.86 11.26 0 21.43 1.76 30.38 5.28 9.09 3.53 16.96 9.22 23.6 17.09 6.78 7.86 11.39 16.4 13.83 25.49 2.44 9.22 3.66 19.52 3.66 31.18 0 6.37-.81 18.3-2.44 36.06-1.49 17.77-2.3 29.43-2.3 35.12 0 6.64.13 12.88.54 18.44s1.22 10.98 2.57 16.27c1.36 5.29 3.8 9.35 7.33 12.34 3.52 2.98 9.35 4.47 17.22 4.47 2.72 0 5.83-.27 9.63-.81.81 5.15-.81 8.4-4.47 9.49-5.7.4-13.03 1.9-22.25 4.47-9.22 2.58-19.93 3.93-32.41 3.93-4.07 0-7.32-.27-9.49-.67-1.49-8.14-2.44-14.11-2.58-17.9-.13-3.66-.27-6.64-.27-8.95 0-8.54 1.22-24.54 3.66-47.59 2.44-23.18 3.66-38.91 3.66-47.18 0-17.49-2.57-32.4-7.59-44.61-5.02-12.06-13.29-21.69-24.68-28.6-11.39-6.92-23.33-10.31-35.66-10.31-16.83 0-30.52 5.29-41.23 15.73-10.72 10.58-18.04 24-22.11 40.27-4.2 16.27-6.24 34.98-6.24 55.99 0 13.83.14 23.32.55 28.47.4 5.02 1.76 20.88 4.33 47.59 0 4.48 4.48 7.73 13.29 9.76 8.82 2.04 13.57 4.48 14.38 7.05-8.27.82-16.28 1.5-24 2.31-7.73.68-15.05 1.08-22.24 1.08-9.77 0-16.82-.27-21.16-.81s-10.03-1.76-17.22-3.66c8-8.27 13.56-18.58 16.54-30.78 3.12-12.2 4.61-27.11 4.61-44.74 0-12.07-.68-28.47-1.9-49.08s-1.76-33.49-1.76-38.37c0-5.29-1.49-7.86-4.47-7.86-1.49 0-4.48.95-8.68 2.85-4.34 1.89-7.19 2.71-8.68 2.71-2.31 0-4.35-1.09-6.24-3.39z"/><path d="m1669.5 810.41c5.56-1.9 11.81-2.85 18.45-2.85 7.19 0 14.1 1.63 21.02 4.74 6.91 3.12 18.45 12.07 34.58 26.85 16.01 14.64 26.58 44.33 31.73 89.08 5.02 44.6 9.22 73.34 12.61 85.95l18.99 9.63c-4.06 2.58-10.17 4.34-18.17 5.56-8 1.08-16.14 1.63-24.41 1.63-4.88 0-9.77 0-14.65 0s-9.49-.28-13.96-.55c6.77 0 11.52-2.3 14.23-6.78 2.85-4.47 4.2-10.16 4.2-17.21 0-4.89-.27-10.04-.94-15.46-.68-5.42-1.22-10.58-1.5-15.32-1.49-3.66-3.93-5.42-7.32-5.42-3.79 0-7.73 1.62-11.79 5.01-15.32 16.27-33.09 30.1-53.43 41.76-20.21 11.66-39.33 17.49-57.24 17.49-10.57 0-21.01-2.58-31.46-7.86-10.58-5.16-18.71-11.53-24.54-19.12-5.83-7.46-8.68-16.95-8.68-28.61 0-11.11 3.12-21.15 9.49-29.96 6.38-8.81 15.73-16.54 27.8-23.18 12.21-6.78 26.17-12.34 42.18-16.55 15.86-4.33 32-6.5 48.41-6.5 8.68 0 16.54.54 23.6 1.62 7.18.95 14.65 2.85 22.51 5.7 3.39-3.39 5.02-7.46 5.02-12.34 0-2.98-1.09-6.78-3.39-11.25-2.17-4.48-6.51-13.97-12.88-28.61-6.38-14.51-23.06-21.83-49.92-21.83-12.33 0-22.91 2.58-31.72 7.86-8.82 5.29-20.35 13.83-34.58 25.49 6.1-13.83 14.5-25.89 25.35-35.92 10.86-10.17 24.28-17.9 40.41-23.05zm46.92 106.16c-11.25-4.89-23.59-7.33-37.01-7.33-17.23 0-33.36 3.67-48.56 11.12-15.05 7.46-25.22 15.59-30.23 24.27-5.02 8.81-7.6 15.59-7.6 20.47 0 5.97 1.49 11.39 4.48 16.41 2.98 5.02 8.68 11.79 17.08 20.06 8.41 8.41 18.85 12.61 31.2 12.61 3.66 0 11.25-1.35 22.64-3.93 11.4-2.57 26.45-11.12 44.88-25.62 18.59-14.51 27.81-28.75 27.81-42.44 0-2.58-.68-5.83-1.9-9.49-1.36-3.8-3.8-6.78-7.32-8.95-3.53-2.17-8.68-4.61-15.47-7.18z"/></g><g fill="#dddad6"><path d="m82.56 465.45c2.98-.13 9.22-.4 18.85-.54 9.49-.14 14.51-.14 14.78-.14h25.36 10.58c3.79 0 7.86-.13 12.34-.4 4.47-.27 10.45-.95 18.04-2.44.68 4.88-5.83 8.81-19.67 11.93-1.9 2.17-3.8 4.47-5.7 6.64 22.11 51.79 45.7 106.84 70.8 164.87 25.09 58.16 48 109.55 68.76 154.29 20.74 44.6 44.21 91.24 70.37 140.05 14.65-11.25 27.67-29.96 39.33-55.86 11.53-26.03 23.19-49.76 34.72-71.18 11.67-21.42 25.23-49.75 40.68-85.01 15.6-35.11 32.42-75.78 50.58-121.61 18.05-45.96 35.26-89.08 51.27-129.34l-25.09-11.26v-2.98l102.53-.54v8.13c-3.8-1.62-6.92-2.44-9.5-2.44-5.7 0-10.85 3.12-15.73 9.09-5.29 7.86-15.86 24.81-32.01 50.97-16.13 26.04-37.02 64.81-62.78 116.47-25.9 51.52-57.64 117.14-95.21 196.72-37.56 79.45-67.25 140.6-88.96 183.44l-8.4-8.94c-23.47-54.51-50.18-114.57-79.88-180.19-29.84-65.62-56.41-123.51-79.74-173.68-23.33-50.03-44.21-94.09-62.52-131.92-18.31-37.96-29.42-57.76-33.08-59.38-3.8-1.63-7.34-3.26-10.72-4.75z"/><path d="m610.9 767.66c3.27-2.98 7.47-12.2 12.62-27.66 5.02-15.45 12.07-23.18 21.02-23.18 4.06 0 8.94 1.08 14.51 3.39 0 8.67-2.17 17.89-6.38 27.93-4.34 10.03-10.44 18.03-18.3 23.99-1.49-.4-5.02-.81-10.58-1.08-5.69-.41-9.91-1.49-12.89-3.39zm27.94 34.57c.41 34.31.95 68.61 1.76 103.04.68 34.44 1.63 58.03 2.85 70.91 1.09 12.75 3.93 20.2 8.68 22.24 4.62 2.03 10.31 3.12 17.09 3.12 7.46 0 13.42-.55 17.9-1.63v5.15c-10.44 6.24-22.64 10.85-36.75 14.1-13.97 3.26-27.8 4.88-41.23 5.02-2.17-9.36-3.8-18.85-4.75-28.34-.94-9.49-1.35-20.88-1.35-33.89 0-6.78.13-17.09.54-31.19.41-13.96.54-24.27.54-31.04v-7.33c0-18.3-.95-32.13-2.84-41.35-1.9-9.35-5.16-14.1-10.04-14.1-2.3 0-5.69.54-10.44 1.49-4.61.82-7.33 1.36-8.14 1.36-4.88 0-8.41-1.76-10.58-5.02 11.53-4.2 23.2-8.27 34.72-12.34 11.93-5.28 23.06-11.93 33.09-20.2z"/><path d="m785.85 804.67 5.7 35.39c4.47-1.49 17.76-8.41 39.87-20.88 21.96-12.34 39.46-18.57 52.21-18.57 8.13 0 17.22 2.3 26.85 6.78 10.17 13.82 21.02 20.74 32.55 20.74 5.29 0 11.79-3.12 19.66-9.36 7.86-6.1 16.01-10.71 24.14-13.69 8.27-2.98 18.44-4.47 30.37-4.47 13.03 0 24.55 3.11 34.18 9.22 9.77 6.23 14.65 14.5 14.65 25.08 0 22.78 1.09 54.09 3.25 93.82 2.17 39.72 3.26 61.28 3.26 64.67 2.3 3.39 6.37 5.02 12.34 5.02 5.96 0 10.03 1.22 11.79 3.39-6.24 5.96-15.86 10.84-28.47 14.64-15.33 3.8-26.45 6.37-33.63 7.86-2.85-5.56-4.34-12.61-4.34-20.74 0-5.29.54-12.88 1.62-22.78 1.09-9.9 1.63-16.4 1.63-19.39 0-10.16.41-23.04 1.22-38.77s1.22-24.41 1.22-25.9c0-17.22-2.17-31.59-6.51-43.25-4.2-11.52-12.75-21.83-25.5-30.91-3.38-1.08-6.91-1.63-10.57-1.63-8.68 0-16.28 2.04-23.06 6.24-6.78 4.07-15.46 10.98-26.3 20.74-5.7 11.12-9.5 23.87-11.54 38.1-2.03 14.24-3.11 29.97-3.11 47.18 0 11.53.13 22.92.54 34.17.4 11.25.68 22.23 1.08 33.08.82 2.98 4.21 5.7 10.32 7.87 6.1 2.3 9.22 4.74 9.22 7.32 0 1.89-.68 4.06-2.17 6.78-5.97 0-14.11.27-24.15.94-10.03.68-16.13.95-18.44.95-10.04 0-18.99-1.49-26.85-4.47 5.29-13.56 9.22-28.47 12.07-45.01 2.84-16.54 4.2-32.95 4.2-49.49 0-14.24-.81-28.2-2.31-41.89-1.49-13.56-3.52-27.93-6.1-42.98-4.06-5.97-8.94-10.17-14.5-12.61-5.7-2.44-12.07-3.66-19.13-3.66-5.97 0-15.59 2.17-28.88 6.51-13.3 4.33-23.46 14.77-30.51 31.31-7.19 16.68-10.72 37.02-10.72 61.15 0 7.05.41 19.52 1.23 37.29.67 17.76 1.08 26.7 1.08 27.11 0 8.68 2.3 15.05 6.78 19.25l19.25 6.78c-2.57 3.8-6.91 6.51-12.88 8.14-6.1 1.76-13.01 2.57-20.88 2.57-2.99 0-8.41-.27-16.01-.67-7.72-.41-13.69-.68-17.76-.68-4.88.4-8.4.54-10.72.54-.41-3.39 2.32-8.54 7.88-15.73 5.55-7.05 8.67-12.74 9.21-16.81.55-4.07.82-9.22.82-15.46 0-6.1 0-10.84 0-14.23 0-15.05-.82-35.52-2.44-61.69-1.76-26.3-2.58-40.27-2.58-42.17-1.08-4.88-3.93-7.32-8.4-7.32-2.17 0-5.71.55-10.32 1.49-4.74.95-7.46 1.36-8.27 1.36-2.57 0-4.61-.41-6.1-1.08 5.56-6.38 16.41-14.1 32.55-23.32 16.13-9.22 27.52-17.09 34.31-23.87z"/><path d="m1170.44 767.66c3.26-2.98 7.46-12.2 12.62-27.66 5.02-15.45 12.07-23.18 21.02-23.18 4.06 0 8.94 1.08 14.5 3.39 0 8.67-2.17 17.89-6.37 27.93-4.34 10.03-10.44 18.03-18.3 23.99-1.49-.4-5.02-.81-10.58-1.08-5.7-.41-9.91-1.49-12.89-3.39zm27.94 34.57c.41 34.31.95 68.61 1.76 103.04.68 34.44 1.63 58.03 2.85 70.91 1.09 12.75 3.93 20.2 8.68 22.24 4.61 2.03 10.31 3.12 17.09 3.12 7.46 0 13.42-.55 17.9-1.63v5.15c-10.44 6.24-22.64 10.85-36.75 14.1-13.97 3.26-27.8 4.88-41.23 5.02-2.17-9.36-3.8-18.85-4.75-28.34-.94-9.49-1.35-20.88-1.35-33.89 0-6.78.13-17.09.54-31.19.41-13.96.54-24.27.54-31.04v-7.33c0-18.3-.95-32.13-2.84-41.35-1.9-9.35-5.16-14.1-10.04-14.1-2.3 0-5.69.54-10.44 1.49-4.62.82-7.33 1.36-8.14 1.36-4.88 0-8.41-1.76-10.58-5.02 11.53-4.2 23.2-8.27 34.72-12.34 11.93-5.28 23.05-11.93 33.09-20.2z"/><path d="m1266.74 851.18c7.05-7.87 18.98-17.63 35.66-29.42 16.82-11.8 26.71-18.85 29.7-21.15 1.49 2.71 2.16 6.23 2.16 10.3 0 3.39.14 6.78.28 10.03.13 3.39 1.62 5.97 4.2 7.87 11.67-6.65 25.36-12.61 41.36-17.9 15.87-5.29 31.6-7.86 46.93-7.86 11.25 0 21.42 1.76 30.37 5.28 9.1 3.53 16.96 9.22 23.6 17.09 6.78 7.86 11.39 16.4 13.83 25.49 2.44 9.22 3.66 19.52 3.66 31.18 0 6.37-.81 18.3-2.44 36.06-1.49 17.77-2.3 29.43-2.3 35.12 0 6.64.13 12.88.54 18.44s1.22 10.98 2.57 16.27c1.36 5.29 3.8 9.35 7.34 12.34 3.52 2.98 9.35 4.47 17.21 4.47 2.72 0 5.83-.27 9.63-.81.81 5.15-.81 8.4-4.47 9.49-5.7.4-13.02 1.9-22.24 4.47-9.23 2.58-19.94 3.93-32.41 3.93-4.07 0-7.32-.27-9.5-.67-1.49-8.14-2.44-14.11-2.58-17.9-.13-3.66-.27-6.64-.27-8.95 0-8.54 1.22-24.54 3.67-47.59 2.44-23.18 3.66-38.91 3.66-47.18 0-17.49-2.57-32.4-7.6-44.61-5.02-12.06-13.29-21.69-24.68-28.6-11.38-6.92-23.33-10.31-35.66-10.31-16.82 0-30.52 5.29-41.23 15.73-10.71 10.58-18.04 24-22.11 40.27-4.2 16.27-6.24 34.98-6.24 55.99 0 13.83.14 23.32.55 28.47.4 5.02 1.76 20.88 4.33 47.59 0 4.48 4.48 7.73 13.3 9.76 8.81 2.04 13.56 4.48 14.37 7.05-8.27.82-16.27 1.5-24 2.31-7.73.68-15.05 1.08-22.24 1.08-9.76 0-16.82-.27-21.16-.81s-10.03-1.76-17.22-3.66c8-8.27 13.56-18.58 16.54-30.78 3.12-12.2 4.61-27.11 4.61-44.74 0-12.07-.68-28.47-1.9-49.08s-1.76-33.49-1.76-38.37c0-5.29-1.49-7.86-4.47-7.86-1.49 0-4.48.95-8.68 2.85-4.34 1.89-7.19 2.71-8.68 2.71-2.3 0-4.34-1.09-6.23-3.39z"/><path d="m1669.51 801.83c5.56-1.9 11.8-2.85 18.44-2.85 7.19 0 14.1 1.63 21.03 4.74 6.91 3.12 18.44 12.07 34.57 26.85 16.01 14.64 26.58 44.33 31.73 89.08 5.02 44.6 9.22 73.34 12.62 85.95l18.98 9.63c-4.06 2.58-10.16 4.34-18.16 5.56-8.01 1.08-16.15 1.63-24.42 1.63-4.88 0-9.76 0-14.64 0-4.89 0-9.5-.28-13.97-.55 6.77 0 11.53-2.3 14.24-6.78 2.85-4.47 4.2-10.16 4.2-17.21 0-4.89-.27-10.04-.94-15.46-.68-5.42-1.22-10.58-1.5-15.32-1.49-3.66-3.93-5.42-7.33-5.42-3.79 0-7.73 1.62-11.79 5.01-15.32 16.27-33.09 30.1-53.43 41.76-20.21 11.66-39.33 17.49-57.24 17.49-10.57 0-21.01-2.58-31.45-7.86-10.59-5.16-18.72-11.53-24.55-19.12-5.83-7.46-8.68-16.95-8.68-28.61 0-11.11 3.12-21.15 9.49-29.96 6.38-8.81 15.73-16.54 27.81-23.18 12.2-6.78 26.16-12.34 42.17-16.55 15.86-4.33 32.01-6.5 48.41-6.5 8.68 0 16.54.54 23.61 1.62 7.18.95 14.64 2.85 22.5 5.7 3.39-3.39 5.02-7.46 5.02-12.34 0-2.98-1.09-6.78-3.39-11.25-2.17-4.48-6.51-13.97-12.88-28.61-6.37-14.51-23.06-21.83-49.91-21.83-12.34 0-22.92 2.58-31.73 7.86-8.81 5.29-20.35 13.83-34.58 25.49 6.1-13.83 14.5-25.89 25.36-35.92 10.85-10.17 24.27-17.9 40.41-23.05zm46.92 106.16c-11.26-4.89-23.6-7.33-37.02-7.33-17.23 0-33.36 3.67-48.55 11.12-15.06 7.46-25.23 15.59-30.24 24.27-5.02 8.81-7.59 15.59-7.59 20.47 0 5.97 1.49 11.39 4.47 16.41s8.68 11.79 17.08 20.06c8.41 8.41 18.86 12.61 31.2 12.61 3.66 0 11.25-1.35 22.65-3.93 11.39-2.57 26.44-11.12 44.88-25.62 18.58-14.51 27.8-28.75 27.8-42.44 0-2.58-.68-5.83-1.9-9.49-1.36-3.8-3.8-6.78-7.32-8.95-3.53-2.17-8.68-4.61-15.46-7.18z"/></g></g></svg>