<?xml version="1.0" encoding="UTF-8" standalone="no"?>
<!-- Generator: Adobe Illustrator 25.4.1, SVG Export Plug-In . SVG Version: 6.00 Build 0)  -->

<svg
   version="1.0"
   id="svg15246"
   x="0px"
   y="0px"
   width="23.68522px"
   height="23.68525px"
   viewBox="0 0 23.68522 23.68525"
   enable-background="new 0 0 23.68522 23.68525"
   xml:space="preserve"
   sodipodi:docname="BananutGreen.svg"
   inkscape:version="1.1.2 (0a00cf5339, 2022-02-04)"
   xmlns:inkscape="http://www.inkscape.org/namespaces/inkscape"
   xmlns:sodipodi="http://sodipodi.sourceforge.net/DTD/sodipodi-0.dtd"
   xmlns="http://www.w3.org/2000/svg"
   xmlns:svg="http://www.w3.org/2000/svg"><defs
   id="defs997" />
<sodipodi:namedview
   bordercolor="#666666"
   borderopacity="1.0"
   fit-margin-bottom="0"
   fit-margin-left="0"
   fit-margin-right="0"
   fit-margin-top="0"
   id="base"
   inkscape:current-layer="svg15246"
   inkscape:cx="10.959821"
   inkscape:cy="13.325893"
   inkscape:document-rotation="0"
   inkscape:document-units="mm"
   inkscape:pageopacity="0.0"
   inkscape:pageshadow="2"
   inkscape:window-height="861"
   inkscape:window-maximized="1"
   inkscape:window-width="1718"
   inkscape:window-x="0"
   inkscape:window-y="0"
   inkscape:zoom="22.4"
   pagecolor="#ffffff"
   showgrid="false"
   units="px"
   inkscape:pagecheckerboard="0">
	</sodipodi:namedview>
<linearGradient
   id="SVGID_1_"
   gradientUnits="userSpaceOnUse"
   x1="1061.00085"
   y1="-4091.29688"
   x2="1084.37634"
   y2="-4091.29688"
   gradientTransform="matrix(0 1 -1 0 -4079.4541 -1060.84595)">
	<stop
   offset="0"
   style="stop-color:#45ed45;stop-opacity:1"
   id="stop932" />
	<stop
   offset="1"
   style="stop-color:#00a100;stop-opacity:1"
   id="stop934" />
</linearGradient>
<circle
   fill="url(#SVGID_1_)"
   cx="11.84277"
   cy="11.84262"
   r="11.68772"
   id="circle937" />
<circle
   fill="#CF2727"
   cx="11.84277"
   cy="11.84262"
   r="11.21097"
   id="circle939"
   style="fill:#27cf27;fill-opacity:1" />
<linearGradient
   id="SVGID_00000142136045606966730880000017377635429509996437_"
   gradientUnits="userSpaceOnUse"
   x1="11.84277"
   y1="0.63165"
   x2="11.84277"
   y2="23.0536">
	<stop
   offset="0"
   style="stop-color:#00ed00;stop-opacity:1"
   id="stop941" />
	<stop
   offset="1"
   style="stop-color:#00a100;stop-opacity:1"
   id="stop943" />
</linearGradient>
<circle
   opacity="0.5"
   fill="url(#SVGID_00000142136045606966730880000017377635429509996437_)"
   cx="11.84277"
   cy="11.84262"
   r="11.21097"
   id="circle946" />
<linearGradient
   id="SVGID_00000129183864633903529550000009694500368380490663_"
   gradientUnits="userSpaceOnUse"
   x1="58.84902"
   y1="-53.77238"
   x2="58.84902"
   y2="-50.99965"
   gradientTransform="matrix(1 0 0 -1 -47.00625 -40.5551)">
	<stop
   offset="0"
   style="stop-color:#00ed00;stop-opacity:1"
   id="stop948" />
	<stop
   offset="1"
   style="stop-color:#00a100;stop-opacity:1"
   id="stop950" />
</linearGradient>
<path
   fill="url(#SVGID_00000129183864633903529550000009694500368380490663_)"
   d="M0.71816,10.44455L0.48287,10.8614  c-0.43993,0.57897-0.43678,1.38106,0.00767,1.95656l0.22108,0.36948l22.25505,0.02984L23.1833,12.833  c0.45989-0.57286,0.46323-1.38741,0.00805-1.96402l-0.21802-0.40101L0.71816,10.44455z"
   id="path953" />
<linearGradient
   id="SVGID_00000103251588435163369370000017666843805095127724_"
   gradientUnits="userSpaceOnUse"
   x1="-1240.30969"
   y1="-381.50436"
   x2="-1222.83289"
   y2="-381.50436"
   gradientTransform="matrix(0 -1 -1 0 -369.66144 -1219.74036)">
	<stop
   offset="0"
   style="stop-color:#00ed00;stop-opacity:1"
   id="stop955" />
	<stop
   offset="1"
   style="stop-color:#00a100;stop-opacity:1"
   id="stop957" />
</linearGradient>
<circle
   fill="url(#SVGID_00000103251588435163369370000017666843805095127724_)"
   cx="11.84292"
   cy="11.83088"
   r="8.73843"
   id="circle960" />
<g
   id="g994">
	<path
   opacity="0.28"
   d="m 11.84292,4.19975 c 4.21318,0 7.62864,3.78218 7.62864,8.44773 0,4.66555 -3.41546,9.28764 -7.62864,9.28764 -4.21318,0 -7.62864,-4.62209 -7.62864,-9.28764 0,-4.66555 3.41546,-8.44773 7.62864,-8.44773 z"
   id="path962" />
	<g
   id="g992">
		<circle
   fill="#1f1f1f"
   cx="11.84292"
   cy="11.83088"
   r="8.1665602"
   id="circle964" />
		
			<linearGradient
   id="SVGID_00000106119731682736750670000002901090508464937612_"
   gradientUnits="userSpaceOnUse"
   x1="-1884.8564"
   y1="22.3514"
   x2="-1884.8564"
   y2="7.0890002"
   gradientTransform="rotate(180,-936.50671,13.275575)">
			<stop
   offset="0"
   style="stop-color:#FFFEFE"
   id="stop966" />
			<stop
   offset="1"
   style="stop-color:#545454"
   id="stop968" />
		</linearGradient>
		<circle
   fill="url(#SVGID_00000106119731682736750670000002901090508464937612_)"
   cx="11.84292"
   cy="11.83095"
   r="7.6311998"
   id="circle971" />
		<circle
   fill="#e0e0e0"
   cx="11.84292"
   cy="11.83095"
   r="6.7999601"
   id="circle973" />
		<g
   opacity="0.43"
   id="g981">
			<path
   fill="#404040"
   d="m 11.84293,4.64875 c 4.17474,0 7.56128,3.25714 7.62286,7.29614 5.5e-4,-0.03833 0.0057,-0.0755 0.0057,-0.11395 0,-4.2146 -3.41541,-7.63116 -7.6286,-7.63116 -4.21319,0 -7.62866,3.41656 -7.62866,7.63116 0,0.03845 0.00519,0.07562 0.00574,0.11395 0.06158,-4.039 3.44818,-7.29614 7.62292,-7.29614 z"
   id="path975" />
			<path
   opacity="0.28"
   fill="#404040"
   d="m 4.22,11.94489 c -5.5e-4,0.03723 -0.00574,0.07324 -0.00574,0.1106 0,4.09058 3.41547,7.40668 7.62866,7.40668 -4.17473,0 -7.56133,-3.35578 -7.62292,-7.51728 z"
   id="path977" />
			<path
   opacity="0.28"
   fill="#404040"
   d="m 11.84293,19.46217 c 4.2132,0 7.6286,-3.3161 7.6286,-7.40668 0,-0.03735 -0.0052,-0.07336 -0.0057,-0.1106 -0.06158,4.1615 -3.44812,7.51728 -7.62286,7.51728 z"
   id="path979" />
		</g>
		
			<linearGradient
   id="SVGID_00000001660932159925217750000013769775696952348036_"
   gradientUnits="userSpaceOnUse"
   x1="-1884.8564"
   y1="9.2060604"
   x2="-1884.8564"
   y2="20.234329"
   gradientTransform="rotate(180,-936.50671,13.275575)">
			<stop
   offset="0"
   style="stop-color:#FFFEFE"
   id="stop983" />
			<stop
   offset="1"
   style="stop-color:#706C6C"
   id="stop985" />
		</linearGradient>
		<circle
   fill="url(#SVGID_00000001660932159925217750000013769775696952348036_)"
   cx="11.84292"
   cy="11.83095"
   r="5.5141301"
   id="circle988" />
		<circle
   cx="11.84292"
   cy="11.83088"
   r="4.8673301"
   id="circle990" />
	</g>
</g>
</svg>
