<svg enable-background="new 0 0 23.68522 23.68525" height="23.68525" viewBox="0 0 23.68522 23.68525" width="23.68522" xmlns="http://www.w3.org/2000/svg" xmlns:xlink="http://www.w3.org/1999/xlink"><linearGradient id="a" gradientTransform="matrix(0 1 -1 0 -4079.4541 -1060.84595)" gradientUnits="userSpaceOnUse" x1="1061.00085" x2="1084.37634" y1="-4091.29688" y2="-4091.29688"><stop offset="0" stop-color="#ed45ed"/><stop offset="1" stop-color="#a100a1"/></linearGradient><linearGradient id="b"><stop offset="0" stop-color="#ed00ed"/><stop offset="1" stop-color="#a100a1"/></linearGradient><linearGradient id="c" gradientUnits="userSpaceOnUse" x1="11.84277" x2="11.84277" xlink:href="#b" y1=".63165" y2="23.0536"/><linearGradient id="d" gradientTransform="matrix(1 0 0 -1 -47.00625 -40.5551)" gradientUnits="userSpaceOnUse" x1="58.84902" x2="58.84902" xlink:href="#b" y1="-53.77238" y2="-50.99965"/><linearGradient id="e" gradientTransform="matrix(0 -1 -1 0 -369.66144 -1219.74036)" gradientUnits="userSpaceOnUse" x1="-1240.30969" x2="-1222.83289" xlink:href="#b" y1="-381.50436" y2="-381.50436"/><linearGradient id="f" gradientTransform="matrix(-1 0 0 -1 -1873.01343 26.55115)" gradientUnits="userSpaceOnUse" x1="-1884.85645" x2="-1884.85645" y1="22.3514" y2="7.089"><stop offset="0" stop-color="#fffefe"/><stop offset="1" stop-color="#545454"/></linearGradient><linearGradient id="g" gradientTransform="matrix(-1 0 0 -1 -1873.01343 26.55115)" gradientUnits="userSpaceOnUse" x1="-1884.85645" x2="-1884.85645" y1="9.20606" y2="20.23433"><stop offset="0" stop-color="#fffefe"/><stop offset="1" stop-color="#706c6c"/></linearGradient><circle cx="11.84277" cy="11.84262" fill="url(#a)" r="11.68772"/><circle cx="11.84277" cy="11.84262" fill="#cf27cf" r="11.21097"/><circle cx="11.84277" cy="11.84262" fill="url(#c)" opacity=".5" r="11.21097"/><path d="m.71816 10.44455-.23529.41685c-.43993.57897-.43678 1.38106.00767 1.95656l.22108.36948 22.25505.02984.21663-.38428c.45989-.57286.46323-1.38741.00805-1.96402l-.21802-.40101z" fill="url(#d)"/><circle cx="11.84292" cy="11.83088" fill="url(#e)" r="8.73843"/><path d="m11.84292 4.19975c4.21318 0 7.62864 3.78218 7.62864 8.44773s-3.41546 9.28764-7.62864 9.28764-7.62864-4.62209-7.62864-9.28764 3.41546-8.44773 7.62864-8.44773z" opacity=".28"/><circle cx="11.84292" cy="11.83088" fill="#1f1f1f" r="8.16656"/><circle cx="11.84292" cy="11.83095" fill="url(#f)" r="7.6312"/><circle cx="11.84292" cy="11.83095" fill="#e0e0e0" r="6.79996"/><g fill="#404040" opacity=".43"><path d="m11.84293 4.64875c4.17474 0 7.56128 3.25714 7.62286 7.29614.00055-.03833.00574-.0755.00574-.11395 0-4.2146-3.41541-7.63116-7.6286-7.63116s-7.62866 3.41656-7.62866 7.63116c0 .03845.00519.07562.00574.11395.06158-4.039 3.44818-7.29614 7.62292-7.29614z"/><path d="m4.22 11.94489c-.00055.03723-.00574.07324-.00574.1106 0 4.09058 3.41547 7.40668 7.62866 7.40668-4.17473 0-7.56133-3.35578-7.62292-7.51728z" opacity=".28"/><path d="m11.84293 19.46217c4.2132 0 7.6286-3.3161 7.6286-7.40668 0-.03735-.00519-.07336-.00574-.1106-.06158 4.1615-3.44812 7.51728-7.62286 7.51728z" opacity=".28"/></g><circle cx="11.84292" cy="11.83095" fill="url(#g)" r="5.51413"/><circle cx="11.84292" cy="11.83088" r="4.86733"/></svg>