<svg enable-background="new 0 0 23.68522 23.68525" height="23.68525" viewBox="0 0 23.68522 23.68525" width="23.68522" xmlns="http://www.w3.org/2000/svg" xmlns:xlink="http://www.w3.org/1999/xlink"><linearGradient id="a"><stop offset="0" stop-color="#595959"/><stop offset="1"/></linearGradient><linearGradient id="b" gradientTransform="matrix(0 1 -1 0 -1626.33704 478.78479)" gradientUnits="userSpaceOnUse" x1="-478.62964" x2="-455.2547" xlink:href="#a" y1="-1638.17969" y2="-1638.17969"/><linearGradient id="c"><stop offset=".01117" stop-color="#5e5e5e"/><stop offset="1" stop-color="#171717"/></linearGradient><linearGradient id="d" gradientTransform="matrix(1 0 0 -1 0 23.88983)" gradientUnits="userSpaceOnUse" x1="11.84261" x2="11.84261" xlink:href="#c" y1="23.0757" y2=".9953"/><linearGradient id="e" gradientUnits="userSpaceOnUse" x1="11.84261" x2="11.84261" xlink:href="#c" y1="13.229" y2="10.45623"/><linearGradient id="f" gradientTransform="matrix(0 -1 1 0 -1087.55127 -1913.74036)" gradientUnits="userSpaceOnUse" x1="-1934.32141" x2="-1916.84448" xlink:href="#a" y1="1099.39404" y2="1099.39404"/><linearGradient id="g" gradientTransform="matrix(-1 0 0 1 -2443.01343 -815.33868)" gradientUnits="userSpaceOnUse" x1="-2454.8562" x2="-2454.8562" y1="819.55017" y2="834.81256"><stop offset="0" stop-color="#fffefe"/><stop offset="1" stop-color="#545454"/></linearGradient><linearGradient id="h" gradientTransform="matrix(-1 0 0 1 -2443.01343 -815.33868)" gradientUnits="userSpaceOnUse" x1="-2454.8562" x2="-2454.8562" y1="832.6955" y2="821.66724"><stop offset="0" stop-color="#fffefe"/><stop offset="1" stop-color="#706c6c"/></linearGradient><path d="m11.84286 23.53009c-6.44467 0-11.68796-5.24279-11.68796-11.68697 0-6.44518 5.24329-11.68796 11.68796-11.68796s11.68747 5.24279 11.68747 11.68797c0 6.44417-5.24279 11.68696-11.68747 11.68696z" fill="url(#b)"/><circle cx="11.84261" cy="11.85433" fill="#212121" r="11.0402"/><circle cx="11.84261" cy="11.85433" fill="url(#d)" opacity=".22" r="11.0402"/><path d="m.91239 10.45626-.42968.41685c-.43993.57897-.43678 1.38106.00767 1.95656l.39828.36948 21.89204.02984.40244-.38429c.45989-.57286.46323-1.38741.00805-1.96402l-.41049-.40101z" fill="url(#e)"/><circle cx="11.84276" cy="11.84259" fill="url(#f)" r="8.73843"/><circle cx="11.84276" cy="11.84259" fill="#1f1f1f" r="8.16656"/><path d="m11.84276 4.21146c4.21318 0 7.62864 3.78218 7.62864 8.44773s-3.41546 9.28764-7.62864 9.28764-7.62864-4.62209-7.62864-9.28764 3.41546-8.44773 7.62864-8.44773z" opacity=".22"/><circle cx="11.84276" cy="11.84266" fill="url(#g)" r="7.6312"/><circle cx="11.84276" cy="11.84266" fill="#e0e0e0" r="6.79996"/><g fill="#404040" opacity=".43"><path d="m11.84277 4.66046c4.17474 0 7.56128 3.25714 7.62286 7.29614.00055-.03833.00574-.0755.00574-.11395 0-4.2146-3.41541-7.63116-7.6286-7.63116s-7.62866 3.41656-7.62866 7.63116c0 .03845.00519.07562.00574.11395.06158-4.039 3.44818-7.29614 7.62292-7.29614z"/><path d="m4.21984 11.9566c-.00055.03723-.00574.07324-.00574.1106 0 4.09058 3.41547 7.40668 7.62866 7.40668-4.17473 0-7.56133-3.35578-7.62292-7.51728z" opacity=".28"/><path d="m11.84277 19.47388c4.2132 0 7.6286-3.3161 7.6286-7.40668 0-.03735-.00519-.07336-.00574-.1106-.06158 4.1615-3.44812 7.51728-7.62286 7.51728z" opacity=".28"/></g><circle cx="11.84276" cy="11.84266" fill="url(#h)" r="5.51413"/><circle cx="11.84276" cy="11.84259" r="4.86733"/></svg>