<svg clip-rule="evenodd" fill-rule="evenodd" height="2.0248mm" image-rendering="optimizeQuality" shape-rendering="geometricPrecision" text-rendering="geometricPrecision" viewBox="0 0 54.38 27.35" width="4.0252mm" xmlns="http://www.w3.org/2000/svg"><path d="m6.19 0h42.01l6.19 6.19v14.98l-6.19 6.19h-42.01l-6.19-6.19v-14.98l6.19-6.19zm21 9.24c.53 0 .95.42.95 1.16s-.42 1.16-.95 1.16-.95-.42-.95-1.16.42-1.16.95-1.16zm0 5.91c.63 0 1.16.53 1.16 1.27s-.53 1.27-1.16 1.27-1.16-.53-1.16-1.27.53-1.27 1.16-1.27zm0-9.19c-3.7 0-5.81 2.11-5.81 4.22 0 2.32 2.11 3.06 2.11 3.06v.11s-2.96.74-2.96 3.7c0 2.22 2.11 4.33 6.65 4.33s6.65-2.11 6.65-4.33c0-2.96-2.96-3.7-2.96-3.7v-.11s2.11-.74 2.11-3.06c0-2.11-2.11-4.22-5.81-4.22z" fill="#868686"/></svg>