<svg clip-rule="evenodd" fill-rule="evenodd" height="2.0248mm" image-rendering="optimizeQuality" shape-rendering="geometricPrecision" text-rendering="geometricPrecision" viewBox="0 0 52.68 26.5" width="4.0252mm" xmlns="http://www.w3.org/2000/svg"><path d="m5.99 0h40.69l5.99 5.99v14.51l-5.99 5.99h-40.69l-5.99-5.99v-14.51zm-2.08 5.87v11.54h4.29v-3.3h3.46v-3.3h-3.46v-1.32h4.29v-3.63h-8.58zm21.27 11.54-2.8-4.45s1.48-.82 1.48-3.22c0-2.39-1.65-4.04-5.28-4.04-2.47 0-4.78.16-4.78.16v11.54h4.29v-3.79h.16l1.98 3.79h4.95zm-7.09-6.76v-1.81h.49c.58 0 .99.41.99.91 0 .49-.41.91-.99.91h-.49zm12.04 2.64h4.29v-3.3h-4.29v-.82h4.62v-3.3h-8.91v11.54h9.24v-3.3h-4.95zm18.64-1.65c0-3.38-2.64-6.02-6.43-6.02s-6.43 2.64-6.43 6.02c0 3.3 2.47 5.77 5.69 5.94 0 0 1.57 3.3 5.03 3.3.83 0 1.48-.16 1.48-.16v-2.97s-.49.16-.99.16c-1.16 0-1.57-.99-1.57-.99s3.22-1.4 3.22-5.28zm-4.62 0c0 1.15-.82 1.98-1.81 1.98s-1.82-.82-1.82-1.98c0-1.15.82-1.98 1.82-1.98.99 0 1.81.82 1.81 1.98z" fill="#868686"/></svg>