<svg clip-rule="evenodd" fill-rule="evenodd" height="2.0248mm" image-rendering="optimizeQuality" shape-rendering="geometricPrecision" text-rendering="geometricPrecision" viewBox="0 0 54.38 27.35" width="4.0252mm" xmlns="http://www.w3.org/2000/svg"><path d="m6.19 0h42.01l6.19 6.19v14.98l-6.19 6.19h-42.01l-6.19-6.19v-14.98l6.19-6.19zm13.24 6.44-3.59 1.48v4.65l3.17-1.06v9.71h5.49v-14.78zm19.12 4.43c0-2.43-2.32-4.75-6.02-4.75-4.01 0-5.91 2.32-5.91 2.32l2.01 3.17s1.27-1.16 3.06-1.16c.74 0 1.16.42 1.16 1.06 0 1.9-5.91 5.49-5.91 5.49v4.22h11.41v-4.65h-4.22s4.43-2.11 4.43-5.7z" fill="#868686"/></svg>