<svg clip-rule="evenodd" fill-rule="evenodd" height="2.0248mm" image-rendering="optimizeQuality" shape-rendering="geometricPrecision" text-rendering="geometricPrecision" viewBox="0 0 54.38 27.35" width="4.0252mm" xmlns="http://www.w3.org/2000/svg"><path d="m6.19 0h42.01l6.19 6.19v14.98l-6.19 6.19h-42.01l-6.19-6.19v-14.98l6.19-6.19zm12.03 6.29-3.59 1.48v4.65l3.17-1.06v9.71h5.49v-14.78zm14.37 4.43c.84 0 1.69.85 1.69 2.96s-.85 2.96-1.69 2.96c-.85 0-1.69-.84-1.69-2.96 0-2.11.84-2.96 1.69-2.96zm0 10.66c4.01 0 7.18-3.17 7.18-7.71s-3.17-7.71-7.18-7.71-7.18 3.17-7.18 7.71 3.17 7.71 7.18 7.71z" fill="#868686"/></svg>