<svg clip-rule="evenodd" fill-rule="evenodd" height="13.27mm" image-rendering="optimizeQuality" shape-rendering="geometricPrecision" text-rendering="geometricPrecision" viewBox="0 0 382.28 382.28" width="13.27mm" xmlns="http://www.w3.org/2000/svg"><g fill-rule="nonzero"><path d="m191.14 0c-105.56 0-191.14 85.58-191.14 191.14 0 105.57 85.58 191.14 191.14 191.14s191.14-85.58 191.14-191.14-85.58-191.14-191.14-191.14zm0 369.84c-98.69 0-178.7-80.01-178.7-178.7s80.01-178.7 178.7-178.7 178.7 80.01 178.7 178.7-80.01 178.7-178.7 178.7z" fill-opacity=".34902"/><path d="m332.75 191.1c0-6.59-.46-13.18-1.38-19.7l-4.07.57c-3.71.52-7.29-1.89-7.99-5.58-2.05-10.81-5.4-21.15-9.94-30.84-1.55-3.3-.11-7.25 3.11-8.96l3.69-1.96c-10.1-18.99-24.39-35.44-41.79-48.08-17.41-12.64-37.46-21.16-58.64-24.89l-.74 4.18c-.64 3.64-4.01 6.18-7.68 5.7-5.3-.69-10.68-1.1-16.17-1.1s-10.88.4-16.17 1.1c-3.66.48-7.03-2.06-7.68-5.7l-.73-4.18c-21.18 3.73-41.24 12.25-58.64 24.89s-31.69 29.09-41.79 48.08l3.69 1.96c3.22 1.71 4.66 5.66 3.12 8.97-4.54 9.69-7.88 20.03-9.93 30.84-.7 3.68-4.28 6.1-7.99 5.58l-4.07-.57c-.92 6.53-1.38 13.11-1.38 19.7 0 36.68 14.26 71.97 39.74 98.36l3.04-2.94c2.64-2.55 6.86-2.7 9.54-.19 7.89 7.39 16.71 13.78 26.26 19.04 3.24 1.79 4.41 5.89 2.79 9.21l-1.85 3.79c19.33 9.43 40.56 14.33 62.07 14.33s42.74-4.9 62.07-14.33l-1.85-3.79c-1.62-3.33-.45-7.42 2.79-9.21 9.54-5.26 18.36-11.65 26.25-19.04 2.68-2.51 6.9-2.35 9.54.19l3.04 2.94c25.48-26.4 39.74-61.68 39.74-98.37z" fill="#424242"/><path d="m309.37 135.55c.41.88.68 1.84 1.07 2.73 1.3 2.94 2.46 5.94 3.54 8.99.71 2.01 1.39 4.02 2 6.08 1.06 3.52 1.97 7.1 2.74 10.75.16.78.44 1.52.59 2.3.7 3.68 4.28 6.1 7.99 5.58l4.07-.57c0 .02 0 .04.01.06l10.48-1.47c-2.49-17.97-7.99-34.96-16.17-50.35l-9.57 5.09c.02.03.04.06.06.1l-4.4 2.34c-2.65 1.9-3.81 5.37-2.4 8.39z" fill-opacity=".321569"/><path d="m55.01 171.96c3.71.52 7.29-1.89 7.99-5.58.15-.79.42-1.52.58-2.3.76-3.63 1.68-7.2 2.73-10.71.62-2.07 1.3-4.11 2.02-6.13 1.08-3.04 2.24-6.04 3.53-8.97.39-.89.66-1.84 1.07-2.73 1.41-3.02.25-6.49-2.4-8.39l-4.4-2.34c.02-.03.04-.06.06-.1l-9.57-5.09c-8.18 15.4-13.68 32.39-16.17 50.35l10.48 1.47c0-.02 0-.04.01-.06l4.07.57z" fill-opacity=".321569"/><path d="m130.93 314.57c1.59-3.25.47-7.2-2.6-9.05-9.66-5.31-18.55-11.77-26.52-19.25-2.49-2.26-6.21-2.2-8.84-.16l-3.67 3.54c-.02-.03-.04-.05-.06-.07l-7.5 7.24c12.27 12.68 26.74 23.15 42.77 30.98l4.6-9.43c-.01 0-.02-.01-.03-.01z" fill-opacity=".101961"/><path d="m280.5 286.27c-7.97 7.48-16.86 13.94-26.52 19.25-3.08 1.85-4.19 5.8-2.61 9.05l1.85 3.79c-.01 0-.01.01-.03.01l4.6 9.43c16.03-7.83 30.5-18.3 42.77-30.98-2.12-2.05-4.58-4.42-7.5-7.24-.02.02-.04.05-.06.07l-3.67-3.54c-2.62-2.04-6.34-2.1-8.84.16z" fill-opacity=".321569"/><path d="m174.85 61.5c.97-.12 1.96-.08 2.93-.18 3.19-.33 6.41-.5 9.64-.58 2.13-.05 4.26-.08 6.4-.03 3.68.09 7.36.32 11.06.71.8.09 1.58.05 2.37.16 3.72.47 7.12-2.18 7.77-5.87l.71-4.05c.02 0 .04.01.06.01l1.84-10.42c-17.85-3.19-35.71-3.21-52.89-.18l1.88 10.67c.04-.01.07-.02.11-.03l.87 4.91c.98 3.11 3.92 5.29 7.23 4.88z" fill-opacity=".101961"/><g fill-opacity=".4"><path d="m50.93 171.45c-.91 6.51-1.37 13.07-1.37 19.64 0 36.68 14.26 71.97 39.74 98.36l-9.08 8.65c-2.82 2.73-7.42 2.65-10.02-.29-25.99-29.42-40.43-67.43-40.43-106.84 0-5.13.24-10.26.73-15.37.37-3.9 4.03-6.64 7.9-6.09l12.53 1.95z"/><path d="m253.22 318.36c-19.33 9.43-40.56 14.33-62.07 14.33-21.5 0-42.72-4.89-62.04-14.32l-5.56 11.21c-1.73 3.53-.23 7.89 3.37 9.45 20.25 8.78 42.11 13.33 64.23 13.33s43.99-4.55 64.23-13.33c3.6-1.56 5.1-5.92 3.37-9.45l-5.53-11.22c-.01 0-.01.01-.03.01"/><path d="m293.01 289.46c25.48-26.39 39.74-61.68 39.74-98.36 0-6.59-.46-13.18-1.38-19.7l12.54-1.89c3.88-.54 7.53 2.2 7.9 6.09.49 5.11.73 10.24.73 15.37 0 39.42-14.44 77.42-40.43 106.84-2.6 2.94-7.19 3.03-10.01.3l-9.1-8.65z"/><path d="m95.84 86.42c3.52-3.21 7.24-6.21 11.08-9.06.35-.26.65-.56 1-.81 4.23-3.07 8.63-5.88 13.15-8.45 3.92-2.22 7.97-4.18 12.08-6.01.56-.25 1.09-.57 1.65-.81 9.4-4.05 19.24-7.08 29.34-9.04.82-.16 1.6-.43 2.43-.57l-2.32-12.5c0-.02-.02-.04-.02-.06v-.4c-.86-3.64-4.42-6.1-8.11-5.28-21.55 4.79-41.92 13.97-59.83 26.98-.02.02-.05.04-.07.06-.01.01-.03.02-.05.03-17.9 13.01-32.92 29.55-44.14 48.56-1.92 3.26-.68 7.4 2.51 9.35l.39.13c.02.01.03.03.04.03l11.17 6.07c.38-.71.86-1.35 1.25-2.06 5-9.04 10.95-17.49 17.73-25.2.25-.28.54-.53.79-.81 3.16-3.54 6.45-6.95 9.95-10.14z"/><path d="m330.16 108.96c-7.25-12.28-16.22-23.38-26.39-33.31-.42-.41-.83-.84-1.26-1.25-3.02-2.89-6.17-5.63-9.41-8.28-.68-.56-1.35-1.11-2.04-1.65-1.7-1.34-3.29-2.8-5.04-4.07-1.56-1.14-3.24-2.07-4.83-3.15-.75-.5-1.51-.99-2.27-1.47-3.48-2.25-7-4.41-10.63-6.39-.58-.32-1.18-.6-1.77-.91-12.73-6.73-26.23-11.92-40.33-15.06-1.88-.41-3.71.03-5.19 1.03-1.61 1.02-2.83 2.66-3.19 4.69l-2.07 12.51c.79.14 1.56.35 2.34.5v.05c15.03 2.92 29.47 8.21 42.76 15.69 1.08.61 2.1 1.32 3.17 1.96 3.05 1.82 6.06 3.72 8.97 5.78 1.47 1.04 2.88 2.18 4.31 3.28 2.55 1.96 5.05 3.97 7.46 6.09 1.45 1.28 2.86 2.59 4.25 3.93 2.26 2.17 4.45 4.42 6.56 6.74 1.27 1.39 2.55 2.78 3.77 4.22 2.18 2.58 4.22 5.28 6.21 8.01.95 1.3 1.95 2.55 2.86 3.89 2.8 4.14 5.43 8.39 7.78 12.82l11.04-5.97c.03-.02.05-.05.08-.07l.04-.02c3.46-1.84 4.81-6.22 2.82-9.59z"/></g><path d="m275.72 347.41c.73-.39 1.43-.83 2.16-1.23 3.83-2.16 7.61-4.41 11.28-6.85 2.18-1.44 4.27-2.98 6.39-4.51 2.13-1.55 4.26-3.08 6.32-4.73 3.44-2.72 6.72-5.6 9.95-8.56.63-.58 1.27-1.13 1.9-1.72 34.38-32.46 55.97-78.31 56.14-129.29-.3-91.37-69.17-166.5-157.84-176.82-1-.13-2.01-.31-3.01-.42-5.87-.58-11.82-.9-17.84-.9-85.87 0-157.53 60.58-174.73 141.32-.37 1.8-.66 3.64-.98 5.47-1.87 10.37-3 21.01-3 31.93 0 73.91 44.87 137.33 108.86 164.53 1.15.48 2.36.87 3.52 1.33 3.62 1.45 7.28 2.81 11.01 4.03 48.4 15.43 98.5 9.05 139.88-13.57zm-99.8 4.17c-.66-.06-1.31-.1-1.96-.17-16.19-1.74-32.05-5.89-47.03-12.38-3.6-1.57-5.1-5.92-3.37-9.45l.96-1.97c-16.03-7.83-30.5-18.3-42.77-30.98l-.3.29s-.01-.01-.02-.01l-1.3 1.25c-2.83 2.66-7.36 2.58-9.94-.34-9.47-10.72-17.37-22.61-23.63-35.27-.27-.54-.55-1.07-.82-1.61-1.81-3.77-3.44-7.61-4.95-11.5-.32-.82-.63-1.63-.94-2.45-1.41-3.82-2.69-7.69-3.81-11.61-.25-.88-.47-1.76-.71-2.64-1.07-3.98-2.02-7.99-2.79-12.06-.12-.66-.21-1.33-.32-2-1.59-9.1-2.46-18.36-2.46-27.71 0-5.13.24-10.26.73-15.37.18-1.85 1.13-3.4 2.46-4.5 1.36-1.05 3.11-1.62 4.94-1.47l-.22-.07c.24.01.48-.08.73-.04l2.05.29c2.49-17.96 7.99-34.96 16.17-50.35l-1.66-.88c-3.46-1.84-4.81-6.22-2.82-9.6 11.2-18.99 26.2-35.51 44.07-48.5 17.89-12.99 38.24-22.15 59.77-26.94 3.83-.85 7.58 1.78 8.26 5.64l.33 1.85c17.17-3.02 35.03-3.01 52.89.18l.36-2.04c.04-.25.2-.44.27-.68v.23c.42-1.79 1.51-3.28 2.93-4.24 1.46-.92 3.23-1.35 5.04-.95 5.01 1.12 9.96 2.47 14.85 4.05 8.9 2.89 17.44 6.58 25.61 10.91.59.31 1.19.59 1.78.91 3.63 1.98 7.16 4.13 10.61 6.38.76.5 1.53.98 2.29 1.49 3.38 2.28 6.67 4.69 9.86 7.21.69.54 1.36 1.09 2.04 1.65 3.24 2.64 6.39 5.39 9.41 8.28.43.41.84.84 1.26 1.25 10.11 9.88 18.98 21.06 26.25 33.39 1.98 3.35.67 7.67-2.72 9.54l-1.62.86c0 .01.01.01.01.02-.13.07-.24.13-.37.19 8.27 15.59 13.76 32.59 16.25 50.25l2.17-.31c3.89-.55 7.57 2.22 7.95 6.13 1.55 16.24.59 32.61-2.76 48.54-.14.66-.31 1.31-.45 1.96-1.01 4.49-2.2 8.94-3.59 13.34-.3.96-.62 1.91-.94 2.87-1.38 4.11-2.94 8.14-4.63 12.11-.44 1.02-.86 2.05-1.32 3.06-1.79 3.95-3.76 7.8-5.85 11.58-.49.88-.94 1.78-1.44 2.66-2.39 4.14-4.98 8.15-7.73 12.06-.3.42-.55.87-.86 1.28-3.16 4.4-6.53 8.65-10.12 12.72-.62.7-1.36 1.21-2.15 1.59-2.51 1.13-5.62.67-7.74-1.37-.45-.44-1.03-1-1.54-1.49-.03.04-.08.07-.11.1l-.07-.07c-6.16 6.37-12.83 12.17-19.91 17.35-7.12 5.15-14.7 9.7-22.67 13.59l.04.09c-.05.02-.09.05-.13.07l.93 1.91c1.29 2.64.77 5.75-1.08 7.8-.6.64-1.32 1.18-2.17 1.56-4.99 2.16-10.08 4.06-15.25 5.71-.44.14-.9.24-1.35.37-4.62 1.43-9.29 2.66-14.01 3.67-.95.2-1.92.35-2.88.53-4.28.83-8.58 1.52-12.92 2-1.08.12-2.17.2-3.25.31-4.32.39-8.66.63-13.02.67-.99.01-1.98.01-2.97.01-4.62-.05-9.24-.28-13.83-.71z" fill="#333"/></g></svg>