<svg enable-background="new 0 0 39.6836 39.68359" height="39.68359" viewBox="0 0 39.6836 39.68359" width="39.6836" xmlns="http://www.w3.org/2000/svg"><path d="m34.43672 19.8417c0-.6795-.04748-1.35828-.14202-2.03119l-.41997.05901c-.38271.05377-.75137-.19516-.82345-.57485-.21154-1.11427-.55624-2.18064-1.02394-3.17908-.15957-.34065-.01106-.74719.32108-.92379l.37996-.20203c-1.04088-1.95759-2.5142-3.65254-4.30789-4.95571s-3.86089-2.18069-6.04436-2.56571l-.07595.43075c-.06618.37534-.41377.6375-.79166.58796-.54597-.07158-1.10119-.11308-1.66676-.11308-.56562 0-1.12085.04149-1.66683.11306-.37789.04954-.72548-.21263-.79165-.58796l-.07594-.4307c-2.18341.38494-4.25068 1.26243-6.04433 2.56558-1.79371 1.30321-3.26711 2.99809-4.30795 4.95566l.37989.20199c.33214.1766.48066.58314.32109.92379-.46769.99845-.81243 2.06484-1.02399 3.17912-.07209.37969-.44075.62861-.82347.57483l-.4199-.05901c-.09455.67291-.14204 1.35168-.14204 2.03119-.00001 3.78137 1.46946 7.41852 4.09621 10.13863l.3138-.30304c.27206-.26273.707-.27847.98315-.02003.81371.76151 1.72267 1.42047 2.7064 1.96266.33423.18421.45507.60638.28777.94938l-.19043.39043c1.99273.97187 4.18096 1.47708 6.39806 1.47709 2.2171.00002 4.40534-.50516 6.39802-1.47701l-.1904-.39042c-.16728-.34302-.04643-.76518.28781-.94939.98372-.54217 1.89263-1.20109 2.70636-1.96261.27616-.25844.71112-.24271.9832.02003l.31383.30304c2.62671-2.72008 4.09628-6.35722 4.0963-10.13859z" fill="#424242"/><g opacity=".32"><path d="m32.02736 14.11555c.04254.09076.07007.18927.11053.28113.13385.30274.25311.61267.36443.92676.07318.20734.14337.41498.20654.62683.10876.36316.2033.73206.2821 1.1073.01678.08038.04498.15619.06036.23706.07208.3797.44073.62866.82342.57489l.41998-.05902c.00031.00208.00037.00427.00067.00635l1.08002-.15179c-.25621-1.85193-.82322-3.60328-1.66678-5.19007l-.98645.52453c.00189.00354.00433.00665.00623.01019l-.45337.24109c-.27362.19556-.39343.55353-.24768.86475z"/><path d="m5.80859 17.8693c.38275.05384.7514-.19512.82349-.57482.01538-.08093.04364-.15674.06043-.23712.07855-.37427.17292-.74212.28132-1.10437.06366-.21368.13434-.42309.20819-.6322.11115-.31329.23004-.62256.36359-.92456.04047-.0918.06799-.19012.11048-.28082.14575-.31128.026-.66919-.24768-.86481l-.45331-.24103c.00189-.00354.00433-.00665.00623-.01019l-.98645-.52454c-.84358 1.58679-1.4106 3.33813-1.66684 5.19011l1.08002.1518c.00031-.00214.00037-.00427.00067-.00641z"/><path d="m13.634 32.56911c.16345-.33514.04847-.74249-.26849-.93304-.9953-.54725-1.91228-1.21254-2.73369-1.98396-.25696-.23371-.64062-.22718-.91089-.0171l-.37805.36511c-.00226-.00232-.00415-.005-.00641-.00732l-.77271.74615c1.2647 1.30732 2.75615 2.38661 4.40855 3.19326l.47388-.97155c-.00085-.00043-.00177-.00067-.00262-.0011z"/><path d="m29.0515 29.65222c-.82136.77136-1.73835 1.4367-2.73359 1.98387-.31702.19049-.43213.59796-.26868.9331l.19043.39044c-.00085.00043-.00177.00067-.00262.0011l.47387.97156c1.65241-.80663 3.14393-1.88591 4.40865-3.19321-.21863-.21106-.47217-.45594-.7727-.74616-.00226.00238-.00415.00494-.00641.00732l-.37799-.36505c-.27015-.21014-.654-.21674-.91096.01703z"/></g><path d="m23.05357 1.60252-.43599 2.20123v.32941c.08862-.37518.45539-.6286.836-.54394 2.22162.49409 4.3211 1.4396 6.16649 2.78037 1.84545 1.34077 3.39341 3.04537 4.54977 5.00558.20532.34796.0664.79944-.29035.98907l-.17084.09082c.84356 1.5868 1.41056 3.33814 1.66678 5.19007l.21173-.02979c.39954-.05609.77631.22657.81469.62818.05041.52661.07568 1.05542.07568 1.58472-.00003 4.06311-1.48864 7.98022-4.16755 11.0131-.26789.30334-.74073.31213-1.0318.031-.04639-.0448-.10687-.10321-.15863-.1532-1.26472 1.30731-2.75618 2.38658-4.40859 3.19321l.09918.20343c.17749.36395.02374.81281-.34772.974-2.08716.90538-4.34058 1.37418-6.6208 1.37417-2.28027-.00002-4.53369-.46884-6.62078-1.37424-.37152-.1612-.52526-.61005-.34777-.974l.09924-.20343c-1.6524-.80665-3.14385-1.88594-4.40855-3.19326l-.15741.15204c-.29114.28113-.76514.27349-1.03308-.02979-2.67888-3.03297-4.16738-6.9501-4.16735-11.01321 0-.52924.02521-1.05811.07563-1.58472.03845-.40161.41517-.68426.8147-.62811l.21179.02979c.25624-1.85199.82326-3.60333 1.66684-5.19012l-.17084-.09082c-.35675-.18964-.49566-.64112-.2904-.98914 1.15646-1.96014 2.70445-3.66472 4.54985-5.00546 1.84547-1.34081 3.94496-2.28623 6.16658-2.7803.38056-.08465.74725.16858.83594.54377v-.32922l-.4359-2.20124c-8.6396 1.52192-15.20934 9.04709-15.2094 18.12308-.00006 10.17364 8.24727 18.42106 18.42091 18.42112s18.42107-8.24726 18.42113-18.42091c.00006-9.07605-6.5696-16.60129-15.20918-18.12326z" fill="#333"/><path d="m19.8419 0c-10.95831-.00006-19.84184 8.8832-19.8419 19.84169-.00006 10.95825 8.88338 19.84172 19.84169 19.84178s19.84184-8.88332 19.8419-19.84157c.00006-10.95849-8.88338-19.84184-19.84169-19.8419zm-.00026 38.14673c-10.17365-.00005-18.42098-8.24741-18.42086-18.42124.00005-9.07593 6.56979-16.60104 15.20938-18.12297l-.07123-.35986c-.02869-.14526.01105-.29736.10889-.41626.03558-.04321.08215-.07422.12854-.10498l.02997-.02759c.98212-.15527 1.98926-.23607 3.01557-.23607 1.02106.00001 2.02307.07984 3.00036.23366l.04523.03027c.04633.03052.09283.06152.12842.10474.09827.11939.13757.271.10895.41626l-.07123.35986c8.63958 1.52202 15.20924 9.0472 15.20919 18.12337-.00012 10.17359-8.24754 18.42086-18.42118 18.42081z" opacity=".35"/><path d="m17.065941-14.606943h5.55161v9.970393h-5.55161z" fill="#00b915" stroke-width=".999929" transform="scale(1 -1)"/><path d="m23.12478 1.20007c.02866-.14547-.01064-.29714-.10891-.41636-.09417-.11448-.23093-.1874-.38488-.20563-.91962-.10792-1.85808-.16298-2.78916-.16299-.9315-.00001-1.86995.05504-2.78876.16295-.15436.01823-.29112.09114-.38529.20562-.09786.11885-.13758.27089-.10892.41636l.50714 2.56095v-.00511l5.55161.00003v.00511z" fill="#00b915" opacity=".58"/><path d="m5.80406 12.36408c-.35675-.18964-.49566-.64112-.2904-.98914 1.15644-1.96014 2.70443-3.66472 4.54983-5.00546 1.84547-1.34081 3.94496-2.28623 6.16658-2.7803.38056-.08465.74725.16858.83594.54377l-.00001 1.39227c-2.0932.40593-4.07642 1.25431-5.80299 2.50875-1.79371 1.30321-3.26711 2.99809-4.30796 4.95567zm-.41605 5.45269c-.09388.67078-.14137 1.34741-.14137 2.02478-.00002 3.78137 1.46944 7.41853 4.09619 10.13864l-.93647.89086c-.29114.28113-.76514.27349-1.03308-.02979-2.67888-3.03297-4.16738-6.9501-4.16735-11.01321 0-.52924.02521-1.05811.07563-1.58472.03845-.40161.41517-.68426.8147-.62811zm20.85159 15.14289c-1.99268.97185-4.18092 1.47702-6.39802 1.47701-2.21613-.00001-4.40326-.50491-6.39538-1.47599l-.57313 1.15503c-.17749.36395-.02375.81281.34777.974 2.08709.90541 4.34051 1.37423 6.62078 1.37424 2.28021.00002 4.53363-.46878 6.6208-1.37417.37146-.16119.52521-.61004.34772-.974l-.57049-1.15613c-.00085.00043-.0018.00067-.0026.0011m6.49132-19.97096c-1.04088-1.95759-2.5142-3.65254-4.3079-4.95571-1.72655-1.25441-3.7097-2.10281-5.8029-2.50882l.00001-1.39209c.08862-.37518.45539-.6286.836-.54394 2.22162.49409 4.3211 1.4396 6.16649 2.78037 1.84545 1.34077 3.39341 3.04537 4.54977 5.00558.20532.34796.0664.79944-.29035.98907zm-2.38798 16.99052c2.62672-2.72008 4.09629-6.35721 4.09631-10.13859 0-.6795-.04748-1.35828-.14202-2.03119l1.29248-.19518c.39954-.05609.77631.22657.81469.62818.05041.52661.07568 1.05542.07568 1.58472-.00003 4.06311-1.48864 7.98022-4.16755 11.0131-.26789.30334-.74073.31213-1.0318.031z" opacity=".4"/><path d="m17.06598 3.76099h5.55161v.87556h-5.55161z" fill="#00b915" opacity=".48"/></svg>