<svg enable-background="new 0 0 31.3984 31.39844" height="31.39844" viewBox="0 0 31.3984 31.39844" width="31.3984" xmlns="http://www.w3.org/2000/svg"><g opacity=".32"><path d="m27.04653 10.36892c.0396.08448.06522.17618.10289.26169.1246.2818.23561.57031.33924.86268.06812.193.13346.38628.19226.58349.10124.33805.18925.68144.2626 1.03073.01562.07483.04187.14539.05619.22067.0671.35344.41026.58519.76649.53514l.39094-.05494c.00028.00193.00034.00398.00062.00591l1.00534-.1413c-.2385-1.72387-.76631-3.35412-1.55155-4.83119l-.91824.48826c.00176.0033.00403.00619.0058.00949l-.42202.22442c-.2547.18203-.36623.51525-.23056.80495z"/><path d="m2.64072 13.8632c.35629.05011.69945-.18164.76655-.53508.01432-.07534.04062-.1459.05625-.22073.07312-.34839.16096-.69081.26186-1.02801.05926-.19891.12505-.39384.1938-.58849.10346-.29163.21414-.57951.33845-.86063.03767-.08545.06329-.17698.10284-.2614.13567-.28975.0242-.62292-.23055-.80501l-.42198-.22435c.00176-.00329.00403-.00619.0058-.00949l-.91825-.48827c-.78524 1.47707-1.31305 3.10731-1.55156 4.83124l1.00534.1413c.00028-.00199.00034-.00398.00062-.00597z"/><path d="m9.92508 27.54655c.15215-.31197.04511-.69115-.24993-.86853-.92648-.5094-1.78006-1.12869-2.54467-1.84677-.23919-.21754-.59633-.21147-.8479-.01591l-.35191.33986c-.0021-.00216-.00386-.00466-.00597-.00682l-.71928.69456c1.17726 1.21692 2.56558 2.22158 4.10373 2.97244l.44111-.90438c-.0008-.0004-.00165-.00063-.00244-.00102z"/><path d="m24.2765 24.83128c-.76456.71802-1.61814 1.33736-2.54457 1.8467-.2951.17732-.40225.55661-.2501.86858l.17726.36345c-.0008.0004-.00165.00063-.00244.00102l.44111.90438c1.53815-.75086 2.92653-1.75551 4.10379-2.97243-.20351-.19647-.43952-.42441-.71927-.69456-.0021.00221-.00386.0046-.00596.00682l-.35185-.33981c-.25147-.19561-.60878-.20175-.84797.01585z"/></g><g opacity=".4"><path d="m2.24922 13.81431c-.08738.62439-.13159 1.25424-.13159 1.88477-.00001 3.5199 1.36786 6.90555 3.81299 9.43757l-.87171.82927c-.27101.26169-.71223.25459-.96165-.02773-2.49365-2.82324-3.87924-6.46951-3.87924-10.25167 0-.49264.02347-.98494.0704-1.47514.03579-.37384.38646-.63695.75836-.58468z" opacity=".4"/><path d="m21.65905 27.91004c-1.85489.90466-3.89182 1.37491-5.95561 1.3749-2.06289 0-4.09879-.46998-5.95316-1.37391l-.5335 1.07517c-.16522.33879-.0221.7566.32373.90665 1.94278.84279 4.04038 1.27919 6.16298 1.2792 2.12254 0 4.22015-.43639 6.16298-1.27917.34578-.15005.48889-.56786.32368-.90665l-.53105-1.07619c-.0008.0004-.00165.00063-.00244.00102" opacity=".4"/><path d="m25.47627 25.13669c2.44509-2.532 3.81302-5.91765 3.81303-9.43755 0-.63252-.0442-1.26436-.1322-1.89074l1.20311-.18169c.37191-.05221.72263.2109.75836.58474.04693.4902.07045.98244.07045 1.47514-.00001 3.78216-1.38567 7.42841-3.87933 10.25159-.24936.28237-.6895.29055-.96045.02886z" opacity=".4"/><path d="m29.04086 7.81801c-1.07641-1.82459-2.51733-3.41138-4.23516-4.65943s-3.67212-2.12818-5.74011-2.58802c-.13971-.03113-.27246-.00244-.39307.052-.0014.02429.00305.0481-.0033.07251l-.36987 1.42334v-.00366h-.01196v.25781c1.94849.37793 3.79449 1.16773 5.40167 2.33545 1.66968 1.21301 3.04107 2.79077 4.01001 4.61304l1.07153-.58227c.33209-.17651.46143-.59692.27026-.92077z" opacity=".4"/><path d="m13.10777 2.11841-.36981-1.42334c-.00635-.02441-.00189-.04822-.0033-.07251-.12061-.05444-.25342-.08325-.39313-.052-2.06799.45984-4.02228 1.33984-5.74018 2.58801-1.71777 1.24804-3.15869 2.83483-4.23517 4.65929-.1911.32397-.06177.74426.27032.92078l1.07141.5824c.96887-1.82226 2.3404-3.3999 4.01001-4.61303 1.60718-1.16772 3.45331-1.95752 5.40174-2.33544v-.25783h-.0119v.00367z" opacity=".4"/></g><path d="m12.7269.62689c-.01106-.16684.09468-.32123.25441-.37543-7.37037 1.29101-12.977 7.70751-12.97701 15.44762-.00001 8.67053 7.02879 15.69923 15.6992 15.69923s15.69923-7.02867 15.69923-15.6992c.00001-7.74011-5.60655-14.15638-12.97678-15.44764.15306.05195.25651.19597.2551.35477.12061-.05444.24483-.0668.38454-.03567 2.06799.45984 4.02228 1.33997 5.74011 2.58802s3.15875 2.83484 4.23516 4.65943c.19116.32385.06183.74426-.27026.92078l-.15906.10303c.78277 1.47241 1.30902 3.09729 1.54864 4.81519l.20001-.03027c.37195-.05225.72266.21094.75836.58472.04694.49023.07049.98242.07049 1.4751 0 3.78223-1.38569 7.42847-3.87934 10.2517-.24939.28223-.68951.29053-.96045.02881l-.14771-.12402c-1.17554 1.21509-2.56189 2.2185-4.09735 2.96899l.086.17419c.16516.33875.02209.75659-.32373.90662-1.94281.84277-4.04041 1.27929-6.16297 1.27929-2.12262 0-4.22021-.43653-6.16296-1.2793-.34583-.15002-.48895-.56787-.32373-.90662l.08636-.17407c-1.53577-.75061-2.92206-1.75379-4.09771-2.96912l-.14655.12292c-.271.2616-.71222.25452-.96161-.02771-2.49365-2.82325-3.87927-6.46949-3.87926-10.25171 0-.49268.0235-.98486.07038-1.4751.03583-.37378.38648-.63696.75836-.58472l.19989.03125c.2395-1.71826.76593-3.3435 1.54883-4.81616l-.159-.10315c-.33209-.17651-.46143-.5968-.27032-.92078 1.07648-1.82446 2.5174-3.41125 4.23517-4.6593 1.7179-1.24817 3.67218-2.12817 5.74018-2.58801.13972-.03127.26477.00187.38538.05632z" fill="#333"/><path d="m29.15713 13.80836-.39093.05493c-.35626.05005-.6994-.18164-.76654-.53516-.1969-1.03711-.51776-2.02979-.95312-2.95923-.14856-.31714-.01031-.69556.29889-.85986l.3537-.18799c-.96893-1.82227-2.34039-3.40015-4.01007-4.61304-1.60388-1.16528-3.4458-1.95386-5.38977-2.33265v1.13025l-5.19153-.00001v-1.13013c-1.94396.3788-3.78588 1.16725-5.38977 2.33253-1.66968 1.21301-3.0412 2.79077-4.01008 4.61291l.35364.18811c.30915.16431.44745.54273.29889.85987-.43536.92944-.75623 1.92212-.95319 2.95923-.06708.35352-.41028.5852-.76648.53516l-.39087-.05493c-.08801.62634-.13226 1.25818-.13227 1.89075 0 3.5199 1.36791 6.90552 3.81304 9.43763l.29205-.28223c.2533-.24451.65814-.25916.91522-.01855.75745.70874 1.60351 1.32227 2.51922 1.82691.31116.17139.42364.56445.26788.88379l-.17725.36328c1.85492.90479 3.89184 1.375 5.95563 1.37501 2.06384 0 4.10077-.47021 5.95563-1.37487l-.17725-.3634c-.1557-.31934-.04321-.7124.26794-.88379.91571-.50464 1.76172-1.11804 2.51917-1.8269.25708-.2406.66199-.22595.91522.01855l.29211.28223c2.44513-2.53198 3.81306-5.91772 3.81306-9.43762.00003-.63248-.04416-1.26431-.13217-1.89078z" fill="#424242"/><g fill="#b900a0"><path d="m13.10772 2.99402h5.19156v9.97181h-5.19156z"/><g><path d="m18.66919.695c.05454-.20991-.08059-.42731-.29431-.46421-.86832-.14993-1.76021-.23079-2.67135-.23079-.91113 0-1.80297.08086-2.67129.23078-.21372.0369-.34885.2543-.29431.46421l.36983 1.42341v-.00366l5.19159.00001v.00366z" opacity=".58"/><path d="m13.10773 2.11846h5.19156v.87556h-5.19156z" opacity=".81"/></g></g></svg>