<svg height="17.5mm" viewBox="0 0 17.5 17.5" width="17.5mm" xmlns="http://www.w3.org/2000/svg"><g transform="matrix(.33755313 0 0 .33755359 -.000003 -.000014)"><g opacity=".32"><path d="m11.08515 38.3207c.24738-.20752.27881-.57025.08002-.82471-.15771-.20184-.3017-.41418-.45087-.62268-.29449-.4093-.5694-.83179-.83081-1.26495-.07385-.12354-.15289-.24335-.224-.36871-.19696-.34412-.37738-.69727-.55273-1.05457-.02753-.0567-.05505-.1134-.08209-.17047-.18469-.38623-.36102-.776-.51947-1.17627-.12866-.28235-.44452-.42834-.73932-.32098l-1.6322.59406c.8446 2.32324 2.06799 4.46265 3.62463 6.32263l1.19794-1.00519z"/><path d="m28.52081 44.49379c-.02716.004-.05505.0054-.08228.0093-.3266.04395-.65344.08417-.98517.11108-.50513.04584-1.01422.07739-1.53156.07739-.53644 0-1.06458-.03217-1.58832-.08026-.31744-.02673-.62982-.06812-.94263-.11041-.07288-.01031-.14752-.01471-.22015-.02576-.32233-.04901-.62579.16193-.68237.48297l-.06561.37225-.23199 1.31555c1.21301.2171 2.45569.34943 3.73114.34943 1.22144 0 2.41113-.12622 3.57568-.32568l-.29828-1.69177c-.05632-.31952-.35735-.53064-.67846-.48407z"/><path d="m40.67902 13.48854c-.24854.20856-.27899.57343-.07751.82776.09833.12415.18616.25641.28131.38312.40479.53729.78052 1.09564 1.12659 1.67572.04053.06848.08411.13477.12378.20374.20905.36078.40271.7301.58789 1.10565.01593.03247.03143.06519.04718.09784.19458.40045.38141.80432.54767 1.22003.13245.27411.44189.41498.73206.30933l1.65393-.60193c-.85345-2.33936-2.09375-4.48956-3.6687-6.35761l-1.0589.88855z"/><path d="m7.77503 19.36226c.2934.10681.60736-.03754.73724-.31744.15961-.40198.33771-.79297.5238-1.18073.02502-.05261.05029-.10492.07581-.15723.1767-.3595.35901-.71448.55762-1.06049.06421-.11292.13538-.22095.20184-.33234.27277-.45325.56128-.89423.87024-1.32141.14453-.20093.28363-.40613.43616-.60089.19922-.25433.16791-.61737-.07947-.82507l-.29791-.25-1.0589-.88855c-1.55554 1.86322-2.77643 4.00641-3.61835 6.33289l1.34857.49084z"/><path d="m44.05725 32.56795c-.2915-.10614-.60278.03625-.73419.31268-.16504.414-.3501.81635-.54315 1.21521-.0174.03625-.03461.07245-.05225.10852-.18427.37445-.37646.74298-.58447 1.10278-.04144.07227-.08716.1416-.12952.2132-.33148.55609-.69019 1.09204-1.07568 1.60895-.10895.14667-.21069.29889-.32391.44214-.20105.25439-.17047.61884.07788.82721l.29395.24664-.00006.00006 1.03052.86469c1.57611-1.86481 2.81879-4.01123 3.67499-6.34735l-1.27185-.46289z"/></g><g opacity=".4"><path d="m22.09488 4.68653c-.07886-.44727-.51312-.75226-.95721-.65692-2.28204.48999-4.47528 1.33398-6.49951 2.50269-2.02429 1.1687-3.85181 2.64612-5.41718 4.37744-.30463.33685-.25763.86548.09033 1.15741l.43018.36096 1.05884.88855c2.90454-3.4729 6.98431-5.91663 11.62622-6.74884h.00006l-.24146-1.3692z"/><path d="m37.04605 6.53229c-2.02423-1.1687-4.21747-2.0127-6.49951-2.50269-.44403-.09534-.87836.20966-.95721.65692l-.08613.48835-.24139 1.3692c4.67065.79895 8.78009 3.22705 11.71246 6.69666h.00006l1.0589-.88855.33966-.28503c.34796-.29193.39496-.82056.09033-1.15741-1.56536-1.73133-3.39288-3.20874-5.41717-4.37745z"/><path d="m47.16879 19.06147c-.13977-.43353-.62384-.65857-1.05188-.50275l-.41498.15106-1.28973.46942c.7746 2.1142 1.21887 4.38763 1.21887 6.77014 0 2.37512-.44159 4.64178-1.21161 6.75043h.00006l1.27185.46289.42554.15491c.42804.15576.91211-.06921 1.05188-.50275.71588-2.22028 1.08124-4.54047 1.08124-6.87671 0-2.33617-.36536-4.65636-1.08124-6.87664z"/><path d="m6.12314 18.76099v.00006l-.55585-.20233c-.42798-.15582-.91205.06921-1.05188.50275-.71588 2.22028-1.08124 4.54047-1.08124 6.87665 0 2.33624.36536 4.65643 1.08124 6.87671.13983.43353.6239.65851 1.05188.50275l.56641-.20618 1.27179-.46289c-.75812-2.09424-1.19287-4.34326-1.19287-6.69916 0-2.36328.43744-4.61914 1.20013-6.71893z"/><path d="m42.01639 39.51002-1.03052-.86469.00006-.00006h-.00006c-2.93231 3.47565-7.04529 5.90814-11.72021 6.7088l.23193 1.31555.09174.52014c.07886.44727.51318.75226.95721.65692 2.28204-.49005 4.47528-1.33398 6.49951-2.50269 2.02429-1.16876 3.85181-2.64618 5.41718-4.37744.30463-.33691.25763-.86548-.09033-1.15741z"/><path d="m10.78873 38.5694-1.0304.86462v.00006l-.44702.37506c-.34796.29193-.39496.8205-.09033 1.15741 1.56537 1.73126 3.39288 3.20868 5.41718 4.37744 2.02423 1.1687 4.21747 2.01263 6.49951 2.50269.44409.09534.87836-.20966.95721-.65692l.09589-.54388.23199-1.31555-.00006.00006c-4.64624-.83392-8.72962-3.2821-11.63397-6.76099z"/></g><path d="m22.01321 4.4798c-.15735-.3252-.50677-.52936-.87555-.4502-2.28204.48999-4.47528 1.33398-6.49951 2.50269-2.02429 1.1687-3.85181 2.64612-5.41718 4.37744-.30463.33685-.25763.86548.09033 1.15741l.43018.36096c-1.55554 1.86322-2.77643 4.00653-3.61835 6.33295l-.55585-.20233c-.42798-.15582-.91205.06921-1.05188.50275-.71588 2.22028-1.08124 4.54047-1.08124 6.87665 0 2.33624.36536 4.65643 1.08124 6.87671.13983.43353.6239.65851 1.05188.50275l.56642-.20618c.8446 2.32324 2.06799 4.46265 3.62463 6.32269l-.44702.37506c-.34796.29193-.39496.8205-.09033 1.15741 1.56537 1.73126 3.39288 3.20868 5.41718 4.37744 2.02423 1.1687 4.21747 2.01263 6.49951 2.50269.44409.09534.87836-.20966.95721-.65692l.09589-.54388c1.21301.2171 2.45569.34943 3.73114.34943 1.22144 0 2.41113-.12622 3.57568-.32568l.09174.52014c.07886.44727.51318.75226.95721.65692 2.28204-.49005 4.47528-1.33398 6.49945-2.50269 2.02441-1.16876 3.85181-2.64618 5.41724-4.37744.30469-.33691.25757-.86548-.09033-1.15741l-.35645-.29913c1.57605-1.86481 2.81873-4.01123 3.67493-6.34735l.42554.15491c.4281.15576.91211-.06921 1.05188-.50275.71582-2.22028 1.0813-4.54047 1.0813-6.87671 0-2.33618-.36548-4.65637-1.0813-6.87665-.13977-.43353-.62378-.65857-1.05188-.50275l-.41492.15106c-.85352-2.33936-2.09375-4.48956-3.6687-6.3576l.3396-.28503c.3479-.29193.39502-.82056.09033-1.15741-1.56543-1.73134-3.39283-3.20875-5.41724-4.37746-2.02417-1.1687-4.21741-2.0127-6.49945-2.50269-.36896-.07922-.71857.12531-.87579.45081l-.11113.41515v-.85402l.62492-2.15561c11.45032 2.01746 20.15186 12.00708 20.15186 24.03589 0 13.48376-10.93079 24.41455-24.41449 24.41455-13.48377 0-24.41455-10.93079-24.41455-24.41455 0-11.97473 8.6236-21.92883 19.99768-24.00836l.61945 2.12811.00001.87553z" fill="#333"/><path d="m25.92182.00004c-14.31622 0-25.92181 11.60559-25.92181 25.92181 0 14.31628 11.60559 25.92181 25.92181 25.92181 14.31629 0 25.92188-11.60553 25.92188-25.92181 0-14.31622-11.60559-25.92181-25.92188-25.92181zm.00006 50.33636c-13.48376 0-24.41455-10.93079-24.41455-24.41455 0-11.97473 8.6236-21.92883 19.99768-24.00836l-.05975-.3017c-.03839-.19482.01483-.39844.14587-.55762.05109-.06213.11694-.10809.18451-.15076 1.34973-.22205 2.73358-.3429 4.14618-.3429 1.33917 0 2.65356.10553 3.93671.30554.08984.04694.16986.10962.23444.18811.13159.15967.1842.36279.14587.55762l-.05432.27417c11.4502 2.01746 20.15186 12.00708 20.15186 24.03589-.00001 13.48377-10.93079 24.41456-24.4145 24.41456z" opacity=".35"/><path d="m44.41947 32.69976c.77002-2.10863 1.2116-4.37528 1.2116-6.75039 0-2.38256-.44427-4.65598-1.21886-6.77016l-.36412.13252c-.30372.11054-.63419-.04423-.75457-.34418-.67615-1.68475-1.58226-3.25033-2.69203-4.65127-.20146-.25432-.17103-.61921.07751-.82777l.29531-.2478c-2.93242-3.46958-7.04183-5.89767-11.71252-6.69662l-.067.37992c-.05634.31945-.35732.5306-.67835.48409-.84835-.12291-1.71214-.19714-2.5946-.19714-.93485 0-1.84994.07971-2.74674.21588-.32229.04894-.62567-.16206-.68226-.4831l-.06627-.37591c-4.64194.83221-8.72169 3.27592-11.62621 6.7488l.29779.24987c.24758.20773.27885.57081.07959.82526-1.09229 1.39481-1.98215 2.95207-2.64729 4.62457-.11972.30104-.45096.45675-.7554.34595l-.36231-.13186c-.7627 2.09978-1.20014 4.35563-1.20014 6.71896 0 2.35588.43475 4.60489 1.19286 6.69912l.36042-.13118c.30473-.1109.63625.0452.75569.34668.66352 1.6749 1.55193 3.23483 2.64358 4.63199.19882.25446.16738.61716-.08.82472l-.29641.2487c2.90434 3.47886 6.98769 5.92703 11.63396 6.76095l.06563-.37221c.05661-.32108.36005-.53205.68238-.48305.8982.13657 1.81478.2164 2.75112.2164.88399 0 1.74925-.07444 2.599-.19773.32107-.04659.62213.16457.67847.48408l.06633.37618c4.67496-.80066 8.78791-3.23314 11.72027-6.70876l-.29388-.24658c-.24836-.20839-.27896-.57291-.07793-.82725 1.10907-1.40324 2.01381-2.97147 2.6883-4.6586.12009-.3004.45085-.45557.75486-.34492z" fill="#424242"/><g fill="#00b915"><path d="m22.1245 4.9171h7.43512v13.24099h-7.43512z"/><path d="m30.093 1.05418c-.12616-.15332-.30927-.25098-.5155-.27539-1.23163-.14453-2.48846-.21826-3.73541-.21826-1.24756 0-2.50439.07373-3.73492.21826-.20673.02441-.38989.12207-.51599.27539-.13104.15918-.18427.36279-.14587.55762l.6792 2.42969h7.43512l.67926-2.42969c.03831-.19482-.0143-.39795-.14589-.55762z" opacity=".58"/><path d="m22.1245 4.04154h7.43512v.87556h-7.43512z" opacity=".58"/></g></g></svg>