<svg clip-rule="evenodd" fill-rule="evenodd" height="2.0248mm" image-rendering="optimizeQuality" shape-rendering="geometricPrecision" text-rendering="geometricPrecision" viewBox="0 0 54.38 27.35" width="4.0252mm" xmlns="http://www.w3.org/2000/svg"><path d="m6.19 0h42.01l6.19 6.19v14.98l-6.19 6.19h-42.01l-6.19-6.19v-14.98l6.19-6.19zm21.9 11.41c-.84 0-1.48.21-1.48.21l.21-1.06h5.49v-4.43h-9.5l-1.06 6.97 2.54 1.69s.85-.42 1.69-.42c.95 0 1.48.53 1.48 1.27s-.53 1.27-1.48 1.27c-1.48 0-2.75-1.16-2.75-1.16l-2.01 3.17s1.9 2.32 5.91 2.32c3.7 0 6.02-2.32 6.02-4.96 0-2.75-2.11-4.86-5.07-4.86z" fill="#868686"/></svg>