<svg clip-rule="evenodd" fill-rule="evenodd" height="2.0248mm" image-rendering="optimizeQuality" shape-rendering="geometricPrecision" text-rendering="geometricPrecision" viewBox="0 0 54.38 27.35" width="4.0252mm" xmlns="http://www.w3.org/2000/svg"><path d="m6.19 0h42.01l6.19 6.19v14.98l-6.19 6.19h-42.01l-6.19-6.19v-14.98l6.19-6.19zm22.06 15.16c0 1.06-1.06 2.11-2.75 2.11-1.27 0-2.32-.63-2.32-.63l-1.48 3.38s1.9 1.37 4.86 1.37c3.8 0 6.97-3.17 6.97-7.71 0-4.96-2.75-7.71-6.76-7.71-3.59 0-5.91 2.32-5.91 5.39 0 2.96 1.9 4.86 4.86 4.86 1.69 0 2.54-1.06 2.54-1.06zm-2.54-3.8c0-.95.53-1.48 1.06-1.48s1.06.53 1.06 1.48-.53 1.48-1.06 1.48-1.06-.53-1.06-1.48z" fill="#868686"/></svg>