<svg enable-background="new 0 0 43.34375 43.34759" height="43.34759" viewBox="0 0 43.34375 43.34759" width="43.34375" xmlns="http://www.w3.org/2000/svg"><path d="m37.72754 21.66678c0-.74744-.05223-1.49407-.15623-2.23426l-.46196.06491c-.42097.05915-.82649-.21467-.90578-.63232-.2327-1.22567-.61187-2.39865-1.12633-3.49692-.17553-.37471-.01217-.82189.35318-1.01615l.41795-.22223c-1.14496-2.1533-2.76559-4.0177-4.73862-5.45115s-4.24691-2.39869-6.64868-2.82219l-.08354.47381c-.07279.41286-.45513.70124-.87081.64675-.60056-.07873-1.21129-.12438-1.8334-.12438-.62217 0-1.23291.04564-1.83348.12438-.41567.05449-.79801-.23388-.8708-.64674l-.08353-.47376c-2.4017.42343-4.67565 1.38867-6.64861 2.82211-1.97303 1.43352-3.59373 3.29785-4.73863 5.45115l.41788.22218c.36535.19426.52872.64144.3532 1.01615-.51444 1.09827-.89364 2.27128-1.12635 3.49696-.07929.41765-.48482.69147-.90579.63231l-.46188-.0649c-.104.74019-.15623 1.48682-.15623 2.23426 0 4.15943 1.61639 8.16021 4.50578 11.15226l.34518-.33334c.29926-.289.77768-.30631 1.08144-.02205.89507.83764 1.8949 1.56247 2.977 2.15886.36765.20263.50057.667.31655 1.0443l-.20947.42946c2.19197 1.06903 4.59898 1.62473 7.03774 1.62473s4.84578-.55569 7.03768-1.62472l-.20944-.42945c-.18401-.37731-.05107-.84168.31658-1.04431 1.08207-.59638 2.08184-1.32118 2.97692-2.15884.30377-.28428.78221-.26698 1.0815.02202l.3452.33334c2.88931-2.99202 4.50578-6.9928 4.50578-11.15223z" fill="#424242"/><g opacity=".32"><path d="m35.07726 15.36815c.04679.09983.07708.20819.12159.30923.14723.333.27842.67393.40088 1.01941.0805.22807.1577.45647.22719.6895.11964.39947.22363.80524.31031 1.21801.01846.08842.04948.1718.0664.26076.07929.41766.4848.69151.90575.63237l.46197-.06492c.00034.00228.0004.0047.00074.00698l1.188-.16697c-.28184-2.03708-.90555-3.96352-1.83345-5.70896l-1.08508.57698c.00208.00389.00477.00732.00685.01121l-.4987.26519c-.30098.21512-.43277.60888-.27245.95121z"/><path d="m6.2372 19.49735c.42102.05922.82653-.21464.90582-.6323.01692-.08902.048-.17241.06647-.26083.08641-.41169.1902-.81632.30944-1.21478.07002-.23505.14777-.46539.22901-.69541.12226-.34462.25304-.6848.39994-1.017.04451-.10098.07479-.20913.12152-.3089.16032-.3424.0286-.73609-.27244-.95127l-.49863-.26513c.00208-.00389.00477-.00732.00685-.01121l-1.08507-.57698c-.92791 1.74544-1.55161 3.67188-1.83346 5.70902l1.188.16697c.00034-.00235.0004-.0047.00074-.00705z"/><path d="m14.84507 35.66678c.17979-.36865.05331-.81673-.29534-1.02633-1.09481-.60196-2.10348-1.33375-3.00701-2.1823-.28265-.25707-.70467-.24989-1.00196-.0188l-.41585.40162c-.00248-.00255-.00457-.0055-.00705-.00806l-.84996.82075c1.39115 1.43802 3.03172 2.62521 4.84933 3.5125l.52125-1.06869c-.00094-.00047-.00195-.00074-.00289-.00121z"/><path d="m31.80397 32.45816c-.90347.84848-1.91214 1.58035-3.00688 2.18223-.34871.20953-.47533.65775-.29554 1.02639l.20947.42948c-.00094.00047-.00195.00074-.00289.00121l.52125 1.0687c1.81761-.88729 3.45825-2.07448 4.8494-3.51249-.24049-.23216-.51937-.50152-.84996-.82076-.00249.00262-.00457.00544-.00705.00806l-.41577-.40155c-.29715-.23115-.71938-.2384-1.00203.01873z"/></g><path d="m5.77457 19.43957c-.10326.73784-.15549 1.48212-.15549 2.22721 0 4.15943 1.61639 8.16021 4.50578 11.15226l-1.03009.97994c-.32024.30923-.84163.30084-1.13637-.03276-2.94672-3.33619-4.58407-7.64494-4.58406-12.11427 0-.58215.02773-1.16389.08318-1.74315.0423-.44176.45667-.75268.89615-.69091z" opacity=".4"/><path d="m28.71096 36.0963c-2.1919 1.06903-4.59891 1.62472-7.03767 1.62472-2.43769 0-4.84349-.55537-7.03479-1.62352l-.63042 1.2705c-.19524.40034-.02612.89407.38255 1.07138 2.29576.99591 4.77447 1.5116 7.28272 1.5116 2.50818 0 4.9869-.51568 7.28273-1.51159.4086-.17731.57772-.67104.38248-1.07138l-.62753-1.27172c-.00094.00047-.00195.00074-.00289.00121" opacity=".4"/><path d="m33.22173 32.81906c2.88932-2.99204 4.50579-6.99282 4.5058-11.15225 0-.74744-.05223-1.49407-.15623-2.23426l1.4217-.2147c.43948-.0617.85392.24922.89615.69098.05545.57926.08325 1.16094.08325 1.74315 0 4.46933-1.63742 8.77808-4.58414 12.1142-.29467.33367-.81478.34334-1.13496.0341z" opacity=".4"/><path d="m10.86694 9.79817c.39947-.36388.82089-.70441 1.25688-1.0272.03921-.029.07365-.06338.11313-.09211.47936-.34831.97792-.66654 1.49032-.95845.44431-.2519.90374-.47399 1.36947-.68158.06351-.02873.12347-.06472.18731-.09238 1.06574-.45922 2.18129-.80243 3.32699-1.02505.09252-.01799.18167-.04834.27459-.06472l.01037-1.23827c-.0004-.00242.0004.00242 0 0l-.27596-.2307c-.09755-.41276-.50091-.69125-.91951-.59833-2.44373.54354-4.75312 1.58337-6.78309 3.05824-.00275.00215-.00517.00457-.00792.00644-.00195.00161-.0041.00269-.00604.00403-2.02983 1.47487-3.7327 3.34962-5.00482 5.50607-.21779.36926-.07734.83895.28493 1.05943l.04377.01423c.00188.00107.00295.00295.00483.00376l1.26608.68829c.04283-.08057.09735-.15361.14153-.23337l.00013.00027c.56744-1.02452 1.2411-1.98297 2.00969-2.85763.02826-.03169.06089-.05989.08943-.09158.35756-.40041.73118-.78658 1.12789-1.14939z" opacity=".4"/><path d="m37.43394 12.35369c-.8215-1.39243-1.83923-2.65139-2.99211-3.77715-.048-.047-.0942-.0956-.14267-.14179-.34253-.32736-.69937-.63807-1.06721-.93831-.07674-.06284-.15327-.12541-.23109-.18691-.19241-.152-.37288-.31743-.57161-.46191-.17684-.12837-.36697-.23471-.54798-.35663-.08493-.0572-.1714-.11172-.25734-.16757-.3941-.25566-.7935-.50004-1.20505-.72428-.06586-.03572-.13394-.06767-.20027-.10285-1.44291-.76322-2.97392-1.35134-4.57239-1.7069-.21316-.04726-.42115.00322-.58806.11709-.18275.11601-.32132.30212-.3618.53173l-.24875.15394.01364 1.26453c.08909.01558.17657.03921.26539.0564v.00591c1.70475.33085 3.34149.93133 4.84812 1.77941.12273.06929.23827.14985.35898.22236.34562.20678.68682.42162 1.01673.65526.1671.11843.32629.24707.48869.37194.28923.22209.57295.45036.84559.69098.16409.14475.32394.29379.48205.44526.25694.24599.50407.50138.74381.76375.14428.15791.28957.31474.42767.47829.247.29299.47815.5986.70374.90877.10735.14743.22142.2895.32394.44096.31716.46916.61538.95174.88239 1.45393h.00007.00007l1.25198-.67782c.00376-.00188.00578-.00564.00947-.00779l.00463-.00269c.39241-.20841.54522-.70523.31937-1.08791z" opacity=".4"/><path d="m24.84973 1.6864-.4021 2.03015v.625l-.00002.25058.2488-.1539c.00494-.02832.02252-.05005.03033-.0769.04785-.20251.17072-.34497.33173-.45483.16534-.10474.36633-.15283.57202-.10718.56805.12646 1.12982.27954 1.68359.45947 1.00897.32788 1.97754.74658 2.90332 1.23694.06689.03552.13544.06738.2019.10364.41168.22461.81134.46863 1.20349.72351.08655.05603.17377.11121.25934.16858.38336.25867.75623.53174 1.11853.81812.07794.06152.1546.12402.23151.18677.36682.2998.72437.61084 1.06702.93848.04852.04614.09473.09473.1427.14172 1.14612 1.11926 2.15192 2.38757 2.97687 3.78552.22412.37964.07587.86975-.30872 1.08228l-.18329.09741c.00037.00073.00067.00134.00104.0022-.01422.00745-.02789.01465-.0415.02197.93774 1.76758 1.55988 3.6947 1.8421 5.69751l.24652-.03467c.4411-.06201.85834.25146.9007.69482.17578 1.84192.06714 3.69702-.31268 5.50342-.01569.07434-.03461.14795-.05127.22205-.11365.50891-.24969 1.01318-.40698 1.51208-.03442.10913-.07031.21704-.10669.32532-.15643.4657-.33276.92297-.52539 1.37317-.04962.11536-.09747.23193-.14948.34631-.20258.44739-.42596.8844-.66345 1.31323-.05536.09998-.10608.20227-.16333.30139-.27124.46875-.56494.92456-.87689 1.36792-.03369.04785-.06287.09827-.09705.14575-.35791.49854-.74017.98047-1.14777 1.44189-.07001.07922-.15417.13721-.24408.17993-.28546.12842-.63739.07568-.8772-.15576-.05103-.04932-.11761-.11353-.1745-.1687-.00397.00439-.00854.00781-.01251.01196l-.00793-.00757c-.69843.72266-1.45416 1.38037-2.25793 1.96765-.80743.58362-1.66711 1.09949-2.57098 1.54065l.00494.01025c-.00519.00244-.00995.00537-.01514.00806l.10553.21631c.1463.2998.08783.6521-.1225.88416-.0683.07227-.14935.13428-.24622.17639-.56573.24524-1.14301.46033-1.72864.64697-.05029.01611-.10187.02686-.15228.04248-.52356.16187-1.05347.30176-1.58905.41565-.10803.02307-.21722.03918-.32562.06042-.48499.09424-.97321.17212-1.46509.22693-.12268.01379-.24567.02307-.36853.0343-.48981.04443-.98181.07104-1.47534.07581-.11224.0011-.22437.00159-.33661.00085-.52509-.00464-1.04852-.03125-1.56927-.08057-.0744-.00708-.14886-.0116-.22314-.01929-1.83582-.19702-3.63416-.66724-5.33185-1.40356-.40869-.17749-.57782-.67114-.38257-1.07153l.10919-.22363c-1.81763-.88721-3.45819-2.07446-4.84937-3.5127l-.03375.03284c-.00055-.00061-.00122-.0011-.00177-.00159l-.1474.14233c-.32098.30078-.83453.29163-1.12659-.03906-1.07404-1.21582-1.96912-2.56372-2.67938-3.9989-.03027-.06116-.06268-.12109-.09229-.18262-.20532-.42664-.39044-.86255-.56195-1.30359-.03595-.09253-.07184-.18494-.10638-.27808-.16028-.43296-.30487-.87181-.43213-1.31651-.0285-.09937-.05383-.19958-.08057-.29944-.12097-.45142-.22955-.90625-.3158-1.36694-.0141-.0752-.0235-.15112-.03668-.22632-.17993-1.03149-.27881-2.08154-.27881-3.14185 0-.58215.02771-1.16382.08319-1.74316.02008-.20972.12787-.38574.2785-.51074.15424-.11914.35278-.18384.5603-.16675l-.02521-.0083c.02808.0011.05414-.00916.08252-.00513l.23297.03271c.28186-2.03687.90558-3.96338 1.83344-5.70898l-.18785-.09985c-.39246-.2085-.54523-.70532-.31946-1.08789 1.27039-2.15332 2.97076-4.02588 4.99701-5.49976 2.02838-1.47266 4.33545-2.51147 6.77667-3.0542.43384-.09644.85895.20227.93604.64001l-.00253-.05211.27596.2307v-.2771-.625l-.40601-2.05005c-8.28173 1.30946-14.89434 7.62635-16.62725 15.76051-.04242.20471-.07489.41284-.11102.61987-.21252 1.17627-.34088 2.38232-.34088 3.62012 0 8.38037 5.08807 15.57043 12.34265 18.65454.13031.0542.26715.09814.39911.15002.41028.16418.82526.31909 1.24829.45691 5.48834 1.74902 11.16858 1.02551 15.86011-1.53784.08313-.04456.16284-.09399.24518-.13989.43469-.24536.86304-.5 1.27899-.77686.24738-.16284.48431-.33813.724-.51111.24103-.17615.48328-.34875.71655-.53577.38989-.30859.76233-.63538 1.12811-.97095.07092-.06616.14453-.12817.21454-.19507 3.89844-3.68091 6.34668-8.87842 6.36456-14.65906-.03198-10.07689-7.42749-18.39049-17.08319-19.91527z" fill="#333"/><path d="m21.67188 0c-11.96906 0-21.67188 9.70288-21.67188 21.67175 0 11.96924 9.70282 21.672 21.67188 21.672 11.96899 0 21.67181-9.70276 21.67181-21.672 0-11.96887-9.70282-21.67175-21.67181-21.67175zm0 41.93286c-11.18988 0-20.26105-9.07104-20.26105-20.26111 0-10.10559 7.40668-18.45886 17.08276-19.98743l-.10474-.52869c-.02863-.14551.01111-.29749.10895-.41638.09418-.1145.2309-.18738.38531-.20557.91876-.10791 1.85724-.16309 2.78876-.16309.93103 0 1.86951.05518 2.78912.16309.15399.01819.29071.09106.38489.20557.09827.11926.13757.271.10895.41638l-.10473.5287c9.67609 1.52856 17.08276 9.88184 17.08276 19.98743 0 11.19006-9.07117 20.2611-20.26098 20.2611z" opacity=".35"/><g fill="#00acb9"><path d="m18.896 4.59213h5.55161v9.97181h-5.55161z"/><path d="m24.95479 1.15563c.02866-.14547-.01064-.29714-.10891-.41636-.09417-.11448-.23093-.1874-.38488-.20563-.91962-.10792-1.85808-.16297-2.78917-.16297-.9315 0-1.86995.05505-2.78876.16297-.15436.01823-.29112.09115-.38529.20563-.09786.11885-.13757.27089-.10891.41636l.50715 2.56094v-.00511h5.55161v.00511z" opacity=".58"/><path d="m18.896 3.71657h5.55161v.87556h-5.55161z" opacity=".48"/></g></svg>