<svg clip-rule="evenodd" fill-rule="evenodd" height="2.0248mm" image-rendering="optimizeQuality" shape-rendering="geometricPrecision" text-rendering="geometricPrecision" viewBox="0 0 103.49 52.06" width="4.0252mm" xmlns="http://www.w3.org/2000/svg"><path d="m11.78 0h79.94l11.78 11.78v28.51l-11.78 11.78h-79.94l-11.78-11.78v-28.51l11.78-11.78zm22.8 27.26c-.71 1.21-2.29 1.61-3.5.9-1.22-.72-1.62-2.29-.9-3.5l12.27-20.73 11.52 20.92 7.68 12.98 7.21-13.09c.68-1.24 2.23-1.69 3.48-1.02 1.24.68 1.69 2.24 1.01 3.48l-11.53 20.95-12.28-20.73-.04-.07-7.21-13.1-7.71 13.02z" fill="#868686"/></svg>