<svg clip-rule="evenodd" fill-rule="evenodd" height="2.0248mm" image-rendering="optimizeQuality" shape-rendering="geometricPrecision" text-rendering="geometricPrecision" viewBox="0 0 54.38 27.35" width="4.0252mm" xmlns="http://www.w3.org/2000/svg"><path d="m6.19 0h42.01l6.19 6.19v14.98l-6.19 6.19h-42.01l-6.19-6.19v-14.98l6.19-6.19zm13.35 6.13-3.59 1.48v4.65l3.17-1.06v9.71h5.49v-14.78zm18.27 4.43v-4.43h-10.35v4.43h4.86l-2.53 1.69v2.75h1.8c.74 0 1.16.42 1.16.95s-.42.95-1.16.95c-1.8 0-3.06-1.16-3.06-1.16l-2.01 3.17s1.9 2.32 5.91 2.32c3.7 0 6.02-2.32 6.02-4.65 0-3.48-3.59-4.12-3.59-4.12l2.96-1.9z" fill="#868686"/></svg>