<svg clip-rule="evenodd" fill-rule="evenodd" height="2.0248mm" image-rendering="optimizeQuality" shape-rendering="geometricPrecision" text-rendering="geometricPrecision" viewBox="0 0 100.91 50.76" width="4.0252mm" xmlns="http://www.w3.org/2000/svg"><path d="m11.48 0h77.95l11.48 11.48v27.8l-11.48 11.48h-77.95l-11.48-11.48v-27.8zm19.37 25.38c0 2.74-1.96 4.7-4.31 4.7s-4.31-1.96-4.31-4.7 1.96-4.7 4.31-4.7 4.31 1.96 4.31 4.7zm10.98 0c0-8.04-6.27-14.31-15.29-14.31s-15.29 6.27-15.29 14.31c0 8.03 6.27 14.3 15.29 14.3s15.29-6.27 15.29-14.3zm3.92-13.72v27.43h10.19v-7.84h8.23v-7.84h-8.23v-3.13h10.19v-8.62zm23.52 0v27.43h10.19v-7.84h8.23v-7.84h-8.23v-3.13h10.19v-8.62z" fill="#868686"/></svg>